<?xml version="1.0" encoding="UTF-8"?>
<svg id="Layer_1" data-name="Layer 1" xmlns="http://www.w3.org/2000/svg" viewBox="0 0 841.89 595.28">
  <defs>
    <style>
      .cls-1 {
        fill: #5c4833;
        stroke-width: 0px;
      }
    </style>
  </defs>
  <g>
    <g>
      <path class="cls-1" d="M274.88,321.92c6.9.21,14.53-1.03,20.2-3.61,4.95-2.27,7.73-8.55,2.16-12.67-3.61-2.78-15.15-5.36-19.58-5.98-1.75,2.06-13.09,18.34-16.59,26.07-1.24,2.68-2.37,3.09-1.34-.21,1.75-5.56,10.51-19.27,15.04-26.17-.93-.21-1.55-.31-2.47-.72-2.27-.82-1.85-2.78-.93-2.89,1.24-.1,4.12-.31,5.87-.82,6.18-8.45,11.95-18.96,14.74-24.94.62-1.24,1.55-4.22-.31-4.53-1.65-.31,6.59-4.84,5.87-.62-1.03,5.87-13.5,24.94-16.69,29.78,5.87-1.03,28.34-6.29,36.37-12.98,5.15-4.22,10.1-11.85,1.55-18.24-12.78-9.58-30.81-11.54-47.5-11.85-3.81-.1-25.97-1.55-31.53,9.38-2.16,4.22,4.33,9.17,6.8,10.51,2.06,1.13,1.96,2.78-.52,1.24-4.64-2.89-12.26-7.32-9.07-12.98,5.15-9.27,32.36-10,34.11-10,18.65.31,34.93,1.24,49.46,11.33,9.48,6.59,7.01,15.97-1.75,21.85-10.61,7.21-26.89,11.13-36.06,12.67-1.75.31-1.75,1.44-.1,1.65,8.55,1.13,15.97,5.36,18.24,7.62,6.39,6.29-.41,11.44-5.05,14.63-4.64,3.2-11.54,5.05-20.2,4.53-4.43-.31-2.47-2.16-.72-2.06Z"/>
      <path class="cls-1" d="M259.56,328.88c-.15,0-.29-.03-.44-.09-1.3-.5-.68-2.5-.34-3.57,1.66-5.29,9.4-17.59,14.38-25.23-.39-.11-.79-.25-1.26-.46-1.83-.66-2.37-2.06-2.25-3.05.11-.93.78-1.65,1.62-1.74l.32-.03c1.17-.1,3.51-.29,5.06-.68,5.8-7.98,11.53-18.25,14.43-24.49.56-1.13.85-2.56.61-3.02-.02-.04-.04-.08-.18-.1-.82-.15-1.14-.81-1.03-1.38.26-1.44,4.25-3.32,6.27-2.96,1.07.19,2.11,1.05,1.79,2.91-.89,5.1-9.6,19.08-15.54,28.18,8.54-1.77,26.8-6.65,33.6-12.32,1.79-1.47,5.92-5.35,5.82-9.81-.06-2.5-1.48-4.8-4.23-6.86-13.07-9.8-31.94-11.37-46.92-11.65l-.79-.03c-20.54-.75-27.56,4.4-29.83,8.86-1.75,3.42,4.07,7.92,6.39,9.18,1.24.68,1.97,1.58,1.97,2.42,0,.49-.25.91-.66,1.14-.67.37-1.6.17-2.83-.6l-.52-.33c-4.65-2.88-12.43-7.7-8.88-14,5.68-10.22,34.69-10.5,34.98-10.5,19.43.32,35.44,1.37,50.03,11.51,5.4,3.76,6.51,7.93,6.48,10.77-.04,4.6-3.05,9.24-8.25,12.73-11.51,7.82-29.04,11.51-35.5,12.66,8.13,1.34,15.31,5.34,17.72,7.75,2.1,2.06,3.07,4.24,2.87,6.45-.34,3.89-4.08,6.97-8.06,9.71-5.12,3.53-12.52,5.2-20.82,4.71-2.5-.17-3.72-.89-3.64-2.13.08-1.23,1.66-2,3.02-1.92,7.05.21,14.43-1.11,19.74-3.52,2.52-1.16,4.38-3.49,4.62-5.8.2-1.95-.71-3.73-2.64-5.16-3.13-2.42-13.39-4.91-18.56-5.71-2.44,3.16-12.76,18.03-16.1,25.41-.86,1.86-1.62,2.73-2.42,2.73ZM275.07,322.93c.18.02.38.04.6.06,5.67.34,10.87-.38,15.11-2.03-4.77,1.4-10.34,2.11-15.72,1.98ZM277.25,298.6l.54.08c3.77.52,16.02,3.06,20.05,6.17,2.48,1.83,3.7,4.31,3.42,6.96-.08.77-.28,1.53-.6,2.26.99-1.17,1.65-2.4,1.76-3.68.14-1.61-.61-3.2-2.29-4.86-2.02-2.02-9.26-6.23-17.67-7.35-1.51-.19-2.07-1.02-2.09-1.73,0-.25.06-.52.21-.78l-1.85.32,1.28-1.94c9.71-14.72,15.9-25.71,16.54-29.4.07-.42,0-.55,0-.55h0s-.14-.1-.62-.06c-.93.08-2.09.6-2.84,1.05.15.15.28.33.38.53.89,1.74-.44,4.49-.59,4.8-3.06,6.58-8.85,16.91-14.82,25.08l-.2.27-.32.1c-1.72.51-4.36.72-5.78.84h-.11c0,.05,0,.12.02.2.1.3.46.58.99.77.78.34,1.27.45,2,.61l1.76.39-.79,1.21c-1.99,3.02-4.57,7.02-7.03,11.05,3.69-5.66,7.29-10.73,8.32-11.94l.36-.42ZM282.43,251.05c12.76.99,26.55,3.75,36.94,11.55,3.27,2.44,4.96,5.27,5.03,8.42.11,4.77-3.59,8.79-5.82,10.77,4.42-3.08,6.96-7.01,6.99-10.83.03-3.38-1.92-6.53-5.63-9.11-11.21-7.79-23.42-10.04-37.52-10.8ZM242.43,256.15c-2.09,1.11-3.72,2.44-4.6,4.02-1.51,2.68-.14,5.06,2.49,7.33-1.7-2.15-2.68-4.67-1.47-7.04.84-1.64,2.03-3.08,3.58-4.32Z"/>
    </g>
    <g>
      <path class="cls-1" d="M350.61,299.26c-4.64.72-19.99.72-28.23.72-3.09,4.12-7.32,10.3-7.73,16.8-.31,6.08,3.4,7.52,6.9,7.11,4.53-.52,10.2-2.78,13.91-4.95,1.13-.62,1.96-.1.82.72-2.89,2.06-8.76,5.56-13.81,6.49-4.12.72-10.51-4.02-10.3-9.38.72-15.04,17.1-31.74,26.69-35.34,5.15-1.96,8.45,5.15,6.18,9.17-2.16,3.81-7.93,6.59-14.73,7.62,7.52,0,15.87,0,20.3-.52,2.89-.31,6.18-2.16,7.83-3.61.62-.93,1.44-.52.72.41-1.34,1.44-4.74,4.23-8.55,4.74ZM338.66,285.14c-5.05,2.89-10.51,8.04-15.15,13.09,7.21,0,15.77-3.61,19.06-8.55,2.89-4.43.21-6.8-3.92-4.53Z"/>
      <path class="cls-1" d="M321.61,327.22c-2.15,0-4.63-1.04-6.71-2.85-2.47-2.16-3.83-4.94-3.72-7.63.72-15.09,17.08-32.38,27.33-36.24,2.33-.89,4.63-.28,6.29,1.65,2.12,2.47,2.6,6.31,1.11,8.95-1.41,2.48-4.2,4.6-7.92,6.11,4.96-.04,9.61-.15,12.5-.49,2.51-.27,5.55-1.88,7.2-3.29.43-.58,1.02-.89,1.59-.84.47.04.86.32,1.05.75.14.31.27.96-.38,1.79-1.56,1.69-5.18,4.57-9.2,5.12-4.63.72-19.5.73-27.88.73-3.23,4.36-6.86,10.02-7.23,15.86-.12,2.29.37,3.96,1.45,4.97,1.32,1.23,3.28,1.21,4.34,1.08,4.52-.51,10.05-2.79,13.52-4.82,1.12-.61,2.21-.51,2.68.22.12.19.63,1.16-.76,2.17-3.53,2.52-9.37,5.78-14.22,6.67-.34.06-.69.09-1.05.09ZM319.79,324.92c.9.28,1.77.38,2.52.24,1.52-.28,3.15-.81,4.78-1.49-1.84.57-3.7,1.01-5.42,1.2-.65.08-1.28.09-1.88.04ZM340.6,282.09c-.42,0-.88.08-1.38.27-9.77,3.68-25.36,20.13-26.04,34.46-.04,1.02.21,2.08.71,3.09-.22-.94-.3-2.01-.24-3.19.42-6.56,4.46-12.72,7.93-17.34l.11-.15h-.46l1.54-1.68c5.75-6.26,10.93-10.73,15.39-13.28h.01c2.17-1.2,4.21-1.32,5.47-.36-.11-.16-.23-.32-.36-.46-.58-.67-1.47-1.36-2.69-1.36ZM330.25,298.33c-1.06.27-2.15.49-3.23.64,1.05,0,2.15,0,3.27-.01l-.05-.63ZM339.15,286.01c-3.78,2.16-8.32,5.97-13.2,11.08,6.42-.7,13.15-4.01,15.8-7.97,1.15-1.77,1.23-3.05.79-3.53-.43-.46-1.67-.52-3.38.42ZM344.74,286.98c-.13.99-.57,2.09-1.32,3.24-1.12,1.68-2.83,3.24-4.9,4.57,2.66-1.27,4.65-2.88,5.67-4.68.49-.88.67-2,.56-3.13Z"/>
    </g>
    <g>
      <path class="cls-1" d="M353.7,291.01v-.31c25.45-57.7,52.65-87.48,81.82-89.23,10-.62,18.86,2.47,26.38,8.96,7.73,6.49,11.33,13.81,10.51,22.05-.21,2.58-1.03,5.15-2.27,7.63-6.49,12.37-24.01,23.91-52.66,34.83-19.58,7.42-39.77,13.19-60.59,17.11-2.27,6.39-4.02,14.12-4.22,19.68-.31,12.88,8.55,10.51,15.15,5.77,2.58-1.86,1.85,0,.82.93-9.58,8.55-19.78,8.35-20.2-4.43-.31-7.11,1.85-15.04,5.26-22.98ZM469.73,230.73c.82-7.21-2.37-13.7-9.17-19.27-6.9-5.77-15.25-8.55-25.04-8.14-16.49.62-33.39,13.29-50.59,37.3-10.3,14.43-19.17,30.29-26.69,47.81h.1c-.31.72-.52,1.34-.93,2.06,25.04-5.15,47.4-11.95,66.98-20.51,23.49-10.3,38.02-21.23,43.59-32.66,1.03-2.16,1.54-4.33,1.75-6.59Z"/>
      <path class="cls-1" d="M356.4,325.3c-1.23,0-2.39-.22-3.44-.67-2.39-1.03-5.29-3.7-5.52-10.61-.28-6.55,1.48-14.36,5.25-23.22v-.32l.08-.19c12.72-28.84,26.08-51.01,39.69-65.87,13.75-15.01,28.21-23.07,42.98-23.96,10.16-.63,19.29,2.47,27.09,9.21,8.04,6.75,11.7,14.46,10.85,22.91-.2,2.55-1,5.24-2.37,7.97-6.64,12.65-24.04,24.2-53.19,35.32-19.71,7.47-39.96,13.21-60.19,17.05-2.24,6.46-3.79,13.8-3.98,18.84-.07,2.96.35,6.76,2.76,8.04,2.33,1.23,6.37.07,10.8-3.12.72-.52,2.22-1.6,3.08-.54.78.97-.31,2.4-1,3.02-4.48,4-9.07,6.14-12.91,6.14ZM354.7,290.91v.3l-.08.19c-3.71,8.65-5.45,16.24-5.18,22.54.15,4.65,1.64,7.7,4.3,8.84,2.35,1.01,5.54.48,8.94-1.35-2.38.89-5.01,1.27-7.19.12-2.67-1.41-3.95-4.73-3.83-9.87.2-5.43,1.82-13.03,4.24-19.87l-.47.1,1.1-1.92c.11-.19.2-.38.29-.56h-.12l.6-1.39c7.49-17.45,16.51-33.6,26.79-48,12.62-17.6,25.12-29.11,37.34-34.39-23.38,9.2-45.77,37.77-66.75,85.26ZM359.76,287.44h.1l-.6,1.39c-.04.1-.08.19-.12.29,24.29-5.11,46.1-11.85,64.85-20.04,23.14-10.15,37.64-20.98,43.09-32.19.92-1.92,1.44-3.91,1.66-6.25v-.02c.78-6.78-2.19-12.96-8.81-18.38-6.76-5.65-14.96-8.3-24.36-7.92-15.95.6-32.71,13.01-49.82,36.88-9.93,13.9-18.66,29.44-25.98,46.23ZM470.73,230.83c-.23,2.54-.84,4.81-1.84,6.92-5.67,11.66-20.5,22.81-44.09,33.15-.75.33-1.5.65-2.25.97,25.12-10.17,40.82-21,46.72-32.23,1.24-2.48,1.97-4.93,2.16-7.24.41-4.12-.3-7.98-2.16-11.64,1.38,3.19,1.88,6.55,1.48,10.07Z"/>
    </g>
    <g>
      <path class="cls-1" d="M392.65,257.32c6.59-10.1,15.66-20.4,25.04-31.32.52-.62,2.47-1.44,5.77-2.68,3.3-1.13,4.22-1.75,5.87-1.75.82,0,1.13.41,1.13.93,0,.41-.31.52-1.03.72-6.49,1.34-17.11,12.16-32.05,32.66-8.35,12.36-14.12,22.36-20.2,36.17-2.27,6.39-4.02,14.12-4.22,19.68-.31,12.88,8.55,10.51,15.15,5.77,2.58-1.86,1.85,0,.82.93-9.58,8.55-19.78,8.35-20.2-4.43-.82-18.03,13.5-40.6,23.91-56.67Z"/>
      <path class="cls-1" d="M376.7,325.3c-1.23,0-2.39-.22-3.44-.67-2.39-1.03-5.29-3.7-5.52-10.61-.86-18.75,14.14-41.92,24.07-57.25h0c6.05-9.26,14.11-18.63,22.64-28.55l2.48-2.88c.6-.72,2.04-1.41,6.18-2.96,1-.34,1.77-.63,2.41-.88,1.55-.59,2.48-.94,3.82-.94,1.47,0,2.13.97,2.13,1.93,0,1.18-1.01,1.47-1.76,1.68-6.26,1.29-16.84,12.15-31.51,32.29-8.9,13.18-14.35,22.94-20.09,35.98-2.31,6.52-3.95,14.13-4.14,19.32-.07,2.96.35,6.76,2.76,8.04,2.33,1.23,6.37.07,10.8-3.12.72-.52,2.22-1.6,3.08-.54.78.97-.31,2.4-1,3.02-4.48,4-9.07,6.14-12.91,6.14ZM393.49,257.86c-9.79,15.12-24.57,37.96-23.74,56.08.15,4.65,1.64,7.71,4.3,8.85,2.35,1.01,5.54.48,8.94-1.35-2.38.89-5.01,1.27-7.19.12-2.67-1.41-3.95-4.73-3.83-9.87.2-5.46,1.84-13.12,4.28-19.99,5.82-13.23,11.32-23.07,20.31-36.39,12.97-17.81,22.65-28.29,29.43-31.86-.61.23-1.32.5-2.21.8-1.31.49-4.87,1.83-5.33,2.37l-2.49,2.9c-8.49,9.87-16.51,19.19-22.48,28.34Z"/>
    </g>
    <g>
      <path class="cls-1" d="M427.27,299.26c-4.64.72-19.99.72-28.23.72-3.09,4.12-7.32,10.3-7.73,16.8-.31,6.08,3.4,7.52,6.9,7.11,4.53-.52,10.2-2.78,13.91-4.95,1.13-.62,1.96-.1.82.72-2.89,2.06-8.76,5.56-13.81,6.49-4.12.72-10.51-4.02-10.3-9.38.72-15.04,17.1-31.74,26.69-35.34,5.15-1.96,8.45,5.15,6.18,9.17-2.16,3.81-7.93,6.59-14.73,7.62,7.52,0,15.87,0,20.3-.52,2.89-.31,6.18-2.16,7.83-3.61.62-.93,1.44-.52.72.41-1.34,1.44-4.74,4.23-8.55,4.74ZM415.32,285.14c-5.05,2.89-10.51,8.04-15.15,13.09,7.21,0,15.77-3.61,19.06-8.55,2.89-4.43.21-6.8-3.92-4.53Z"/>
      <path class="cls-1" d="M398.27,327.22c-2.15,0-4.63-1.04-6.71-2.85-2.47-2.16-3.83-4.94-3.72-7.63.72-15.09,17.08-32.38,27.33-36.24,2.33-.89,4.63-.28,6.29,1.65,2.12,2.47,2.6,6.31,1.11,8.95-1.41,2.48-4.2,4.6-7.92,6.11,4.96-.04,9.61-.15,12.5-.49,2.51-.27,5.55-1.88,7.2-3.29.43-.58,1.02-.9,1.59-.84.47.04.87.32,1.05.75.14.31.27.96-.38,1.79-1.56,1.68-5.17,4.57-9.2,5.12-4.63.72-19.5.73-27.88.73-3.23,4.36-6.86,10.02-7.23,15.86-.12,2.29.37,3.96,1.45,4.97,1.32,1.23,3.28,1.21,4.34,1.08,4.52-.51,10.05-2.79,13.52-4.82,1.12-.61,2.21-.51,2.68.22.12.19.63,1.16-.76,2.17-3.53,2.52-9.37,5.78-14.22,6.67-.34.06-.69.09-1.05.09ZM396.45,324.92c.9.28,1.77.38,2.52.24,1.52-.28,3.15-.81,4.78-1.49-1.84.57-3.7,1.01-5.42,1.2-.65.08-1.28.09-1.88.04ZM417.26,282.09c-.42,0-.88.08-1.38.27-9.77,3.68-25.36,20.13-26.04,34.46-.04,1.02.21,2.08.71,3.09-.22-.94-.3-2.01-.24-3.19.42-6.56,4.46-12.72,7.93-17.34l.11-.15h-.46l1.54-1.68c5.75-6.26,10.93-10.73,15.39-13.28h.01c2.17-1.2,4.21-1.32,5.47-.36-.11-.16-.23-.32-.36-.46-.58-.67-1.47-1.36-2.69-1.36ZM406.91,298.33c-1.06.27-2.15.49-3.23.64,1.05,0,2.15,0,3.27-.01l-.05-.63ZM415.81,286.01c-3.78,2.16-8.32,5.97-13.2,11.08,6.42-.7,13.15-4.01,15.8-7.97,1.15-1.77,1.23-3.05.79-3.53-.43-.46-1.67-.52-3.38.42ZM421.4,286.98c-.13.99-.57,2.09-1.32,3.24-1.12,1.68-2.83,3.24-4.9,4.57,2.66-1.27,4.65-2.88,5.67-4.68.49-.88.67-2,.56-3.13Z"/>
    </g>
    <g>
      <path class="cls-1" d="M476.94,298.64c.82,0,.93.72,3.5,1.55,4.22.21,9.27-.62,15.35-2.27,6.08-1.75,11.23-3.92,15.35-6.49,7.21-4.43,10.82-10.2,10.82-17.41,0-6.8-2.99-12.88-8.96-18.03-4.74-4.23-11.44-7.52-19.99-10-8.45-2.47-17.41-3.71-26.79-3.71-8.55,0-16.49,1.03-23.6,3.19-6.7,1.96-10.1,5.87-10.1,11.13,0,1.85.41,3.92,1.44,6.18,1.03,2.16,1.54,3.3,1.54,3.3,0,.1-.21.1-.31.1-.21,0-.52-.21-1.13-.82-2.16-2.37-3.09-5.25-3.09-8.45,0-6.29,3.71-10.51,11.13-12.88,7.42-2.37,15.66-3.5,24.83-3.5s18.44,1.13,27.1,3.5c8.76,2.37,15.66,5.46,20.81,9.48,7.32,5.67,11.03,12.06,11.03,19.37,0,8.14-4.64,14.84-13.81,19.99-3.71,2.16-8.35,4.02-13.81,5.67-6.29,1.96-12.06,2.99-17.52,3.3-.52,0-.62.51-.52,1.34.52,3.09,1.96,7.52,4.33,13.09,2.58,5.98,4.95,9.99,7.11,12.16,2.37,2.37,4.54,3.5,6.6,3.5.82,0,1.65-.1,2.68-.52.51-.1.82-.21,1.13-.21.31.1.41.21.31.31-.1.31-.41.52-.82.72-1.44.82-2.88,1.13-4.22,1.13-2.16,0-4.74-1.13-7.73-3.4-1.96-1.55-4.95-6.18-8.86-13.91-3.92-7.73-5.87-12.88-5.87-15.25,0-1.44.72-2.16,2.06-2.16ZM474.36,292.35c-9.69,14.73-14.12,23.91-13.71,27.41.1.72-.62,1.03-1.85,1.03s-1.96-.52-2.16-1.24c-1.03-3.3,9.99-21.23,33.08-53.79.82-.82.93-1.65.52-2.47-.1-.21-.21-.41-.21-.52,0-.62.31-.93.82-.93.41,0,.72.21,1.03.52,1.03,1.03,1.44,1.75,1.03,2.16-6.18,9.27-12.47,18.55-18.55,27.82Z"/>
      <path class="cls-1" d="M497.34,334.36c-2.41,0-5.14-1.18-8.33-3.6-2.14-1.69-5.21-6.48-9.15-14.26-3.97-7.83-5.98-13.11-5.98-15.7,0-1.98,1.14-3.16,3.06-3.16.66,0,1.08.27,1.49.53.41.26.97.62,2.19,1.02,3.9.17,8.66-.54,14.91-2.24,6.01-1.73,11.09-3.88,15.08-6.37,6.97-4.28,10.35-9.7,10.35-16.57s-2.9-12.35-8.62-17.27c-4.54-4.05-11.14-7.34-19.61-9.79-8.32-2.44-17.24-3.67-26.51-3.67-8.59,0-16.43,1.06-23.31,3.15-4.29,1.25-9.39,4.03-9.39,10.17,0,1.85.46,3.79,1.35,5.77,1.03,2.16,1.54,3.3,1.54,3.3l.09.2v.22s-.01,1.1-1.31,1.1c-.61,0-1.12-.39-1.84-1.12-2.26-2.47-3.38-5.54-3.38-9.16,0-6.67,3.98-11.33,11.82-13.83,7.48-2.39,15.7-3.55,25.14-3.55s18.67,1.16,27.36,3.54c9.05,2.45,15.98,5.61,21.17,9.66,7.68,5.95,11.41,12.54,11.41,20.16,0,8.51-4.82,15.52-14.32,20.86-3.64,2.12-8.22,4.01-14.01,5.75-6.01,1.87-11.7,2.96-17.35,3.32,0,.07.01.15.02.24.51,3.03,1.98,7.47,4.26,12.82,2.49,5.77,4.81,9.75,6.9,11.84,2.16,2.16,4.09,3.21,5.89,3.21.85,0,1.52-.13,2.31-.44l.17-.05c.15-.03.28-.06.4-.09.31-.07.6-.14.93-.14h.16l.15.05c.21.07.85.28,1,.93.07.28.02.56-.12.8-.26.58-.78.9-1.27,1.14-1.42.81-3.01,1.24-4.67,1.24ZM476.94,299.64c-.7,0-1.06.18-1.06,1.16,0,1.28.75,4.9,5.76,14.8,4.74,9.36,7.29,12.55,8.59,13.58,1.18.89,2.28,1.6,3.32,2.12-.84-.57-1.7-1.29-2.58-2.17-2.3-2.3-4.7-6.38-7.32-12.47-2.34-5.49-3.86-10.09-4.4-13.32-.08-.67-.11-1.46.38-2.01.09-.1.19-.19.3-.26-1.41-.47-2.1-.91-2.57-1.21-.31-.2-.35-.22-.42-.22ZM480.84,302.83s-.02,0-.03,0c.01,0,.02,0,.03,0ZM481.21,302.5h0ZM485.3,243.08c2.72.53,5.39,1.18,8,1.94,8.76,2.53,15.62,5.97,20.37,10.21,6.17,5.32,9.3,11.64,9.3,18.78,0,6-2.42,11.13-7.21,15.29,6.06-4.52,9.13-10.03,9.13-16.43,0-6.96-3.48-13.04-10.64-18.58-4.98-3.88-11.67-6.93-20.46-9.31-2.8-.77-5.62-1.4-8.49-1.91ZM458.8,321.79c-1.61,0-2.78-.73-3.12-1.96-.78-2.5,2.28-10.99,33.22-54.64l.11-.13c.61-.61.5-.98.33-1.32-.17-.33-.31-.62-.31-.96,0-1.15.73-1.93,1.82-1.93.83,0,1.39.46,1.74.81.62.62,2.23,2.23,1.11,3.49-2.05,3.07-4.1,6.14-6.16,9.21-4.07,6.08-8.29,12.36-12.34,18.54h0c-12.78,19.44-13.73,25.18-13.55,26.74.07.49-.07.98-.39,1.35-.46.54-1.27.8-2.46.8ZM489.9,267.23c-29.3,41.38-32.83,50.36-32.31,52.02.14.5.96.54,1.21.54.45,0,.71-.05.85-.09-.29-4.07,4.38-13.45,13.88-27.9,4.06-6.19,8.27-12.47,12.35-18.56,1.34-2,2.69-4.01,4.03-6.01ZM491.27,263.17c.25.67.26,1.33.04,1.97.24-.35.47-.71.71-1.07-.08-.15-.28-.43-.75-.9Z"/>
    </g>
    <g>
      <path class="cls-1" d="M512.39,321.2c.1-5.56,4.64-14.01,13.81-25.25.21-.41.1-.82-.21-.93-1.24-.72-2.78-1.65-2.78-2.47,0-.41-.21-1.34,2.99-1.44,2.58-.1,3.81-.21,3.92-.1.21,0,.62-.1,1.13-.41,1.55-1.44,2.99-2.16,4.53-2.27,1.13-.1,2.68.72,4.64,1.85.21.1.41.31.72.41,3.09.1,7.62.21,13.39.41,1.03,0,1.55.21,1.55.41,0,.31-.52.62-1.55.62-2.16,0-3.5.41-4.12,1.24-.1.21-.1.41,0,.62.1.41.31.82.31,1.13-.41,5.15-4.43,11.13-12.57,18.14-8.04,6.9-15.04,10.92-21.12,11.75-1.96.31-4.64-1.55-4.64-3.71ZM514.96,321.72c0,1.65,1.13,2.27,3.3,1.85,4.64-.72,10.2-4.02,16.8-10.1,6.9-6.18,10.82-11.75,11.85-16.69.52-2.16-.93-3.3-3.92-3.61-3.3-.41-6.18,0-8.66.93-.21-.1-.82.31-1.75.93-7.32,6.8-12.98,14.94-17,24.42-.41.72-.62,1.55-.62,2.27Z"/>
      <path class="cls-1" d="M516.58,325.95c-1.16,0-2.45-.5-3.48-1.38-1.09-.93-1.72-2.16-1.72-3.37v-.02c.11-5.83,4.73-14.4,13.74-25.5-1.63-.97-2.92-1.9-2.92-3.13-.05-2.06,2.09-2.38,3.96-2.44.74-.03,1.38-.06,1.91-.08,1.15-.05,1.74-.08,2.11-.04.09-.02.25-.08.46-.2,1.69-1.56,3.31-2.34,5.07-2.46,1.41-.14,3.05.74,5.2,1.99.06.03.18.1.3.19.05.04.1.07.15.1,1.12.04,2.42.07,3.89.12,2.59.07,5.71.16,9.32.29h0c2.07,0,2.51.77,2.51,1.41,0,.78-.67,1.62-2.55,1.62s-2.77.35-3.14.65c.03.11.07.23.11.33.11.31.22.64.22,1-.45,5.64-4.67,11.8-12.92,18.89-8.41,7.23-15.49,11.15-21.64,11.98-.19.03-.38.04-.58.04ZM513.39,321.21c0,.52.26,1.07.72,1.56-.09-.3-.14-.64-.14-1.05,0-.92.26-1.87.72-2.71,4.05-9.54,9.85-17.86,17.22-24.71l.13-.1c1.03-.69,1.65-1.1,2.19-1.12,2.76-.99,5.75-1.29,8.89-.9,2.14.22,3.56.85,4.32,1.91.57.8.72,1.78.45,2.92-.88,4.22-3.79,8.88-8.67,13.87,6.61-6.02,10.14-11.38,10.51-15.94-.01.05-.07-.15-.11-.27-.05-.15-.1-.29-.14-.44-.19-.46-.17-.95.05-1.4l.09-.15c.24-.31.53-.58.88-.8-1.96-.06-3.73-.11-5.3-.16-1.56-.04-2.93-.08-4.09-.12l-.28-.05c-.33-.11-.57-.28-.74-.39-.04-.03-.08-.06-.12-.08-1.7-.98-3.27-1.84-4.1-1.75-1.33.09-2.57.72-3.94,2l-.17.13c-.59.35-1.19.55-1.65.55l-.46-.04c-.32,0-.89.03-1.49.06-.53.02-1.17.06-1.93.09-1.39.04-1.88.25-2.03.33v.11c.16.36,1.65,1.23,2.22,1.57.34.15.61.43.75.77.19.46.16,1-.09,1.5l-.12.19c-8.78,10.76-13.48,19.27-13.58,24.62ZM533.2,295.82c-7.15,6.66-12.77,14.75-16.7,24.02l-.05.11c-.31.54-.49,1.19-.49,1.77,0,.38.08.64.24.77.14.11.59.35,1.87.1,4.5-.7,9.97-4.01,16.31-9.85,6.68-5.98,10.56-11.41,11.55-16.16.21-.86-.04-1.21-.12-1.32-.27-.39-1-.89-2.91-1.08-2.94-.37-5.69-.07-8.2.87l-.41.15-.06-.03c-.26.15-.66.42-1.02.65Z"/>
    </g>
    <g>
      <path class="cls-1" d="M561.84,289.05c.31-.82.62-1.34.1-.21v-.72c25.55-57.7,52.76-87.48,81.92-89.23,9.89-.62,18.75,2.47,26.38,8.96,7.73,6.49,11.23,13.81,10.41,22.05-.21,2.58-1.03,5.15-2.27,7.62-6.49,12.37-24.01,24.01-52.55,34.83-19.68,7.52-39.98,13.19-60.79,17.1-1.96,3.5-4.12,9.07-7.01,16.8-.93,2.37-1.65,4.33-2.16,5.98,2.37-2.16,6.9-5.15,13.6-9.58,8.14-5.36,14.32-8.97,18.34-10.61.62-.31,1.34-.41,2.06-.41,2.47,0,3.5,1.24,3.4,3.81-.21.93-.72,1.96-1.24,3.09-4.02,6.7-10.1,12.47-18.55,17.52-8.45,5.05-16.28,7.52-23.29,7.42-.21,0-.41-.1-.62-.21-1.03-.31-1.96-1.44-1.96-2.47.31-.72.72-1.44,1.44-2.47,2.68-6.29,6.59-15.46,11.64-27.2.1,0,.21-.1.31-.52,0-.1-.1-.21,0-.31,0-.1.21-.21.21-.31l.1-.1v.21c.1-.21.21-.41.31-.72,0,.1-.1.21-.1.21.1-.21.21-.41.31-.52ZM554.12,318.32c0,.1.1.1.1.21-.1.1-.1.31-.21.41l.1.41c-.21.82-.1,1.44.51,1.55.62.21,2.16.1,4.74-.41,5.26-1.13,10.3-3.61,15.66-7.52,5.56-4.02,9.27-8.24,11.13-12.57l.41-1.65c.1-2.06-.51-3.19-2.27-3.19-1.44,0-5.98,2.47-13.4,7.42-5.98,4.02-10.41,7.32-13.5,9.69-1.65,1.34-2.78,3.3-3.3,5.67ZM678.08,228.16c.62-7.21-2.37-13.7-9.17-19.27-7.01-5.77-15.35-8.55-25.04-8.14-16.59.62-33.49,13.29-50.7,37.3-10.61,14.94-19.89,31.53-27.51,49.87,25.04-5.15,47.4-11.85,67.08-20.51,23.39-10.2,37.92-21.23,43.48-32.66,1.03-2.16,1.44-4.33,1.85-6.59Z"/>
      <path class="cls-1" d="M550.62,324.47c-.14,0-.29,0-.43,0-.39,0-.73-.15-.98-.28-1.43-.48-2.58-1.98-2.58-3.4v-.21l.08-.19c.34-.79.78-1.56,1.48-2.57,2.41-5.64,5.8-13.59,10.11-23.63l-.42.41,1.64-3.27c.09-.21.18-.42.27-.63l.19-.44c.02-.18.07-.32.14-.44.03-.07.07-.14.11-.19v-.08l.42-.45.07-.14.24-.85v-.21l.09-.19c.14-.31.27-.62.41-.92l1.2-3.57v.91c12.29-27.11,25.13-48.05,38.18-62.29,13.76-15.01,28.23-23.07,42.99-23.96,10.05-.63,19.18,2.47,27.09,9.2,7.98,6.71,11.6,14.42,10.75,22.91-.2,2.55-1,5.24-2.37,7.97-6.61,12.59-24.47,24.47-53.09,35.32-19.29,7.37-39.64,13.11-60.5,17.06-1.96,3.65-4.21,9.53-6.72,16.25-.39.99-.72,1.87-1.02,2.67,2.52-1.87,6.04-4.2,10.65-7.25l.31-.21c8.43-5.55,14.49-9.05,18.51-10.71.63-.32,1.45-.49,2.44-.49,1.47,0,2.56.38,3.32,1.17.79.83,1.15,2.03,1.08,3.68l-.02.18c-.2.89-.62,1.8-1.06,2.77l-.29.62c-4.14,6.89-10.32,12.74-18.89,17.86-8.4,5.02-16.27,7.56-23.38,7.56ZM548.64,320.96c.1.54.66,1.17,1.23,1.34l.16.06c.08.04.16.09.23.11,1.88.03,3.83-.14,5.83-.5-.92.06-1.4-.02-1.71-.11-.45-.09-.82-.34-1.06-.71-.3-.45-.38-1.06-.24-1.79l-.18-.73.21-.21s0-.07,0-.1l.02-.21c.23-1.07.59-2.07,1.05-2.98l-.37.34,1.1-3.53c.48-1.54,1.16-3.41,2.19-6.04,3.05-8.16,5.08-13.29,6.94-16.69l.7-1.67c7.44-17.89,16.73-34.74,27.62-50.07,12.4-17.3,24.7-28.71,36.75-34.11-23.04,9.45-45.16,37.77-65.94,84.49.16.39-.01.77-.31,1.42l-1.91,4.2v-.36c-4.72,10.99-8.4,19.61-10.96,25.61l-.1.18c-.58.83-.96,1.46-1.24,2.07ZM555.02,319.96c.26.05,1.24.12,4.15-.46,5.04-1.09,9.9-3.42,15.27-7.35,5.34-3.86,8.96-7.92,10.77-12.08l.37-1.47c.04-1.11-.17-1.58-.36-1.77-.06-.07-.26-.27-.91-.27-.33,0-2.49.35-12.84,7.25-4.7,3.16-9.1,6.32-13.44,9.65-1.37,1.11-2.36,2.76-2.85,4.75.04.12.05.23.05.33v.41l-.14.14.07.27-.06.24c-.04.17-.06.29-.06.37ZM584.78,294.57c.78.08,1.41.37,1.89.87.68.72.98,1.81.9,3.35l-.03.19-.46,1.8c-1.59,3.72-4.48,7.34-8.61,10.78,5.48-4.02,9.66-8.47,12.68-13.49l.22-.48c.38-.83.75-1.62.91-2.28.03-1.01-.15-1.73-.53-2.13-.36-.37-.97-.56-1.87-.56-.66,0-1.21.1-1.61.31-1.01.42-2.17.96-3.47,1.63ZM645.7,201.71c-.59,0-1.19.01-1.79.04-16.02.6-32.81,13.01-49.93,36.88-10.45,14.71-19.41,30.82-26.67,47.92,24.99-5.24,46.28-11.81,65.02-20.06,23.02-10.04,37.48-20.87,42.99-32.19.99-2.08,1.39-4.22,1.76-6.29.58-6.93-2.38-13.11-8.81-18.36-6.42-5.28-14-7.95-22.57-7.95ZM677.25,217.63c1.53,3.31,2.14,6.86,1.82,10.61v.09c-.4,2.11-.83,4.5-1.95,6.85-5.72,11.77-20.52,22.92-43.99,33.15-.8.35-1.61.7-2.42,1.05,25.1-10.1,40.82-20.96,46.79-32.31,1.24-2.49,1.97-4.93,2.16-7.24.43-4.34-.36-8.39-2.4-12.2Z"/>
    </g>
    <g>
      <path class="cls-1" d="M631.5,299.26c-4.64.72-19.99.72-28.23.72-3.09,4.12-7.32,10.3-7.73,16.8-.31,6.08,3.4,7.52,6.9,7.11,4.53-.52,10.2-2.78,13.91-4.95,1.13-.62,1.96-.1.83.72-2.89,2.06-8.76,5.56-13.81,6.49-4.12.72-10.51-4.02-10.3-9.38.72-15.04,17.11-31.74,26.69-35.34,5.15-1.96,8.45,5.15,6.18,9.17-2.16,3.81-7.93,6.59-14.73,7.62,7.52,0,15.87,0,20.3-.52,2.88-.31,6.18-2.16,7.83-3.61.62-.93,1.44-.52.72.41-1.34,1.44-4.74,4.23-8.55,4.74ZM619.55,285.14c-5.05,2.89-10.51,8.04-15.15,13.09,7.21,0,15.76-3.61,19.06-8.55,2.88-4.43.21-6.8-3.92-4.53Z"/>
      <path class="cls-1" d="M602.5,327.22c-2.15,0-4.63-1.04-6.71-2.85-2.47-2.16-3.83-4.94-3.73-7.64.72-15.09,17.08-32.38,27.33-36.24,2.33-.89,4.63-.28,6.29,1.65,2.12,2.47,2.6,6.31,1.11,8.94-1.41,2.48-4.2,4.6-7.92,6.11,4.96-.04,9.61-.15,12.5-.49,2.51-.27,5.55-1.88,7.2-3.29.43-.58,1.01-.89,1.58-.84.47.04.87.32,1.05.75.14.31.27.96-.38,1.79-1.56,1.69-5.18,4.57-9.2,5.12-4.63.72-19.5.73-27.88.73-3.23,4.36-6.86,10.02-7.23,15.86-.12,2.29.37,3.96,1.45,4.97,1.32,1.23,3.29,1.21,4.34,1.08,4.52-.51,10.05-2.79,13.52-4.82,1.12-.61,2.21-.52,2.68.22.12.19.63,1.16-.76,2.17-3.53,2.52-9.37,5.78-14.22,6.67-.34.06-.69.09-1.05.09ZM600.67,324.92c.9.28,1.77.38,2.52.24,1.52-.28,3.15-.81,4.78-1.49-1.84.57-3.7,1.01-5.42,1.2-.65.08-1.28.09-1.88.05ZM621.49,282.09c-.42,0-.88.08-1.38.27-9.77,3.68-25.36,20.13-26.04,34.46-.04,1.02.21,2.08.71,3.09-.22-.94-.3-2.01-.24-3.19.42-6.56,4.46-12.72,7.93-17.34l.11-.15h-.46l1.54-1.68c5.75-6.26,10.93-10.73,15.39-13.28h.01c2.17-1.2,4.21-1.32,5.47-.36-.11-.16-.23-.32-.36-.46-.58-.67-1.47-1.36-2.69-1.36ZM611.13,298.33c-1.06.27-2.15.49-3.23.64,1.05,0,2.15,0,3.27-.01l-.05-.63ZM620.04,286.01c-3.78,2.16-8.32,5.97-13.2,11.08,6.42-.7,13.15-4.01,15.8-7.97,1.15-1.77,1.23-3.05.79-3.53-.43-.46-1.67-.52-3.38.42ZM625.62,286.98c-.13.99-.58,2.09-1.32,3.24-1.12,1.68-2.83,3.24-4.9,4.57,2.65-1.27,4.65-2.88,5.67-4.68.5-.88.67-2,.56-3.13Z"/>
    </g>
    <g>
      <path class="cls-1" d="M257.12,374.68v-28.64h12.75c4.98,0,8.03,3,8.03,7.3,0,3.61-2.4,6.01-5.02,6.57,3.05.47,5.58,3.61,5.58,7.04,0,4.59-3.05,7.73-8.29,7.73h-13.05ZM260.69,358.45h8.59c3.22,0,4.94-1.97,4.94-4.59s-1.72-4.64-4.94-4.64h-8.59v9.23ZM260.69,371.5h8.76c3.35,0,5.32-1.89,5.32-4.94,0-2.62-1.8-4.94-5.32-4.94h-8.76v9.88Z"/>
      <path class="cls-1" d="M270.17,375.18h-13.55v-29.64h13.25c5.1,0,8.53,3.13,8.53,7.8,0,3.28-1.83,5.5-3.91,6.53,2.57,1.15,4.47,4.02,4.47,7.08,0,5-3.45,8.23-8.79,8.23ZM257.62,374.18h12.55c4.8,0,7.79-2.77,7.79-7.23,0-3.17-2.31-6.11-5.16-6.55l-2.69-.42,2.66-.57c2.23-.47,4.63-2.58,4.63-6.08,0-4.13-2.96-6.8-7.53-6.8h-12.25v27.64ZM269.44,372h-9.26v-10.88h9.26c4.02,0,5.82,2.73,5.82,5.44,0,3.35-2.23,5.44-5.82,5.44ZM261.19,371h8.26c3.02,0,4.82-1.66,4.82-4.44,0-2.21-1.49-4.44-4.82-4.44h-8.26v8.88ZM269.27,358.95h-9.09v-10.23h9.09c3.25,0,5.44,2.06,5.44,5.14s-2.13,5.09-5.44,5.09ZM261.19,357.95h8.09c2.74,0,4.44-1.57,4.44-4.09s-1.74-4.14-4.44-4.14h-8.09v8.23Z"/>
    </g>
    <g>
      <path class="cls-1" d="M284,374.68v-20.74h3.22v3.35c1.67-2.19,4.08-3.78,6.91-3.78v3.31c-.39-.09-.77-.13-1.29-.13-1.98,0-4.68,1.63-5.62,3.31v14.68h-3.22Z"/>
      <path class="cls-1" d="M287.72,375.18h-4.22v-21.74h4.22v2.5c1.82-1.9,4.06-2.93,6.41-2.93h.5v4.43l-.61-.13c-.37-.08-.72-.12-1.18-.12-1.71,0-4.2,1.44-5.12,2.94v15.05ZM284.5,374.18h2.22v-14.32l.06-.11c1.05-1.86,3.94-3.56,6.06-3.56.29,0,.54.01.79.04v-2.2c-2.25.16-4.37,1.41-6.02,3.56l-.9,1.17v-4.33h-2.22v19.74Z"/>
    </g>
    <g>
      <path class="cls-1" d="M312.16,374.68v-2.92c-1.59,1.8-4.29,3.44-7.39,3.44-4.34,0-6.61-2.1-6.61-6.61v-14.64h3.22v13.65c0,3.65,1.85,4.72,4.64,4.72,2.53,0,4.94-1.46,6.14-3.13v-15.24h3.22v20.74h-3.22Z"/>
      <path class="cls-1" d="M304.78,375.7c-4.72,0-7.11-2.39-7.11-7.11v-15.14h4.22v14.15c0,3,1.2,4.22,4.14,4.22,2.42,0,4.59-1.43,5.64-2.8v-15.58h4.22v21.74h-4.22v-2.21c-1.62,1.44-4.07,2.73-6.89,2.73ZM298.67,354.44v14.14c0,4.17,1.94,6.11,6.11,6.11,3.05,0,5.62-1.69,7.01-3.27l.88-.99v3.74h2.22v-19.74h-2.22v14.9l-.09.13c-1.19,1.67-3.68,3.34-6.55,3.34-3.46,0-5.14-1.71-5.14-5.22v-13.15h-2.22Z"/>
    </g>
    <g>
      <path class="cls-1" d="M336.85,374.68v-3.09c-1.55,2.1-4.08,3.61-7,3.61-5.41,0-9.23-4.12-9.23-10.86s3.78-10.91,9.23-10.91c2.79,0,5.32,1.37,7,3.65v-11.04h3.22v28.64h-3.22ZM336.85,359.65c-1.16-1.8-3.65-3.35-6.23-3.35-4.16,0-6.66,3.44-6.66,8.03s2.49,7.99,6.66,7.99c2.58,0,5.07-1.46,6.23-3.26v-9.4Z"/>
      <path class="cls-1" d="M329.85,375.7c-5.82,0-9.73-4.57-9.73-11.36s3.91-11.41,9.73-11.41c2.45,0,4.76,1,6.5,2.79v-10.17h4.22v29.64h-4.22v-2.24c-1.73,1.74-4.07,2.75-6.5,2.75ZM329.85,353.93c-5.22,0-8.73,4.18-8.73,10.41s3.43,10.36,8.73,10.36c2.56,0,5.03-1.27,6.6-3.4l.9-1.23v4.12h2.22v-27.64h-2.22v12.06l-.9-1.23c-1.61-2.19-4.02-3.45-6.6-3.45ZM330.62,372.82c-4.28,0-7.16-3.41-7.16-8.49s2.88-8.53,7.16-8.53c2.56,0,5.29,1.47,6.65,3.58l.08.12v9.7l-.08.12c-1.32,2.06-4.05,3.49-6.65,3.49ZM330.62,356.8c-3.68,0-6.16,3.03-6.16,7.53s2.42,7.49,6.16,7.49c2.22,0,4.55-1.19,5.73-2.91v-9.1c-1.04-1.51-3.3-3-5.73-3Z"/>
    </g>
    <g>
      <path class="cls-1" d="M355.53,353.43c6.27,0,9.96,4.89,9.96,11.12v.82h-16.79c.26,3.91,3.01,7.17,7.47,7.17,2.36,0,4.77-.94,6.4-2.62l1.55,2.1c-2.06,2.06-4.85,3.18-8.24,3.18-6.14,0-10.56-4.42-10.56-10.91,0-6.01,4.29-10.86,10.22-10.86ZM348.7,363h13.61c-.04-3.09-2.1-6.91-6.83-6.91-4.42,0-6.61,3.74-6.78,6.91Z"/>
      <path class="cls-1" d="M355.87,375.7c-6.51,0-11.06-4.69-11.06-11.41s4.61-11.36,10.72-11.36,10.46,4.78,10.46,11.62v1.32h-16.74c.41,3.15,2.65,6.17,6.92,6.17,2.28,0,4.53-.92,6.04-2.47l.41-.42,2.15,2.92-.3.3c-2.17,2.17-5.15,3.32-8.6,3.32ZM355.53,353.93c-5.54,0-9.72,4.46-9.72,10.36s4.14,10.41,10.06,10.41c3.06,0,5.61-.92,7.58-2.73l-.95-1.29c-1.67,1.49-4,2.37-6.33,2.37-4.4,0-7.67-3.14-7.97-7.64l-.04-.53h16.82v-.32c0-6.35-3.8-10.62-9.46-10.62ZM362.82,363.5h-14.65l.03-.53c.2-3.67,2.76-7.39,7.28-7.39,4.74,0,7.28,3.73,7.33,7.41v.51ZM349.25,362.5h12.54c-.24-2.55-2.01-5.91-6.3-5.91s-5.9,3.36-6.24,5.91Z"/>
    </g>
    <g>
      <path class="cls-1" d="M368.75,365.71v-2.83h10.31v2.83h-10.31Z"/>
      <path class="cls-1" d="M379.55,366.21h-11.31v-3.83h11.31v3.83ZM369.25,365.21h9.31v-1.83h-9.31v1.83Z"/>
    </g>
    <g>
      <path class="cls-1" d="M393.43,364.29c0-6.01,3.95-10.86,10.26-10.86s10.26,4.85,10.26,10.86-3.95,10.91-10.26,10.91-10.26-4.89-10.26-10.91ZM410.57,364.29c0-4.21-2.45-7.99-6.87-7.99s-6.91,3.78-6.91,7.99,2.49,8.03,6.91,8.03,6.87-3.78,6.87-8.03Z"/>
      <path class="cls-1" d="M403.7,375.7c-6.24,0-10.76-4.8-10.76-11.41s4.53-11.36,10.76-11.36,10.76,4.78,10.76,11.36-4.53,11.41-10.76,11.41ZM403.7,353.93c-5.75,0-9.76,4.26-9.76,10.36s4.01,10.41,9.76,10.41,9.76-4.28,9.76-10.41-4.01-10.36-9.76-10.36ZM403.7,372.82c-4.87,0-7.41-4.29-7.41-8.53s2.55-8.49,7.41-8.49,7.37,4.4,7.37,8.49-2.31,8.53-7.37,8.53ZM403.7,356.8c-4.41,0-6.41,3.88-6.41,7.49s2.01,7.53,6.41,7.53,6.37-3.9,6.37-7.53-1.99-7.49-6.37-7.49Z"/>
    </g>
    <g>
      <path class="cls-1" d="M420.78,377.6c1.72,2.06,3.78,2.83,6.74,2.83,3.43,0,6.66-1.67,6.66-6.23v-2.96c-1.5,2.1-4.04,3.69-6.96,3.69-5.41,0-9.23-4.04-9.23-10.73s3.78-10.78,9.23-10.78c2.79,0,5.28,1.37,6.96,3.65v-3.13h3.22v20.14c0,6.87-4.81,9.02-9.88,9.02-3.52,0-5.93-.69-8.37-3.09l1.63-2.4ZM434.18,359.65c-1.12-1.8-3.61-3.35-6.18-3.35-4.16,0-6.65,3.31-6.65,7.9s2.49,7.9,6.65,7.9c2.58,0,5.07-1.59,6.18-3.39v-9.06Z"/>
      <path class="cls-1" d="M427.52,383.6c-3.26,0-5.99-.55-8.72-3.24l-.3-.29,2.24-3.3.42.51c1.57,1.89,3.41,2.65,6.36,2.65,1.85,0,6.16-.56,6.16-5.73v-1.58c-1.72,1.78-4.05,2.81-6.46,2.81-5.91,0-9.73-4.41-9.73-11.23s3.91-11.28,9.73-11.28c2.43,0,4.72,1,6.46,2.79v-2.27h4.22v20.64c0,6.05-3.78,9.52-10.38,9.52ZM419.8,379.94c2.09,1.93,4.23,2.66,7.72,2.66s9.38-1.11,9.38-8.52v-19.64h-2.22v4.16l-.9-1.23c-1.61-2.19-4-3.45-6.55-3.45-5.3,0-8.73,4.03-8.73,10.28s3.43,10.23,8.73,10.23c2.54,0,4.99-1.3,6.55-3.48l.91-1.27v4.52c0,4.21-2.67,6.73-7.16,6.73-2.97,0-5.01-.76-6.69-2.52l-1.03,1.52ZM428,372.61c-4.28,0-7.15-3.38-7.15-8.4s2.88-8.4,7.15-8.4c2.58,0,5.3,1.47,6.61,3.59l.08.12v9.34l-.08.12c-1.32,2.14-4.04,3.63-6.61,3.63ZM428,356.8c-3.74,0-6.15,2.91-6.15,7.4s2.42,7.4,6.15,7.4c2.44,0,4.67-1.51,5.68-3.04v-8.77c-1-1.51-3.23-3-5.68-3Z"/>
    </g>
    <g>
      <path class="cls-1" d="M459.04,356.78v17.9h-3.22v-17.9h-3.44v-2.83h3.44v-1.59c0-4.29,2.4-6.74,6.01-6.74,1.2,0,2.32.21,3.13.73l-.82,2.41c-.52-.3-1.12-.47-1.85-.47-2.1,0-3.26,1.46-3.26,4.08v1.59h4.21v2.83h-4.21Z"/>
      <path class="cls-1" d="M459.54,375.18h-4.22v-17.9h-3.44v-3.83h3.44v-1.09c0-4.47,2.5-7.24,6.51-7.24,1.39,0,2.56.28,3.4.81l.33.21-1.14,3.36-.53-.31c-.47-.27-.99-.4-1.59-.4-2.28,0-2.76,1.95-2.76,3.58v1.09h4.21v3.83h-4.21v17.9ZM456.32,374.18h2.22v-17.9h4.21v-1.83h-4.21v-2.09c0-2.91,1.37-4.58,3.76-4.58.57,0,1.08.09,1.55.28l.5-1.47c-.65-.31-1.52-.47-2.53-.47-3.45,0-5.51,2.33-5.51,6.24v2.09h-3.44v1.83h3.44v17.9Z"/>
    </g>
    <g>
      <path class="cls-1" d="M476.08,353.43c6.27,0,9.96,4.89,9.96,11.12v.82h-16.79c.26,3.91,3.01,7.17,7.47,7.17,2.36,0,4.77-.94,6.4-2.62l1.55,2.1c-2.06,2.06-4.85,3.18-8.24,3.18-6.14,0-10.56-4.42-10.56-10.91,0-6.01,4.29-10.86,10.22-10.86ZM469.25,363h13.61c-.04-3.09-2.1-6.91-6.83-6.91-4.42,0-6.61,3.74-6.79,6.91Z"/>
      <path class="cls-1" d="M476.43,375.7c-6.51,0-11.06-4.69-11.06-11.41s4.61-11.36,10.72-11.36,10.46,4.78,10.46,11.62v1.32h-16.74c.41,3.15,2.65,6.17,6.92,6.17,2.28,0,4.53-.92,6.04-2.47l.41-.42,2.15,2.92-.3.3c-2.17,2.17-5.15,3.32-8.6,3.32ZM476.08,353.93c-5.54,0-9.72,4.46-9.72,10.36s4.14,10.41,10.06,10.41c3.06,0,5.61-.92,7.58-2.73l-.95-1.29c-1.67,1.49-4,2.37-6.33,2.37-4.4,0-7.67-3.14-7.97-7.64l-.04-.53h16.82v-.32c0-6.35-3.8-10.62-9.46-10.62ZM483.37,363.5h-14.65l.03-.53c.2-3.67,2.76-7.39,7.28-7.39,4.74,0,7.28,3.73,7.33,7.41v.51ZM469.8,362.5h12.54c-.24-2.55-2.01-5.91-6.3-5.91s-5.9,3.36-6.24,5.91Z"/>
    </g>
    <g>
      <path class="cls-1" d="M491.11,369.62c1.37,1.59,3.99,2.96,6.83,2.96,3.18,0,4.89-1.42,4.89-3.44,0-2.28-2.53-3.01-5.32-3.69-3.52-.82-7.51-1.76-7.51-6.05,0-3.22,2.79-5.97,7.73-5.97,3.52,0,6.01,1.33,7.69,3.01l-1.5,2.23c-1.24-1.5-3.52-2.62-6.18-2.62-2.83,0-4.59,1.29-4.59,3.13,0,2.02,2.36,2.66,5.07,3.31,3.61.82,7.77,1.85,7.77,6.44,0,3.48-2.79,6.27-8.16,6.27-3.39,0-6.27-1.03-8.37-3.26l1.67-2.32Z"/>
      <path class="cls-1" d="M497.81,375.7c-3.66,0-6.6-1.15-8.74-3.42l-.28-.3,2.29-3.17.41.48c1.2,1.39,3.66,2.79,6.45,2.79s4.39-1.1,4.39-2.94-2.14-2.52-4.94-3.21c-3.51-.81-7.9-1.83-7.9-6.54,0-3.12,2.58-6.47,8.23-6.47,3.2,0,5.98,1.09,8.04,3.15l.29.29-2.11,3.13-.43-.52c-1.25-1.5-3.47-2.44-5.8-2.44-2.49,0-4.09,1.03-4.09,2.63s1.94,2.17,4.68,2.82c3.44.78,8.16,1.84,8.16,6.93,0,4.11-3.4,6.77-8.66,6.77ZM490.08,371.88c1.92,1.87,4.51,2.81,7.72,2.81,4.65,0,7.66-2.26,7.66-5.77,0-3.97-3.2-5.01-7.38-5.95-2.56-.61-5.46-1.3-5.46-3.79,0-2.17,2.05-3.63,5.09-3.63,2.37,0,4.65.88,6.12,2.32l.92-1.36c-1.86-1.71-4.22-2.58-7.04-2.58-4.26,0-7.23,2.25-7.23,5.47,0,3.92,3.62,4.75,7.13,5.57,2.55.63,5.71,1.41,5.71,4.18,0,2.43-2.07,3.94-5.39,3.94-2.51,0-5.09-1.04-6.78-2.68l-1.07,1.49Z"/>
    </g>
    <g>
      <path class="cls-1" d="M511.84,370.35v-13.57h-3.43v-2.83h3.43v-5.67h3.22v5.67h4.21v2.83h-4.21v12.88c0,1.55.69,2.66,2.1,2.66.9,0,1.76-.39,2.19-.86l.94,2.4c-.82.77-1.97,1.33-3.86,1.33-3.05,0-4.6-1.76-4.6-4.85Z"/>
      <path class="cls-1" d="M516.44,375.7c-3.29,0-5.1-1.9-5.1-5.35v-13.07h-3.43v-3.83h3.43v-5.67h4.22v5.67h4.21v3.83h-4.21v12.38c0,.81.21,2.16,1.6,2.16.82,0,1.52-.36,1.82-.69l.54-.6,1.36,3.47-.25.23c-1.04.99-2.42,1.47-4.21,1.47ZM508.91,356.28h3.43v14.07c0,2.89,1.38,4.35,4.1,4.35,1.4,0,2.45-.31,3.27-.98l-.57-1.45c-.56.34-1.28.55-1.97.55-1.61,0-2.6-1.21-2.6-3.16v-13.38h4.21v-1.83h-4.21v-5.67h-2.22v5.67h-3.43v1.83Z"/>
    </g>
    <g>
      <path class="cls-1" d="M537.95,374.68l-7.47-9.32-3.44,3.39v5.92h-3.22v-28.64h3.22v18.94l10.91-11.04h4.08l-9.19,9.4,9.23,11.33h-4.12Z"/>
      <path class="cls-1" d="M543.12,375.18h-5.41l-7.27-9.07-2.89,2.86v6.22h-4.22v-29.64h4.22v18.22l10.2-10.32h5.48l-9.71,9.93,9.61,11.8ZM538.19,374.18h2.83l-8.85-10.87,8.67-8.87h-2.68l-11.62,11.75v-19.65h-2.22v27.64h2.22v-5.63l3.98-3.93,7.67,9.56Z"/>
    </g>
    <g>
      <path class="cls-1" d="M549.11,353.94v22.76c0,4.08-2.19,6.4-6.1,6.4-.9,0-1.63-.09-2.32-.3l.43-2.71c.43.17,1.03.21,1.55.21,1.89,0,3.22-.99,3.22-3.61v-22.76h3.22ZM545.33,348.28c0-1.2.99-2.15,2.15-2.15s2.19.94,2.19,2.15-.99,2.19-2.19,2.19-2.15-.99-2.15-2.19Z"/>
      <path class="cls-1" d="M543.01,383.6c-.99,0-1.75-.1-2.47-.32l-.41-.13.59-3.75.58.23c.2.08.61.18,1.36.18,1.83,0,2.72-1.02,2.72-3.11v-23.26h4.22v23.26c0,4.38-2.4,6.9-6.6,6.9ZM541.26,382.43c.5.11,1.06.17,1.75.17,3.61,0,5.6-2.09,5.6-5.9v-22.26h-2.22v22.26c0,2.65-1.32,4.11-3.72,4.11-.43,0-.81-.03-1.14-.09l-.27,1.71ZM547.48,350.96c-1.43,0-2.65-1.23-2.65-2.69s1.19-2.65,2.65-2.65,2.69,1.19,2.69,2.65-1.21,2.69-2.69,2.69ZM547.48,346.63c-.91,0-1.65.74-1.65,1.65s.75,1.69,1.65,1.69,1.69-.76,1.69-1.69-.76-1.65-1.69-1.65Z"/>
    </g>
    <g>
      <path class="cls-1" d="M554.35,364.29c0-6.01,3.95-10.86,10.26-10.86s10.26,4.85,10.26,10.86-3.95,10.91-10.26,10.91-10.26-4.89-10.26-10.91ZM571.48,364.29c0-4.21-2.45-7.99-6.87-7.99s-6.91,3.78-6.91,7.99,2.49,8.03,6.91,8.03,6.87-3.78,6.87-8.03Z"/>
      <path class="cls-1" d="M564.61,375.7c-6.24,0-10.76-4.8-10.76-11.41s4.53-11.36,10.76-11.36,10.76,4.78,10.76,11.36-4.53,11.41-10.76,11.41ZM564.61,353.93c-5.75,0-9.76,4.26-9.76,10.36s4.01,10.41,9.76,10.41,9.76-4.28,9.76-10.41-4.01-10.36-9.76-10.36ZM564.61,372.82c-5.09,0-7.41-4.42-7.41-8.53s2.55-8.49,7.41-8.49,7.37,4.4,7.37,8.49-2.31,8.53-7.37,8.53ZM564.61,356.8c-4.41,0-6.41,3.88-6.41,7.49s2.01,7.53,6.41,7.53,6.37-3.9,6.37-7.53-1.99-7.49-6.37-7.49Z"/>
    </g>
    <g>
      <path class="cls-1" d="M580.11,374.68v-28.64h3.22v28.64h-3.22Z"/>
      <path class="cls-1" d="M583.83,375.18h-4.22v-29.64h4.22v29.64ZM580.61,374.18h2.22v-27.64h-2.22v27.64Z"/>
    </g>
    <g>
      <path class="cls-1" d="M598.79,353.43c6.27,0,9.96,4.89,9.96,11.12v.82h-16.79c.26,3.91,3.01,7.17,7.47,7.17,2.36,0,4.77-.94,6.4-2.62l1.55,2.1c-2.06,2.06-4.85,3.18-8.24,3.18-6.14,0-10.56-4.42-10.56-10.91,0-6.01,4.29-10.86,10.22-10.86ZM591.96,363h13.61c-.04-3.09-2.1-6.91-6.83-6.91-4.42,0-6.61,3.74-6.79,6.91Z"/>
      <path class="cls-1" d="M599.13,375.7c-6.51,0-11.06-4.69-11.06-11.41s4.61-11.36,10.72-11.36,10.46,4.78,10.46,11.62v1.32h-16.74c.41,3.15,2.65,6.17,6.92,6.17,2.28,0,4.53-.92,6.04-2.47l.41-.42,2.15,2.92-.3.3c-2.17,2.17-5.15,3.32-8.6,3.32ZM598.79,353.93c-5.54,0-9.72,4.46-9.72,10.36s4.14,10.41,10.06,10.41c3.06,0,5.61-.92,7.58-2.73l-.95-1.29c-1.67,1.49-4,2.37-6.33,2.37-4.4,0-7.67-3.14-7.97-7.64l-.04-.53h16.82v-.32c0-6.35-3.8-10.62-9.46-10.62ZM606.08,363.5h-14.65l.03-.53c.2-3.67,2.76-7.39,7.28-7.39,4.74,0,7.28,3.73,7.33,7.41v.51ZM592.51,362.5h12.54c-.24-2.55-2.01-5.91-6.3-5.91s-5.9,3.36-6.24,5.91Z"/>
    </g>
    <g>
      <path class="cls-1" d="M613.94,374.68v-20.74h3.22v3.35c1.67-2.19,4.08-3.78,6.91-3.78v3.31c-.39-.09-.77-.13-1.29-.13-1.98,0-4.68,1.63-5.62,3.31v14.68h-3.22Z"/>
      <path class="cls-1" d="M617.66,375.18h-4.22v-21.74h4.22v2.5c1.82-1.9,4.06-2.93,6.41-2.93h.5v4.43l-.61-.13c-.37-.08-.72-.12-1.18-.12-1.71,0-4.2,1.44-5.12,2.94v15.05ZM614.44,374.18h2.22v-14.32l.06-.11c1.05-1.86,3.94-3.56,6.06-3.56.29,0,.54.01.79.04v-2.2c-2.25.16-4.37,1.41-6.01,3.56l-.9,1.17v-4.33h-2.22v19.74Z"/>
    </g>
  </g>
  <g>
    <path class="cls-1" d="M56.27,289.73l-2-.02c-.02-27.36,10.44-53.63,31.11-78.08,16.57-19.61,39.18-37.59,67.19-53.45,97.44-53.46,227.45-74.66,366.09-59.71l-.2,1.99c-125.81-11.21-238.08,4.23-333.66,45.9-47.31,21.38-126.95,68.45-128.54,143.37ZM332.35,102.82c-47.26,6.8-91.67,18.51-131.95,34.89,40.86-16.19,85.11-27.9,131.95-34.89Z"/>
    <path class="cls-1" d="M444.58,485.62c-31.15,0-62.58-1.9-93.64-5.71l.23-1.99c96.97,10.23,189.33,3.36,274.54-20.41,45.39-12.67,193.73-62.2,196.77-167.84l2,.02c.52,55.26-44.44,95.38-71.29,114.38-51.9,35.69-117.07,60.09-193.71,72.54-36.93,6-75.69,9.01-114.91,9.01ZM683.86,439.42c-23.7,9.91-44.76,16.44-57.62,20.03-32.51,9.07-66.07,15.69-100.51,19.84,57.56-6.48,111.29-19.96,158.13-39.87Z"/>
    <path class="cls-1" d="M273.83,481.29c-12.85,0-23.62-5.94-30.33-16.71-2.74-4.41-3.38-7.95-1.9-10.51,1.45-2.51,4.69-3.71,9.62-3.53,15.99.52,27.73,8.79,36.94,26.03l1.18,2.21-2.42.66c-4.51,1.23-8.91,1.85-13.1,1.85ZM243.16,455.4c-.84,1.87-.15,4.6,2.04,8.13,6.42,10.32,16.31,15.77,28.63,15.77,3.68,0,7.55-.51,11.52-1.5l-.19.05c-17.09,4.24-31.66-.97-39.95-14.31-2.19-3.52-2.87-6.25-2.04-8.13ZM250.32,454.52c-2.78,0-4.7.56-5.26,1.54-.66,1.14.01,3.47,1.84,6.4,7.6,12.22,20.84,17.18,36.49,13.73-8.27-14.32-18.56-21.21-32.29-21.66-.26,0-.52-.01-.76-.01ZM283.89,473.15c.64,1.04,1.27,2.11,1.9,3.23l.08.14c-.65-1.17-1.3-2.29-1.98-3.38ZM250.31,452.52c-3.39,0-5.66.73-6.75,2.19,1.11-1.48,3.43-2.24,6.96-2.19-.07,0-.14,0-.21,0Z"/>
    <path class="cls-1" d="M207.9,480.67l-2.4-.72c-18.44-5.54-29-18.52-28.97-35.61,0-5.19,1.34-8.53,3.95-9.92,2.56-1.36,5.93-.65,10.03,2.1,13.29,8.92,18.86,22.15,17.55,41.65l-.17,2.5ZM179.51,438.38c-.65,1.42-.97,3.42-.98,5.96-.03,15.59,9.33,27.57,25.76,33.12-16.41-5.54-25.79-17.59-25.76-33.12,0-2.55.33-4.54.98-5.96ZM183.3,437.75c-.37,0-.68.07-.93.2-1.16.62-1.83,2.95-1.83,6.4-.03,14.39,8.58,25.61,23.68,30.97.57-16.52-4.51-27.82-15.92-35.48-2.58-1.73-4.14-2.09-4.99-2.09ZM179.52,438.38s0,0,0,0c0,0,0,0,0,0ZM179.52,438.37s0,0,0,0t0,0ZM183.3,435.75c1.46,0,3.24.64,5.3,1.91-2.94-1.82-5.29-2.35-6.98-1.57.5-.23,1.06-.34,1.68-.34Z"/>
    <path class="cls-1" d="M153.66,415.11c-3.49,0-6.81-.3-9.23-.51-3.76-.34-6.5-1.29-8.14-2.82-1.69-1.58-3.73-5.22,1.57-11.79,4.48-5.56,9.75-11.57,14.81-13.91,6.13-2.84,12.79-.92,19.85,1.11,3.18.92,6.45,1.86,9.74,2.37l2.48.39-.93,2.33c-4.26,10.69-9.59,16.75-18.41,20.89-2.78,1.31-6.62,1.94-11.74,1.94ZM142.61,412.35c.62.11,1.29.19,2,.26,1.26.11,2.77.25,4.41.35-1.65-.1-3.16-.24-4.41-.35-.71-.06-1.38-.15-2-.26ZM137.55,410.21s.07.07.11.11c.42.4.95.75,1.59,1.05-.64-.3-1.17-.65-1.59-1.05-.04-.04-.08-.07-.11-.11ZM181.49,392.66v.03c-3.87,9.18-8.83,14.73-16.52,18.46,7.75-3.75,12.61-9.19,16.52-18.49ZM159.55,388.65c-1.98,0-3.68.34-5.2,1.05-4.31,2-9.18,7.59-13.37,12.79-1.72,2.13-3.44,4.96-1.95,6.36.94.88,2.99,1.51,5.76,1.75,4.89.44,13.99,1.25,18.91-1.07,7.22-3.4,11.76-8.22,15.44-16.5-2.64-.55-5.21-1.29-7.71-2.01-4.26-1.23-8.26-2.38-11.89-2.38ZM143.05,396.89c-1.25,1.43-2.47,2.9-3.63,4.35-.14.17-.28.35-.41.53.13-.17.27-.35.41-.53,1.17-1.45,2.38-2.92,3.63-4.35ZM178.05,390.75c.89.21,1.78.4,2.68.57l1.21.22s0-.01,0-.02h0,0c-1.31-.2-2.61-.47-3.9-.78ZM171.41,388.94c.19.05.37.11.56.16.1.03.2.06.3.09-.1-.03-.2-.06-.3-.09-.19-.05-.37-.11-.56-.16ZM159.55,386.65c-1.6,0-3.14.2-4.63.69,2.89-.94,6.44-.8,10.09-.05-1.87-.39-3.7-.64-5.46-.64Z"/>
    <path class="cls-1" d="M242.56,457.29c-29.63-8.04-73.08-22.97-111.83-48.47-40.09-26.37-64.93-57.45-73.83-92.36-2.79-11.8-3.52-23.48-2.17-34.72l1.99.19c-.84,11.57.22,22.93,3.16,33.75,20.75,74.36,111.1,117,183.24,139.68l-.56,1.92ZM87.11,368.74c11.73,13.7,26.66,26.53,44.71,38.4,6.55,4.31,13.25,8.32,19.98,12.04-24.64-13.82-47.33-30.48-64.69-50.45Z"/>
    <path class="cls-1" d="M98.69,455.33l-.93-2.33c-8.28-20.64-4.17-39.52,11.27-51.78,4.63-3.68,8.52-4.87,11.56-3.56,2.97,1.29,4.71,4.78,5.17,10.38,1.52,18.42-6.43,32.99-25,45.87l-2.06,1.43ZM104.98,448.25c-1.36,1.1-2.8,2.19-4.31,3.27l-.24.17c1.6-1.13,3.12-2.28,4.55-3.45ZM118,399.14c-2.08,0-4.67,1.22-7.72,3.65-14.44,11.47-18.44,29.07-11.07,48.42l-.05-.14c-7.29-19.27-3.23-36.87,11.13-48.28,3.99-3.17,7.24-4.27,9.52-3.29,1.11.48,2,1.44,2.66,2.88-.66-1.43-1.55-2.4-2.66-2.88-.55-.24-1.15-.36-1.8-.36ZM118,401.14c-1.12,0-3.15.56-6.48,3.21-13.33,10.59-17.28,26.85-10.95,44.77,15.79-11.6,22.54-24.58,21.2-40.76-.32-3.9-1.31-6.4-2.77-7.03-.29-.12-.62-.19-1-.19Z"/>
    <path class="cls-1" d="M101.14,367.53c-6.29,0-14.36-3.62-18.7-5.56-4.74-2.12-7.25-4.7-7.46-7.65-.2-2.88,1.82-5.68,6-8.31,6.05-3.8,12.99-7.76,18.53-8.33,6.73-.68,12.4,3.3,18.41,7.52,2.7,1.9,5.49,3.86,8.44,5.41l2.22,1.17-1.64,1.9c-7.51,8.72-14.53,12.71-24.21,13.76-.5.05-1.04.08-1.59.08ZM100.91,365.53c.54,0,1.07-.01,1.56-.06-.5.05-1.03.07-1.56.06ZM124.69,353.22l-.1.11c-6.7,7.49-13.25,11.12-21.85,12.11,8.69-.99,15.13-4.56,21.94-12.21ZM100.99,341.61c-.35,0-.71.02-1.07.05-4.73.48-11.15,4.18-16.81,7.73-2.72,1.71-4.23,3.4-4.14,4.64.09,1.31,1.95,2.87,5.1,4.28,4.47,2,12.8,5.73,18.23,5.15,7.93-.86,13.8-3.94,19.97-10.57-2.33-1.39-4.52-2.93-6.65-4.43-5.03-3.53-9.78-6.86-14.63-6.86ZM76.98,354.2c.16,2.15,2.27,4.15,6.28,5.95.64.29,1.36.61,2.15.95-.78-.34-1.5-.67-2.15-.95-4-1.79-6.12-3.79-6.28-5.95ZM124.45,351.85l.96.54s0,0,.01-.01c-.32-.17-.65-.35-.97-.53ZM116.77,346.84c2.07,1.45,4.2,2.95,6.43,4.29-2.23-1.34-4.35-2.83-6.43-4.29h0ZM112.32,343.8c1.47.94,2.94,1.98,4.44,3.03-1.5-1.05-2.97-2.09-4.44-3.03ZM100.99,339.61c-.42,0-.85.02-1.28.06-3.37.34-7.4,2.11-11.43,4.32,4.03-2.21,8.06-3.98,11.43-4.32,2.55-.26,5,.28,7.41,1.3-2-.84-4.03-1.36-6.13-1.36Z"/>
    <path class="cls-1" d="M823.86,299.97l-1.99-.2c6.24-77.5-72.43-127.73-119.88-150.77-18.35-8.99-39.23-17.34-63.82-25.53l.59-1.91c23.16,6.69,44.97,14.8,64.82,24.11,39.4,18.4,129.98,70.28,120.27,154.3ZM732.1,163.01c19.4,11.67,36.24,24.42,49.76,37.73-15.63-15.53-33.59-28.12-49.76-37.73Z"/>
    <path class="cls-1" d="M631.56,127.79c-.31,0-.62,0-.95-.02-15.99-.57-27.71-8.87-36.88-26.12l-1.18-2.21,2.42-.65c18.59-5.02,34.4.44,43.39,14.97,2.73,4.42,3.36,7.96,1.88,10.52-1.36,2.34-4.28,3.52-8.68,3.52ZM628.74,125.66c.64.05,1.29.09,1.95.11.03,0,.05,0,.08,0-.03,0-.06,0-.08,0-.66-.02-1.3-.06-1.95-.11ZM598.52,102.03c8.23,14.34,18.5,21.26,32.24,21.74,3.2.12,5.4-.43,6.03-1.52.66-1.13,0-3.47-1.82-6.4-7.56-12.23-20.8-17.23-36.45-13.82ZM607.9,98.98c12.21,0,22.38,5.48,28.77,15.82,2.28,3.68,2.92,6.5,1.9,8.37,1.02-1.87.38-4.69-1.9-8.37-8.29-13.4-22.77-18.61-39.89-14.42,3.85-.94,7.57-1.4,11.12-1.4Z"/>
    <path class="cls-1" d="M690.41,142.66c-2.37,0-5-1.45-7.81-4.32-11.2-11.43-13.98-25.51-8.74-44.34l.67-2.42,2.21,1.19c16.93,9.17,24.64,24.01,21.14,40.74-1.06,5.08-3.04,8.08-5.88,8.92-.51.15-1.04.23-1.59.23ZM677.06,97.57c-3.91,16.06-1.23,28.15,8.39,37.97,2.25,2.29,4.23,3.4,5.42,3.06,1.26-.37,2.38-2.52,3.09-5.9,2.94-14.08-3.21-26.82-16.9-35.13ZM678.05,95.83c13.83,8.37,20.39,21.05,18.25,35.21,2.16-14.2-4.4-26.83-18.25-35.21Z"/>
    <path class="cls-1" d="M711.19,188.04c-4.71,0-9.44-1.85-14.45-3.81-3.08-1.2-6.25-2.45-9.48-3.26l-2.43-.61,1.14-2.23c5.23-10.25,11.1-15.79,20.25-19.11,6.14-2.22,15.81-.44,21.01.51,5.11.94,8.16,2.84,9.06,5.66.88,2.75-.42,5.95-3.86,9.49-4.98,5.13-10.77,10.62-16.03,12.48-1.65.59-3.36.87-5.21.87ZM700.29,183.46c3.79,1.43,7.42,2.58,10.9,2.58,1.52,0,2.92-.22,4.26-.66-4.76,1.56-9.83.09-15.16-1.92ZM690.69,177.79c2.59.8,5.09,1.77,7.51,2.72,6.13,2.4,11.91,4.66,16.87,2.89,4.48-1.59,9.84-6.71,14.5-11.5,2.24-2.3,3.3-4.3,2.92-5.49-.4-1.25-2.57-2.32-5.97-2.95-4.83-.89-13.82-2.53-18.93-.68-7.5,2.72-12.47,7.1-16.9,15ZM687.75,179.04c.37.09.73.19,1.09.29l-1.08-.31s0,.01,0,.02h0ZM710.14,160.16c-1.16.15-2.25.39-3.23.75-8.33,3.02-13.79,8.02-18.63,17.14l.06-.11c4.78-8.95,10.33-14.04,18.57-17.02.98-.35,2.07-.6,3.23-.75ZM734.31,165.58c.03.07.06.15.08.23.64,2-.5,4.52-3.39,7.49-1.23,1.27-2.52,2.56-3.83,3.81,1.31-1.25,2.59-2.54,3.83-3.81,2.89-2.97,4.03-5.5,3.39-7.49-.02-.08-.05-.15-.08-.23ZM728.26,161.79c2.28.55,3.95,1.31,4.99,2.29-1.04-.98-2.71-1.74-4.99-2.29Z"/>
    <path class="cls-1" d="M769.98,190.48c-.57,0-1.13-.08-1.67-.22-3.12-.86-5.32-4.08-6.55-9.56-4.05-18.03,1.8-33.56,18.42-48.89l1.84-1.7,1.25,2.18c11.05,19.3,9.6,38.56-4,52.85-3.38,3.55-6.5,5.35-9.29,5.35ZM768.52,188.23c.11.04.21.07.32.1.05.01.1.03.15.04-.05-.01-.1-.02-.15-.04-.11-.03-.22-.06-.32-.1ZM781.02,136.52c-14.04,13.68-18.92,27.46-15.36,43.3.86,3.82,2.18,6.16,3.72,6.58,1.6.45,4.09-.98,6.99-4.03,11.74-12.33,13.4-28.98,4.65-45.85ZM764.23,182.25c.42,1.37.91,2.51,1.48,3.43-.56-.92-1.06-2.07-1.48-3.43ZM782.15,134.39v.02c9.89,18.08,8.31,36.07-4.33,49.35-.42.44-.84.86-1.24,1.24.41-.38.82-.79,1.24-1.24,12.69-13.33,14.24-31.26,4.33-49.37ZM780.79,133.97c-1.56,1.47-3.02,2.94-4.38,4.42,1.3-1.41,2.69-2.82,4.18-4.23l.2-.19Z"/>
    <path class="cls-1" d="M784.78,252.53c-6.51,0-11.77-4.23-17.34-8.71-2.58-2.07-5.23-4.21-8.07-5.95l-2.14-1.31,1.76-1.79c8.07-8.21,15.33-11.73,25.06-12.15,6.49-.29,15.13,4.28,19.77,6.73l.12.06c4.59,2.43,6.93,5.16,6.94,8.12.01,2.89-2.18,5.55-6.53,7.9-6.29,3.4-13.47,6.89-19.04,7.1-.18,0-.36,0-.54,0ZM808.89,237.44s0,.06,0,.09c0,2.1-1.83,4.16-5.48,6.13-6.08,3.29-13,6.67-18.16,6.86-.04,0-.09,0-.13,0,.04,0,.09,0,.13,0,5.16-.19,12.08-3.57,18.16-6.86,3.65-1.97,5.49-4.03,5.48-6.13,0-.03,0-.06,0-.09ZM763.6,235.85c2.23,1.54,4.32,3.22,6.35,4.85,5.16,4.15,9.98,8.05,15.22,7.82,4.75-.17,11.4-3.44,17.28-6.62,2.82-1.52,4.44-3.11,4.43-4.36,0-1.31-1.76-2.99-4.81-4.6-4.36-2.31-12.4-6.53-17.85-6.33-7.97.34-14.02,3.03-20.62,9.24ZM768.28,241.93l.24.19-.24-.19ZM761.84,237.07c.55.37,1.08.74,1.62,1.12-.53-.38-1.07-.76-1.62-1.12ZM760.43,236.16c.33.2.66.41.98.62l-.97-.63s0,0-.01.01h0ZM784.63,224.6c5.96,0,13.97,4.24,18.34,6.55,3.29,1.74,5.21,3.52,5.76,5.32-.55-1.8-2.46-3.58-5.71-5.3l-.12-.06c-4.47-2.36-12.76-6.76-18.73-6.5.15,0,.31,0,.46,0ZM783.67,224.63c-8.49.46-15.02,3.52-22.12,10.42,7.03-6.82,13.68-9.95,22.12-10.42Z"/>
    <path class="cls-1" d="M803.85,238.87c-2.62,0-5.23-.21-7.79-.42l-.4-.03c-.76-.09-1.48-.18-2.21-.26-3.7-.42-7.53-.86-11.07-2.26l.63-1.9c.82.22,1.69.3,2.6.38l.49.04c3.16.28,11.09,1,16.4,1.56.36.03.9.09,1.5.15,1.18.12,2.65.27,3.38.31.36.02.72.04,1.06.02h.08s-.03,0-.04,0c0,0,0,0,.01,0l.05.83,1.33-.04c.02.49-.19,1.11-1.34,1.32l-.25.05c-1.47.17-2.95.24-4.42.24ZM807.94,236.97c-.04.1-.07.21-.07.34h.18s-.11-.34-.11-.34ZM808.06,236.79l.06.52h.4s-.18-.78-.18-.78c-.04.02-.08.05-.12.08.04,0,.08-.01.12-.03-.08.02-.18.1-.27.21Z"/>
    <path class="cls-1" d="M768.36,188.26l-1.75-.96c3.56-7.98,6.03-16.07,7.33-24.03.2-1.1.24-2.19.28-3.5l1.99-.09c1.2,9.73-3.23,21.64-7.85,28.59Z"/>
    <path class="cls-1" d="M707.19,170.71l-.22-1.98,2.13-.43c8.17-1.63,15.9-3.18,23.79-5.28l.68,1.87c-7.85,3.61-16.72,5.57-26.38,5.81Z"/>
    <path class="cls-1" d="M689.48,140.4l-1.99-.12c-.29-7.17-1.43-14.51-3.47-22.43l-2.46-9.58,4.33,8.89c3.54,7.28,4.82,15.53,3.58,23.24Z"/>
    <path class="cls-1" d="M637.33,124.66c-5.78-5.26-12.48-9.74-20.51-13.69l.71-1.86c8.59,2.39,16.15,7.43,21.27,14.2l-1.47,1.34Z"/>
    <path class="cls-1" d="M77.29,355.82h-.2l-.16-1.99c4.95-.79,10.13-1.34,15.14-1.88,4.38-.47,8.9-.95,13.23-1.59l.45,1.94c-9.83,3.09-20.35,3.51-28.45,3.51Z"/>
    <path class="cls-1" d="M111.78,422.63l-1.8-.86c3.22-8.74,5.96-15.97,8.62-22.74l1.91.55c-1.58,8.25-4.52,16.01-8.74,23.05Z"/>
    <path class="cls-1" d="M137.92,411.06c-.24,0-.46-.11-.69-.36-.73-.81-.33-1.2,2.28-3.75,6.68-6.27,15.37-10.02,23.86-10.31l.23,1.98c-8.39,1.65-16.65,5.57-23.87,11.34-.76.63-1.31,1.1-1.81,1.1Z"/>
    <path class="cls-1" d="M195.72,465.74l-5.49-8.29c-4.04-6.11-7.04-13.3-8.91-21.35l1.88-.64c2.69,5.91,5.12,11.96,7.48,17.82l5.03,12.47Z"/>
    <path class="cls-1" d="M265.35,469.49c-6.47-5.55-14.09-9.83-22.66-12.74l.47-1.94c9.26,1.42,17.87,6.26,23.61,13.29l-1.43,1.39Z"/>
  </g>
</svg>