<?xml version="1.0" encoding="UTF-8"?>
<svg id="Layer_1" data-name="Layer 1" xmlns="http://www.w3.org/2000/svg" version="1.1" viewBox="0 0 1920 1080">
  <defs>
    <style>
      .cls-1 {
        fill: #52443b;
        stroke-width: 0px;
      }
    </style>
  </defs>
  <g>
    <g>
      <path class="cls-1" d="M564.8,620.1c16.6.5,34.9-2.5,48.5-8.7,11.9-5.5,18.6-20.5,5.2-30.4-8.7-6.7-36.4-12.9-47.1-14.4-4.2,5-31.5,44.1-39.9,62.6-3,6.4-5.7,7.4-3.2-.5,4.2-13.4,25.3-46.3,36.1-62.9-2.2-.5-3.7-.7-5.9-1.7-5.5-2-4.4-6.7-2.2-6.9,3-.2,9.9-.7,14.1-2,14.9-20.3,28.7-45.6,35.4-59.9,1.5-3,3.7-10.1-.7-10.9-4-.7,15.8-11.6,14.1-1.5-2.5,14.1-32.4,59.9-40.1,71.6,14.1-2.5,68.1-15.1,87.4-31.2,12.4-10.1,24.3-28.5,3.7-43.8-30.7-23-74-27.7-114.1-28.5-9.2-.2-62.4-3.7-75.8,22.5-5.2,10.1,10.4,22,16.3,25.3,5,2.7,4.7,6.7-1.2,3-11.2-6.9-29.5-17.6-21.8-31.2,12.4-22.3,77.8-24,82-24,44.8.7,83.9,3,118.9,27.2,22.8,15.8,16.8,38.4-4.2,52.5-25.5,17.3-64.6,26.7-86.7,30.4-4.2.7-4.2,3.5-.2,4,20.5,2.7,38.4,12.9,43.8,18.3,15.4,15.1-1,27.5-12.1,35.2-11.2,7.7-27.7,12.1-48.5,10.9-10.6-.7-5.9-5.2-1.7-5h0Z"/>
      <path class="cls-1" d="M528,636.8c-.4,0-.7,0-1.1-.2-3.1-1.2-1.6-6-.8-8.6,4-12.7,22.6-42.3,34.6-60.6-.9-.3-1.9-.6-3-1.1-4.4-1.6-5.7-5-5.4-7.3.3-2.2,1.9-4,3.9-4.2h.8c2.8-.3,8.4-.8,12.2-1.7,13.9-19.2,27.7-43.9,34.7-58.9,1.3-2.7,2-6.2,1.5-7.3,0,0,0-.2-.4-.2-2-.4-2.7-1.9-2.5-3.3.6-3.5,10.2-8,15.1-7.1,2.6.5,5.1,2.5,4.3,7-2.1,12.3-23.1,45.9-37.3,67.7,20.5-4.3,64.4-16,80.7-29.6,4.3-3.5,14.2-12.9,14-23.6-.1-6-3.6-11.5-10.2-16.5-31.4-23.6-76.8-27.3-112.8-28h-1.9c-49.4-1.9-66.2,10.5-71.7,21.2-4.2,8.2,9.8,19,15.4,22.1,3,1.6,4.7,3.8,4.7,5.8s-.6,2.2-1.6,2.7c-1.6.9-3.8.4-6.8-1.4l-1.2-.8c-11.2-6.9-29.9-18.5-21.3-33.6,13.6-24.6,83.4-25.2,84.1-25.2,46.7.8,85.2,3.3,120.2,27.7,13,9,15.6,19.1,15.6,25.9,0,11.1-7.3,22.2-19.8,30.6-27.7,18.8-69.8,27.7-85.3,30.4,19.5,3.2,36.8,12.8,42.6,18.6,5,5,7.4,10.2,6.9,15.5-.8,9.3-9.8,16.7-19.4,23.3-12.3,8.5-30.1,12.5-50,11.3-6-.4-8.9-2.1-8.7-5.1.2-3,4-4.8,7.3-4.6,16.9.5,34.7-2.7,47.4-8.5,6.1-2.8,10.5-8.4,11.1-13.9.5-4.7-1.7-9-6.3-12.4-7.5-5.8-32.2-11.8-44.6-13.7-5.9,7.6-30.7,43.3-38.7,61.1-2.1,4.5-3.9,6.6-5.8,6.6h0ZM565.3,622.5c.4,0,.9,0,1.4.1,13.6.8,26.1-.9,36.3-4.9-11.5,3.4-24.8,5.1-37.8,4.8h0ZM570.5,564l1.3.2c9.1,1.2,38.5,7.4,48.2,14.8,6,4.4,8.9,10.4,8.2,16.7-.2,1.9-.7,3.7-1.4,5.4,2.4-2.8,4-5.8,4.2-8.8.3-3.9-1.5-7.7-5.5-11.7-4.9-4.9-22.3-15-42.5-17.7-3.6-.5-5-2.5-5-4.2,0-.6.1-1.2.5-1.9l-4.4.8,3.1-4.7c23.3-35.4,38.2-61.8,39.7-70.7.2-1,0-1.3,0-1.3h0s-.3-.2-1.5-.1c-2.2.2-5,1.4-6.8,2.5.4.4.7.8.9,1.3,2.1,4.2-1.1,10.8-1.4,11.5-7.4,15.8-21.3,40.6-35.6,60.3l-.5.6-.8.2c-4.1,1.2-10.5,1.7-13.9,2h-.3c0,.1,0,.3,0,.5.2.7,1.1,1.4,2.4,1.9,1.9.8,3.1,1.1,4.8,1.5l4.2.9-1.9,2.9c-4.8,7.3-11,16.9-16.9,26.6,8.9-13.6,17.5-25.8,20-28.7l.9-1h0ZM583,449.8c30.7,2.4,63.8,9,88.8,27.8,7.9,5.9,11.9,12.7,12.1,20.2.3,11.5-8.6,21.1-14,25.9,10.6-7.4,16.7-16.8,16.8-26,0-8.1-4.6-15.7-13.5-21.9-26.9-18.7-56.3-24.1-90.2-26h0ZM486.8,462c-5,2.7-8.9,5.9-11.1,9.7-3.6,6.4-.3,12.2,6,17.6-4.1-5.2-6.4-11.2-3.5-16.9,2-3.9,4.9-7.4,8.6-10.4h0Z"/>
    </g>
    <g>
      <path class="cls-1" d="M746.8,565.6c-11.2,1.7-48,1.7-67.8,1.7-7.4,9.9-17.6,24.8-18.6,40.4-.7,14.6,8.2,18.1,16.6,17.1,10.9-1.2,24.5-6.7,33.4-11.9,2.7-1.5,4.7-.2,2,1.7-6.9,5-21.1,13.4-33.2,15.6-9.9,1.7-25.3-9.7-24.8-22.5,1.7-36.1,41.1-76.3,64.1-84.9,12.4-4.7,20.3,12.4,14.9,22-5.2,9.2-19.1,15.8-35.4,18.3,18.1,0,38.1,0,48.8-1.2,6.9-.7,14.9-5.2,18.8-8.7,1.5-2.2,3.5-1.2,1.7,1-3.2,3.5-11.4,10.2-20.5,11.4h0ZM718.1,531.7c-12.1,6.9-25.3,19.3-36.4,31.5,17.3,0,37.9-8.7,45.8-20.5,6.9-10.6.5-16.3-9.4-10.9h0Z"/>
      <path class="cls-1" d="M677.1,632.8c-5.2,0-11.1-2.5-16.1-6.8-5.9-5.2-9.2-11.9-8.9-18.3,1.7-36.3,41-77.8,65.7-87.1,5.6-2.1,11.1-.7,15.1,4,5.1,5.9,6.2,15.2,2.7,21.5-3.4,6-10.1,11.1-19,14.7,11.9,0,23.1-.4,30-1.2,6-.6,13.3-4.5,17.3-7.9,1-1.4,2.5-2.1,3.8-2,1.1,0,2.1.8,2.5,1.8.3.7.6,2.3-.9,4.3-3.7,4.1-12.4,11-22.1,12.3-11.1,1.7-46.9,1.8-67,1.8-7.8,10.5-16.5,24.1-17.4,38.1-.3,5.5.9,9.5,3.5,11.9,3.2,3,7.9,2.9,10.4,2.6,10.9-1.2,24.2-6.7,32.5-11.6,2.7-1.5,5.3-1.2,6.4.5.3.5,1.5,2.8-1.8,5.2-8.5,6.1-22.5,13.9-34.2,16-.8.1-1.7.2-2.5.2h0ZM672.8,627.3c2.2.7,4.3.9,6.1.6,3.7-.7,7.6-1.9,11.5-3.6-4.4,1.4-8.9,2.4-13,2.9-1.6.2-3.1.2-4.5,0h0ZM722.8,524.4c-1,0-2.1.2-3.3.6-23.5,8.8-60.9,48.4-62.6,82.8,0,2.5.5,5,1.7,7.4-.5-2.3-.7-4.8-.6-7.7,1-15.8,10.7-30.6,19.1-41.7l.3-.4h-1.1l3.7-4c13.8-15,26.3-25.8,37-31.9h0c5.2-2.9,10.1-3.2,13.1-.9-.3-.4-.6-.8-.9-1.1-1.4-1.6-3.5-3.3-6.5-3.3h0ZM697.9,563.4c-2.5.6-5.2,1.2-7.8,1.5,2.5,0,5.2,0,7.9,0v-1.5c-.1,0,0,0,0,0ZM719.3,533.8c-9.1,5.2-20,14.3-31.7,26.6,15.4-1.7,31.6-9.6,38-19.2,2.8-4.3,3-7.3,1.9-8.5-1-1.1-4-1.2-8.1,1h0ZM732.7,536.1c-.3,2.4-1.4,5-3.2,7.8-2.7,4-6.8,7.8-11.8,11,6.4-3.1,11.2-6.9,13.6-11.2,1.2-2.1,1.6-4.8,1.3-7.5h0Z"/>
    </g>
    <g>
      <path class="cls-1" d="M754.2,545.8v-.7c61.2-138.7,126.5-210.2,196.6-214.4,24-1.5,45.3,5.9,63.4,21.5,18.6,15.6,27.2,33.2,25.3,53-.5,6.2-2.5,12.4-5.5,18.3-15.6,29.7-57.7,57.5-126.5,83.7-47.1,17.8-95.6,31.7-145.6,41.1-5.5,15.4-9.7,33.9-10.1,47.3-.7,31,20.5,25.3,36.4,13.9,6.2-4.5,4.4,0,2,2.2-23,20.5-47.5,20.1-48.5-10.6-.7-17.1,4.4-36.1,12.6-55.2h0ZM1033.1,400.9c2-17.3-5.7-32.9-22-46.3-16.6-13.9-36.6-20.5-60.2-19.6-39.6,1.5-80.2,31.9-121.6,89.6-24.8,34.7-46.1,72.8-64.1,114.9h.2c-.7,1.7-1.2,3.2-2.2,5,60.2-12.4,113.9-28.7,161-49.3,56.4-24.8,91.4-51,104.8-78.5,2.5-5.2,3.7-10.4,4.2-15.8h0Z"/>
      <path class="cls-1" d="M760.7,628.2c-3,0-5.7-.5-8.3-1.6-5.7-2.5-12.7-8.9-13.3-25.5-.7-15.7,3.6-34.5,12.6-55.8v-.8l.2-.5c30.6-69.3,62.7-122.6,95.4-158.3,33-36.1,67.8-55.4,103.3-57.6,24.4-1.5,46.4,5.9,65.1,22.1,19.3,16.2,28.1,34.7,26.1,55.1-.5,6.1-2.4,12.6-5.7,19.2-16,30.4-57.8,58.2-127.8,84.9-47.4,18-96,31.7-144.6,41-5.4,15.5-9.1,33.2-9.6,45.3-.2,7.1.8,16.2,6.6,19.3,5.6,3,15.3.2,26-7.5,1.7-1.2,5.3-3.8,7.4-1.3,1.9,2.3-.7,5.8-2.4,7.3-10.8,9.6-21.8,14.8-31,14.8h0ZM756.6,545.6v.7l-.2.5c-8.9,20.8-13.1,39-12.4,54.2.4,11.2,3.9,18.5,10.3,21.2,5.6,2.4,13.3,1.2,21.5-3.2-5.7,2.1-12,3.1-17.3.3-6.4-3.4-9.5-11.4-9.2-23.7.5-13,4.4-31.3,10.2-47.7l-1.1.2,2.6-4.6c.3-.5.5-.9.7-1.3h-.3l1.4-3.3c18-41.9,39.7-80.7,64.4-115.3,30.3-42.3,60.4-70,89.7-82.6-56.2,22.1-110,90.8-160.4,204.9h0ZM768.8,537.2h.2l-1.4,3.3c0,.2-.2.5-.3.7,58.4-12.3,110.8-28.5,155.8-48.2,55.6-24.4,90.5-50.4,103.5-77.4,2.2-4.6,3.5-9.4,4-15h0c1.9-16.3-5.3-31.2-21.2-44.2-16.2-13.6-36-19.9-58.5-19-38.3,1.4-78.6,31.3-119.7,88.6-23.9,33.4-44.8,70.7-62.4,111.1h0ZM1035.5,401.2c-.6,6.1-2,11.6-4.4,16.6-13.6,28-49.3,54.8-106,79.7-1.8.8-3.6,1.6-5.4,2.3,60.4-24.4,98.1-50.5,112.3-77.5,3-6,4.7-11.8,5.2-17.4,1-9.9-.7-19.2-5.2-28,3.3,7.7,4.5,15.7,3.6,24.2h0Z"/>
    </g>
    <g>
      <path class="cls-1" d="M847.8,464.8c15.8-24.3,37.6-49,60.2-75.3,1.2-1.5,5.9-3.5,13.9-6.4,7.9-2.7,10.1-4.2,14.1-4.2s2.7,1,2.7,2.2-.7,1.2-2.5,1.7c-15.6,3.2-41.1,29.2-77,78.5-20.1,29.7-33.9,53.7-48.5,86.9-5.5,15.4-9.7,33.9-10.1,47.3-.7,31,20.5,25.3,36.4,13.9,6.2-4.5,4.4,0,2,2.2-23,20.5-47.5,20.1-48.5-10.6-2-43.3,32.4-97.6,57.5-136.2h0Z"/>
      <path class="cls-1" d="M809.5,628.2c-3,0-5.7-.5-8.3-1.6-5.7-2.5-12.7-8.9-13.3-25.5-2.1-45.1,34-100.7,57.8-137.6h0c14.5-22.3,33.9-44.8,54.4-68.6l6-6.9c1.4-1.7,4.9-3.4,14.9-7.1,2.4-.8,4.3-1.5,5.8-2.1,3.7-1.4,6-2.3,9.2-2.3s5.1,2.3,5.1,4.6-2.4,3.5-4.2,4c-15,3.1-40.5,29.2-75.7,77.6-21.4,31.7-34.5,55.1-48.3,86.5-5.6,15.7-9.5,34-9.9,46.4-.2,7.1.8,16.2,6.6,19.3,5.6,3,15.3.2,26-7.5,1.7-1.2,5.3-3.8,7.4-1.3,1.9,2.3-.7,5.8-2.4,7.3-10.8,9.6-21.8,14.8-31,14.8h0ZM849.9,466.1c-23.5,36.3-59,91.2-57,134.8.4,11.2,3.9,18.5,10.3,21.3,5.6,2.4,13.3,1.2,21.5-3.2-5.7,2.1-12,3.1-17.3.3-6.4-3.4-9.5-11.4-9.2-23.7.5-13.1,4.4-31.5,10.3-48,14-31.8,27.2-55.4,48.8-87.4,31.2-42.8,54.4-68,70.7-76.6-1.5.6-3.2,1.2-5.3,1.9-3.1,1.2-11.7,4.4-12.8,5.7l-6,7c-20.4,23.7-39.7,46.1-54,68.1h0Z"/>
    </g>
    <g>
      <path class="cls-1" d="M931,565.6c-11.2,1.7-48,1.7-67.8,1.7-7.4,9.9-17.6,24.8-18.6,40.4-.7,14.6,8.2,18.1,16.6,17.1,10.9-1.2,24.5-6.7,33.4-11.9,2.7-1.5,4.7-.2,2,1.7-6.9,5-21.1,13.4-33.2,15.6-9.9,1.7-25.3-9.7-24.8-22.5,1.7-36.1,41.1-76.3,64.1-84.9,12.4-4.7,20.3,12.4,14.9,22-5.2,9.2-19.1,15.8-35.4,18.3,18.1,0,38.1,0,48.8-1.2,6.9-.7,14.9-5.2,18.8-8.7,1.5-2.2,3.5-1.2,1.7,1-3.2,3.5-11.4,10.2-20.5,11.4h0ZM902.3,531.7c-12.1,6.9-25.3,19.3-36.4,31.5,17.3,0,37.9-8.7,45.8-20.5,6.9-10.6.5-16.3-9.4-10.9h0Z"/>
      <path class="cls-1" d="M861.3,632.8c-5.2,0-11.1-2.5-16.1-6.8-5.9-5.2-9.2-11.9-8.9-18.3,1.7-36.3,41-77.8,65.7-87.1,5.6-2.1,11.1-.7,15.1,4,5.1,5.9,6.2,15.2,2.7,21.5-3.4,6-10.1,11.1-19,14.7,11.9,0,23.1-.4,30-1.2,6-.6,13.3-4.5,17.3-7.9,1-1.4,2.5-2.2,3.8-2,1.1,0,2.1.8,2.5,1.8.3.7.6,2.3-.9,4.3-3.7,4-12.4,11-22.1,12.3-11.1,1.7-46.9,1.8-67,1.8-7.8,10.5-16.5,24.1-17.4,38.1-.3,5.5.9,9.5,3.5,11.9,3.2,3,7.9,2.9,10.4,2.6,10.9-1.2,24.2-6.7,32.5-11.6,2.7-1.5,5.3-1.2,6.4.5.3.5,1.5,2.8-1.8,5.2-8.5,6.1-22.5,13.9-34.2,16-.8.1-1.7.2-2.5.2h0ZM857,627.3c2.2.7,4.3.9,6.1.6,3.7-.7,7.6-1.9,11.5-3.6-4.4,1.4-8.9,2.4-13,2.9-1.6.2-3.1.2-4.5,0h0ZM907,524.4c-1,0-2.1.2-3.3.6-23.5,8.8-60.9,48.4-62.6,82.8,0,2.5.5,5,1.7,7.4-.5-2.3-.7-4.8-.6-7.7,1-15.8,10.7-30.6,19.1-41.7l.3-.4h-1.1l3.7-4c13.8-15,26.3-25.8,37-31.9h0c5.2-2.9,10.1-3.2,13.1-.9-.3-.4-.6-.8-.9-1.1-1.4-1.6-3.5-3.3-6.5-3.3h0ZM882.1,563.4c-2.5.6-5.2,1.2-7.8,1.5,2.5,0,5.2,0,7.9,0v-1.5c-.1,0,0,0,0,0ZM903.5,533.8c-9.1,5.2-20,14.3-31.7,26.6,15.4-1.7,31.6-9.6,38-19.2,2.8-4.3,3-7.3,1.9-8.5-1-1.1-4-1.2-8.1,1h0ZM916.9,536.1c-.3,2.4-1.4,5-3.2,7.8-2.7,4-6.8,7.8-11.8,11,6.4-3.1,11.2-6.9,13.6-11.2,1.2-2.1,1.6-4.8,1.3-7.5h0Z"/>
    </g>
    <g>
      <path class="cls-1" d="M1050.4,564.1c2,0,2.2,1.7,8.4,3.7,10.1.5,22.3-1.5,36.9-5.5,14.6-4.2,27-9.4,36.9-15.6,17.3-10.6,26-24.5,26-41.8s-7.2-31-21.5-43.3c-11.4-10.2-27.5-18.1-48-24-20.3-5.9-41.8-8.9-64.4-8.9s-39.6,2.5-56.7,7.7c-16.1,4.7-24.3,14.1-24.3,26.7s1,9.4,3.5,14.9c2.5,5.2,3.7,7.9,3.7,7.9,0,.2-.5.2-.7.2-.5,0-1.2-.5-2.7-2-5.2-5.7-7.4-12.6-7.4-20.3,0-15.1,8.9-25.3,26.7-31,17.8-5.7,37.6-8.4,59.7-8.4s44.3,2.7,65.1,8.4c21.1,5.7,37.6,13.1,50,22.8,17.6,13.6,26.5,29,26.5,46.5s-11.2,35.7-33.2,48c-8.9,5.2-20.1,9.7-33.2,13.6-15.1,4.7-29,7.2-42.1,7.9-1.2,0-1.5,1.2-1.2,3.2,1.2,7.4,4.7,18.1,10.4,31.5,6.2,14.4,11.9,24,17.1,29.2,5.7,5.7,10.9,8.4,15.9,8.4s4-.2,6.4-1.2c1.2-.2,2-.5,2.7-.5.7.2,1,.5.7.7-.2.7-1,1.2-2,1.7-3.5,2-6.9,2.7-10.1,2.7-5.2,0-11.4-2.7-18.6-8.2-4.7-3.7-11.9-14.9-21.3-33.4-9.4-18.6-14.1-31-14.1-36.6s1.7-5.2,5-5.2h0ZM1044.2,549c-23.3,35.4-33.9,57.5-32.9,65.9.2,1.7-1.5,2.5-4.4,2.5s-4.7-1.2-5.2-3c-2.5-7.9,24-51,79.5-129.3,2-2,2.2-4,1.2-5.9-.2-.5-.5-1-.5-1.2,0-1.5.7-2.2,2-2.2s1.7.5,2.5,1.2c2.5,2.5,3.5,4.2,2.5,5.2-14.9,22.3-30,44.6-44.6,66.9h0Z"/>
      <path class="cls-1" d="M1099.4,650c-5.8,0-12.4-2.8-20-8.7-5.1-4.1-12.5-15.6-22-34.3-9.5-18.8-14.4-31.5-14.4-37.7s2.7-7.6,7.4-7.6,2.6.6,3.6,1.3,2.3,1.5,5.3,2.5c9.4.4,20.8-1.3,35.8-5.4,14.4-4.2,26.7-9.3,36.2-15.3,16.7-10.3,24.9-23.3,24.9-39.8s-7-29.7-20.7-41.5c-10.9-9.7-26.8-17.6-47.1-23.5-20-5.9-41.4-8.8-63.7-8.8s-39.5,2.5-56,7.6c-10.3,3-22.6,9.7-22.6,24.4s1.1,9.1,3.2,13.9c2.5,5.2,3.7,7.9,3.7,7.9l.2.5v.5s0,2.6-3.1,2.6-2.7-.9-4.4-2.7c-5.4-5.9-8.1-13.3-8.1-22,0-16,9.6-27.2,28.4-33.2,18-5.7,37.7-8.5,60.4-8.5s44.9,2.8,65.7,8.5c21.7,5.9,38.4,13.5,50.9,23.2,18.5,14.3,27.4,30.1,27.4,48.4s-11.6,37.3-34.4,50.1c-8.7,5.1-19.8,9.6-33.7,13.8-14.4,4.5-28.1,7.1-41.7,8,0,.2,0,.4,0,.6,1.2,7.3,4.8,18,10.2,30.8,6,13.9,11.6,23.4,16.6,28.5,5.2,5.2,9.8,7.7,14.2,7.7s3.7-.3,5.6-1.1h.4c.4-.2.7-.3,1-.3.7-.2,1.4-.3,2.2-.3h.7c.5.3,2,.8,2.4,2.4.2.7,0,1.3-.3,1.9-.6,1.4-1.9,2.2-3.1,2.7-3.4,1.9-7.2,3-11.2,3h0ZM1050.4,566.5c-1.7,0-2.5.4-2.5,2.8s1.8,11.8,13.8,35.6c11.4,22.5,17.5,30.2,20.6,32.6,2.8,2.1,5.5,3.8,8,5.1-2-1.4-4.1-3.1-6.2-5.2-5.5-5.5-11.3-15.3-17.6-30-5.6-13.2-9.3-24.2-10.6-32-.2-1.6-.3-3.5.9-4.8.2-.2.5-.5.7-.6-3.4-1.1-5-2.2-6.2-2.9-.7-.5-.8-.5-1-.5h0ZM1059.8,574.2h0,0ZM1060.7,573.4h0ZM1070.5,430.6c6.5,1.3,13,2.8,19.2,4.7,21.1,6.1,37.5,14.3,49,24.5,14.8,12.8,22.3,28,22.3,45.1s-5.8,26.7-17.3,36.7c14.6-10.9,21.9-24.1,21.9-39.5s-8.4-31.3-25.6-44.6c-12-9.3-28-16.7-49.2-22.4-6.7-1.9-13.5-3.4-20.4-4.6h0ZM1006.8,619.8c-3.9,0-6.7-1.8-7.5-4.7-1.9-6,5.5-26.4,79.8-131.3l.3-.3c1.5-1.5,1.2-2.4.8-3.2-.4-.8-.7-1.5-.7-2.3,0-2.8,1.8-4.6,4.4-4.6s3.3,1.1,4.2,1.9c1.5,1.5,5.4,5.4,2.7,8.4-4.9,7.4-9.9,14.8-14.8,22.1-9.8,14.6-19.9,29.7-29.7,44.6h0c-30.7,46.7-33,60.5-32.6,64.3.2,1.2-.2,2.4-.9,3.2-1.1,1.3-3.1,1.9-5.9,1.9h0ZM1081.5,488.6c-70.4,99.4-78.9,121-77.6,125,.3,1.2,2.3,1.3,2.9,1.3,1.1,0,1.7-.1,2-.2-.7-9.8,10.5-32.3,33.4-67,9.8-14.9,19.9-30,29.7-44.6,3.2-4.8,6.5-9.6,9.7-14.4h0ZM1084.8,478.9c.6,1.6.6,3.2,0,4.7.6-.8,1.1-1.7,1.7-2.6-.2-.4-.7-1-1.8-2.2Z"/>
    </g>
    <g>
      <path class="cls-1" d="M1135.6,618.3c.2-13.4,11.2-33.7,33.2-60.7.5-1,.2-2-.5-2.2-3-1.7-6.7-4-6.7-5.9s-.5-3.2,7.2-3.5c6.2-.2,9.2-.5,9.4-.2.5,0,1.5-.2,2.7-1,3.7-3.5,7.2-5.2,10.9-5.5,2.7-.2,6.4,1.7,11.2,4.4.5.2,1,.7,1.7,1,7.4.2,18.3.5,32.2,1,2.5,0,3.7.5,3.7,1,0,.7-1.2,1.5-3.7,1.5-5.2,0-8.4,1-9.9,3-.2.5-.2,1,0,1.5.2,1,.7,2,.7,2.7-1,12.4-10.6,26.7-30.2,43.6-19.3,16.6-36.1,26.2-50.8,28.2-4.7.7-11.2-3.7-11.2-8.9h0ZM1141.8,619.6c0,4,2.7,5.5,7.9,4.4,11.2-1.7,24.5-9.7,40.4-24.3,16.6-14.9,26-28.2,28.5-40.1,1.2-5.2-2.2-7.9-9.4-8.7-7.9-1-14.9,0-20.8,2.2-.5-.2-2,.7-4.2,2.2-17.6,16.3-31.2,35.9-40.9,58.7-1,1.7-1.5,3.7-1.5,5.5Z"/>
      <path class="cls-1" d="M1145.7,629.8c-2.8,0-5.9-1.2-8.4-3.3-2.6-2.2-4.1-5.2-4.1-8.1h0c.3-14.1,11.4-34.7,33-61.3-3.9-2.3-7-4.6-7-7.5-.1-5,5-5.7,9.5-5.9,1.8,0,3.3-.1,4.6-.2,2.8-.1,4.2-.2,5.1,0,.2,0,.6-.2,1.1-.5,4.1-3.7,8-5.6,12.2-5.9,3.4-.3,7.3,1.8,12.5,4.8.1,0,.4.2.7.5.1,0,.2.2.4.2,2.7,0,5.8.2,9.3.3,6.2.2,13.7.4,22.4.7h0c5,0,6,1.9,6,3.4s-1.6,3.9-6.1,3.9-6.7.8-7.5,1.6c0,.3.2.6.3.8.3.7.5,1.5.5,2.4-1.1,13.6-11.2,28.4-31,45.4-20.2,17.4-37.2,26.8-52,28.8-.5,0-.9,0-1.4,0h0ZM1138,618.4c0,1.2.6,2.6,1.7,3.7-.2-.7-.3-1.5-.3-2.5,0-2.2.6-4.5,1.7-6.5,9.7-22.9,23.7-42.9,41.4-59.4l.3-.2c2.5-1.7,4-2.6,5.3-2.7,6.6-2.4,13.8-3.1,21.4-2.2,5.1.5,8.6,2,10.4,4.6,1.4,1.9,1.7,4.3,1.1,7-2.1,10.1-9.1,21.3-20.8,33.3,15.9-14.5,24.4-27.3,25.3-38.3,0,.1-.2-.4-.3-.6-.1-.4-.2-.7-.3-1.1-.5-1.1-.4-2.3.1-3.4l.2-.4c.6-.7,1.3-1.4,2.1-1.9-4.7-.1-9-.3-12.7-.4-3.7,0-7-.2-9.8-.3h-.7c-.8-.4-1.4-.8-1.8-1.1,0,0-.2-.1-.3-.2-4.1-2.4-7.9-4.4-9.9-4.2-3.2.2-6.2,1.7-9.5,4.8l-.4.3c-1.4.8-2.9,1.3-4,1.3h-1.1c-.8,0-2.1,0-3.6,0-1.3,0-2.8.1-4.6.2-3.3,0-4.5.6-4.9.8v.3c.4.9,4,3,5.3,3.8.8.4,1.5,1,1.8,1.9.5,1.1.4,2.4-.2,3.6l-.3.5c-21.1,25.9-32.4,46.3-32.6,59.2h0ZM1185.6,557.4c-17.2,16-30.7,35.4-40.1,57.7v.3c-.9,1.3-1.3,2.9-1.3,4.3s.2,1.5.6,1.9c.3.3,1.4.8,4.5.2,10.8-1.7,24-9.6,39.2-23.7,16.1-14.4,25.4-27.4,27.8-38.8.5-2.1,0-2.9-.3-3.2-.6-.9-2.4-2.1-7-2.6-7.1-.9-13.7-.2-19.7,2.1l-1,.4h-.1c-.6.3-1.6.9-2.5,1.5h0Z"/>
    </g>
    <g>
      <path class="cls-1" d="M1254.4,541.1c.7-2,1.5-3.2.2-.5v-1.7c61.4-138.7,126.8-210.2,196.9-214.4,23.8-1.5,45.1,5.9,63.4,21.5,18.6,15.6,27,33.2,25,53-.5,6.2-2.5,12.4-5.5,18.3-15.6,29.7-57.7,57.7-126.3,83.7-47.3,18.1-96.1,31.7-146.1,41.1-4.7,8.4-9.9,21.8-16.8,40.4-2.2,5.7-4,10.4-5.2,14.4,5.7-5.2,16.6-12.4,32.7-23,19.6-12.9,34.4-21.6,44.1-25.5,1.5-.7,3.2-1,5-1,5.9,0,8.4,3,8.2,9.2-.5,2.2-1.7,4.7-3,7.4-9.7,16.1-24.3,30-44.6,42.1-20.3,12.1-39.1,18.1-56,17.8-.5,0-1-.2-1.5-.5-2.5-.7-4.7-3.5-4.7-5.9.7-1.7,1.7-3.5,3.5-5.9,6.4-15.1,15.8-37.2,28-65.4.2,0,.5-.2.7-1.2,0-.2-.2-.5,0-.7,0-.2.5-.5.5-.7l.2-.2v.5c.2-.5.5-1,.7-1.7,0,.2-.2.5-.2.5.2-.5.5-1,.7-1.2h0ZM1235.9,611.4c0,.2.2.2.2.5-.2.2-.2.7-.5,1l.2,1c-.5,2-.2,3.5,1.2,3.7,1.5.5,5.2.2,11.4-1,12.6-2.7,24.8-8.7,37.6-18.1,13.4-9.7,22.3-19.8,26.7-30.2l1-4c.2-5-1.2-7.7-5.5-7.7s-14.4,5.9-32.2,17.8c-14.4,9.7-25,17.6-32.4,23.3-4,3.2-6.7,7.9-7.9,13.6h0ZM1533.8,394.8c1.5-17.3-5.7-32.9-22-46.3-16.8-13.9-36.9-20.5-60.2-19.6-39.9,1.5-80.5,31.9-121.8,89.6-25.5,35.9-47.8,75.8-66.1,119.8,60.2-12.4,113.9-28.5,161.2-49.3,56.2-24.5,91.1-51,104.5-78.5,2.5-5.2,3.5-10.4,4.4-15.8h0Z"/>
      <path class="cls-1" d="M1227.5,626.2h-1c-.9,0-1.8-.4-2.4-.7-3.4-1.2-6.2-4.8-6.2-8.2v-.5l.2-.5c.8-1.9,1.9-3.7,3.6-6.2,5.8-13.6,13.9-32.7,24.3-56.8l-1,1,3.9-7.9c.2-.5.4-1,.6-1.5l.5-1.1c0-.4.2-.8.3-1.1,0-.2.2-.3.3-.5v-.2l1-1.1.2-.3.6-2v-.5l.2-.5c.3-.7.6-1.5,1-2.2l2.9-8.6v2.2c29.5-65.1,60.4-115.5,91.8-149.7,33.1-36.1,67.8-55.4,103.3-57.6,24.2-1.5,46.1,5.9,65.1,22.1,19.2,16.1,27.9,34.7,25.8,55.1-.5,6.1-2.4,12.6-5.7,19.2-15.9,30.3-58.8,58.8-127.6,84.9-46.4,17.7-95.3,31.5-145.4,41-4.7,8.8-10.1,22.9-16.1,39.1-.9,2.4-1.7,4.5-2.5,6.4,6.1-4.5,14.5-10.1,25.6-17.4l.7-.5c20.3-13.3,34.8-21.7,44.5-25.7,1.5-.8,3.5-1.2,5.9-1.2,3.5,0,6.2.9,8,2.8,1.9,2,2.8,4.9,2.6,8.8v.4c-.5,2.1-1.5,4.3-2.6,6.7l-.7,1.5c-9.9,16.6-24.8,30.6-45.4,42.9-20.2,12.1-39.1,18.2-56.2,18.2h0ZM1222.7,617.8c.2,1.3,1.6,2.8,3,3.2h.4c.2.2.4.4.6.4,4.5,0,9.2-.3,14-1.2-2.2.1-3.4,0-4.1-.3-1.1-.2-2-.8-2.5-1.7-.7-1.1-.9-2.5-.6-4.3l-.4-1.8.5-.5v-.7c.6-2.6,1.5-5,2.6-7.2l-.9.8,2.6-8.5c1.2-3.7,2.8-8.2,5.3-14.5,7.3-19.6,12.2-31.9,16.7-40.1l1.7-4c17.9-43,40.2-83.5,66.4-120.3,29.8-41.6,59.4-69,88.3-82-55.4,22.7-108.5,90.8-158.5,203,.4.9,0,1.9-.7,3.4l-4.6,10.1v-.9c-11.3,26.4-20.2,47.1-26.3,61.5l-.2.4c-1.4,2-2.3,3.5-3,5h0ZM1238,615.4c.6.1,3,.3,10-1.1,12.1-2.6,23.8-8.2,36.7-17.7,12.8-9.3,21.5-19,25.9-29l.9-3.5c0-2.7-.4-3.8-.9-4.3-.1-.2-.6-.6-2.2-.6s-6,.8-30.9,17.4c-11.3,7.6-21.9,15.2-32.3,23.2-3.3,2.7-5.7,6.6-6.8,11.4,0,.3.1.6.1.8v1l-.3.3.2.6v.6c-.2.4-.3.7-.3.9h0ZM1309.5,554.3c1.9.2,3.4.9,4.5,2.1,1.6,1.7,2.4,4.3,2.2,8.1v.5c0,0-1.2,4.3-1.2,4.3-3.8,8.9-10.8,17.6-20.7,25.9,13.2-9.7,23.2-20.4,30.5-32.4l.5-1.2c.9-2,1.8-3.9,2.2-5.5,0-2.4-.4-4.2-1.3-5.1-.9-.9-2.3-1.3-4.5-1.3s-2.9.2-3.9.7c-2.4,1-5.2,2.3-8.3,3.9h0ZM1455.9,331.2c-1.4,0-2.9,0-4.3,0-38.5,1.4-78.8,31.3-120,88.6-25.1,35.3-46.6,74.1-64.1,115.2,60.1-12.6,111.2-28.4,156.2-48.2,55.3-24.1,90.1-50.2,103.3-77.4,2.4-5,3.3-10.1,4.2-15.1,1.4-16.7-5.7-31.5-21.2-44.1-15.4-12.7-33.6-19.1-54.2-19.1h0ZM1531.8,369.5c3.7,8,5.1,16.5,4.4,25.5v.2c-1,5.1-2,10.8-4.7,16.5-13.7,28.3-49.3,55.1-105.7,79.7-1.9.8-3.9,1.7-5.8,2.5,60.3-24.3,98.1-50.4,112.4-77.6,3-6,4.7-11.8,5.2-17.4,1-10.4-.9-20.2-5.8-29.3h0Z"/>
    </g>
    <g>
      <path class="cls-1" d="M1421.8,565.6c-11.2,1.7-48,1.7-67.8,1.7-7.4,9.9-17.6,24.8-18.6,40.4-.7,14.6,8.2,18.1,16.6,17.1,10.9-1.2,24.5-6.7,33.4-11.9,2.7-1.5,4.7-.2,2,1.7-6.9,5-21.1,13.4-33.2,15.6-9.9,1.7-25.3-9.7-24.8-22.5,1.7-36.1,41.1-76.3,64.1-84.9,12.4-4.7,20.3,12.4,14.9,22-5.2,9.2-19.1,15.8-35.4,18.3,18.1,0,38.1,0,48.8-1.2,6.9-.7,14.9-5.2,18.8-8.7,1.5-2.2,3.5-1.2,1.7,1-3.2,3.5-11.4,10.2-20.5,11.4h0ZM1393.1,531.7c-12.1,6.9-25.3,19.3-36.4,31.5,17.3,0,37.9-8.7,45.8-20.5,6.9-10.6.5-16.3-9.4-10.9h0Z"/>
      <path class="cls-1" d="M1352.1,632.8c-5.2,0-11.1-2.5-16.1-6.8-5.9-5.2-9.2-11.9-9-18.4,1.7-36.3,41-77.8,65.7-87.1,5.6-2.1,11.1-.7,15.1,4,5.1,5.9,6.2,15.2,2.7,21.5-3.4,6-10.1,11.1-19,14.7,11.9,0,23.1-.4,30-1.2,6-.6,13.3-4.5,17.3-7.9,1-1.4,2.4-2.1,3.8-2,1.1,0,2.1.8,2.5,1.8.3.7.6,2.3-.9,4.3-3.7,4.1-12.4,11-22.1,12.3-11.1,1.7-46.9,1.8-67,1.8-7.8,10.5-16.5,24.1-17.4,38.1-.3,5.5.9,9.5,3.5,11.9,3.2,3,7.9,2.9,10.4,2.6,10.9-1.2,24.2-6.7,32.5-11.6,2.7-1.5,5.3-1.2,6.4.5.3.5,1.5,2.8-1.8,5.2-8.5,6.1-22.5,13.9-34.2,16-.8.1-1.7.2-2.5.2h0ZM1347.7,627.3c2.2.7,4.3.9,6.1.6,3.7-.7,7.6-1.9,11.5-3.6-4.4,1.4-8.9,2.4-13,2.9-1.6.2-3.1.2-4.5.1h0ZM1397.8,524.4c-1,0-2.1.2-3.3.6-23.5,8.8-60.9,48.4-62.6,82.8,0,2.5.5,5,1.7,7.4-.5-2.3-.7-4.8-.6-7.7,1-15.8,10.7-30.6,19.1-41.7l.3-.4h-1.1l3.7-4c13.8-15,26.3-25.8,37-31.9h0c5.2-2.9,10.1-3.2,13.1-.9-.3-.4-.6-.8-.9-1.1-1.4-1.6-3.5-3.3-6.5-3.3h0ZM1372.9,563.4c-2.5.6-5.2,1.2-7.8,1.5,2.5,0,5.2,0,7.9,0v-1.5c-.1,0,0,0,0,0ZM1394.3,533.8c-9.1,5.2-20,14.3-31.7,26.6,15.4-1.7,31.6-9.6,38-19.2,2.8-4.3,3-7.3,1.9-8.5-1-1.1-4-1.2-8.1,1h0ZM1407.7,536.1c-.3,2.4-1.4,5-3.2,7.8-2.7,4-6.8,7.8-11.8,11,6.4-3.1,11.2-6.9,13.6-11.2,1.2-2.1,1.6-4.8,1.3-7.5h0Z"/>
    </g>
    <g>
      <path class="cls-1" d="M522.1,746.9v-68.8h30.6c12,0,19.3,7.2,19.3,17.5s-5.8,14.4-12.1,15.8c7.3,1.1,13.4,8.7,13.4,16.9s-7.3,18.6-19.9,18.6h-31.4ZM530.7,707.9h20.6c7.7,0,11.9-4.7,11.9-11s-4.1-11.2-11.9-11.2h-20.6v22.2ZM530.7,739.2h21.1c8.1,0,12.8-4.5,12.8-11.9s-4.3-11.9-12.8-11.9h-21.1v23.7Z"/>
      <path class="cls-1" d="M553.5,748.1h-32.6v-71.2h31.8c12.3,0,20.5,7.5,20.5,18.7s-4.4,13.2-9.4,15.7c6.2,2.8,10.7,9.7,10.7,17,0,12-8.3,19.8-21.1,19.8h0ZM523.4,745.7h30.2c11.5,0,18.7-6.7,18.7-17.4s-5.6-14.7-12.4-15.7l-6.5-1,6.4-1.4c5.4-1.1,11.1-6.2,11.1-14.6s-7.1-16.3-18.1-16.3h-29.4v66.4h0ZM551.8,740.4h-22.3v-26.1h22.3c9.7,0,14,6.6,14,13.1s-5.4,13.1-14,13.1ZM531.9,738h19.8c7.3,0,11.6-4,11.6-10.7s-3.6-10.7-11.6-10.7h-19.8v21.3ZM551.3,709.1h-21.8v-24.6h21.8c7.8,0,13.1,5,13.1,12.4s-5.1,12.2-13.1,12.2ZM531.9,706.7h19.4c6.6,0,10.7-3.8,10.7-9.8s-4.2-9.9-10.7-9.9h-19.4v19.8Z"/>
    </g>
    <g>
      <path class="cls-1" d="M586.7,746.9v-49.8h7.7v8.1c4-5.3,9.8-9.1,16.6-9.1v8c-.9-.2-1.9-.3-3.1-.3-4.8,0-11.2,3.9-13.5,8v35.3h-7.7Z"/>
      <path class="cls-1" d="M595.7,748.1h-10.1v-52.2h10.1v6c4.4-4.6,9.8-7,15.4-7h1.2v10.6l-1.5-.3c-.9-.2-1.7-.3-2.8-.3-4.1,0-10.1,3.5-12.3,7.1v36.2h0ZM587.9,745.7h5.3v-34.7c2.7-4.5,9.6-8.6,14.7-8.6s1.3,0,1.9,0v-5.3c-5.4.4-10.5,3.4-14.5,8.6l-2.2,2.8v-10.4h-5.3v47.4h0Z"/>
    </g>
    <g>
      <path class="cls-1" d="M654.4,746.9v-7c-3.8,4.3-10.3,8.3-17.8,8.3s-15.9-5-15.9-15.9v-35.2h7.7v32.8c0,8.8,4.4,11.3,11.2,11.3s11.9-3.5,14.8-7.5v-36.6h7.7v49.8h-7.7Z"/>
      <path class="cls-1" d="M636.7,749.3c-11.3,0-17.1-5.7-17.1-17.1v-36.4h10.1v34c0,7.2,2.9,10.1,9.9,10.1s11-3.4,13.6-6.7v-37.4h10.1v52.2h-10.1v-5.3c-3.9,3.5-9.8,6.6-16.6,6.6h0ZM622,698.2v34c0,10,4.7,14.7,14.7,14.7s13.5-4.1,16.8-7.9l2.1-2.4v9h5.3v-47.4h-5.3v35.8l-.2.3c-2.9,4-8.8,8-15.7,8s-12.4-4.1-12.4-12.5v-31.6h-5.3Z"/>
    </g>
    <g>
      <path class="cls-1" d="M713.7,746.9v-7.4c-3.7,5-9.8,8.7-16.8,8.7-13,0-22.2-9.9-22.2-26.1s9.1-26.2,22.2-26.2,12.8,3.3,16.8,8.8v-26.5h7.7v68.8h-7.7ZM713.7,710.7c-2.8-4.3-8.8-8.1-15-8.1-10,0-16,8.3-16,19.3s6,19.2,16,19.2,12.2-3.5,15-7.8v-22.6h0Z"/>
      <path class="cls-1" d="M696.9,749.3c-14,0-23.4-11-23.4-27.3s9.4-27.4,23.4-27.4,11.4,2.4,15.6,6.7v-24.4h10.1v71.2h-10.1v-5.4c-4.2,4.2-9.8,6.6-15.6,6.6ZM696.9,697c-12.5,0-21,10-21,25s8.2,24.9,21,24.9,12.1-3.1,15.9-8.2l2.2-3v9.9h5.3v-66.4h-5.3v29l-2.2-3c-3.9-5.3-9.7-8.3-15.9-8.3h0ZM698.8,742.4c-10.3,0-17.2-8.2-17.2-20.4s6.9-20.5,17.2-20.5,12.7,3.5,16,8.6l.2.3v23.3l-.2.3c-3.2,5-9.7,8.4-16,8.4h0ZM698.8,703.9c-8.8,0-14.8,7.3-14.8,18.1s5.8,18,14.8,18,10.9-2.9,13.8-7v-21.9c-2.5-3.6-7.9-7.2-13.8-7.2h0Z"/>
    </g>
    <g>
      <path class="cls-1" d="M758.6,695.8c15.1,0,23.9,11.8,23.9,26.7v2h-40.3c.6,9.4,7.2,17.2,18,17.2s11.5-2.3,15.4-6.3l3.7,5c-5,5-11.7,7.6-19.8,7.6-14.8,0-25.4-10.6-25.4-26.2s10.3-26.1,24.6-26.1h0ZM742.2,718.8h32.7c0-7.4-5-16.6-16.4-16.6s-15.9,9-16.3,16.6Z"/>
      <path class="cls-1" d="M759.5,749.3c-15.6,0-26.6-11.3-26.6-27.4s11.1-27.3,25.8-27.3,25.1,11.5,25.1,27.9v3.2h-40.2c1,7.6,6.4,14.8,16.6,14.8s10.9-2.2,14.5-5.9l1-1,5.2,7-.7.7c-5.2,5.2-12.4,8-20.7,8h0ZM758.6,697c-13.3,0-23.4,10.7-23.4,24.9s9.9,25,24.2,25,13.5-2.2,18.2-6.6l-2.3-3.1c-4,3.6-9.6,5.7-15.2,5.7-10.6,0-18.4-7.5-19.2-18.4v-1.3c0,0,40.3,0,40.3,0v-.8c0-15.3-9.1-25.5-22.7-25.5h0ZM776.2,720h-35.2v-1.3c.6-8.8,6.7-17.8,17.6-17.8s17.5,9,17.6,17.8v1.2h0ZM743.5,717.6h30.1c-.6-6.1-4.8-14.2-15.1-14.2s-14.2,8.1-15,14.2h0Z"/>
    </g>
    <g>
      <path class="cls-1" d="M790.4,725.3v-6.8h24.8v6.8h-24.8Z"/>
      <path class="cls-1" d="M816.4,726.5h-27.2v-9.2h27.2v9.2ZM791.6,724.1h22.4v-4.4h-22.4v4.4Z"/>
    </g>
    <g>
      <path class="cls-1" d="M849.7,721.9c0-14.4,9.5-26.1,24.7-26.1s24.7,11.7,24.7,26.1-9.5,26.2-24.7,26.2-24.7-11.8-24.7-26.2ZM890.9,721.9c0-10.1-5.9-19.2-16.5-19.2s-16.6,9.1-16.6,19.2,6,19.3,16.6,19.3,16.5-9.1,16.5-19.3Z"/>
      <path class="cls-1" d="M874.4,749.3c-15,0-25.9-11.5-25.9-27.4s10.9-27.3,25.9-27.3,25.9,11.5,25.9,27.3-10.9,27.4-25.9,27.4ZM874.4,697c-13.8,0-23.5,10.2-23.5,24.9s9.6,25,23.5,25,23.5-10.3,23.5-25-9.6-24.9-23.5-24.9ZM874.4,742.4c-11.7,0-17.8-10.3-17.8-20.5s6.1-20.4,17.8-20.4,17.7,10.6,17.7,20.4-5.6,20.5-17.7,20.5ZM874.4,703.9c-10.6,0-15.4,9.3-15.4,18s4.8,18.1,15.4,18.1,15.3-9.4,15.3-18.1-4.8-18-15.3-18Z"/>
    </g>
    <g>
      <path class="cls-1" d="M915.4,753.9c4.1,5,9.1,6.8,16.2,6.8s16-4,16-15v-7.1c-3.6,5-9.7,8.9-16.7,8.9-13,0-22.2-9.7-22.2-25.8s9.1-25.9,22.2-25.9,12.7,3.3,16.7,8.8v-7.5h7.7v48.4c0,16.5-11.6,21.7-23.7,21.7s-14.3-1.7-20.1-7.4l3.9-5.8h0ZM947.6,710.7c-2.7-4.3-8.7-8.1-14.9-8.1-10,0-16,8-16,19s6,19,16,19,12.2-3.8,14.9-8.1v-21.8h0Z"/>
      <path class="cls-1" d="M931.6,768.3c-7.8,0-14.4-1.3-21-7.8l-.7-.7,5.4-7.9,1,1.2c3.8,4.5,8.2,6.4,15.3,6.4s14.8-1.3,14.8-13.8v-3.8c-4.1,4.3-9.7,6.8-15.5,6.8-14.2,0-23.4-10.6-23.4-27s9.4-27.1,23.4-27.1,11.3,2.4,15.5,6.7v-5.5h10.1v49.6c0,14.5-9.1,22.9-24.9,22.9ZM913.1,759.5c5,4.6,10.2,6.4,18.6,6.4s22.5-2.7,22.5-20.5v-47.2h-5.3v10l-2.2-3c-3.9-5.3-9.6-8.3-15.7-8.3-12.7,0-21,9.7-21,24.7s8.2,24.6,21,24.6,12-3.1,15.7-8.4l2.2-3.1v10.9c0,10.1-6.4,16.2-17.2,16.2s-12-1.8-16.1-6.1l-2.5,3.7h0ZM932.8,741.9c-10.3,0-17.2-8.1-17.2-20.2s6.9-20.2,17.2-20.2,12.7,3.5,15.9,8.6l.2.3v22.4l-.2.3c-3.2,5.1-9.7,8.7-15.9,8.7ZM932.8,703.9c-9,0-14.8,7-14.8,17.8s5.8,17.8,14.8,17.8,11.2-3.6,13.6-7.3v-21.1c-2.4-3.6-7.8-7.2-13.6-7.2h0Z"/>
    </g>
    <g>
      <path class="cls-1" d="M1007.4,703.8v43h-7.7v-43h-8.3v-6.8h8.3v-3.8c0-10.3,5.8-16.2,14.4-16.2s5.6.5,7.5,1.8l-2,5.8c-1.2-.7-2.7-1.1-4.4-1.1-5,0-7.8,3.5-7.8,9.8v3.8h10.1v6.8h-10.1,0Z"/>
      <path class="cls-1" d="M1008.6,748.1h-10.1v-43h-8.3v-9.2h8.3v-2.6c0-10.7,6-17.4,15.6-17.4s6.2.7,8.2,1.9l.8.5-2.7,8.1-1.3-.7c-1.1-.6-2.4-1-3.8-1-5.5,0-6.6,4.7-6.6,8.6v2.6h10.1v9.2h-10.1v43h0ZM1000.8,745.7h5.3v-43h10.1v-4.4h-10.1v-5c0-7,3.3-11,9-11s2.6.2,3.7.7l1.2-3.5c-1.6-.7-3.7-1.1-6.1-1.1-8.3,0-13.2,5.6-13.2,15v5h-8.3v4.4h8.3v43h0Z"/>
    </g>
    <g>
      <path class="cls-1" d="M1048.3,695.8c15.1,0,23.9,11.8,23.9,26.7v2h-40.3c.6,9.4,7.2,17.2,18,17.2s11.5-2.3,15.4-6.3l3.7,5c-5,5-11.7,7.6-19.8,7.6-14.8,0-25.4-10.6-25.4-26.2s10.3-26.1,24.6-26.1h0ZM1031.9,718.8h32.7c0-7.4-5-16.6-16.4-16.6s-15.9,9-16.3,16.6h0Z"/>
      <path class="cls-1" d="M1049.2,749.3c-15.6,0-26.6-11.3-26.6-27.4s11.1-27.3,25.8-27.3,25.1,11.5,25.1,27.9v3.2h-40.2c1,7.6,6.4,14.8,16.6,14.8s10.9-2.2,14.5-5.9l1-1,5.2,7-.7.7c-5.2,5.2-12.4,8-20.7,8h0ZM1048.3,697c-13.3,0-23.4,10.7-23.4,24.9s9.9,25,24.2,25,13.5-2.2,18.2-6.6l-2.3-3.1c-4,3.6-9.6,5.7-15.2,5.7-10.6,0-18.4-7.5-19.2-18.4v-1.3c0,0,40.3,0,40.3,0v-.8c0-15.3-9.1-25.5-22.7-25.5h0ZM1065.8,720h-35.2v-1.3c.6-8.8,6.7-17.8,17.6-17.8s17.5,9,17.6,17.8v1.2h0ZM1033.2,717.6h30.1c-.6-6.1-4.8-14.2-15.1-14.2s-14.2,8.1-15,14.2h0Z"/>
    </g>
    <g>
      <path class="cls-1" d="M1084.4,734.7c3.3,3.8,9.6,7.1,16.4,7.1s11.8-3.4,11.8-8.3-6.1-7.2-12.8-8.9c-8.5-2-18-4.2-18-14.5s6.7-14.3,18.6-14.3,14.4,3.2,18.5,7.2l-3.6,5.4c-3-3.6-8.5-6.3-14.9-6.3s-11,3.1-11,7.5,5.7,6.4,12.2,8c8.7,2,18.7,4.4,18.7,15.5s-6.7,15.1-19.6,15.1-15.1-2.5-20.1-7.8l4-5.6h0Z"/>
      <path class="cls-1" d="M1100.6,749.3c-8.8,0-15.9-2.8-21-8.2l-.7-.7,5.5-7.6,1,1.2c2.9,3.3,8.8,6.7,15.5,6.7s10.5-2.6,10.5-7.1-5.1-6.1-11.9-7.7c-8.4-1.9-19-4.4-19-15.7s6.2-15.5,19.8-15.5,14.4,2.6,19.3,7.6l.7.7-5.1,7.5-1-1.2c-3-3.6-8.3-5.9-13.9-5.9s-9.8,2.5-9.8,6.3,4.7,5.2,11.2,6.8c8.3,1.9,19.6,4.4,19.6,16.7s-8.2,16.3-20.8,16.3h0ZM1082,740.1c4.6,4.5,10.8,6.8,18.6,6.8,11.2,0,18.4-5.4,18.4-13.9s-7.7-12-17.7-14.3c-6.2-1.5-13.1-3.1-13.1-9.1s4.9-8.7,12.2-8.7,11.2,2.1,14.7,5.6l2.2-3.3c-4.5-4.1-10.1-6.2-16.9-6.2-10.2,0-17.4,5.4-17.4,13.1s8.7,11.4,17.1,13.4c6.1,1.5,13.7,3.4,13.7,10s-5,9.5-13,9.5-12.2-2.5-16.3-6.4l-2.6,3.6h0Z"/>
    </g>
    <g>
      <path class="cls-1" d="M1134.3,736.5v-32.6h-8.2v-6.8h8.2v-13.6h7.7v13.6h10.1v6.8h-10.1v31c0,3.7,1.7,6.4,5,6.4s4.2-.9,5.3-2.1l2.3,5.8c-2,1.9-4.7,3.2-9.3,3.2-7.3,0-11.1-4.2-11.1-11.7h0Z"/>
      <path class="cls-1" d="M1145.3,749.3c-7.9,0-12.3-4.6-12.3-12.9v-31.4h-8.2v-9.2h8.2v-13.6h10.1v13.6h10.1v9.2h-10.1v29.8c0,1.9.5,5.2,3.8,5.2s3.7-.9,4.4-1.7l1.3-1.4,3.3,8.3-.6.6c-2.5,2.4-5.8,3.5-10.1,3.5h0ZM1127.2,702.6h8.2v33.8c0,6.9,3.3,10.5,9.9,10.5s5.9-.7,7.9-2.4l-1.4-3.5c-1.3.8-3.1,1.3-4.7,1.3-3.9,0-6.2-2.9-6.2-7.6v-32.2h10.1v-4.4h-10.1v-13.6h-5.3v13.6h-8.2v4.4h0Z"/>
    </g>
    <g>
      <path class="cls-1" d="M1197,746.9l-18-22.4-8.3,8.1v14.2h-7.7v-68.8h7.7v45.5l26.2-26.5h9.8l-22.1,22.6,22.2,27.2h-9.9Z"/>
      <path class="cls-1" d="M1209.4,748.1h-13l-17.5-21.8-6.9,6.9v14.9h-10.1v-71.2h10.1v43.8l24.5-24.8h13.2l-23.3,23.9,23.1,28.4h0ZM1197.6,745.7h6.8l-21.3-26.1,20.8-21.3h-6.4l-27.9,28.2v-47.2h-5.3v66.4h5.3v-13.5l9.6-9.4,18.4,23Z"/>
    </g>
    <g>
      <path class="cls-1" d="M1223.8,697v54.7c0,9.8-5.3,15.4-14.7,15.4s-3.9-.2-5.6-.7l1-6.5c1,.4,2.5.5,3.7.5,4.5,0,7.7-2.4,7.7-8.7v-54.7h7.7ZM1214.7,683.4c0-2.9,2.4-5.2,5.2-5.2s5.3,2.3,5.3,5.2-2.4,5.3-5.3,5.3-5.2-2.4-5.2-5.3Z"/>
      <path class="cls-1" d="M1209.2,768.3c-2.4,0-4.2-.2-5.9-.8l-1-.3,1.4-9,1.4.6c.5.2,1.5.4,3.3.4,4.4,0,6.5-2.5,6.5-7.5v-55.9h10.1v55.9c0,10.5-5.8,16.6-15.9,16.6h0ZM1205,765.5c1.2.3,2.5.4,4.2.4,8.7,0,13.5-5,13.5-14.2v-53.5h-5.3v53.5c0,6.4-3.2,9.9-8.9,9.9s-1.9,0-2.7-.2l-.6,4.1ZM1219.9,689.9c-3.4,0-6.4-3-6.4-6.5s2.9-6.4,6.4-6.4,6.5,2.9,6.5,6.4-2.9,6.5-6.5,6.5ZM1219.9,679.5c-2.2,0-4,1.8-4,4s1.8,4.1,4,4.1,4.1-1.8,4.1-4.1-1.8-4-4.1-4Z"/>
    </g>
    <g>
      <path class="cls-1" d="M1236.4,721.9c0-14.4,9.5-26.1,24.7-26.1s24.7,11.7,24.7,26.1-9.5,26.2-24.7,26.2-24.7-11.8-24.7-26.2ZM1277.6,721.9c0-10.1-5.9-19.2-16.5-19.2s-16.6,9.1-16.6,19.2,6,19.3,16.6,19.3,16.5-9.1,16.5-19.3Z"/>
      <path class="cls-1" d="M1261.1,749.3c-15,0-25.9-11.5-25.9-27.4s10.9-27.3,25.9-27.3,25.9,11.5,25.9,27.3-10.9,27.4-25.9,27.4ZM1261.1,697c-13.8,0-23.5,10.2-23.5,24.9s9.6,25,23.5,25,23.5-10.3,23.5-25-9.6-24.9-23.5-24.9ZM1261.1,742.4c-12.2,0-17.8-10.6-17.8-20.5s6.1-20.4,17.8-20.4,17.7,10.6,17.7,20.4-5.6,20.5-17.7,20.5ZM1261.1,703.9c-10.6,0-15.4,9.3-15.4,18s4.8,18.1,15.4,18.1,15.3-9.4,15.3-18.1-4.8-18-15.3-18Z"/>
    </g>
    <g>
      <path class="cls-1" d="M1298.3,746.9v-68.8h7.7v68.8h-7.7Z"/>
      <path class="cls-1" d="M1307.3,748.1h-10.1v-71.2h10.1v71.2ZM1299.5,745.7h5.3v-66.4h-5.3v66.4Z"/>
    </g>
    <g>
      <path class="cls-1" d="M1343.2,695.8c15.1,0,23.9,11.8,23.9,26.7v2h-40.3c.6,9.4,7.2,17.2,18,17.2s11.5-2.3,15.4-6.3l3.7,5c-5,5-11.7,7.6-19.8,7.6-14.8,0-25.4-10.6-25.4-26.2s10.3-26.1,24.6-26.1h0ZM1326.8,718.8h32.7c0-7.4-5-16.6-16.4-16.6s-15.9,9-16.3,16.6h0Z"/>
      <path class="cls-1" d="M1344,749.3c-15.6,0-26.6-11.3-26.6-27.4s11.1-27.3,25.8-27.3,25.1,11.5,25.1,27.9v3.2h-40.2c1,7.6,6.4,14.8,16.6,14.8s10.9-2.2,14.5-5.9l1-1,5.2,7-.7.7c-5.2,5.2-12.4,8-20.7,8h0ZM1343.2,697c-13.3,0-23.4,10.7-23.4,24.9s9.9,25,24.2,25,13.5-2.2,18.2-6.6l-2.3-3.1c-4,3.6-9.6,5.7-15.2,5.7-10.6,0-18.4-7.5-19.2-18.4v-1.3c0,0,40.3,0,40.3,0v-.8c0-15.3-9.1-25.5-22.7-25.5h0ZM1360.7,720h-35.2v-1.3c.6-8.8,6.7-17.8,17.6-17.8s17.5,9,17.6,17.8v1.2h0ZM1328.1,717.6h30.1c-.6-6.1-4.8-14.2-15.1-14.2s-14.2,8.1-15,14.2Z"/>
    </g>
    <g>
      <path class="cls-1" d="M1379.6,746.9v-49.8h7.7v8.1c4-5.3,9.8-9.1,16.6-9.1v8c-.9-.2-1.9-.3-3.1-.3-4.8,0-11.2,3.9-13.5,8v35.3h-7.7Z"/>
      <path class="cls-1" d="M1388.6,748.1h-10.1v-52.2h10.1v6c4.4-4.6,9.8-7,15.4-7h1.2v10.6l-1.5-.3c-.9-.2-1.7-.3-2.8-.3-4.1,0-10.1,3.5-12.3,7.1v36.2ZM1380.8,745.7h5.3v-34.7c2.7-4.5,9.6-8.6,14.7-8.6s1.3,0,1.9,0v-5.3c-5.4.4-10.5,3.4-14.4,8.6l-2.2,2.8v-10.4h-5.3v47.4h0Z"/>
    </g>
  </g>
  <g>
    <path class="cls-1" d="M39.5,542.7h-4.8c0-65.8,25.1-128.9,74.8-187.7,39.8-47.1,94.2-90.3,161.5-128.4C505.1,98.1,817.5,47.2,1150.7,83.1l-.5,4.8c-302.3-26.9-572.1,10.2-801.8,110.3C234.7,249.6,43.3,362.7,39.5,542.7h0ZM702.9,93.6c-113.6,16.3-220.3,44.5-317.1,83.8,98.2-38.9,204.5-67,317.1-83.8Z"/>
    <path class="cls-1" d="M972.6,1013.5c-74.9,0-150.4-4.6-225-13.7l.6-4.8c233,24.6,455,8.1,659.7-49,109.1-30.4,465.6-149.5,472.9-403.3h4.8c1.2,132.8-106.8,229.3-171.3,274.9-124.7,85.8-281.3,144.4-465.5,174.3-88.7,14.4-181.9,21.7-276.1,21.7h0ZM1547.6,902.4c-57,23.8-107.6,39.5-138.5,48.1-78.1,21.8-158.8,37.7-241.5,47.7,138.3-15.6,267.4-48,380-95.8Z"/>
    <path class="cls-1" d="M562.3,1003.1c-30.9,0-56.8-14.3-72.9-40.2-6.6-10.6-8.1-19.1-4.6-25.3,3.5-6,11.3-8.9,23.1-8.5,38.4,1.2,66.6,21.1,88.8,62.6l2.8,5.3-5.8,1.6c-10.8,3-21.4,4.4-31.5,4.4h0ZM488.6,940.8c-2,4.5-.4,11.1,4.9,19.5,15.4,24.8,39.2,37.9,68.8,37.9s18.1-1.2,27.7-3.6h-.5c-41.1,10.3-76.1-2.2-96-34.3-5.3-8.5-6.9-15-4.9-19.5h0ZM505.8,938.7c-6.7,0-11.3,1.3-12.6,3.7-1.6,2.7,0,8.3,4.4,15.4,18.3,29.4,50.1,41.3,87.7,33-19.9-34.4-44.6-51-77.6-52.1-.6,0-1.2,0-1.8,0h0ZM586.5,983.5c1.5,2.5,3.1,5.1,4.6,7.8l.2.3c-1.6-2.8-3.1-5.5-4.8-8.1h0ZM505.8,933.9c-8.1,0-13.6,1.8-16.2,5.3,2.7-3.6,8.2-5.4,16.7-5.3h-.5Z"/>
    <path class="cls-1" d="M403.9,1001.6l-5.8-1.7c-44.3-13.3-69.7-44.5-69.6-85.6,0-12.5,3.2-20.5,9.5-23.8,6.2-3.3,14.3-1.6,24.1,5,31.9,21.4,45.3,53.2,42.2,100.1l-.4,6h0ZM335.6,899.9c-1.6,3.4-2.3,8.2-2.4,14.3,0,37.5,22.4,66.3,61.9,79.6-39.4-13.3-62-42.3-61.9-79.6,0-6.1.8-10.9,2.4-14.3ZM344.8,898.4c-.9,0-1.6.2-2.2.5-2.8,1.5-4.4,7.1-4.4,15.4,0,34.6,20.6,61.5,56.9,74.4,1.4-39.7-10.8-66.9-38.3-85.3-6.2-4.2-9.9-5-12-5h0ZM335.7,899.9h0ZM335.7,899.9h0ZM344.8,893.6c3.5,0,7.8,1.5,12.7,4.6-7.1-4.4-12.7-5.6-16.8-3.8,1.2-.6,2.5-.8,4-.8Z"/>
    <path class="cls-1" d="M273.5,844c-8.4,0-16.4-.7-22.2-1.2-9-.8-15.6-3.1-19.6-6.8-4.1-3.8-9-12.5,3.8-28.3,10.8-13.4,23.4-27.8,35.6-33.4,14.7-6.8,30.7-2.2,47.7,2.7,7.6,2.2,15.5,4.5,23.4,5.7l6,.9-2.2,5.6c-10.2,25.7-23,40.3-44.2,50.2-6.7,3.1-15.9,4.7-28.2,4.7h0ZM247,837.4c1.5.3,3.1.5,4.8.6,3,.3,6.7.6,10.6.8-4-.2-7.6-.6-10.6-.8-1.7-.1-3.3-.4-4.8-.6ZM234.8,832.2s.2.2.3.3c1,1,2.3,1.8,3.8,2.5-1.5-.7-2.8-1.6-3.8-2.5,0,0-.2-.2-.3-.3ZM340.4,790.1h0c-9.3,22.1-21.2,35.5-39.7,44.4,18.6-9,30.3-22.1,39.7-44.4ZM287.7,780.4c-4.8,0-8.8.8-12.5,2.5-10.4,4.8-22.1,18.2-32.1,30.7-4.1,5.1-8.3,11.9-4.7,15.3,2.3,2.1,7.2,3.6,13.8,4.2,11.8,1.1,33.6,3,45.4-2.6,17.4-8.2,28.3-19.8,37.1-39.7-6.3-1.3-12.5-3.1-18.5-4.8-10.2-3-19.8-5.7-28.6-5.7h0ZM248,800.2c-3,3.4-5.9,7-8.7,10.5-.3.4-.7.8-1,1.3.3-.4.6-.8,1-1.3,2.8-3.5,5.7-7,8.7-10.5ZM332.1,785.5c2.1.5,4.3,1,6.4,1.4l2.9.5h0c-3.1-.5-6.3-1.2-9.4-1.9h0ZM316.2,781.1c.5.1.9.3,1.3.4.2,0,.5.1.7.2-.2,0-.5-.1-.7-.2-.5-.1-.9-.3-1.3-.4ZM287.7,775.6c-3.8,0-7.5.5-11.1,1.7,6.9-2.3,15.5-1.9,24.2-.1-4.5-.9-8.9-1.5-13.1-1.5h0Z"/>
    <path class="cls-1" d="M487.2,945.4c-71.2-19.3-175.6-55.2-268.7-116.5-96.3-63.4-156-138.1-177.4-222-6.7-28.4-8.5-56.4-5.2-83.4l4.8.5c-2,27.8.5,55.1,7.6,81.1,49.9,178.7,267,281.2,440.3,335.7l-1.3,4.6h0ZM113.6,732.6c28.2,32.9,64.1,63.8,107.4,92.3,15.7,10.4,31.8,20,48,28.9-59.2-33.2-113.7-73.2-155.5-121.2h0Z"/>
    <path class="cls-1" d="M141.4,940.7l-2.2-5.6c-19.9-49.6-10-95,27.1-124.4,11.1-8.8,20.5-11.7,27.8-8.6,7.1,3.1,11.3,11.5,12.4,24.9,3.7,44.3-15.5,79.3-60.1,110.2l-5,3.4h0ZM156.5,923.7c-3.3,2.6-6.7,5.3-10.4,7.9l-.6.4c3.8-2.7,7.5-5.5,10.9-8.3h0ZM187.8,805.6c-5,0-11.2,2.9-18.6,8.8-34.7,27.6-44.3,69.9-26.6,116.4v-.3c-17.6-46.3-7.9-88.6,26.6-116,9.6-7.6,17.4-10.3,22.9-7.9,2.7,1.2,4.8,3.5,6.4,6.9-1.6-3.4-3.7-5.8-6.4-6.9-1.3-.6-2.8-.9-4.3-.9h0ZM187.8,810.4c-2.7,0-7.6,1.3-15.6,7.7-32,25.4-41.5,64.5-26.3,107.6,37.9-27.9,54.2-59.1,50.9-98-.8-9.4-3.1-15.4-6.7-16.9-.7-.3-1.5-.5-2.4-.5h0Z"/>
    <path class="cls-1" d="M147.3,729.7c-15.1,0-34.5-8.7-44.9-13.4-11.4-5.1-17.4-11.3-17.9-18.4-.5-6.9,4.4-13.6,14.4-20,14.5-9.1,31.2-18.6,44.5-20,16.2-1.6,29.8,7.9,44.2,18.1,6.5,4.6,13.2,9.3,20.3,13l5.3,2.8-3.9,4.6c-18,21-34.9,30.5-58.2,33.1-1.2.1-2.5.2-3.8.2h0ZM146.8,724.9c1.3,0,2.6,0,3.7-.1-1.2.1-2.5.2-3.7.1ZM203.9,695.3l-.2.3c-16.1,18-31.8,26.7-52.5,29.1,20.9-2.4,36.4-11,52.7-29.3h0ZM147,667.4c-.8,0-1.7,0-2.6.1-11.4,1.2-26.8,10-40.4,18.6-6.5,4.1-10.2,8.2-9.9,11.2.2,3.1,4.7,6.9,12.3,10.3,10.7,4.8,30.8,13.8,43.8,12.4,19.1-2.1,33.2-9.5,48-25.4-5.6-3.3-10.9-7-16-10.6-12.1-8.5-23.5-16.5-35.2-16.5h0ZM89.3,697.6c.4,5.2,5.5,10,15.1,14.3,1.5.7,3.3,1.5,5.2,2.3-1.9-.8-3.6-1.6-5.2-2.3-9.6-4.3-14.7-9.1-15.1-14.3ZM203.3,692l2.3,1.3h0c-.8-.4-1.6-.9-2.3-1.3ZM184.9,680c5,3.5,10.1,7.1,15.5,10.3-5.4-3.2-10.5-6.8-15.5-10.3h0ZM174.2,672.7c3.5,2.3,7.1,4.8,10.7,7.3-3.6-2.5-7.1-5-10.7-7.3ZM147,662.6c-1,0-2,0-3.1.1-8.1.8-17.8,5.1-27.5,10.4,9.7-5.3,19.4-9.6,27.5-10.4,6.1-.6,12,.7,17.8,3.1-4.8-2-9.7-3.3-14.7-3.3Z"/>
    <path class="cls-1" d="M1884.1,567.3l-4.8-.5c15-186.2-174.1-306.9-288.1-362.3-44.1-21.6-94.3-41.7-153.4-61.4l1.4-4.6c55.7,16.1,108.1,35.6,155.8,57.9,94.7,44.2,312.4,168.9,289,370.8h0ZM1663.6,238.2c46.6,28,87.1,58.7,119.6,90.7-37.6-37.3-80.7-67.6-119.6-90.7Z"/>
    <path class="cls-1" d="M1422,153.6c-.7,0-1.5,0-2.3,0-38.4-1.4-66.6-21.3-88.6-62.8l-2.8-5.3,5.8-1.6c44.7-12.1,82.7,1.1,104.3,36,6.6,10.6,8.1,19.1,4.5,25.3-3.3,5.6-10.3,8.5-20.9,8.5h0ZM1415.2,148.4c1.5.1,3.1.2,4.7.3h.2-.2c-1.6,0-3.1-.1-4.7-.3ZM1342.6,91.7c19.8,34.5,44.5,51.1,77.5,52.2,7.7.3,13-1,14.5-3.7,1.6-2.7,0-8.3-4.4-15.4-18.2-29.4-50-41.4-87.6-33.2ZM1365.1,84.3c29.3,0,53.8,13.2,69.1,38,5.5,8.8,7,15.6,4.6,20.1,2.5-4.5.9-11.3-4.6-20.1-19.9-32.2-54.7-44.7-95.9-34.7,9.3-2.3,18.2-3.4,26.7-3.4Z"/>
    <path class="cls-1" d="M1563.4,189.3c-5.7,0-12-3.5-18.8-10.4-26.9-27.5-33.6-61.3-21-106.6l1.6-5.8,5.3,2.9c40.7,22,59.2,57.7,50.8,97.9-2.5,12.2-7.3,19.4-14.1,21.4-1.2.4-2.5.6-3.8.6ZM1531.3,80.9c-9.4,38.6-3,67.6,20.2,91.2,5.4,5.5,10.2,8.2,13,7.4,3-.9,5.7-6.1,7.4-14.2,7.1-33.8-7.7-64.5-40.6-84.4ZM1533.7,76.8c33.2,20.1,49,50.6,43.9,84.6,5.2-34.1-10.6-64.5-43.9-84.6Z"/>
    <path class="cls-1" d="M1613.3,298.3c-11.3,0-22.7-4.4-34.7-9.2-7.4-2.9-15-5.9-22.8-7.8l-5.8-1.5,2.7-5.4c12.6-24.6,26.7-37.9,48.7-45.9,14.8-5.3,38-1.1,50.5,1.2,12.3,2.3,19.6,6.8,21.8,13.6,2.1,6.6-1,14.3-9.3,22.8-12,12.3-25.9,25.5-38.5,30-4,1.4-8.1,2.1-12.5,2.1h0ZM1587.1,287.3c9.1,3.4,17.8,6.2,26.2,6.2s7-.5,10.2-1.6c-11.4,3.7-23.6.2-36.4-4.6h0ZM1564.1,273.7c6.2,1.9,12.2,4.3,18,6.5,14.7,5.8,28.6,11.2,40.5,6.9,10.8-3.8,23.6-16.1,34.8-27.6,5.4-5.5,7.9-10.3,7-13.2-1-3-6.2-5.6-14.3-7.1-11.6-2.1-33.2-6.1-45.5-1.6-18,6.5-30,17.1-40.6,36h0ZM1557,276.7c.9.2,1.8.5,2.6.7l-2.6-.7h0s0,0,0,0ZM1610.8,231.3c-2.8.4-5.4.9-7.8,1.8-20,7.3-33.1,19.3-44.8,41.2v-.3c11.6-21.5,25-33.7,44.8-40.9,2.4-.8,5-1.4,7.8-1.8h0ZM1668.9,244.4c0,.2.1.4.2.6,1.5,4.8-1.2,10.9-8.1,18-3,3.1-6.1,6.2-9.2,9.2,3.1-3,6.2-6.1,9.2-9.2,6.9-7.1,9.7-13.2,8.1-18,0-.2-.1-.4-.2-.6ZM1654.3,235.3c5.5,1.3,9.5,3.1,12,5.5-2.5-2.4-6.5-4.2-12-5.5Z"/>
    <path class="cls-1" d="M1754.6,304.2c-1.4,0-2.7-.2-4-.5-7.5-2.1-12.8-9.8-15.7-23-9.7-43.3,4.3-80.6,44.3-117.5l4.4-4.1,3,5.2c26.6,46.4,23.1,92.7-9.6,127-8.1,8.5-15.6,12.9-22.3,12.9h0ZM1751.1,298.8c.3,0,.5.2.8.2.1,0,.2,0,.4,0-.1,0-.2,0-.4,0-.3,0-.5-.1-.8-.2ZM1781.1,174.5c-33.7,32.9-45.5,66-36.9,104.1,2.1,9.2,5.2,14.8,8.9,15.8,3.8,1.1,9.8-2.4,16.8-9.7,28.2-29.6,32.2-69.6,11.2-110.2h0ZM1740.8,284.4c1,3.3,2.2,6,3.6,8.2-1.3-2.2-2.5-5-3.6-8.2ZM1783.8,169.4h0c23.8,43.5,20,86.7-10.4,118.6-1,1.1-2,2.1-3,3,1-.9,2-1.9,3-3,30.5-32,34.2-75.1,10.4-118.6h0ZM1780.6,168.4c-3.7,3.5-7.3,7.1-10.5,10.6,3.1-3.4,6.5-6.8,10-10.2l.5-.5Z"/>
    <path class="cls-1" d="M1790.2,453.3c-15.6,0-28.3-10.2-41.7-20.9-6.2-5-12.6-10.1-19.4-14.3l-5.1-3.1,4.2-4.3c19.4-19.7,36.8-28.2,60.2-29.2,15.6-.7,36.4,10.3,47.5,16.2h.3c11,6,16.7,12.5,16.7,19.7,0,6.9-5.2,13.3-15.7,19-15.1,8.2-32.4,16.6-45.8,17.1h-1.3,0ZM1848.1,417.1v.2c0,5-4.4,10-13.2,14.7-14.6,7.9-31.2,16-43.6,16.5h-.3.3c12.4-.5,29-8.6,43.6-16.5,8.8-4.7,13.2-9.7,13.2-14.7v-.2ZM1739.3,413.2c5.4,3.7,10.4,7.7,15.3,11.7,12.4,10,24,19.3,36.6,18.8,11.4-.4,27.4-8.3,41.5-15.9,6.8-3.7,10.7-7.5,10.6-10.5,0-3.1-4.2-7.2-11.6-11.1-10.5-5.6-29.8-15.7-42.9-15.2-19.2.8-33.7,7.3-49.6,22.2h0ZM1750.5,427.8l.6.5-.6-.5ZM1735,416.2c1.3.9,2.6,1.8,3.9,2.7-1.3-.9-2.6-1.8-3.9-2.7ZM1731.7,414c.8.5,1.6,1,2.4,1.5l-2.3-1.5h0ZM1789.8,386.2c14.3,0,33.6,10.2,44.1,15.7,7.9,4.2,12.5,8.5,13.8,12.8-1.3-4.3-5.9-8.6-13.7-12.7h-.3c-10.7-5.8-30.7-16.4-45-15.8h1.1,0ZM1787.5,386.3c-20.4,1.1-36.1,8.5-53.2,25,16.9-16.4,32.9-23.9,53.2-25Z"/>
    <path class="cls-1" d="M1836,420.5c-6.3,0-12.6-.5-18.7-1h-1c-1.8-.3-3.6-.5-5.3-.7-8.9-1-18.1-2.1-26.6-5.4l1.5-4.6c2,.5,4.1.7,6.2.9h1.2c7.6.8,26.7,2.5,39.4,3.8.9,0,2.2.2,3.6.4,2.8.3,6.4.6,8.1.7.9,0,1.7,0,2.5,0h.2,0,0v2c.1,0,3.3,0,3.3,0,0,1.2-.5,2.7-3.2,3.2h-.6c-3.5.5-7.1.7-10.6.7h0ZM1845.8,415.9c0,.2-.2.5-.2.8h.4l-.3-.8ZM1846.1,415.5v1.2h1.1l-.4-1.9c0,0-.2.1-.3.2,0,0,.2,0,.3,0-.2,0-.4.2-.6.5h0Z"/>
    <path class="cls-1" d="M1750.7,298.9l-4.2-2.3c8.6-19.2,14.5-38.6,17.6-57.7.5-2.6.6-5.3.7-8.4l4.8-.2c2.9,23.4-7.8,52-18.9,68.7h0Z"/>
    <path class="cls-1" d="M1603.7,256.7l-.5-4.8,5.1-1c19.6-3.9,38.2-7.6,57.2-12.7l1.6,4.5c-18.9,8.7-40.2,13.4-63.4,14h0Z"/>
    <path class="cls-1" d="M1561.2,183.9l-4.8-.3c-.7-17.2-3.4-34.9-8.3-53.9l-5.9-23,10.4,21.4c8.5,17.5,11.6,37.3,8.6,55.8h0Z"/>
    <path class="cls-1" d="M1435.8,146c-13.9-12.6-30-23.4-49.3-32.9l1.7-4.5c20.6,5.7,38.8,17.9,51.1,34.1l-3.5,3.2h0Z"/>
    <path class="cls-1" d="M90,701.5h-.5l-.4-4.8c11.9-1.9,24.3-3.2,36.4-4.5,10.5-1.1,21.4-2.3,31.8-3.8l1.1,4.7c-23.6,7.4-48.9,8.4-68.4,8.4h0Z"/>
    <path class="cls-1" d="M172.9,862.1l-4.3-2.1c7.7-21,14.3-38.4,20.7-54.6l4.6,1.3c-3.8,19.8-10.9,38.5-21,55.4h0Z"/>
    <path class="cls-1" d="M235.7,834.3c-.6,0-1.1-.3-1.7-.9-1.8-1.9-.8-2.9,5.5-9,16.1-15.1,36.9-24.1,57.3-24.8l.6,4.8c-20.2,4-40,13.4-57.4,27.3-1.8,1.5-3.1,2.6-4.3,2.6h0Z"/>
    <path class="cls-1" d="M374.6,965.7l-13.2-19.9c-9.7-14.7-16.9-32-21.4-51.3l4.5-1.5c6.5,14.2,12.3,28.7,18,42.8l12.1,30h0Z"/>
    <path class="cls-1" d="M541.9,974.7c-15.5-13.3-33.9-23.6-54.5-30.6l1.1-4.7c22.3,3.4,42.9,15,56.7,31.9l-3.4,3.3h0Z"/>
  </g>
</svg>