<?xml version="1.0" encoding="UTF-8"?>
<svg id="Layer_1" data-name="Layer 1" xmlns="http://www.w3.org/2000/svg" version="1.1" viewBox="0 0 841.89 595.28">
  <defs>
    <style>
      .cls-1 {
        fill: #5c4833;
      }

      .cls-1, .cls-2 {
        stroke-width: 0px;
      }

      .cls-2 {
        fill: #556e48;
      }
    </style>
  </defs>
  <g>
    <path class="cls-2" d="M246.02,332.84c7.34.22,15.45-1.1,21.48-3.84,5.26-2.41,8.22-9.1,2.3-13.48-3.84-2.96-16.11-5.7-20.83-6.36-1.86,2.19-13.92,19.51-17.65,27.73-1.32,2.85-2.52,3.29-1.42-.22,1.86-5.92,11.18-20.5,16-27.84-.99-.22-1.64-.33-2.63-.77-2.41-.88-1.97-2.96-.99-3.07,1.32-.11,4.38-.33,6.25-.88,6.58-8.99,12.71-20.17,15.67-26.52.66-1.32,1.64-4.49-.33-4.82-1.75-.33,7.01-5.15,6.25-.66-1.1,6.25-14.36,26.52-17.76,31.68,6.25-1.1,30.14-6.69,38.69-13.81,5.48-4.49,10.74-12.6,1.64-19.4-13.59-10.19-32.77-12.28-50.53-12.6-4.06-.11-27.62-1.64-33.54,9.97-2.3,4.49,4.6,9.76,7.23,11.18,2.19,1.21,2.08,2.96-.55,1.32-4.93-3.07-13.04-7.78-9.65-13.81,5.48-9.86,34.42-10.63,36.28-10.63,19.84.33,37.16,1.32,52.61,12.06,10.08,7.01,7.45,16.99-1.86,23.24-11.29,7.67-28.61,11.84-38.36,13.48-1.86.33-1.86,1.53-.11,1.75,9.1,1.21,16.99,5.7,19.4,8.11,6.8,6.69-.44,12.17-5.37,15.56-4.93,3.4-12.28,5.37-21.48,4.82-4.71-.33-2.63-2.3-.77-2.19Z"/>
    <path class="cls-2" d="M326.58,308.73c-4.93.77-21.26.77-30.03.77-3.29,4.38-7.78,10.96-8.22,17.87-.33,6.47,3.62,8,7.34,7.56,4.82-.55,10.85-2.96,14.8-5.26,1.21-.66,2.08-.11.88.77-3.07,2.19-9.32,5.92-14.69,6.9-4.38.77-11.18-4.27-10.96-9.97.77-16,18.19-33.76,28.39-37.6,5.48-2.08,8.99,5.48,6.58,9.76-2.3,4.06-8.44,7.01-15.67,8.11,8,0,16.88,0,21.59-.55,3.07-.33,6.58-2.3,8.33-3.84.66-.99,1.53-.55.77.44-1.43,1.53-5.04,4.49-9.1,5.04ZM313.86,293.71c-5.37,3.07-11.18,8.55-16.11,13.92,7.67,0,16.77-3.84,20.28-9.1,3.07-4.71.22-7.23-4.16-4.82Z"/>
    <path class="cls-2" d="M329.87,299.96v-.33c27.07-61.38,56.01-93.06,87.03-94.92,10.63-.66,20.06,2.63,28.06,9.54,8.22,6.91,12.06,14.69,11.18,23.46-.22,2.74-1.1,5.48-2.41,8.11-6.91,13.15-25.54,25.43-56.01,37.05-20.83,7.89-42.31,14.03-64.45,18.2-2.41,6.8-4.27,15.02-4.49,20.93-.33,13.7,9.1,11.18,16.11,6.14,2.74-1.97,1.97,0,.88.99-10.19,9.1-21.04,8.88-21.48-4.71-.33-7.56,1.97-16,5.59-24.44ZM453.28,235.84c.88-7.67-2.52-14.58-9.76-20.5-7.34-6.14-16.22-9.1-26.63-8.66-17.54.66-35.51,14.14-53.82,39.68-10.96,15.34-20.39,32.22-28.39,50.86h.11c-.33.77-.55,1.43-.99,2.19,26.63-5.48,50.42-12.71,71.24-21.81,24.99-10.96,40.45-22.58,46.36-34.75,1.1-2.3,1.64-4.6,1.86-7.01Z"/>
    <path class="cls-2" d="M371.3,264.12c7.01-10.74,16.66-21.7,26.63-33.32.55-.66,2.63-1.53,6.14-2.85,3.51-1.21,4.49-1.86,6.25-1.86.88,0,1.21.44,1.21.99,0,.44-.33.55-1.1.77-6.91,1.42-18.2,12.93-34.09,34.75-8.88,13.15-15.02,23.78-21.48,38.47-2.41,6.8-4.27,15.02-4.49,20.93-.33,13.7,9.1,11.18,16.11,6.14,2.74-1.97,1.97,0,.88.99-10.19,9.1-21.04,8.88-21.48-4.71-.88-19.18,14.36-43.18,25.43-60.28Z"/>
    <path class="cls-2" d="M408.12,308.73c-4.93.77-21.26.77-30.03.77-3.29,4.38-7.78,10.96-8.22,17.87-.33,6.47,3.62,8,7.34,7.56,4.82-.55,10.85-2.96,14.8-5.26,1.21-.66,2.08-.11.88.77-3.07,2.19-9.32,5.92-14.69,6.9-4.38.77-11.18-4.27-10.96-9.97.77-16,18.19-33.76,28.39-37.6,5.48-2.08,8.99,5.48,6.58,9.76-2.3,4.06-8.44,7.01-15.67,8.11,8,0,16.88,0,21.59-.55,3.07-.33,6.58-2.3,8.33-3.84.66-.99,1.54-.55.77.44-1.42,1.53-5.04,4.49-9.1,5.04ZM395.41,293.71c-5.37,3.07-11.18,8.55-16.11,13.92,7.67,0,16.77-3.84,20.28-9.1,3.07-4.71.22-7.23-4.16-4.82Z"/>
    <path class="cls-2" d="M460.95,308.07c.88,0,.99.77,3.73,1.64,4.49.22,9.86-.66,16.33-2.41,6.47-1.86,11.95-4.16,16.33-6.91,7.67-4.71,11.51-10.85,11.51-18.52,0-7.23-3.18-13.7-9.54-19.18-5.04-4.49-12.17-8-21.26-10.63-8.99-2.63-18.52-3.95-28.5-3.95-9.1,0-17.54,1.1-25.1,3.4-7.12,2.08-10.74,6.25-10.74,11.84,0,1.97.44,4.16,1.54,6.58,1.1,2.3,1.64,3.51,1.64,3.51,0,.11-.22.11-.33.11-.22,0-.55-.22-1.2-.88-2.3-2.52-3.29-5.59-3.29-8.99,0-6.69,3.95-11.18,11.84-13.7,7.89-2.52,16.66-3.73,26.41-3.73s19.62,1.21,28.83,3.73c9.32,2.52,16.66,5.81,22.14,10.08,7.78,6.03,11.73,12.82,11.73,20.61,0,8.66-4.93,15.78-14.69,21.26-3.95,2.3-8.88,4.27-14.69,6.03-6.69,2.08-12.82,3.18-18.63,3.51-.55,0-.66.55-.55,1.42.55,3.29,2.08,8,4.6,13.92,2.74,6.36,5.26,10.63,7.56,12.93,2.52,2.52,4.82,3.73,7.02,3.73.88,0,1.75-.11,2.85-.55.55-.11.88-.22,1.21-.22.33.11.44.22.33.33-.11.33-.44.55-.88.77-1.53.88-3.07,1.21-4.49,1.21-2.3,0-5.04-1.21-8.22-3.62-2.08-1.64-5.26-6.58-9.43-14.8-4.17-8.22-6.25-13.7-6.25-16.22,0-1.53.77-2.3,2.19-2.3ZM458.21,301.38c-10.3,15.67-15.02,25.43-14.58,29.16.11.77-.66,1.1-1.97,1.1s-2.08-.55-2.3-1.32c-1.1-3.51,10.63-22.58,35.18-57.21.88-.88.99-1.75.55-2.63-.11-.22-.22-.44-.22-.55,0-.66.33-.99.88-.99.44,0,.77.22,1.1.55,1.1,1.1,1.53,1.86,1.1,2.3-6.58,9.86-13.26,19.73-19.73,29.59Z"/>
    <path class="cls-2" d="M498.65,332.07c.11-5.92,4.93-14.91,14.69-26.85.22-.44.11-.88-.22-.99-1.32-.77-2.96-1.75-2.96-2.63,0-.44-.22-1.43,3.18-1.53,2.74-.11,4.06-.22,4.17-.11.22,0,.66-.11,1.2-.44,1.64-1.53,3.18-2.3,4.82-2.41,1.21-.11,2.85.77,4.93,1.97.22.11.44.33.77.44,3.29.11,8.11.22,14.25.44,1.1,0,1.65.22,1.65.44,0,.33-.55.66-1.65.66-2.3,0-3.73.44-4.38,1.32-.11.22-.11.44,0,.66.11.44.33.88.33,1.21-.44,5.48-4.71,11.84-13.37,19.29-8.55,7.34-16,11.62-22.47,12.5-2.08.33-4.93-1.64-4.93-3.95ZM501.39,332.62c0,1.75,1.21,2.41,3.51,1.97,4.93-.77,10.85-4.27,17.87-10.74,7.34-6.58,11.51-12.49,12.6-17.76.55-2.3-.99-3.51-4.16-3.84-3.51-.44-6.58,0-9.21.99-.22-.11-.88.33-1.86.99-7.78,7.24-13.81,15.89-18.08,25.98-.44.77-.66,1.64-.66,2.41Z"/>
    <path class="cls-2" d="M551.26,297.87c.33-.88.66-1.43.11-.22v-.77c27.18-61.38,56.12-93.06,87.14-94.92,10.52-.66,19.95,2.63,28.06,9.54,8.22,6.91,11.95,14.69,11.07,23.46-.22,2.74-1.1,5.48-2.41,8.11-6.9,13.15-25.54,25.54-55.9,37.05-20.94,8-42.53,14.03-64.67,18.19-2.08,3.73-4.38,9.65-7.45,17.87-.99,2.52-1.75,4.6-2.3,6.36,2.52-2.3,7.34-5.48,14.47-10.19,8.66-5.7,15.24-9.54,19.51-11.29.66-.33,1.43-.44,2.19-.44,2.63,0,3.73,1.32,3.62,4.06-.22.99-.77,2.08-1.32,3.29-4.27,7.12-10.74,13.26-19.73,18.63s-17.32,8-24.77,7.89c-.22,0-.44-.11-.66-.22-1.09-.33-2.08-1.53-2.08-2.63.33-.77.77-1.53,1.53-2.63,2.85-6.69,7.01-16.44,12.39-28.94.11,0,.22-.11.33-.55,0-.11-.11-.22,0-.33,0-.11.22-.22.22-.33l.11-.11v.22c.11-.22.22-.44.33-.77,0,.11-.11.22-.11.22.11-.22.22-.44.33-.55ZM543.04,329c0,.11.11.11.11.22-.11.11-.11.33-.22.44l.11.44c-.22.88-.11,1.53.55,1.64.66.22,2.3.11,5.04-.44,5.59-1.21,10.96-3.84,16.66-8,5.92-4.27,9.86-8.77,11.84-13.37l.44-1.75c.11-2.19-.55-3.4-2.41-3.4-1.53,0-6.36,2.63-14.25,7.89-6.36,4.27-11.07,7.78-14.36,10.3-1.75,1.43-2.96,3.51-3.51,6.03ZM674.9,233.1c.66-7.67-2.52-14.58-9.75-20.5-7.45-6.14-16.33-9.1-26.64-8.66-17.65.66-35.62,14.14-53.93,39.68-11.29,15.89-21.15,33.54-29.27,53.05,26.63-5.48,50.42-12.6,71.35-21.81,24.88-10.85,40.34-22.58,46.25-34.75,1.1-2.3,1.53-4.6,1.97-7.01Z"/>
    <path class="cls-2" d="M625.36,308.73c-4.93.77-21.26.77-30.03.77-3.29,4.38-7.78,10.96-8.22,17.87-.33,6.47,3.62,8,7.34,7.56,4.82-.55,10.85-2.96,14.8-5.26,1.21-.66,2.08-.11.88.77-3.07,2.19-9.32,5.92-14.69,6.9-4.38.77-11.18-4.27-10.96-9.97.77-16,18.2-33.76,28.39-37.6,5.48-2.08,8.99,5.48,6.58,9.76-2.3,4.06-8.44,7.01-15.67,8.11,8,0,16.88,0,21.59-.55,3.07-.33,6.58-2.3,8.33-3.84.66-.99,1.53-.55.77.44-1.43,1.53-5.04,4.49-9.1,5.04ZM612.64,293.71c-5.37,3.07-11.18,8.55-16.11,13.92,7.67,0,16.77-3.84,20.28-9.1,3.07-4.71.22-7.23-4.17-4.82Z"/>
    <path class="cls-1" d="M227.13,388.96v-30.46h13.57c5.3,0,8.54,3.2,8.54,7.76,0,3.84-2.56,6.39-5.34,6.99,3.24.5,5.94,3.84,5.94,7.49,0,4.89-3.24,8.22-8.81,8.22h-13.88ZM230.92,371.69h9.13c3.43,0,5.25-2.1,5.25-4.89s-1.83-4.93-5.25-4.93h-9.13v9.82ZM230.92,385.58h9.32c3.56,0,5.66-2.01,5.66-5.25,0-2.79-1.92-5.25-5.66-5.25h-9.32v10.51Z"/>
    <path class="cls-1" d="M255.72,388.96v-22.06h3.43v3.56c1.78-2.33,4.34-4.02,7.35-4.02v3.52c-.41-.09-.82-.14-1.37-.14-2.1,0-4.98,1.73-5.98,3.52v15.62h-3.43Z"/>
    <path class="cls-1" d="M285.68,388.96v-3.11c-1.69,1.92-4.57,3.65-7.86,3.65-4.61,0-7.03-2.24-7.03-7.03v-15.57h3.43v14.52c0,3.88,1.96,5.02,4.93,5.02,2.69,0,5.25-1.55,6.53-3.33v-16.21h3.43v22.06h-3.43Z"/>
    <path class="cls-1" d="M311.94,388.96v-3.29c-1.64,2.24-4.34,3.84-7.44,3.84-5.75,0-9.82-4.38-9.82-11.56s4.02-11.6,9.82-11.6c2.97,0,5.66,1.46,7.44,3.88v-11.74h3.43v30.46h-3.43ZM311.94,372.97c-1.23-1.92-3.88-3.56-6.62-3.56-4.43,0-7.08,3.65-7.08,8.54s2.65,8.5,7.08,8.5c2.74,0,5.39-1.55,6.62-3.47v-10Z"/>
    <path class="cls-1" d="M331.8,366.35c6.67,0,10.6,5.21,10.6,11.83v.87h-17.86c.27,4.16,3.2,7.63,7.95,7.63,2.51,0,5.07-1,6.81-2.79l1.64,2.24c-2.19,2.19-5.16,3.38-8.77,3.38-6.53,0-11.24-4.7-11.24-11.6,0-6.39,4.57-11.56,10.87-11.56ZM324.54,376.53h14.48c-.05-3.29-2.24-7.35-7.26-7.35-4.7,0-7.03,3.97-7.22,7.35Z"/>
    <path class="cls-1" d="M345.87,379.41v-3.01h10.96v3.01h-10.96Z"/>
    <path class="cls-1" d="M372.13,377.9c0-6.39,4.2-11.56,10.92-11.56s10.92,5.16,10.92,11.56-4.2,11.6-10.92,11.6-10.92-5.21-10.92-11.6ZM390.35,377.9c0-4.48-2.6-8.5-7.31-8.5s-7.35,4.02-7.35,8.5,2.65,8.54,7.35,8.54,7.31-4.02,7.31-8.54Z"/>
    <path class="cls-1" d="M401.22,392.06c1.83,2.19,4.02,3.01,7.17,3.01,3.65,0,7.08-1.78,7.08-6.62v-3.15c-1.6,2.24-4.29,3.93-7.4,3.93-5.76,0-9.82-4.29-9.82-11.42s4.02-11.46,9.82-11.46c2.97,0,5.62,1.46,7.4,3.88v-3.33h3.43v21.42c0,7.31-5.11,9.59-10.51,9.59-3.74,0-6.3-.73-8.91-3.29l1.74-2.56ZM415.47,372.97c-1.19-1.92-3.84-3.56-6.58-3.56-4.43,0-7.08,3.52-7.08,8.4s2.65,8.4,7.08,8.4c2.74,0,5.39-1.69,6.58-3.61v-9.64Z"/>
    <path class="cls-1" d="M441.91,369.91v19.04h-3.43v-19.04h-3.65v-3.01h3.65v-1.69c0-4.57,2.56-7.17,6.39-7.17,1.28,0,2.47.23,3.33.78l-.87,2.56c-.55-.32-1.19-.5-1.96-.5-2.24,0-3.47,1.55-3.47,4.34v1.69h4.48v3.01h-4.48Z"/>
    <path class="cls-1" d="M460.04,366.35c6.67,0,10.6,5.21,10.6,11.83v.87h-17.86c.27,4.16,3.2,7.63,7.95,7.63,2.51,0,5.07-1,6.8-2.79l1.65,2.24c-2.19,2.19-5.16,3.38-8.77,3.38-6.53,0-11.24-4.7-11.24-11.6,0-6.39,4.57-11.56,10.87-11.56ZM452.78,376.53h14.48c-.05-3.29-2.24-7.35-7.26-7.35-4.7,0-7.03,3.97-7.22,7.35Z"/>
    <path class="cls-1" d="M476.02,383.57c1.46,1.69,4.25,3.15,7.26,3.15,3.38,0,5.21-1.51,5.21-3.65,0-2.42-2.69-3.2-5.66-3.93-3.74-.87-7.99-1.87-7.99-6.44,0-3.43,2.97-6.35,8.22-6.35,3.74,0,6.39,1.42,8.18,3.2l-1.6,2.37c-1.32-1.6-3.74-2.79-6.58-2.79-3.01,0-4.89,1.37-4.89,3.33,0,2.15,2.51,2.83,5.39,3.52,3.84.87,8.27,1.96,8.27,6.85,0,3.7-2.97,6.67-8.68,6.67-3.61,0-6.67-1.1-8.91-3.47l1.78-2.47Z"/>
    <path class="cls-1" d="M498.08,384.34v-14.43h-3.65v-3.01h3.65v-6.03h3.43v6.03h4.48v3.01h-4.48v13.7c0,1.64.73,2.83,2.24,2.83.96,0,1.87-.41,2.33-.91l1,2.56c-.87.82-2.1,1.42-4.11,1.42-3.24,0-4.89-1.87-4.89-5.16Z"/>
    <path class="cls-1" d="M525.85,388.96l-7.95-9.91-3.65,3.61v6.3h-3.43v-30.46h3.43v20.14l11.6-11.74h4.34l-9.77,10,9.82,12.06h-4.38Z"/>
    <path class="cls-1" d="M537.72,366.9v24.21c0,4.34-2.33,6.8-6.49,6.8-.96,0-1.74-.09-2.47-.32l.46-2.88c.46.18,1.1.23,1.64.23,2.01,0,3.43-1.05,3.43-3.84v-24.21h3.43ZM533.7,360.87c0-1.28,1.05-2.28,2.28-2.28s2.33,1,2.33,2.28-1.05,2.33-2.33,2.33-2.28-1.05-2.28-2.33Z"/>
    <path class="cls-1" d="M543.29,377.9c0-6.39,4.2-11.56,10.92-11.56s10.92,5.16,10.92,11.56-4.2,11.6-10.92,11.6-10.92-5.21-10.92-11.6ZM561.51,377.9c0-4.48-2.6-8.5-7.31-8.5s-7.35,4.02-7.35,8.5,2.65,8.54,7.35,8.54,7.31-4.02,7.31-8.54Z"/>
    <path class="cls-1" d="M570.69,388.96v-30.46h3.43v30.46h-3.43Z"/>
    <path class="cls-1" d="M590.56,366.35c6.67,0,10.6,5.21,10.6,11.83v.87h-17.86c.27,4.16,3.2,7.63,7.95,7.63,2.51,0,5.07-1,6.8-2.79l1.65,2.24c-2.19,2.19-5.16,3.38-8.77,3.38-6.53,0-11.24-4.7-11.24-11.6,0-6.39,4.57-11.56,10.87-11.56ZM583.29,376.53h14.48c-.05-3.29-2.24-7.35-7.26-7.35-4.7,0-7.03,3.97-7.22,7.35Z"/>
    <path class="cls-1" d="M606.68,388.96v-22.06h3.43v3.56c1.78-2.33,4.34-4.02,7.35-4.02v3.52c-.41-.09-.82-.14-1.37-.14-2.1,0-4.98,1.73-5.98,3.52v15.62h-3.43Z"/>
  </g>
  <g>
    <path class="cls-1" d="M12.42,298.57c-.05-63.24,52.96-110.07,104.03-138.98,115.41-63.32,259.46-77.33,388.77-63.38-119.78-10.67-244.41.5-355.43,48.91C87.64,173.2,14.02,223.3,12.42,298.57h0Z"/>
    <path class="cls-1" d="M829.57,298.57c.48,50.88-35.91,92.85-75.38,120.78-117.69,80.92-288.2,97.53-427.13,80.49,97.62,10.3,197.7,4.69,292.42-21.74,83.03-23.17,207.22-80.02,210.08-179.53h0Z"/>
    <path class="cls-1" d="M244.9,501.29c-13.27,0-24.32-5.96-31.35-17.27-2.69-4.33-3.37-7.73-2.01-10.09,1.33-2.3,4.45-3.38,9.28-3.22,16.59.54,28.79,9.16,38.39,27.13l.63,1.18-1.29.35c-4.75,1.29-9.32,1.93-13.66,1.93ZM219.9,472.82c-3.45,0-5.69.75-6.52,2.18-.93,1.6-.24,4.34,1.97,7.9,8.59,13.82,23.61,19.15,41.34,14.75-9.11-16.42-20.55-24.31-35.94-24.82-.29,0-.57-.01-.85-.01Z"/>
    <path class="cls-1" d="M173.8,500.29l-1.28-.38c-19.13-5.75-30.08-19.18-30.05-36.85,0-5.1,1.23-8.34,3.64-9.62,2.34-1.25,5.57-.51,9.58,2.18,13.78,9.25,19.57,23.02,18.2,43.34l-.09,1.33ZM148.6,454.98c-.57,0-1.07.11-1.49.34-1.64.87-2.5,3.55-2.51,7.75-.03,16.27,9.88,28.75,27.25,34.41.97-18.75-4.56-31.51-17.34-40.08-2.38-1.6-4.38-2.41-5.9-2.41Z"/>
    <path class="cls-1" d="M117.08,430.89c-3.66,0-7.19-.32-9.72-.54-3.76-.34-6.46-1.25-8.02-2.72-1.87-1.75-3.07-5.09,1.77-11.1,4.69-5.82,10.19-12.1,15.37-14.5,6.17-2.86,13.07-.87,20.37,1.24,3.4.98,6.92,1.99,10.49,2.55l1.32.21-.49,1.24c-4.42,11.1-9.94,17.37-19.04,21.66-3.25,1.53-7.74,1.97-12.04,1.97ZM123.35,402.75c-2.1,0-4.1.35-5.98,1.21-4.79,2.22-10.07,8.27-14.61,13.9-3.06,3.8-3.73,6.56-1.97,8.21,1.19,1.12,3.53,1.86,6.76,2.15,5.3.47,15.16,1.36,20.66-1.23,8.23-3.87,13.36-9.51,17.47-19.3-3.23-.6-6.37-1.5-9.43-2.38-4.54-1.31-8.91-2.57-12.91-2.57Z"/>
    <path class="cls-1" d="M211.92,475.8c-74.97-20.35-175.85-67.09-196.73-149.03-2.82-11.95-3.74-24.38-2.28-36.54-.88,12.15.21,24.5,3.4,36.26,22.56,80.86,121.73,126.09,195.61,149.31h0Z"/>
    <path class="cls-1" d="M59.1,473.11l-.5-1.24c-8.62-21.49-4.36-41.12,11.67-53.85,4.59-3.65,8.36-4.87,11.21-3.64,2.77,1.2,4.4,4.61,4.86,10.15,1.58,19.17-6.73,34.37-26.14,47.83l-1.1.76ZM79.15,416.04c-1.95,0-4.53,1.23-7.56,3.64-14.93,11.86-19.09,30.08-11.5,50.14,17.94-12.78,25.61-27.15,24.13-45.13-.38-4.62-1.62-7.52-3.58-8.37-.44-.19-.94-.29-1.48-.29Z"/>
    <path class="cls-1" d="M61.21,380.28c-6.46,0-14.81-3.74-19.46-5.82-4.66-2.09-7.12-4.52-7.31-7.24-.19-2.65,1.8-5.29,5.89-7.86,6.33-3.98,13.57-8.12,19.26-8.7,6.76-.68,12.64,3.44,18.86,7.81,2.9,2.04,5.9,4.14,9.09,5.83l1.18.62-.87,1.01c-7.8,9.05-15.06,13.19-25.06,14.27-.51.06-1.04.08-1.57.08ZM61.05,352.71c-.41,0-.83.02-1.24.06-5.25.53-12.21,4.54-18.34,8.38-3.33,2.09-5.02,4.13-4.9,5.91.13,1.85,2.22,3.73,6.05,5.45,4.86,2.18,13.9,6.21,19.94,5.57,9.04-.98,15.73-4.64,22.81-12.56-2.86-1.62-5.54-3.5-8.14-5.32-5.48-3.85-10.67-7.49-16.18-7.49Z"/>
    <path class="cls-1" d="M828.91,309.37c6.24-77.51-65.54-131.03-128.11-161.41-21.95-10.75-44.83-19.49-68.01-27.21,23.52,6.79,46.61,15.18,68.79,25.58,63.28,29.56,136.35,84.96,127.33,163.04h0Z"/>
    <path class="cls-1" d="M625.42,125.27c-.31,0-.64,0-.97-.02-16.59-.59-28.77-9.24-38.33-27.22l-.63-1.18,1.29-.35c19.28-5.21,35.67.43,44.97,15.46,2.68,4.34,3.35,7.74,1.98,10.09-1.24,2.14-4.04,3.22-8.32,3.22ZM588.65,98.22c9.06,16.44,20.49,24.36,35.88,24.91,3.93.15,6.48-.6,7.37-2.14.93-1.6.26-4.34-1.95-7.91-8.55-13.84-23.56-19.21-41.3-14.86Z"/>
    <path class="cls-1" d="M688.02,141.09c-2.23,0-4.76-1.43-7.55-4.28-11.62-11.85-14.49-26.51-9.03-46.13l.36-1.29,1.17.64c17.57,9.51,25.57,24.88,21.95,42.18-1.04,4.99-2.9,7.92-5.52,8.68-.45.13-.91.2-1.39.2ZM673.14,92.55c-4.75,18.16-1.93,31.78,8.85,42.77,2.75,2.81,5.11,4.03,6.82,3.53,1.78-.52,3.17-2.97,4.03-7.07,3.33-15.92-3.84-30.15-19.7-39.22Z"/>
    <path class="cls-1" d="M710.12,189.37c-4.81,0-9.79-1.95-14.98-3.98-3.3-1.29-6.71-2.62-10.21-3.51l-1.29-.33.61-1.19c5.43-10.64,11.5-16.38,20.96-19.81,6.25-2.26,16.36-.41,21.8.59,5.02.92,7.98,2.7,8.81,5.3.81,2.53-.49,5.57-3.86,9.03-5.21,5.36-11.26,11.11-16.64,13.02-1.71.61-3.44.87-5.19.87ZM686.75,180.17c3.16.89,6.21,2.08,9.17,3.24,6.7,2.62,13.03,5.1,18.69,3.09,4.97-1.76,10.79-7.31,15.83-12.49,2.74-2.82,3.9-5.21,3.36-6.91-.56-1.76-3.04-3.1-7.17-3.86-5.23-.96-14.98-2.75-20.69-.68-8.55,3.1-14.18,8.24-19.18,17.61Z"/>
    <path class="cls-1" d="M772.65,191.96c-.51,0-1.01-.07-1.49-.2-2.91-.8-5-3.96-6.22-9.38-4.22-18.77,1.91-34.97,19.27-50.98l.98-.9.66,1.16c11.51,20.09,10.01,40.12-4.1,54.95-3.39,3.56-6.45,5.36-9.11,5.36ZM784.67,133.89c-16,15.14-21.61,30.44-17.65,48.03,1.02,4.53,2.64,7.22,4.71,7.79,2.15.6,5.08-.99,8.49-4.57,13.15-13.81,14.74-32.43,4.46-51.25Z"/>
    <path class="cls-1" d="M788.4,257.96c-6.55,0-12.01-4.39-17.78-9.03-2.76-2.22-5.61-4.52-8.69-6.41l-1.14-.7.93-.95c8.37-8.52,15.89-12.18,25.94-12.6,6.68-.3,15.73,4.52,20.62,7.1,4.51,2.39,6.8,4.98,6.82,7.7.01,2.65-2.14,5.16-6.39,7.46-6.58,3.55-14.08,7.21-19.78,7.42-.18,0-.36,0-.53,0ZM764.19,241.42c2.75,1.8,5.3,3.85,7.77,5.84,5.61,4.51,10.89,8.78,16.9,8.55,5.27-.19,12.49-3.73,18.85-7.17,3.46-1.87,5.28-3.8,5.27-5.58,0-1.85-1.97-3.87-5.68-5.83-4.7-2.49-13.42-7.11-19.53-6.86-9.09.39-16,3.6-23.58,11.04Z"/>
    <path class="cls-1" d="M814.03,242.83c.01.27-.56.28-.76.35-4.38.52-8.82.13-13.2-.23-4.63-.58-9.46-.88-13.82-2.61,1.13.3,2.3.37,3.46.48,5.01.45,12.42,1.13,17.44,1.66,1.21.11,4.05.42,5.23.49.44.02.87.04,1.31.02.12-.03.34,0,.34-.16h0Z"/>
    <path class="cls-1" d="M770.05,190.07c3.67-8.22,6.42-16.94,7.87-25.83.23-1.27.27-2.56.31-3.86,1.17,9.45-2.96,21.84-8.18,29.69h0Z"/>
    <path class="cls-1" d="M733.48,164.84c-8.62,3.97-18.17,5.85-27.64,6.09,9.31-1.86,18.46-3.64,27.64-6.09h0Z"/>
    <path class="cls-1" d="M685.98,139.58c-.34-8.23-1.67-16.11-3.72-24.09,3.59,7.37,5.02,15.97,3.72,24.09h0Z"/>
    <path class="cls-1" d="M632.28,122.22c-6.64-6.05-14.01-10.77-22.06-14.73,8.61,2.39,16.65,7.58,22.06,14.73h0Z"/>
    <path class="cls-1" d="M35.63,367.83c9.85-1.57,20.29-2.23,30.15-3.68-9.71,3.06-20.03,3.69-30.15,3.68h0Z"/>
    <path class="cls-1" d="M80.78,415.24c-1.62,8.5-4.71,16.74-9.16,24.17,2.99-8.13,5.99-16.1,9.16-24.17h0Z"/>
    <path class="cls-1" d="M127.44,413.38c-9.51,1.87-18.3,6.25-25.84,12.28-2.79,2.33-.04-.42,1.18-1.61,6.66-6.24,15.49-10.35,24.67-10.67h0Z"/>
    <path class="cls-1" d="M147.54,454.03c3.37,7.4,6.28,14.83,9.33,22.37-4.48-6.78-7.5-14.47-9.33-22.37h0Z"/>
    <path class="cls-1" d="M212.12,475.24c9.39,1.44,18.43,6.38,24.46,13.76-7.24-6.21-15.44-10.69-24.46-13.76h0Z"/>
  </g>
</svg>