<?xml version="1.0" encoding="UTF-8"?>
<svg id="Layer_1" data-name="Layer 1" xmlns="http://www.w3.org/2000/svg" viewBox="0 0 1294.34 391.73">
  <defs>
    <style>
      .cls-1 {
        fill: #5c4833;
        stroke-width: 0px;
      }
    </style>
  </defs>
  <path class="cls-1" d="M112.61,358.43c20.1.6,42.3-3,58.8-10.5,14.4-6.6,22.5-24.9,6.3-36.9-10.5-8.1-44.1-15.6-57-17.4-5.1,6-38.1,53.4-48.3,75.9-3.6,7.8-6.9,9-3.9-.6,5.1-16.2,30.6-56.1,43.8-76.2-2.7-.6-4.5-.9-7.2-2.1-6.6-2.4-5.4-8.1-2.7-8.4,3.6-.3,12-.9,17.1-2.4,18-24.6,34.8-55.2,42.9-72.6,1.8-3.6,4.5-12.3-.9-13.2-4.8-.9,19.2-14.1,17.1-1.8-3,17.1-39.3,72.6-48.6,86.7,17.1-3,82.5-18.3,105.9-37.8,15-12.3,29.4-34.5,4.5-53.1-37.2-27.9-89.7-33.6-138.3-34.5-11.1-.3-75.6-4.5-91.8,27.3-6.3,12.3,12.6,26.7,19.8,30.6,6,3.3,5.7,8.1-1.5,3.6-13.5-8.4-35.7-21.3-26.4-37.8,15-27,94.2-29.1,99.3-29.1,54.3.9,101.7,3.6,144,33,27.6,19.2,20.4,46.5-5.1,63.6-30.9,21-78.3,32.4-105,36.9-5.1.9-5.1,4.2-.3,4.8,24.9,3.3,46.5,15.6,53.1,22.2,18.6,18.3-1.2,33.3-14.7,42.6-13.5,9.3-33.6,14.7-58.8,13.2-12.9-.9-7.2-6.3-2.1-6Z"/>
  <path class="cls-1" d="M333.11,292.43c-13.5,2.1-58.2,2.1-82.2,2.1-9,12-21.3,30-22.5,48.9-.9,17.7,9.9,21.9,20.1,20.7,13.2-1.5,29.7-8.1,40.5-14.4,3.3-1.8,5.7-.3,2.4,2.1-8.4,6-25.5,16.2-40.2,18.9-12,2.1-30.6-11.7-30-27.3,2.1-43.8,49.8-92.4,77.7-102.9,15-5.7,24.6,15,18,26.7-6.3,11.1-23.1,19.2-42.9,22.2,21.9,0,46.2,0,59.1-1.5,8.4-.9,18-6.3,22.8-10.5,1.8-2.7,4.2-1.5,2.1,1.2-3.9,4.2-13.8,12.3-24.9,13.8ZM298.31,251.33c-14.7,8.4-30.6,23.4-44.1,38.1,21,0,45.9-10.5,55.5-24.9,8.4-12.9.6-19.8-11.4-13.2Z"/>
  <path class="cls-1" d="M342.11,268.43v-.9C416.21,99.53,495.41,12.83,580.31,7.73c29.1-1.8,54.9,7.2,76.8,26.1,22.5,18.9,33,40.2,30.6,64.2-.6,7.5-3,15-6.6,22.2-18.9,36-69.9,69.6-153.3,101.4-57,21.6-115.8,38.4-176.4,49.8-6.6,18.6-11.7,41.1-12.3,57.3-.9,37.5,24.9,30.6,44.1,16.8,7.5-5.4,5.4,0,2.4,2.7-27.9,24.9-57.6,24.3-58.8-12.9-.9-20.7,5.4-43.8,15.3-66.9ZM679.91,92.93c2.4-21-6.9-39.9-26.7-56.1-20.1-16.8-44.4-24.9-72.9-23.7-48,1.8-97.2,38.7-147.3,108.6-30,42-55.8,88.2-77.7,139.2h.3c-.9,2.1-1.5,3.9-2.7,6,72.9-15,138-34.8,195-59.7,68.4-30,110.7-61.8,126.9-95.1,3-6.3,4.5-12.6,5.1-19.2Z"/>
  <path class="cls-1" d="M455.5,170.33c19.2-29.4,45.6-59.4,72.9-91.2,1.5-1.8,7.2-4.2,16.8-7.8,9.6-3.3,12.3-5.1,17.1-5.1,2.4,0,3.3,1.2,3.3,2.7,0,1.2-.9,1.5-3,2.1-18.9,3.9-49.8,35.4-93.3,95.1-24.3,36-41.1,65.1-58.8,105.3-6.6,18.6-11.7,41.1-12.3,57.3-.9,37.5,24.9,30.6,44.1,16.8,7.5-5.4,5.4,0,2.4,2.7-27.9,24.9-57.6,24.3-58.8-12.9-2.4-52.5,39.3-118.2,69.6-165Z"/>
  <path class="cls-1" d="M556.3,292.43c-13.5,2.1-58.2,2.1-82.2,2.1-9,12-21.3,30-22.5,48.9-.9,17.7,9.9,21.9,20.1,20.7,13.2-1.5,29.7-8.1,40.5-14.4,3.3-1.8,5.7-.3,2.4,2.1-8.4,6-25.5,16.2-40.2,18.9-12,2.1-30.6-11.7-30-27.3,2.1-43.8,49.8-92.4,77.7-102.9,15-5.7,24.6,15,18,26.7-6.3,11.1-23.1,19.2-42.9,22.2,21.9,0,46.2,0,59.1-1.5,8.4-.9,18-6.3,22.8-10.5,1.8-2.7,4.2-1.5,2.1,1.2-3.9,4.2-13.8,12.3-24.9,13.8ZM521.5,251.33c-14.7,8.4-30.6,23.4-44.1,38.1,21,0,45.9-10.5,55.5-24.9,8.4-12.9.6-19.8-11.4-13.2Z"/>
  <path class="cls-1" d="M700.9,290.63c2.4,0,2.7,2.1,10.2,4.5,12.3.6,27-1.8,44.7-6.6,17.7-5.1,32.7-11.4,44.7-18.9,21-12.9,31.5-29.7,31.5-50.7,0-19.8-8.7-37.5-26.1-52.5-13.8-12.3-33.3-21.9-58.2-29.1-24.6-7.2-50.7-10.8-78-10.8-24.9,0-48,3-68.7,9.3-19.5,5.7-29.4,17.1-29.4,32.4,0,5.4,1.2,11.4,4.2,18,3,6.3,4.5,9.6,4.5,9.6,0,.3-.6.3-.9.3-.6,0-1.5-.6-3.3-2.4-6.3-6.9-9-15.3-9-24.6,0-18.3,10.8-30.6,32.4-37.5,21.6-6.9,45.6-10.2,72.3-10.2s53.7,3.3,78.9,10.2c25.5,6.9,45.6,15.9,60.6,27.6,21.3,16.5,32.1,35.1,32.1,56.4,0,23.7-13.5,43.2-40.2,58.2-10.8,6.3-24.3,11.7-40.2,16.5-18.3,5.7-35.1,8.7-51,9.6-1.5,0-1.8,1.5-1.5,3.9,1.5,9,5.7,21.9,12.6,38.1,7.5,17.4,14.4,29.1,20.7,35.4,6.9,6.9,13.2,10.2,19.2,10.2,2.4,0,4.8-.3,7.8-1.5,1.5-.3,2.4-.6,3.3-.6.9.3,1.2.6.9.9-.3.9-1.2,1.5-2.4,2.1-4.2,2.4-8.4,3.3-12.3,3.3-6.3,0-13.8-3.3-22.5-9.9-5.7-4.5-14.4-18-25.8-40.5-11.4-22.5-17.1-37.5-17.1-44.4,0-4.2,2.1-6.3,6-6.3ZM693.4,272.33c-28.2,42.9-41.1,69.6-39.9,79.8.3,2.1-1.8,3-5.4,3s-5.7-1.5-6.3-3.6c-3-9.6,29.1-61.8,96.3-156.6,2.4-2.4,2.7-4.8,1.5-7.2-.3-.6-.6-1.2-.6-1.5,0-1.8.9-2.7,2.4-2.7,1.2,0,2.1.6,3,1.5,3,3,4.2,5.1,3,6.3-18,27-36.3,54-54,81Z"/>
  <path class="cls-1" d="M804.1,356.33c.3-16.2,13.5-40.8,40.2-73.5.6-1.2.3-2.4-.6-2.7-3.6-2.1-8.1-4.8-8.1-7.2,0-1.2-.6-3.9,8.7-4.2,7.5-.3,11.1-.6,11.4-.3.6,0,1.8-.3,3.3-1.2,4.5-4.2,8.7-6.3,13.2-6.6,3.3-.3,7.8,2.1,13.5,5.4.6.3,1.2.9,2.1,1.2,9,.3,22.2.6,39,1.2,3,0,4.5.6,4.5,1.2,0,.9-1.5,1.8-4.5,1.8-6.3,0-10.2,1.2-12,3.6-.3.6-.3,1.2,0,1.8.3,1.2.9,2.4.9,3.3-1.2,15-12.9,32.4-36.6,52.8-23.4,20.1-43.8,31.8-61.5,34.2-5.7.9-13.5-4.5-13.5-10.8ZM811.6,357.83c0,4.8,3.3,6.6,9.6,5.4,13.5-2.1,29.7-11.7,48.9-29.4,20.1-18,31.5-34.2,34.5-48.6,1.5-6.3-2.7-9.6-11.4-10.5-9.6-1.2-18,0-25.2,2.7-.6-.3-2.4.9-5.1,2.7-21.3,19.8-37.8,43.5-49.5,71.1-1.2,2.1-1.8,4.5-1.8,6.6Z"/>
  <path class="cls-1" d="M948.09,262.73c.9-2.4,1.8-3.9.3-.6v-2.1C1022.79,92.03,1101.99,5.33,1186.89.23c28.8-1.8,54.6,7.2,76.8,26.1,22.5,18.9,32.7,40.2,30.3,64.2-.6,7.5-3,15-6.6,22.2-18.9,36-69.9,69.9-153,101.4-57.3,21.9-116.4,38.4-177,49.8-5.7,10.2-12,26.4-20.4,48.9-2.7,6.9-4.8,12.6-6.3,17.4,6.9-6.3,20.1-15,39.6-27.9,23.7-15.6,41.7-26.1,53.4-30.9,1.8-.9,3.9-1.2,6-1.2,7.2,0,10.2,3.6,9.9,11.1-.6,2.7-2.1,5.7-3.6,9-11.7,19.5-29.4,36.3-54,51-24.6,14.7-47.4,21.9-67.8,21.6-.6,0-1.2-.3-1.8-.6-3-.9-5.7-4.2-5.7-7.2.9-2.1,2.1-4.2,4.2-7.2,7.8-18.3,19.2-45,33.9-79.2.3,0,.6-.3.9-1.5,0-.3-.3-.6,0-.9,0-.3.6-.6.6-.9l.3-.3v.6c.3-.6.6-1.2.9-2.1,0,.3-.3.6-.3.6.3-.6.6-1.2.9-1.5ZM925.59,347.93c0,.3.3.3.3.6-.3.3-.3.9-.6,1.2l.3,1.2c-.6,2.4-.3,4.2,1.5,4.5,1.8.6,6.3.3,13.8-1.2,15.3-3.3,30-10.5,45.6-21.9,16.2-11.7,27-24,32.4-36.6l1.2-4.8c.3-6-1.5-9.3-6.6-9.3-4.2,0-17.4,7.2-39,21.6-17.4,11.7-30.3,21.3-39.3,28.2-4.8,3.9-8.1,9.6-9.6,16.5ZM1286.5,85.43c1.8-21-6.9-39.9-26.7-56.1-20.4-16.8-44.7-24.9-72.9-23.7-48.3,1.8-97.5,38.7-147.6,108.6-30.9,43.5-57.9,91.8-80.1,145.2,72.9-15,138-34.5,195.3-59.7,68.1-29.7,110.4-61.8,126.6-95.1,3-6.3,4.2-12.6,5.4-19.2Z"/>
  <path class="cls-1" d="M1150.89,292.43c-13.5,2.1-58.2,2.1-82.2,2.1-9,12-21.3,30-22.5,48.9-.9,17.7,9.9,21.9,20.1,20.7,13.2-1.5,29.7-8.1,40.5-14.4,3.3-1.8,5.7-.3,2.4,2.1-8.4,6-25.5,16.2-40.2,18.9-12,2.1-30.6-11.7-30-27.3,2.1-43.8,49.8-92.4,77.7-102.9,15-5.7,24.6,15,18,26.7-6.3,11.1-23.1,19.2-42.9,22.2,21.9,0,46.2,0,59.1-1.5,8.4-.9,18-6.3,22.8-10.5,1.8-2.7,4.2-1.5,2.1,1.2-3.9,4.2-13.8,12.3-24.9,13.8ZM1116.09,251.33c-14.7,8.4-30.6,23.4-44.1,38.1,21,0,45.9-10.5,55.5-24.9,8.4-12.9.6-19.8-11.4-13.2Z"/>
</svg>