<?xml version="1.0" encoding="UTF-8"?>
<svg id="Layer_1" data-name="Layer 1" xmlns="http://www.w3.org/2000/svg" viewBox="0 0 841.89 595.28">
  <defs>
    <style>
      .cls-1 {
        fill: #556e48;
      }

      .cls-1, .cls-2 {
        stroke-width: 0px;
      }

      .cls-2 {
        fill: #f5faf7;
      }
    </style>
  </defs>
  <rect class="cls-1" y="0" width="841.89" height="595.28"/>
  <g>
    <path class="cls-2" d="m560.79,263.95c-1.58,4.1-3.11,8.21-4.75,12.29-3.66,9.11-4.2,18.48-1.37,27.78.71,2.33,3.57,4.75,5.96,5.52,1.37.44,3.78-2.35,5.15-3.28-2.05-2.28-3.26-3.61-4.46-4.94,1.42-.76,3.78-2.43,4.1-2.11,1.4,1.44,3.47,3.93,3,5.16-.96,2.52-3,5.16-5.32,6.53-3.94,2.33-6.73-.85-9.37-3.38-.8-1.83-1.6-3.66-2.41-5.5-2.43-12.84.72-24.52,7.41-35.45.58-.94,1.43-1.71,2.16-2.56,0,0-.09-.04-.09-.04Z"/>
    <path class="cls-2" d="m550.33,250.15c.31.14.63.28.94.43-.33-.09-.67-.18-1-.29l.06-.14Z"/>
    <path class="cls-2" d="m560.79,263.95c.07-.07.14-.15.2-.22-.03.09-.07.17-.11.26l-.09-.04Z"/>
    <path class="cls-2" d="m841.89,91.95v2.9c-2.7.81-5.4,1.62-8.08,2.48-18.33,5.84-32.28,17.52-43.48,32.8-1.12,1.51-1.7,3.57-2.06,5.47-4.19,21.74-7.47,43.69-12.58,65.2-8.42,35.41-23.34,67.72-50.47,93.05-13.04,12.17-27.01,23.25-44.78,28.08-11.27,3.07-22.61,4.08-33.93.45-8.07-2.59-14.03-7.83-16.66-15.94-1.02-3.13-1.13-7.02-.26-10.18,1.59-5.78,7.99-6.88,11.77-3.25-2.13.16-6.54-.48-7.13.73-1.6,3.29-2.91,7.76-1.94,11.06,2.39,8.08,8.43,13.35,16.51,16.03,12.71,4.22,25.05,1.69,37.11-2.57,8.13-2.87,15.89-6.68,22.76-13.51-5.1,1.58-9.31,3.64-13.68,4.06-5.18.5-10.71.41-15.69-.91-6.82-1.82-9.62-7.28-9.01-15.91,1.43,6.35,3.17,11.69,9.04,12.85,5.11,1,10.55,1.33,15.74.83,14.13-1.37,24.29-9.6,33.39-19.92,22.04-24.98,35.67-54.15,42.84-86.31,4.08-18.32,6.42-37.04,9.47-55.6.26-1.56-.03-3.2-.06-5.05-4.51.09-5.82,3.29-6.8,6.01-3.34,9.23-6.78,18.47-9.26,27.95-4.25,16.27-7.77,32.72-11.66,49.08-3.17,13.35-10.8,23.05-23.64,28.32-10.64,4.37-24-1.47-28.02-12.3-.74-1.98-1.24-4.29-.95-6.32.25-1.71,1.63-3.4,2.88-4.76.38-.41,2.87.23,2.9.54.18,1.68.24,3.54-.31,5.11-1.81,5.19.73,11.75,7.06,14.77,3.95,1.88,8.65,2.18,13.01,3.19.2-.6.39-1.19.59-1.78-1.29-.83-2.6-1.62-3.85-2.5-5.02-3.51-6.74-11.18-3.43-15.96.64-.93,2.02-1.34,3.06-1.98.43,1.13,1.28,2.3,1.19,3.39-.16,1.79-1.59,3.64-1.3,5.25.55,3.07,1.18,6.73,3.18,8.78,2.63,2.68,6.91,2.29,9.55-.47,4.43-4.6,9.3-9.25,12.13-14.82,6.54-12.91,8.2-27.32,10.55-41.46,1.22-7.39,2.33-14.82,4.09-22.09,1.76-7.23,4.26-14.28,5.94-21.96-4.38,6.24-9.2,12.22-13.05,18.78-10.76,18.31-23.86,34.5-41.43,46.63-20.52,14.15-43.62,21.99-67.99,26.15-13.43,2.3-27.02,3.66-40.5,5.72-20.62,3.14-33.19,7.25-34.79,34.54-1.9-9.49.51-18.18,5.51-26.4-.36-.23-.71-.47-1.07-.7-4.43,4.75-8.87,9.48-13.31,14.23,1.21-2.71,2.41-5.41,3.23-7.26-4.37-1.98-8.66-3.94-12.94-5.89,1.01.27,2.03.52,2.94.98,4.77,2.44,9.65,2.29,13.68-.91,8.35-6.63,18.18-8.71,28.26-10.27,20.52-3.17,41.17-5.71,61.56-9.58,17.76-3.37,34.25-10.53,49.15-21.41-2.63.8-5.25,1.67-7.91,2.39-19.98,5.39-38.93,1.35-57.4-6.49-5.97-2.54-11.78-5.47-17.6-8.35-11.02-5.47-22.98-1.07-27.76,10.3-1.78,4.22-.92,7.72,2.69,10.64,4.23,3.43,9.42,4.32,12.92,1.99,3.36-2.24,4.03-6.88,1.03-9.39-1.23-1.03-3.22-1.31-4.92-1.52-.45-.05-1.71,1.89-1.53,2.14.8,1.11,2,1.94,2.6,3.91-1.51-.72-4.18-1.32-4.27-2.2-.17-1.58.75-3.88,2.01-4.9,3.02-2.42,7.43-1.07,9.36,2.38,2.25,4.01.57,9.28-3.67,11.53-4.36,2.32-10.05,1.44-14.45-2.1-4.27-3.44-5.38-7.82-4.03-12.94.48-1.84,1.22-3.61,1.85-5.41-.4-.27-.81-.54-1.21-.82-3.54,4.07-7.16,8.06-10.59,12.21-7.93,9.57-17.86,14.77-30.3,12.04-12.52-2.76-20.45-11.3-24.59-23.24-1.75-5.05.04-10.23,3.7-12.45,3-1.81,5.84-1.57,7.87,1.41,1.52,2.23,2.95,5.06-.1,6.99-1.53.97-3.9.6-5.89.83-.16-1.81-.41-3.62-.45-5.43-.01-.57.52-1.16.98-2.09-5.48,4.39-6.39,10.66-2.15,16.28,2.58,3.42,5.58,6.63,8.88,9.35,12.93,10.67,26.73,9.51,37.99-2.93,1.56-1.73,3.14-3.46,4.55-5.31,8.23-10.76,17.51-19.47,33.14-16.28-2.33-11.7-8.12-22.87.57-33.47,1.2-1.46,3.19-2.28,4.81-3.4.54.43,1.08.86,1.62,1.28-.91,1.88-1.41,4.16-2.8,5.58-8.61,8.8-5.48,18.38-2.04,27.94.51,1.43,1.91,2.93,3.29,3.58,10.06,4.73,20.22,9.24,30.35,13.83.26-.36.52-.71.78-1.06-1.04-1.27-2.12-2.5-3.1-3.81-5.78-7.79-3.85-17.25,4.84-21.45,3.63-1.76,7.83-2.51,11.86-3.21,1.29-.22,2.99,1.03,4.23,1.97.37.27,0,2.5-.34,2.57-1.53.34-3.47.84-4.71.2-3.14-1.61-5.91-1.63-8.91.17-4.79,2.87-8,6.67-7.16,12.59.93,6.62,4.65,11.88,10.86,13.74,9.44,2.82,19.3,3.03,29.21,1.41-1.99-2.24-4.78-4.06-5.43-6.45-.69-2.56-.05-6.01,1.19-8.47,2.73-5.4,10.92-9.44,16.46-7.38-2.71,1.18-4.29,1.83-5.83,2.56-2.29,1.1-4.9,1.86-6.77,3.48-2.91,2.53-4.41,5.92-2.48,9.84,2.02,4.12,6.1,5.34,9.74,4.2,5.29-1.65,10.55-4.11,15.14-7.23,18.05-12.3,31.24-29.28,43.5-46.97,10.36-14.95,20.71-29.82,35.04-41.38.59-.47.99-1.18,2.45-2.98-13.21,4.94-25.37,7.72-38.11,7.53-31-.46-61.47-3.69-90.41-15.87-3.52-1.48-7.26-2.45-10.94-3.51-8.59-2.49-17.28.56-20.95,7.35-2.05,3.81-2.14,7.7.44,11.32,1.9,2.67,4.32,4.44,8.36,3.38-.54-1.23-1.26-2.09-1.21-2.91.12-1.96-.04-4.69,1.11-5.63,1.32-1.07,4.24-1.23,5.9-.5,1.19.53,2.19,3.25,2,4.85-.72,6.28-7.77,9.55-13.3,6.46-6.84-3.82-8.71-13.85-3.66-19.9,4.58-5.49,10.38-8.22,17.61-7.37,2.75.32,5.48.83,8.55.85-12.42-8.29-19.05-21.57-28.81-32.05-4.42-4.75-10.26-8.41-16.01-11.54-1.93-1.05-5.89.55-8.29,1.99-.87.53.11,4.13.25,6.33.49.03.98.07,1.46.1,1.01-.97,2.02-1.94,3.04-2.91.53.07,1.06.15,1.59.22-.2,2.06-.4,4.13-.6,6.19-2.03-.39-4.72-.1-5.98-1.3-4.7-4.53-2.7-11.49,3.72-12.34,3.33-.45,7.72.14,10.24,2.07,6.29,4.8,13.03,9.8,17.4,16.21,18.87,27.72,45.98,39.84,78.07,43.35,4.3.47,8.62.72,12.93,1.02.59.04,1.2-.25,2.71-.6-11.18-6.12-19.36-14.06-24.67-24.82-7.29-14.76-3.62-33.36,8.98-43.54,2.39-1.93,5.42-3.85,8.31-4.14,2.47-.24,5.49,1.49,7.55,3.2.55.46-1.03,4.58-2.54,6.12-2.16,2.21-5.05,3.81-7.82,5.29-13.88,7.44-18.99,23.14-6.07,41.39-.19-3.45-.91-6.94-.47-10.27,1.15-8.54,10.57-17.11,19.24-17.98,1.14-.11,2.55-.26,3.42.28,1.84,1.14,3.4,2.72,5.08,4.12-1.59,1.45-2.95,3.49-4.81,4.21-3.23,1.24-6.82,1.51-10.18,2.46-9.24,2.6-12.96,11.82-8.07,20.18,3.61,6.17,9.57,9.53,15.83,12.48,2.99,1.4,5.81,3.16,8.71,4.76.32-.71.65-1.42.98-2.13-.93-.74-1.86-1.47-2.78-2.2.08-.19.16-.37.24-.55,12.91,5.3,25.98,5.27,38.99.66,12.07-4.27,23.89-9.25,35.99-13.41,7.7-2.64,15.68-4.45,23.59-6.43.41-.11.84-.14,1.29-.13Z"/>
    <path class="cls-2" d="m783.42,84.83c5.57,5.17,11.14,10.35,17.2,15.98-10.88,3.69-18.26,1.76-24.33-5.63-2.32-2.82-4.3-5.95-6.87-8.5-2.39-2.37-5.35-4.16-7.86-6.06,3.25-1.78,18.59-3.09,24.85-1.82,10.25,2.08,12.58,11.18,16.56,18.95-5.92-5.57-11.27-11.95-19.54-12.92Z"/>
    <path class="cls-2" d="m800.31,243.03c-5.77-3.18-10.57-6.68-15.94-8.57-8.16-2.87-8.87-9.09-9.43-17.47,5.77,3.15,10.59,5.78,15.79,8.62-1.72-6.09-7.62-7.31-11.6-10.55,6.61-1.87,14.21,1.75,16.8,8.13,1,2.46,1.83,5.02,2.37,7.61.82,3.89,1.31,7.85,2.02,12.22Z"/>
    <path class="cls-2" d="m737.17,169.81c-8.46,4.69-13.95,3.85-19.83-1.76-4.11-3.92-8.61-7.41-12.56-10.78,15.39-8.28,27.29-5.37,34.37,9.94-5.53-3.32-9.54-8.67-16.87-8.28,5.12,3.74,9.7,7.09,14.9,10.89Z"/>
    <path class="cls-2" d="m654.55,240.75c4.67,2.35,9,4.53,13.33,6.7l.73-.94c-3.52-2.69-7.04-5.38-10.3-7.87,6.93-1.53,12.96,1.59,14.99,8.7,1.36,4.74,1.92,9.7,2.9,14.87-5.24-2.69-9.8-5.17-14.48-7.4-6.64-3.16-7.76-5.02-7.18-14.07Z"/>
    <path class="cls-2" d="m568.48,174c16.4-.96,24.65,3.8,28.73,17.05-4.09-3.64-8.21-7.29-12.32-10.95-.2.26-.41.52-.61.78,3.48,4.05,6.95,8.1,11.09,12.92-8.7.58-14.46-1.91-18.59-8.25-2.65-4.07-5.66-7.9-8.29-11.55Z"/>
    <path class="cls-2" d="m615.44,269.26c-7.83-11.1-8.31-20.61-.03-24.36-.86,3.57-1.72,7.15-2.57,10.73.4.13.8.27,1.19.4,1.69-3.84,3.38-7.69,5.21-11.85,4.91,5.21,5.4,9.44,2.38,14.46-2.1,3.49-4.1,7.04-6.18,10.62Z"/>
    <path class="cls-2" d="m819.81,146.98c-11.44,7.51-18.94,8.58-25.25-.45,3.94,1.1,7.57,2.12,11.21,3.13.15-.37.29-.75.44-1.12-3.8-1.86-7.6-3.73-11.7-5.74,6.44-4.94,9.8-5.12,15.82-1.41,3.17,1.95,6.42,3.78,9.47,5.58Z"/>
    <path class="cls-2" d="m700.05,115.52c6.61,5.15,7.55,8.12,5.57,14.6-1.14,3.72-1.94,7.54-2.86,11.14-10.96-10.54-12.58-16.03-6.37-24.14.12,3.99.23,7.51.33,11.02.43,0,.86.01,1.29.02.66-4.07,1.31-8.15,2.04-12.65Z"/>
    <path class="cls-2" d="m749.03,270.63c4.09,1.1,7.67,2.07,11.25,3.04.19-.39.38-.79.57-1.18-3.14-1.5-6.28-3-9.11-4.36,8.15-3.51,13.57.9,18.6,16.27-7.61-4.16-19.14-.21-21.31-13.76Z"/>
    <path class="cls-2" d="m838.01,116.04c-5.38,12.37-4.46,24.62,1.51,36.59.73,1.45,1.51,2.75,2.37,3.88v3.82c-2.42-1.94-4.51-4.49-5.89-7.56-6.77-14.99-4.29-29.57,2.65-43.72.9-1.83,1.99-3.58,3.24-5.23v4.05c-1.36,2.69-2.68,5.41-3.88,8.17Z"/>
    <path class="cls-2" d="m665.51,133.07c-2.56-14.81-.65-20.23,9.05-24.43-2.24,3.52-4.35,6.85-6.46,10.17.3.2.6.41.91.61,2.52-2.89,5.04-5.78,7.75-8.88,2.49,6.53,1.62,10.3-2.76,14.33-2.9,2.67-5.67,5.47-8.48,8.19Z"/>
    <path class="cls-2" d="m725.47,285.45c-10.3,2.94-13.11,1.36-21.12-11.61,7.51,2.87,17.16-2.66,22.11,8.26-3.54.06-6.7.11-9.86.16l-.28.88c2.79.7,5.59,1.41,9.15,2.3Z"/>
    <path class="cls-2" d="m709.88,311.73c3.52.04,6.12.07,8.71.1.08-.34.16-.67.23-1.01-2.14-.54-4.28-1.08-6.35-1.6,6.4-4.04,13.16-.13,16.67,10.11-6.7-1.71-15.42,3-19.27-7.61Z"/>
    <path class="cls-2" d="m673.71,98.76c1.51-3.56,2.7-6.36,3.89-9.15l-.74-.5c-1.58,2.29-3.16,4.57-4.76,6.87-2.19-7.09,3.05-11.53,15.91-13.21-4.63,5.67-2.94,15.25-14.31,15.99Z"/>
    <path class="cls-2" d="m760.32,127.93c-2.31-5.73-8.41-8.4-13.87-6.06-5.46,2.35-7.88,8.57-5.52,14.17,2.25,5.34,8.23,7.76,13.71,5.56,5.27-2.12,7.84-8.3,5.68-13.67Zm-6.14,11.27c-4.36,2.05-9.5.24-11.41-4.03-1.79-4.01.19-9.01,4.32-10.9,4.24-1.94,9.45.1,11.23,4.42,1.63,3.93-.23,8.67-4.14,10.51Z"/>
    <path class="cls-2" d="m741.79,111.81c-7.86-2.68-11.53-9.8-8.58-16.66,1.75-4.07,6.37-6.7,10.01-5.37,1.15.42,2.36,1.78,2.68,2.95.18.67-1.19,2.29-2.17,2.66-3.46,1.3-8.57,1.33-7.53,6.61.62,3.19,3.61,5.92,5.54,8.86.09.14.2.27.29.4-.08.18-.16.36-.24.55Z"/>
    <path class="cls-2" d="m808.29,178.03c-2.47-5.54-8.65-8.11-14.06-5.84-5.9,2.47-8.6,9.09-6.06,14.85,2.42,5.51,9.23,8.15,14.62,5.68,5.53-2.53,7.99-9.09,5.5-14.69Zm-6.22,12.83c-4.62,1.95-10.07-.21-12.11-4.8-2.01-4.53-.1-9.67,4.36-11.75,4.57-2.13,10.17-.13,12.24,4.36,2.08,4.53-.05,10.32-4.49,12.19Z"/>
    <path class="cls-2" d="m828.18,74.11c-1.92-4.37-6.89-6.59-11.12-4.97-4.64,1.78-7.06,7.35-5.17,11.94,1.81,4.41,7.13,6.52,11.67,4.63,4.53-1.88,6.61-7.09,4.62-11.6Zm-5.44,9.77c-3.82,1.37-6.96.17-8.9-3.36-1.76-3.19.07-7.82,3.42-9.3,3.59-1.59,7.57-.03,9.16,3.6,1.57,3.57-.04,7.75-3.68,9.06Z"/>
    <path class="cls-2" d="m706.05,315.18c5.49,6.6-.62,10.73-1.86,16.09-5.11-8.69-5.3-12.08-.86-15.87-.37,1.76-.68,3.26-.99,4.76.23.11.47.23.7.34.9-1.59,1.8-3.17,3.01-5.32Z"/>
    <path class="cls-2" d="m652.11,218.53c-1.57-3.77-6.14-5.76-9.85-4.27-3.77,1.51-5.64,6.02-4.11,9.92,1.58,4,5.71,5.73,9.74,4.05,4.08-1.69,5.85-5.76,4.22-9.7Zm-4.62,8.15c-3.38,1.52-6.71.33-7.62-3.13-.6-2.3.89-5.16,1.28-6.98,5.06-1.68,7.85-.73,9.31,2.69,1.38,3.24.12,6.02-2.97,7.42Z"/>
    <g>
      <path class="cls-2" d="m841.89,69.41v1.78c-1.13.16-2.26.33-3.34.16-17.29-2.68-31.86-9.86-40.68-25.79-7.58-13.71-6.17-32.1,1.76-45.56h2.25c-9.33,14.98-8.81,35.58,1.61,49.88.22.3.55.52,1.07,1.01-1.12-5.5-2.38-10.46-3.09-15.5-.6-4.21.17-8.28,4.93-9.8,1.44-.46,3.59-.17,4.82.66,1.02.68,1.16,2.66,1.7,4.06-.4.17-.79.35-1.19.53-.45-.53-1.1-.98-1.32-1.59-1.22-3.39-3.64-4.08-5.5-1.11-1.34,2.13-2.28,5.11-2,7.54,2.29,19.81,8.21,26.85,28.85,32.02,2.47.62,5.1.56,7.62.99.85.14,1.68.42,2.51.72Z"/>
      <path class="cls-2" d="m841.89,0v15.72c-1.52-.29-2.76-1.64-3.09-3.86-.39-2.74.12-5.89,1.13-8.51.46-1.2.82-2.32,1.07-3.35h.89Z"/>
      <path class="cls-2" d="m770.16,59.81c7.15-12.15,11.02-14.26,22.94-11.63-4.59,1.21-8.56,2.25-12.53,3.29l.24,1.14c4.49-.66,8.98-1.32,13.71-2.01-1.42,5.39-4.03,7.66-8.96,8.09-5.18.45-10.37.76-15.4,1.12Z"/>
      <path class="cls-2" d="m837.71,43.73c.3,3.27.25,6.12.89,8.8,1,4.2-.71,6.83-4.83,9.24-.36-3.15-.68-6-1-8.84-.25-.03-.51-.06-.76-.09-.34,2.51-.67,5.03-.98,7.34-5.1-5.5-1.18-10.26,6.69-16.45Z"/>
      <path class="cls-2" d="m812.52,17.01c7.15-4.48,14.96-3.04,19.32,3.18.64.92,1.3,2.04,1.35,3.09.04.97-.73,1.97-1.14,2.96-.84-.42-1.73-.77-2.51-1.28-.39-.26-.64-.8-.87-1.25-3.41-6.71-8.3-9.99-16.15-6.71Z"/>
      <path class="cls-2" d="m820.03,30.14c-3.21-3.6-.65-9.95-6.79-11.3,3.69-.98,5.49,1.1,6.99,3.46,1.48,2.33,2.44,4.8-.2,7.84Z"/>
    </g>
    <path class="cls-2" d="m550.33,250.15c-2.03-.66-4.03-1.53-6.11-1.93-5.54-1.06-7.51,1.24-5.85,6.6.33,1.08.66,2.15.98,3.23-.32.35-.65.71-.97,1.06-1.24-1.05-3.62-2.22-3.52-3.12.3-2.72.79-6.16,2.6-7.81,3.98-3.64,8.82-2.48,12.81,2.09,0,0,.06-.14.06-.14Z"/>
    <path class="cls-2" d="m794.4,184.27c1.29-2.06,1.82-3.81,2.93-4.34.8-.38,3.32.76,3.4,1.44.16,1.26-.55,3.14-1.55,3.87-.71.52-2.49-.44-4.78-.96Z"/>
    <g>
      <path class="cls-2" d="m830.24,217.53c-1.62,3.45-.78,5.61,2.34,7.18,2.83,1.42,6.87.32,8.37-2.26,1.43-2.48.59-5.06-2.05-5.75-.05.42.03.91-.18,1.2-.6.84-1.35,2.26-1.96,2.22-1.02-.06-2.28-.89-2.85-1.78-.32-.51.29-2.29.91-2.57,1.47-.67,3.47-1.48,4.74-.96.87.36,1.69,1.19,2.33,2.13v6.45c-.29.34-.63.66-1.02.94-2.53,1.87-5.4,2.53-8.43,1.45-2.64-.94-4.28-3.12-3.76-5.89.49-2.66,1.75-5.21,2.9-7.71.72-1.58,1.84-2.98,2.79-4.45-.24-.23-.49-.46-.73-.69-2.37,1.73-4.87,3.3-7.07,5.21-3.37,2.93-6.58,6.09-7.98,10.52-.69,2.17-.79,4.43,1.01,6.12,1.57,1.46,2.83-.08,4.2-.78.53-.28,1.36.01,2.06.04-.14.72-.04,1.63-.45,2.11-1.25,1.45-2.9,1.89-4.73,1.05-2.85-1.31-4.12-3.57-3.76-6.84-1.57,3.57-2.44,7.03-1.29,10.73,1.3,4.17,4.73,5.75,8.63,3.79,1.47-.74,2.67-2.02,4.14-2.74,1.03-.51,2.32-.48,3.5-.69-.32,1.23-.26,2.83-1.03,3.62-2.97,3.08-9.61,4.99-13.87.37-.35-.39-.84-.64-1.26-.95.21,1.19.68,2.11,1.21,3.01,4.03,6.89,8.29,8.47,15.78,5.92,1.15-.39,2.36-.73,3.55-.81.77-.05,2,.2,2.26.71.36.71.32,2-.12,2.64-.65.93-1.71,1.85-2.77,2.17-1.98.59-4.1.74-6.15,1.08-1.37-.3-2.74-.6-4.11-.9-3.94-2.08-7.36-4.75-9.24-8.94-3.88-8.65-3.06-17.04,2.64-24.47,3.2-4.18,7.47-7.54,11.25-11.28.38-.37.73-.77,1.45-1.54-6.31-.05-11.81-1.34-16.95-4.07.81-.1,1.58.06,2.35.24,1.87.43,3.72,1.02,5.61,1.3,7.14,1.05,13.56-.13,19.39-3.07v3.48c-4.93,3.54-9.01,7.86-11.65,13.46Z"/>
      <path class="cls-2" d="m841.89,198.9c-3.78-1.18-4.55-3.15-3.76-8.7.93,1.28,2.48,2.02,3.76,2.98v3.85c-.58-.39-1.13-.76-1.69-1.14-.08.12-.17.23-.26.34.63.67,1.24,1.34,1.95,2.09v.58Z"/>
    </g>
  </g>
</svg>