<?xml version="1.0" encoding="UTF-8"?>
<svg id="Layer_1" data-name="Layer 1" xmlns="http://www.w3.org/2000/svg" version="1.1" viewBox="0 0 841.9 595.3">
  <defs>
    <style>
      .cls-1 {
        fill: #c2dbc5;
      }

      .cls-1, .cls-2, .cls-3, .cls-4 {
        stroke-width: 0px;
      }

      .cls-2 {
        fill: none;
      }

      .cls-3 {
        fill: #f5faf7;
      }

      .cls-4 {
        fill: #c2deb0;
      }
    </style>
  </defs>
  <rect class="cls-4" x="-1095.6" width="841.9" height="595.3"/>
  <g>
    <path class="cls-3" d="M-974.7,550.5c-1.5,3.7-2.6,7.6-4.5,11-1,1.8-3.2,3.4-5.2,4.3-1.4.6-3.8,0-5-.8-.8-.7-.8-3.1-.4-4.5.6-2.2,1.8-4.3,3-6.3,7.8-12.9,6.6-21.5-4.6-31.8-1.5-1.3-3-2.6-5.1-3.5.4.9.7,1.9,1.2,2.7,6.9,9.8.6,21.4-6.3,25.6-1.8,1.1-4.7.3-7.2.4.9-2.1,1.3-4.5,2.7-6.2,1.9-2.4,4.8-4.1,6.8-6.6,5.2-6.5,3.7-13.5-3.5-17.6-6.4-3.6-13.2-3.4-20.5-2,6.2.7,9.9,3.9,11.2,9.8.8,3.7-.7,6.6-3.9,8.4-1.1.6-2.7,0-4.1,0,.2-1.3,0-3,.8-3.9,1.9-2.2,5.2-4,3.2-7.5-2.4-4-6.6-4.8-11-4.4-8.8.8-16,5.5-22.8,10.6-4.5,3.3-8.4,7.3-12.6,11,.3.5.7,1.1,1,1.6,3.1-1.2,6.2-2.7,9.4-3.4,5.1-1.1,10.4-2.4,15.5-2.3,5.4.2,8.8,4.1,9.4,9.4.8,6.1-1.6,11.1-6.1,15.1-3.3,2.9-7.5,3.7-11.1,1.4-2.7-1.7-5.5-4.8-6-7.7-.4-2.6,1.9-6,3.7-8.4.8-1,4.3-1.4,5.1-.6,1.4,1.4,2.5,4.1,2.2,6-.2,1.2-3.1,2-4.9,2.7-.6.3-1.5,0-2.3-.2.2,5.2,4.7,7.8,9.9,6.1,5.4-1.7,9.1-8.8,7.6-14.6-1.6-6.4-5.3-8.9-12.4-7.3-13.2,3-24,10.3-33.5,19.7-4.8,4.8-9.9,9.4-15.1,13.8-1.4,1.2-3.7,1.5-5.5,2.2-2.2-3.9,0-5,2.2-6.5,17-12.1,27.8-28,29.3-49.3.3-3.6,0-7.3,0-11s0-3,.5-4.5c3,10.7,3.1,21.4.7,33.2,1.7-1,2.6-1.5,3.5-2.1,8.5-5.5,16.5-12.1,25.5-16.3,16.1-7.6,32.1-5.7,46.6,5.1,7,5.2,10.6,12.6,12.9,20.8-.2,3.1-.2,5.8-.2,8.4Z"/>
    <path class="cls-3" d="M-1066.9,582.5c-2.2-3.4-3.9-6.9-6.3-9.8-3.5-4.3-3.1-8.3.3-13.6,2.2,3.6,4.2,6.7,6.1,9.9.3,0,.6-.2.9-.3-1-3.2-2.1-6.3-3.1-9.3,8.2,2.8,8.6,11.1,2.1,23.1Z"/>
    <path class="cls-3" d="M-1095.5,540.9c11.3.8,14.4,3.3,14.7,11.9-1.6-2.3-2.9-4.2-4.2-6.1-.2,0-.5.2-.7.4,1,2.5,2,5.1,3.2,8.1-10.2-.3-8.8-9.4-13-14.3Z"/>
  </g>
  <g>
    <path class="cls-3" d="M-1044.5,120.4c23.3,11.9,45,23.4,67.2,34,15.4,7.4,31.6,12.6,48.9,13.2,19.2.8,34.8-7.5,45-23,7.6-11.7,7-25.5,0-38.1-3.3-5.9-8.7-9-15.7-9.2-1.7,0-3.4.3-5-.2-1.3-.4-2.3-1.8-3.4-2.8,1.1-1.1,2.4-3.2,3.2-3,4.7,1.1,10.4,1.5,13.7,4.5,5.6,5.1,9.7,11.9,14.1,17.6,6.1-6.2,13-13.6,20.3-20.8,3.8-3.7,7.9-7.2,12.3-10.1,6.3-4.1,14-3.1,18.4,1.5,3.4,3.5,3.5,7.2-.3,11.2,1.8-4.5,2-8.3-1.9-10.8-4.8-3.1-10.3-3.3-14.7-.2-6,4.1-11.3,9.4-16.8,14.3.3.5.7,1,1,1.5,2.7-.5,5.3-1.1,8-1.4,9-.9,15.8,2.6,19,9.7,3.3,7.3,1.1,17.5-5,22.9-5.8,5.1-15.4,3.1-18.6-3.9-2.3-5.1,0-11.2,5.5-12.4,2.1-.5,5.6.5,6.7,2.1,1.9,2.8,0,5.2-3,6.3,0-2.1.3-4.1,0-6.1,0-.3-2.7-.8-3.6-.3-1.2.8-3,2.7-2.7,3.6.8,3,1.7,6.5,3.8,8.6,2.7,2.7,6.4,2.2,9.7,0,4.7-3.1,7-10.3,5.5-17.1-1.3-6-4.5-8.8-11-9.9-11.7-1.8-30.6,5.2-31.5,24-.9,18.4-10.6,30.2-26,38.5-2.1,1.1-4,2.5-5.6,4.8,1.2.2,2.5.6,3.7.5,30-.9,59.3-5.8,87.4-16.6,12.8-4.9,18.4-15.5,19.3-28.5.8-11.1-2.7-15.4-13.7-19.3,5.7-1.7,10.9.4,13.6,6.2,4.8,10.1,2.7,20.1-1.1,30-.8,2.1-1.9,4.1-2.8,6.1.4.3.7.7,1.1,1,4.8-3.7,10.1-6.8,14.3-11.1,11.4-11.5,22-23.8,28.3-38.9,5-12,6-24.3-.9-36.1-5.5-9.5-16.4-10.3-21.3-1.9-.4.6-.4,1.5-.8,3,2.1,0,3.7-.3,5.2,0,1.4.4,3.5,1.3,3.8,2.4.4,1.2-.6,3.4-1.6,4.2-3.5,2.9-7.2,2-10.6-.3-3.2-2.2-2.9-5.4-1.5-8.5,4.4-9.9,18.2-12.6,26.1-5,8.5,8.2,9.2,18.8,8.5,29.7-.8,12.3-7.4,22.3-14.2,32-4.8,6.8-9.9,13.3-15.2,20.3,1.3,0,2.3.2,3.1,0,7.4-2,14-.1,20.6,3.4,3.4,1.8,7.3,3.3,11.2,3.9,7.3,1.2,9.9-2.7,7-9.5-.9-2-1.6-4.1-2.4-6.2.4-.5.9-1,1.3-1.6,2.5,1.2,5.7,1.8,7.1,3.7,1.4,1.9,1.8,5.4,1.1,7.7-2.9,8.4-10.3,11.3-19.1,8-.6-.2-1.3-.4-1.8-.8-12.6-9.6-24.7-6.1-37.3.6-19.3,10.2-40.1,16.1-61.5,19.8-12,2.1-23.8,4.8-35.8,7.1-22.7,4.4-44.7,1.1-66.3-6.4-27.3-9.4-53.4-21.4-78.3-36.1-.9-.6-2-1-2.4-1.1,5.1,8.5,10.3,17.4,15.9,26.1,4.7,7.3,10.9,13.1,19.9,14.8,1.9.4,4.1.8,5.9.3,2.1-.6,4.7-1.8,5.5-3.4.5-1.1-1.7-3.5-3.2-6.3-1.2,2-1.7,3.5-2.1,3.4-1.4-.1-2.7-.8-4.1-1.2.5-1,.7-2.6,1.5-3,3.1-1.6,9.8,1.1,11.3,4.3,1.5,3.3-.4,7-4.5,7.8-8.3,1.6-15.9-.3-22.4-5.8-4.6-3.9-9.1-7.8-13.1-11.3-2.9,2.8-6.8,6.5-10.8,10.2.3.5.7,1,1,1.5,2.5.2,5,.4,7.8.7-2.7,3.1-8.1,3.7-10.1,1.2-2.6-3.3-.7-5.9,1.8-8.1.5-.4,1.1-.8,1.6-1.1,7.3-5.2,7.8-6.7,4.5-15.2-5.3-13.6-20.2-23.8-35.1-24.1-11.5-.2-23,0-33.8,5.6-.8-1.8-1.4-3.1-1.7-3.9,5.4-3.4,10.3-6.9,15.5-9.7,2.1-1.1,5-.6,8.6-.9-1.3,2-2,3.1-3.2,5,18.2-5.9,35.7-.8,53.2-.6,3.3,0,6.7,0,10-.3,17.8-1.7,29.8-16.7,28.2-34.6-.9-9.9-1.4-19.9-1.5-29.9,0-5.3,1.1-10.7,5.8-14.3,3-2.3,6.4-2.9,9.8-.8,3.3,2.1,4.3,5.5,3.4,9.2-.4,1.5-2.3,3.8-3.3,3.7-1.9-.2-3.7-1.8-5.5-2.8,1.4-1.6,2.9-3.3,5.2-6-.4-.5-1.9-3.3-3.1-3.1-2.5.3-6.3,1.5-7,3.4-2,5.3-3.8,11.2-3.8,16.8,0,9.7,1.6,19.4,2.6,29.9,2.3-3.1,4-5.7,6-8,5-5.8,11.3-8,18.8-6.6,6.9,1.3,11.6,8.6,10.3,15.4-1.2,6.2-7.6,9.7-12.9,6.6-1.7-1-3.4-3.5-3.3-5.3,0-1.5,2.7-3.9,4.2-4,1.7,0,3.6,2,5.2,3.3.5.4.6,1.4,1,2.4,3.7-1.6,3.7-4.7,3.4-7.6-.5-4.2-2.9-7-6.9-8.4-7.3-2.6-15.7,1-20.3,8.7-3.4,5.7-6.7,11.5-9.8,17.4-5.9,11.1-15.1,17.2-27.6,17.7-9.9.4-19.5.1-30.5.1Z"/>
    <path class="cls-3" d="M-977.2,191.7c3.2-18.1,7.7-20.9,30.4-19-6.8,2.8-14.3,1.7-18.7,7.3,7.3-1.5,14.8-3,22.6-4.5-.9,7.6-3.1,10.6-9.2,11.8-4.5.9-9.2,1-13.8,1.8-4,.6-7.8,1.7-11.3,2.6Z"/>
    <path class="cls-3" d="M-883.3,130.2c-6.1-2.8-10.8-6.6-17.8-5.2,5.7,2.9,10.6,5.3,15.7,7.9-5.3,5.8-12.3,6.6-18.1,2.8-5.1-3.3-10.2-6.5-14.9-9.4,19.7-10.5,25.5-9.8,35.1,3.9Z"/>
    <path class="cls-3" d="M-1029.8,100.8c12.8-11.2,20.5-11.5,32.7-.4-5.5-1.3-10.9-2.5-16.3-3.8,0,.4-.2.9-.3,1.3,5.7,2.1,11.5,4.1,17.6,6.4-5.7,5.9-9.9,6.7-16.3,3.9-5.9-2.5-11.7-5-17.4-7.4Z"/>
    <path class="cls-3" d="M-834.2,168.4c16.4-.1,21.4,4.6,24.2,21.2-5.8-1.8-12-3.7-18.2-5.6-6.5-2-9.1-5.6-9.1-13.4,6.1,2.4,11.8,4.7,17.1,6.8q-.6-2-14-9Z"/>
    <path class="cls-3" d="M-961,154.7c2.8-14.8,8.7-19.1,23.6-17.5-2.4,4.5-5.1,9.1-7.4,13.9-2.8,5.6-7.3,7.8-14.7,7.2,3.3-5.3,6.2-9.9,9.1-14.5-.3-.2-.5-.5-.8-.7-3.3,3.8-6.5,7.7-9.8,11.6Z"/>
    <path class="cls-3" d="M-962,126.9c-5.1-1.5-10.1-3-15.1-4.5-6.7-2-8.7-4.4-9.6-12.2,5.6,2.1,10.7,4,16.4,6.2-3-4.5-7.8-5.7-12.3-7.6,12-2.4,18.9,3.9,20.6,18.1Z"/>
    <path class="cls-3" d="M-845.4,169.8c-2.2,1.7-4.2,3.2-6.2,4.7,0,.3.3.6.4.9,2.4-.9,4.8-1.9,7.6-3,.8,11.9-10.1,10.4-15.5,15.3-.9-11.6,3.8-17.7,13.7-17.9Z"/>
    <path class="cls-3" d="M-1000.8,137.8c-5-.1-8.9-3.9-8.9-8.8s3.7-9,8.7-8.9c4.8,0,9,4,9,8.8,0,4.7-4.1,9-8.8,8.9ZM-1000.5,122.1c-3.9,0-7.1,2.8-7.3,6.7-.2,3.9,2.9,7.1,6.7,7.2,3.5,0,6.9-3,7.1-6.4.2-3.9-2.9-7.4-6.5-7.5Z"/>
    <path class="cls-3" d="M-861.5,154.4c0,5-3.7,8.9-8.6,9.1-4.9.1-9-3.7-9.1-8.6,0-4.8,3.9-8.9,8.7-9,5,0,9,3.7,9,8.5ZM-870.5,147.8c-3.9.1-6.9,3.3-6.7,7.2s3.3,6.8,7.3,6.6c3.7-.2,6.5-3.2,6.5-6.9,0-3.8-3.4-7-7.1-6.9Z"/>
    <path class="cls-3" d="M-778.7,153.7c0-4.8,3.9-8.5,8.6-8.4,4.6.1,8.4,4.1,8.3,8.8,0,4.6-4.3,8.3-8.9,8.1-4.5-.2-8.1-4-8-8.5ZM-763.5,154.1c0-4.1-2.9-7-6.8-7-3.7.1-6.7,3.1-6.8,6.6,0,3.9,3,6.9,7,6.9s6.6-2.7,6.6-6.5Z"/>
    <path class="cls-3" d="M-833.4,97.5c-.6-2-1.7-4-1.4-5.8.2-1.2,2.4-2.2,3.6-3.3.6.9,1.2,1.8,1.8,2.6-1.3.7-2.5,1.5-4.4,2.6.5.8,1.2,2.1,1.9,3.4-.6.2-1.1.3-1.5.5Z"/>
  </g>
  <g>
    <path class="cls-3" d="M-767.4,336.9c3.5-2.7,6.9-5.5,10.4-8.1,7.8-6,13.1-13.7,15.4-23.2.6-2.4-.6-5.9-2.3-7.8-1-1.1-4.5.1-6.1.2.6,3,1,4.8,1.3,6.5-1.6-.1-4.5.2-4.6-.3-.5-2-1-5.1,0-6,2.1-1.7,5.2-2.9,7.9-2.9,4.6,0,5.3,4.2,6.3,7.7-.2,2-.5,4-.7,6-4.5,12.3-13.2,20.7-24.5,26.7-1,.5-2.2.7-3.2,1.2,0-.1,0,0,0,0Z"/>
    <path class="cls-3" d="M-1001.2,375.5c-8.4-11.2-19.6-17.8-33.2-20.5-12.6-2.5-25.3-4.3-37.8-6.9-8-1.7-15.8-4.2-23.6-6.5-1.5-.4-2.7-1.8-4-2.7.2-.4.4-.8.6-1.2,4,1,7.9,2,11.9,2.9,18.7,4.3,36.7,1.4,54.1-6,1.7-.7,3.3-2.2,4.6-3.7,14.7-16.5,28.7-33.7,44.1-49.6,25.3-26.1,54.7-46.3,90.9-54.2,17.4-3.8,35.1-6.2,52.8-1.3,11.3,3.1,21.5,8,29.4,17,5.6,6.3,8.1,13.9,6.2,22.2-.7,3.2-2.6,6.6-5,8.9-4.3,4.2-10.4,1.8-11.8-3.2,1.9.9,5.4,3.8,6.5,3,3.1-2,6.5-5.2,7.3-8.5,2.1-8.2-.4-15.8-6-22.2-8.8-10.1-20.7-14.2-33.2-16.7-8.5-1.7-17.1-2.4-26.5,0,5.2,1.2,9.9,1.6,13.8,3.5,4.7,2.2,9.4,5.1,13,8.8,4.9,5,4.5,11.2-.4,18.3,2-6.2,3.3-11.7-1.2-15.7-3.9-3.5-8.4-6.5-13.1-8.8-12.9-6-25.8-4.2-38.9.1-31.7,10.2-58.3,28.3-80.9,52.3-12.9,13.7-24.4,28.6-36.6,43-1,1.2-1.6,2.8-2.5,4.4,3.9,2.2,6.7.1,8.9-1.7,7.6-6.2,15.3-12.4,22.2-19.3,12-11.8,23.4-24.2,35.1-36.2,9.5-9.9,21.1-14.3,34.8-12.3,11.4,1.7,19.9,13.5,17.8,24.9-.4,2.1-1.1,4.3-2.4,5.9-1.1,1.3-3.1,2.1-4.9,2.6-.5.2-2.4-1.7-2.2-1.9.7-1.5,1.6-3.2,2.9-4.2,4.2-3.5,5.4-10.5,1.5-16.3-2.4-3.6-6.3-6.3-9.6-9.4-.5.4-.9.8-1.4,1.2.7,1.4,1.4,2.7,2,4.1,2.5,5.6,0,13.1-5.2,15.5-1,.5-2.4.1-3.6.1.2-1.2,0-2.6.7-3.5,1-1.5,3.2-2.3,3.8-3.9,1.1-2.9,2.4-6.4,1.7-9.2-.9-3.6-4.8-5.5-8.4-4.5-6.2,1.7-12.7,3.2-18,6.5-12.2,7.8-21,19.3-30.3,30.2-4.8,5.7-9.6,11.5-14.8,16.9-5.2,5.3-11,10.1-16.3,15.9,7-3.1,14.2-5.8,20.8-9.5,18.6-10.2,38.1-17.5,59.4-18.9,24.9-1.7,48.7,3.4,71.8,12.3,12.7,4.9,25.1,10.7,37.7,15.8,19.3,7.8,32.2,10.7,47.6-11.9-3.2,9.1-9.7,15.4-18.2,19.9.2.4.4.8.6,1.1,6.3-1.8,12.7-3.7,19-5.5h0c-2.5,1.7-5,3.4-6.7,4.7,2.9,4.2,5.8,8.4,8.7,12.5h0c-.9-1.1-2-2.1-2.7-3.2-2.9-4.5-7.1-6.9-12.2-6.2-10.6,1.4-20.1-1.8-29.5-5.6-19.3-7.8-38.3-16.1-57.8-23.2-17-6.2-34.8-8.4-53.2-6.7,2.7.7,5.4,1.2,8,2,19.9,5.6,34.2,18.7,46,34.9,3.8,5.2,7.3,10.7,10.9,16.2,6.7,10.3,19.2,12.7,29.1,5.3,3.7-2.7,4.7-6.2,3.1-10.5-1.9-5.1-5.9-8.5-10.1-8.3-4,.2-7,3.9-5.7,7.5.5,1.5,2.1,2.8,3.5,3.8.4.3,2.4-.7,2.4-1.1,0-1.4-.7-2.7-.2-4.7.9,1.4,2.9,3.3,2.5,4.1-.7,1.4-2.6,3-4.2,3.2-3.8.5-6.9-2.9-6.8-6.8,0-4.6,4.3-8.3,9-8,4.9.2,9.4,3.9,11.4,9.2,1.9,5.1.6,9.5-3.1,13.2-1.4,1.3-2.9,2.5-4.3,3.7.2.4.4.9.6,1.3,5.1-1.7,10.3-3.3,15.3-5.1,11.7-4.2,22.9-3.6,32.2,5.1,9.4,8.8,11.8,20.2,9.3,32.5-1.1,5.2-5.3,8.8-9.5,8.8s-5.8-1.6-6-5.2c-.2-2.7,0-5.9,3.7-6,1.8-.1,3.7,1.5,5.5,2.3-.8,1.6-1.5,3.3-2.4,4.9-.3.5-1,.7-1.9,1.3,6.9-1,10.9-5.9,10.2-12.9-.5-4.2-1.4-8.5-2.9-12.6-5.7-15.8-18.1-21.8-34.2-16.9-2.2.7-4.5,1.4-6.6,2.2-12.6,5-25,7.8-36.8-2.9-4,11.2-4.7,23.8-17.6,28.5-1.8.6-3.9.3-5.9.5-.2-.6-.5-1.3-.7-1.9,1.7-1.2,3.3-2.9,5.3-3.4,11.9-3.2,14.1-13,16-23,.3-1.5,0-3.5-1-4.8-6.2-9.2-12.7-18.3-19-27.4-.4.2-.8.3-1.2.5.2,1.6.6,3.2.7,4.9,1,9.7-5.5,16.8-15.1,16-4-.3-8-1.8-11.8-3.3-1.2-.5-2-2.4-2.6-3.9-.2-.4,1.3-2.1,1.6-2,1.5.5,3.4,1.1,4.2,2.2,1.9,3,4.3,4.4,7.7,4.4,5.6,0,10.3-1.7,12.6-7.2,2.6-6.2,2.1-12.6-2.3-17.4-6.7-7.2-15-12.5-24.4-16.1.6,2.9,2,5.9,1.4,8.3-.7,2.6-3,5.2-5.3,6.7-5.1,3.2-14.2,2.5-17.9-2.1,2.9.4,4.6.6,6.3.8,2.5.2,5.2.9,7.6.5,3.8-.7,6.8-2.8,7.2-7.2.4-4.6-2.5-7.7-6.2-8.6-5.4-1.3-11.2-1.9-16.7-1.5-21.8,1.4-41.8,9.2-61.4,18.1-16.5,7.6-33,15.1-51.3,17.7-.8.1-1.5.5-3.6,1.3,13.9,2.5,25.8,6.3,36.6,13,26.4,16.2,51,34.6,69.6,59.8,2.3,3.1,5,5.8,7.6,8.6,6.1,6.5,15.1,8.3,21.8,4.4,3.7-2.2,5.8-5.5,5.4-10-.3-3.3-1.4-6-5.5-7.2-.2,1.3,0,2.4-.4,3.1-1.1,1.6-2.4,4.1-3.8,4.3-1.7.3-4.3-1.1-5.3-2.6-.8-1.1-.2-3.9.8-5.2,3.8-5,11.6-4.2,14.7,1.2,3.9,6.8.4,16.4-7,19-6.7,2.4-13.1,1.8-18.9-2.7-2.2-1.7-4.3-3.5-6.9-5.1,6.4,13.5,5.3,28.3,8.4,42.3,1.4,6.3,4.5,12.5,7.9,18.1,1.1,1.9,5.3,2.5,8.1,2.5s2-3.6,3-5.6c-.4-.3-.8-.6-1.2-.8-1.4.3-2.7.6-4.1.9-.4-.3-.8-.7-1.3-1,1.2-1.7,2.5-3.3,3.7-5,1.5,1.4,4,2.5,4.5,4.2,1.7,6.3-3.5,11.3-9.5,8.7-3.1-1.3-6.6-4.1-7.7-7-3-7.3-6.2-15.1-6.7-22.8-2.1-33.5-19.2-57.7-45-77.2-3.5-2.6-7-5-10.6-7.5-.5-.3-1.2-.4-2.6-.9,6.5,11,9.5,22,8.5,33.9-1.3,16.4-13.9,30.5-30,32.8-3,.4-6.6.5-9.3-.7-2.2-1.1-4-4.1-4.9-6.6-.2-.7,3.2-3.4,5.3-4,3-.8,6.3-.7,9.4-.6,15.7.7,28.1-10.2,26.4-32.5-1.6,3.1-2.8,6.4-4.8,9.1-5.3,6.8-17.8,9.3-25.7,5.6-1-.5-2.3-1.1-2.8-2-1-1.9-1.5-4.1-2.3-6.1,2.1-.4,4.3-1.5,6.3-1.2,3.4.6,6.6,2.2,10,3.1,9.3,2.5,17.2-3.5,17.2-13.2,0-7.2-3.4-13.1-7.2-18.8-1.9-2.7-3.4-5.7-5.1-8.5-.6.4-1.3.9-1.9,1.3.4,1.1.8,2.2,1.3,3.3-.3.6-.5.7-.7.8Z"/>
    <path class="cls-3" d="M-1082.1,426.4c-4.3,5.9-8,11.4-12.2,16.5-3.5,4.2-8.1,7.1-13.7,3.8-1.7-1-3.3-3.3-3.6-5.2-.2-1.6,1.5-3.4,2.4-5.2.5.2,1,.4,1.5.7,0,.9,0,1.9-.4,2.7-2.2,4.1-.8,7,3.7,6.2,3.2-.6,6.9-2.3,9-4.7,17-19.5,18.6-31.3,5.6-55.6-1.6-2.9-3.9-5.4-5.7-8.2-1-1.5-1.6-3.3-2.3-5,.4-.3.8-.5,1.2-.8,1.5,1.4,3.3,2.6,4.4,4.3,12.5,18.9,18.3,39.2,10.7,61.6-9.3,27.4-43.7,45.6-70.2,37.1-10.9-3.5-19.5-10-23.2-21.5-3.5-10.9,1.1-25.2,10.7-31.5,3-1.9,7.1-2.9,10.7-2.8,5.2.1,7.3,4.6,3.9,8.7-2.3,2.8-5.8,5-9.1,6.3-10.4,4.1-13,8.9-9.8,19.7,4.2,14,18.2,22.1,35.4,20.4,24.3-2.4,45.9-21.7,50.8-45.7.3-.4.2-.9.2-1.8Z"/>
    <path class="cls-3" d="M-1050.3,377.1c-2.1-7.3-4.3-14.6-6.6-22.5,11.2,2.4,16.6,7.8,18,17.3.6,3.6.7,7.3,1.6,10.8.8,3.3,2.5,6.3,3.7,9.2-3.7-.1-17.6-6.8-22.3-11.1-7.7-7-5.1-16-4.6-24.7,2.3,7.7,3.6,15.9,10.2,21Z"/>
    <path class="cls-3" d="M-983.9,232.5c3.3,5.7,5.7,11.1,9.3,15.5,5.5,6.6,3,12.3-.8,19.8-3.4-5.7-6.2-10.4-9.2-15.5-1.6,6.1,2.8,10.2,4.6,15-6.6-1.8-11.3-8.8-10.3-15.6.4-2.6,1-5.3,1.8-7.8,1.3-3.6,2.9-7.3,4.6-11.4Z"/>
    <path class="cls-3" d="M-967.1,327.7c9.7.3,14,3.8,16.1,11.6,1.5,5.5,3.6,10.8,5.3,15.7-17.5-.7-26.2-9.3-24.5-26.1,3.1,5.7,3.8,12.3,10.3,15.7-2.4-5.8-4.7-11-7.2-16.9Z"/>
    <path class="cls-3" d="M-1043.5,451.6c-17.9,3.7-23.3,1.9-31.2-11.9,5.2,3.4,9.6,6.3,14.1,9.2.3-.4.6-.8.9-1.2-4.5-3.7-9.1-7.5-13.9-11.4,6.4-3.3,10.9-2.8,15.6,1.6,4.9,4.5,9.8,9.2,14.5,13.7Z"/>
    <path class="cls-3" d="M-859.8,308.9c-2.8-4.4-5.4-8.5-8-12.6-.4.1-.7.3-1.1.4,1.7,4.1,3.3,8.2,4.8,12-6.7-2.2-10.3-8-8.4-15.1,1.3-4.8,3.3-9.3,5.1-14.3,3.1,5,5.8,9.4,8.7,13.8,4,6.2,4,8.3-1.1,15.8Z"/>
    <path class="cls-3" d="M-819.9,410.3c-14.6-7.6-19.2-15.9-16-29.3,1.7,5.2,3.3,10.5,5,15.7.3-.1.6-.2.9-.4-.9-5.3-1.8-10.5-2.9-16.8,7.8,3.9,11.5,9,11.8,16.6.1,4.9.8,9.7,1.2,14.2Z"/>
    <path class="cls-3" d="M-811.6,304.4c1.1,13.5-3.4,22-12.4,21,2.6-2.6,5.1-5.3,7.7-7.9-.3-.3-.5-.6-.8-1-3.4,2.4-6.8,4.9-10.5,7.5-1.6-7,.2-10.9,5.3-13.6,3.5-2,7.1-4,10.7-6Z"/>
    <path class="cls-3" d="M-1049.8,305.1c13.7-.6,20.7,2.3,21.5,13.3-2.8-3-5.4-5.7-8-8.4-.3.2-.6.5-1,.7,2.3,3.5,4.6,7.1,7.1,10.9-8.1,1-11-.6-14.3-6.9-1.7-3.3-3.6-6.5-5.3-9.6Z"/>
    <path class="cls-3" d="M-962.9,393.3c-3-7.8-2.3-10.8,2.7-15.4,2.9-2.6,5.5-5.5,8.1-8.1,4,14.7,2.6,20.2-6.9,24,1.9-3.5,3.6-6.6,5.3-9.6-.4-.2-.7-.5-1.1-.7-2.5,3.2-5.2,6.3-8.1,9.8Z"/>
    <path class="cls-3" d="M-925.8,235c-2.9-3-5.5-5.7-8.1-8.4-.4.2-.7.5-1.1.7,1.9,2.9,3.9,5.8,5.6,8.4-8.8-1.1-11.2-7.7-7.7-23.5,4.5,7.5,16.4,10,11.3,22.8Z"/>
    <path class="cls-3" d="M-1080.3,272.2c8.3-2.3,17.3,8.3,16,19.8-1.8,16.3-11.4,27.6-24.6,36.2-3.6,2.4-7.8,4-12.2,5,5.5-3.5,11.1-6.8,16.3-10.6,11-7.9,16.4-18.9,17.4-32.2.7-9.7-3.3-15.5-12.9-18.2Z"/>
    <path class="cls-3" d="M-924.3,395.9c-5.4,14-9.8,17.7-20.3,16.4,3.7-1.9,7.2-3.7,10.8-5.4-.2-.3-.3-.7-.5-1-3.6,1.2-7.3,2.4-11.2,3.7,1.2-6.9,3.9-9.7,9.7-10.9,3.9-.9,7.7-1.9,11.5-2.8Z"/>
    <path class="cls-3" d="M-1117.9,400.8c2.9-3.1,5.7-5.6,7.7-8.5,3.2-4.6,7.2-5.3,13.1-3.4-2.7,3.1-5.2,5.9-7.6,8.7.2.3.4.5.6.8,2.7-1.9,5.4-3.7,7.9-5.5-.9,9.7-8.8,10.1-21.7,7.9Z"/>
    <path class="cls-3" d="M-897.9,234.3c10.4,2.7,12,5.5,12.2,20.8-5-6.3-16.1-6.5-14.8-18.4,3.1,1.8,5.8,3.3,8.6,4.9.2-.2.5-.4.7-.6-2.1-2.1-4.1-4.2-6.7-6.7Z"/>
    <path class="cls-3" d="M-871.1,219.6c-3-1.8-5.2-3.2-7.4-4.5-.2.2-.5.5-.7.7,1.6,1.6,3.1,3.1,4.6,4.6-7.6.2-11.4-6.6-9.2-17.2,4.9,4.9,14.8,5.3,12.7,16.4Z"/>
    <path class="cls-3" d="M-948.8,421.2c-3.1,2.3-5.6,4.1-8,5.9,0,.3.3.5.4.8,2.5-1.2,5.1-2.3,7.6-3.5-1.7,7.2-8.5,8.4-20.4,3.2,6.8-2.5,10.2-11.6,20.4-6.4Z"/>
    <path class="cls-3" d="M-987.6,354.8c-.8,6-6.1,10.1-12,9.4-5.9-.8-9.8-6.2-8.8-12.3.9-5.7,6.3-9.7,11.9-8.8,5.8.8,9.7,6,8.9,11.7ZM-989.6,354.6c.5-4.6-2.9-8.8-7.7-9.3-4.3-.4-8.3,2.7-8.9,6.9-.7,4.6,2.8,9,7.4,9.5,4.4.5,8.7-2.7,9.2-7.1Z"/>
    <path class="cls-3" d="M-1000.7,375.2c5.4,6.3,4.9,14.3-1.1,18.7-3.6,2.6-8.9,2.5-11.4-.5-.8-.9-1.1-2.7-.8-3.9.2-.7,2.2-1.4,3.2-1.2,3.6.7,8,3.2,9.9-1.8,1.1-3.1,0-6.9-.2-10.4v-.5c0-.2.3-.3.4-.4Z"/>
    <path class="cls-3" d="M-1121.5,448.3c-10.5-3-16-11.7-13.8-21.3.3-1.4.8-3,1.8-4,.9-.9,2.5-1,3.8-1.5.3,1.2.8,2.3,1,3.5s-.2,1.3-.4,1.9c-3.5,9.2-2.4,16.7,7.6,21.4Z"/>
    <path class="cls-3" d="M-1024,284.3c.7-6.1,6.2-10.5,12.2-9.8,5.9.6,10.4,6.4,9.7,12.4-.8,6.3-6.5,10.6-12.8,9.7-5.8-.9-9.8-6.3-9.1-12.3ZM-1004.2,286.7c.6-5-3-9.6-8-10.3-4.8-.7-9.6,3.2-10.1,8.2-.5,4.9,3.3,9.5,8.3,10,5,.5,9.3-2.9,9.8-7.9Z"/>
    <path class="cls-3" d="M-1076.6,365.8c-.7,4.9-5.6,8.5-10.6,7.6-4.5-.8-7.6-5.2-7-10,.6-4.9,5-8.3,9.9-7.6,4.9.7,8.4,5.3,7.7,10ZM-1086.3,371.5c3.6.4,7.6-2.6,7.7-6.3,0-4-1.9-6.7-5.9-7.4-3.8-.7-7.3,2-7.8,5.9-.5,4,2.1,7.3,6,7.8Z"/>
    <path class="cls-3" d="M-866.1,218.6c-1.3-8.5,6-8.9,9.8-12.9,0,10.1-1.6,13.1-7.4,14.1,1.2-1.3,2.2-2.5,3.3-3.6,0-.2-.3-.4-.4-.7-1.5,1-3.1,1.9-5.3,3.1Z"/>
    <path class="cls-3" d="M-860.5,323.1c4.3.6,7,4.2,6.3,8.5-.7,4.1-4.6,7.1-8.6,6.4-4-.6-6.9-4.7-6.3-8.7.6-4.3,4.2-6.8,8.6-6.2ZM-860.6,336.6c1.3-1.4,4-3.1,4.7-5.3,1-3.4-1.3-6.2-5-6.6-3.4-.4-5.9,1.4-6.3,4.9-.6,3.6,1.3,5.8,6.6,7Z"/>
    <path class="cls-3" d="M-1115.5,429.6c-.7,6.2-9,9.3-4.9,16.4-4.2-2.7-3.7-6.2-2.8-9.7,1-3.5,2.5-6.6,7.7-6.7Z"/>
    <path class="cls-3" d="M-765.4,354.1c1.4,1.6,2.7,3.4,4.3,4.8,4.2,3.7,7.1,2.8,8.4-2.7.3-1.1.5-2.2.8-3.3.5-.1.9-.3,1.4-.4.5,1.5,2,3.8,1.4,4.5-1.6,2.2-3.8,4.9-6.2,5.4-5.3,1.1-8.8-2.4-9.9-8.3,0-.1-.2,0-.2,0Z"/>
    <path class="cls-3" d="M-1008.9,286c-2.2,1.1-3.5,2.3-4.7,2.2-.9-.1-2.5-2.4-2.2-3,.5-1.2,2.1-2.4,3.3-2.5.9,0,1.9,1.7,3.6,3.3Z"/>
  </g>
  <g>
    <path class="cls-3" d="M-375.4,58.2c1.5-3.7,2.6-7.6,4.5-11,1-1.8,3.2-3.4,5.2-4.3,1.4-.6,3.8,0,5,.8.8.7.8,3.1.4,4.5-.6,2.2-1.8,4.3-3,6.3-7.8,12.9-6.6,21.5,4.6,31.8,1.5,1.3,3,2.6,5.1,3.5-.4-.9-.7-1.9-1.2-2.7-6.9-9.8-.6-21.4,6.3-25.6,1.8-1.1,4.7-.3,7.2-.4-.9,2.1-1.3,4.5-2.7,6.2-1.9,2.4-4.8,4.1-6.8,6.6-5.2,6.5-3.7,13.5,3.5,17.6,6.4,3.6,13.2,3.4,20.5,2-6.2-.7-9.9-3.9-11.2-9.8-.8-3.7.7-6.6,3.9-8.4,1.1-.6,2.7,0,4.1,0-.2,1.3,0,3-.8,3.9-1.9,2.2-5.2,4-3.2,7.5,2.4,4,6.6,4.8,11,4.4,8.8-.8,16-5.5,22.8-10.6,4.5-3.3,8.4-7.3,12.6-11-.3-.5-.7-1.1-1-1.6-3.1,1.2-6.2,2.7-9.4,3.4-5.1,1.1-10.4,2.4-15.5,2.3-5.4-.2-8.8-4.1-9.4-9.4-.8-6.1,1.6-11.1,6.1-15.1,3.3-2.9,7.5-3.7,11.1-1.4,2.7,1.7,5.5,4.8,6,7.7.4,2.6-1.9,6-3.7,8.4-.8,1-4.3,1.4-5.1.6-1.4-1.4-2.5-4.1-2.2-6,.2-1.2,3.1-2,4.9-2.7.6-.3,1.5,0,2.3.2-.2-5.2-4.7-7.8-9.9-6.1-5.4,1.7-9.1,8.8-7.6,14.6,1.6,6.4,5.3,8.9,12.4,7.3,13.2-3,24-10.3,33.5-19.7,4.8-4.8,9.9-9.4,15.1-13.8,1.4-1.2,3.7-1.5,5.5-2.2,2.2,3.9-.1,5-2.2,6.5-17,12.1-27.8,28-29.3,49.3-.3,3.6.1,7.3.1,11s0,3-.5,4.5c-3-10.7-3.1-21.4-.7-33.2-1.7,1-2.6,1.5-3.5,2.1-8.5,5.5-16.5,12.1-25.5,16.3-16.1,7.6-32.1,5.7-46.6-5.1-7-5.2-10.6-12.6-12.9-20.8.2-3.1.2-5.8.2-8.4Z"/>
    <path class="cls-3" d="M-283.1,26.2c2.2,3.4,3.9,6.9,6.3,9.8,3.5,4.3,3.1,8.3-.3,13.6-2.2-3.6-4.2-6.7-6.1-9.9-.3,0-.6.2-.9.3,1,3.2,2.1,6.3,3.1,9.3-8.2-2.8-8.6-11.1-2.1-23.1Z"/>
    <path class="cls-3" d="M-254.5,67.8c-11.3-.8-14.4-3.3-14.7-11.9,1.6,2.3,2.9,4.2,4.2,6.1.2,0,.5-.2.7-.4-1-2.5-2-5.1-3.2-8.1,10.1.3,8.7,9.4,13,14.3Z"/>
  </g>
  <g>
    <path class="cls-3" d="M-305.5,488.3c-23.3-11.9-45-23.4-67.2-34-15.4-7.4-31.6-12.6-48.9-13.2-19.2-.8-34.8,7.5-45,23-7.6,11.7-7,25.5,0,38.1,3.3,5.9,8.7,9,15.7,9.2,1.7,0,3.4-.3,5,.2,1.3.4,2.3,1.8,3.4,2.8-1.1,1.1-2.4,3.2-3.2,3-4.7-1.1-10.4-1.5-13.7-4.5-5.6-5.1-9.7-11.9-14.1-17.6-6.1,6.2-13,13.6-20.3,20.8-3.8,3.7-7.9,7.2-12.3,10.1-6.3,4.1-14,3.1-18.4-1.5-3.4-3.5-3.5-7.2.3-11.2-1.8,4.5-2,8.3,1.9,10.8,4.8,3.1,10.3,3.3,14.7.2,6-4.1,11.3-9.4,16.8-14.3-.3-.5-.7-1-1-1.5-2.7.5-5.3,1.1-8,1.4-9,.9-15.8-2.6-19-9.7-3.3-7.3-1.1-17.5,5-22.9,5.8-5.1,15.4-3.1,18.6,3.9,2.3,5.1-.1,11.2-5.5,12.4-2.1.5-5.6-.5-6.7-2.1-1.9-2.8,0-5.2,3-6.3-.1,2.1-.3,4.1-.1,6.1,0,.3,2.7.8,3.6.3,1.2-.8,3-2.7,2.7-3.6-.8-3-1.7-6.5-3.8-8.6-2.7-2.7-6.4-2.2-9.7,0-4.7,3.1-7,10.3-5.5,17.1,1.3,6,4.5,8.8,11,9.9,11.7,1.8,30.6-5.2,31.5-24,.9-18.4,10.6-30.2,26-38.5,2.1-1.1,4-2.5,5.6-4.8-1.2-.2-2.5-.6-3.7-.5-30,.9-59.3,5.8-87.4,16.6-12.8,4.9-18.4,15.5-19.3,28.5-.8,11.1,2.7,15.4,13.7,19.3-5.7,1.7-10.9-.4-13.6-6.2-4.8-10.1-2.7-20.1,1.1-30,.8-2.1,1.9-4.1,2.8-6.1-.4-.3-.7-.7-1.1-1-4.8,3.7-10.1,6.8-14.3,11.1-11.4,11.5-22,23.8-28.3,38.9-5,12-6,24.3.9,36.1,5.5,9.5,16.4,10.3,21.3,1.9.4-.6.4-1.5.8-3-2.1,0-3.7.3-5.2,0-1.4-.4-3.5-1.3-3.8-2.4-.4-1.2.6-3.4,1.6-4.2,3.5-2.9,7.2-2,10.6.3,3.2,2.2,2.9,5.4,1.5,8.5-4.4,9.9-18.2,12.6-26.1,5-8.5-8.2-9.2-18.8-8.5-29.7.8-12.3,7.4-22.3,14.2-32,4.8-6.8,9.9-13.3,15.2-20.3-1.3,0-2.3-.2-3.1,0-7.4,2-14,.1-20.6-3.4-3.4-1.8-7.3-3.3-11.2-3.9-7.3-1.2-9.9,2.7-7,9.5.9,2,1.6,4.1,2.4,6.2-.4.5-.9,1-1.3,1.6-2.5-1.2-5.7-1.8-7.1-3.7-1.4-1.9-1.8-5.4-1.1-7.7,2.9-8.4,10.3-11.3,19.1-8,.6.2,1.3.4,1.8.8,12.6,9.6,24.7,6.1,37.3-.6,19.3-10.2,40.1-16.1,61.5-19.8,12-2.1,23.8-4.8,35.8-7.1,22.7-4.4,44.7-1.1,66.3,6.4,27.3,9.4,53.4,21.4,78.3,36.1.9.6,2,1,2.4,1.1-5.1-8.5-10.3-17.4-15.9-26.1-4.7-7.3-10.9-13.1-19.9-14.8-1.9-.4-4.1-.8-5.9-.3-2.1.6-4.7,1.8-5.5,3.4-.5,1.1,1.7,3.5,3.2,6.3,1.2-2,1.7-3.5,2.1-3.4,1.4.1,2.7.8,4.1,1.2-.5,1-.7,2.6-1.5,3-3.1,1.6-9.8-1.1-11.3-4.3-1.5-3.3.4-7,4.5-7.8,8.3-1.6,15.9.3,22.4,5.8,4.6,3.9,9.1,7.8,13.1,11.3,2.9-2.8,6.8-6.5,10.8-10.2-.3-.5-.7-1-1-1.5-2.5-.2-5-.4-7.8-.7,2.7-3.1,8.1-3.7,10.1-1.2,2.6,3.3.7,5.9-1.8,8.1-.5.4-1.1.8-1.6,1.1-7.3,5.2-7.8,6.7-4.5,15.2,5.3,13.6,20.2,23.8,35.1,24.1,11.5.2,23-.1,33.8-5.6.8,1.8,1.4,3.1,1.7,3.9-5.4,3.4-10.3,6.9-15.5,9.7-2.1,1.1-5,.6-8.6.9,1.3-2,2-3.1,3.2-5-18.2,5.9-35.7.8-53.2.6-3.3,0-6.7-.1-10,.3-17.8,1.7-29.8,16.7-28.2,34.6.9,9.9,1.4,19.9,1.5,29.9.1,5.3-1.1,10.7-5.8,14.3-3,2.3-6.4,2.9-9.8.8-3.3-2.1-4.3-5.5-3.4-9.2.4-1.5,2.3-3.8,3.3-3.7,1.9.2,3.7,1.8,5.5,2.8-1.4,1.6-2.9,3.3-5.2,6,.4.5,1.9,3.3,3.1,3.1,2.5-.3,6.3-1.5,7-3.4,2-5.3,3.8-11.2,3.8-16.8-.1-9.7-1.6-19.4-2.6-29.9-2.3,3.1-4,5.7-6,8-5,5.8-11.3,8-18.8,6.6-6.9-1.3-11.6-8.6-10.3-15.4,1.2-6.2,7.6-9.7,12.9-6.6,1.7,1,3.4,3.5,3.3,5.3-.1,1.5-2.7,3.9-4.2,4-1.7,0-3.6-2-5.2-3.3-.5-.4-.6-1.4-1-2.4-3.7,1.6-3.7,4.7-3.4,7.6.5,4.2,2.9,7,6.9,8.4,7.3,2.6,15.7-1,20.3-8.7,3.4-5.7,6.7-11.5,9.8-17.4,5.9-11.1,15.1-17.2,27.6-17.7,9.9-.4,19.5,0,30.5,0Z"/>
    <path class="cls-3" d="M-372.8,417c-3.2,18.1-7.7,20.9-30.4,19,6.8-2.8,14.3-1.7,18.7-7.3-7.3,1.5-14.8,3-22.6,4.5.9-7.6,3.1-10.6,9.2-11.8,4.5-.9,9.2-1,13.8-1.8,3.9-.6,7.8-1.7,11.3-2.6Z"/>
    <path class="cls-3" d="M-466.7,478.5c6.1,2.8,10.8,6.6,17.8,5.2-5.7-2.9-10.6-5.3-15.7-7.9,5.3-5.8,12.3-6.6,18.1-2.8,5.1,3.3,10.2,6.5,14.9,9.4-19.7,10.5-25.6,9.8-35.1-3.9Z"/>
    <path class="cls-3" d="M-320.2,507.9c-12.8,11.2-20.5,11.5-32.7.4,5.5,1.3,10.9,2.5,16.3,3.8.1-.4.2-.9.3-1.3-5.7-2.1-11.5-4.1-17.6-6.4,5.7-5.9,9.9-6.7,16.3-3.9,5.8,2.5,11.7,5,17.4,7.4Z"/>
    <path class="cls-3" d="M-515.8,440.2c-16.4.1-21.4-4.6-24.2-21.2,5.8,1.8,12,3.7,18.2,5.6,6.5,2,9.1,5.6,9.1,13.4-6.1-2.4-11.8-4.7-17.1-6.8q.6,2.1,14,9Z"/>
    <path class="cls-3" d="M-389,454c-2.8,14.8-8.7,19.1-23.6,17.5,2.4-4.5,5.1-9.1,7.4-13.9,2.8-5.6,7.3-7.8,14.7-7.2-3.3,5.3-6.2,9.9-9.1,14.5.3.2.5.5.8.7,3.2-3.9,6.5-7.7,9.8-11.6Z"/>
    <path class="cls-3" d="M-388,481.8c5.1,1.5,10.1,3,15.1,4.5,6.7,2,8.7,4.4,9.6,12.2-5.6-2.1-10.7-4-16.4-6.2,3,4.5,7.8,5.7,12.3,7.6-12.1,2.4-18.9-3.9-20.6-18.1Z"/>
    <path class="cls-3" d="M-504.6,438.9c2.2-1.7,4.2-3.2,6.2-4.7-.1-.3-.3-.6-.4-.9-2.4.9-4.8,1.9-7.6,3-.8-11.9,10.1-10.4,15.5-15.3.8,11.6-3.9,17.7-13.7,17.9Z"/>
    <path class="cls-3" d="M-349.3,470.8c5,.1,8.9,3.9,8.9,8.8s-3.7,9-8.7,8.9c-4.8,0-9-4-9-8.8s4.2-8.9,8.8-8.9ZM-349.5,486.6c3.9.1,7.1-2.8,7.3-6.7.2-3.9-2.9-7.1-6.7-7.2-3.5,0-6.9,3-7.1,6.4-.3,3.9,2.8,7.4,6.5,7.5Z"/>
    <path class="cls-3" d="M-488.6,454.2c0-5,3.7-8.9,8.6-9.1,4.9-.1,9,3.7,9.1,8.6.1,4.8-3.9,8.9-8.7,9-4.9.2-8.9-3.6-9-8.5ZM-479.6,460.9c3.9-.1,6.9-3.3,6.7-7.2-.2-3.9-3.3-6.8-7.3-6.6-3.7.2-6.5,3.2-6.5,6.9,0,3.8,3.4,7,7.1,6.9Z"/>
    <path class="cls-3" d="M-571.4,454.9c0,4.8-3.9,8.5-8.6,8.4-4.6-.1-8.4-4.1-8.3-8.8,0-4.6,4.3-8.3,8.9-8.1,4.6.3,8.1,4.1,8,8.5ZM-586.5,454.6c0,4.1,2.9,7,6.8,7,3.7-.1,6.7-3.1,6.8-6.6,0-3.9-3-6.9-7-6.9-3.8-.1-6.6,2.7-6.6,6.5Z"/>
    <path class="cls-3" d="M-516.6,511.2c.6,2,1.7,4,1.4,5.8-.2,1.2-2.4,2.2-3.6,3.3-.6-.9-1.2-1.8-1.8-2.6,1.3-.7,2.5-1.5,4.4-2.6-.5-.8-1.2-2.1-1.9-3.4.5-.2,1-.3,1.5-.5Z"/>
  </g>
  <g>
    <path class="cls-3" d="M-582.7,271.8c-3.5,2.7-6.9,5.5-10.4,8.1-7.8,6-13.1,13.7-15.4,23.2-.6,2.4.6,5.9,2.3,7.8,1,1.1,4.5-.1,6.1-.2-.6-3-1-4.8-1.3-6.5,1.6.1,4.5-.2,4.6.3.5,2,1,5.1,0,6-2.1,1.7-5.2,2.9-7.9,2.9-4.6,0-5.3-4.2-6.3-7.7.2-2,.5-4,.7-6,4.5-12.3,13.2-20.7,24.5-26.7,1.1-.5,2.2-.8,3.2-1.2.1.1,0,0,0,0Z"/>
    <path class="cls-3" d="M-348.9,233.1c8.4,11.2,19.6,17.8,33.2,20.5,12.6,2.5,25.3,4.3,37.8,6.9,8,1.7,15.8,4.2,23.6,6.5,1.5.4,2.7,1.8,4,2.7l-.6,1.2c-4-1-7.9-2-11.9-2.9-18.7-4.3-36.7-1.4-54.1,6-1.7.7-3.3,2.2-4.6,3.7-14.7,16.5-28.7,33.7-44.1,49.6-25.3,26.1-54.7,46.3-90.9,54.2-17.4,3.8-35.1,6.2-52.8,1.3-11.3-3.1-21.5-8-29.4-17-5.6-6.3-8.1-13.9-6.2-22.2.7-3.2,2.6-6.6,5-8.9,4.3-4.2,10.4-1.8,11.8,3.2-1.9-.9-5.4-3.8-6.5-3-3.1,2-6.5,5.2-7.3,8.5-2.1,8.2.4,15.8,6,22.2,8.8,10.1,20.7,14.2,33.2,16.7,8.5,1.7,17.1,2.4,26.5,0-5.2-1.2-9.9-1.6-13.8-3.5-4.7-2.2-9.4-5.1-13-8.8-4.9-5-4.5-11.2.4-18.3-2,6.2-3.3,11.7,1.2,15.7,3.9,3.5,8.4,6.5,13.1,8.8,12.9,6,25.8,4.2,38.9-.1,31.7-10.2,58.3-28.3,80.9-52.3,12.9-13.7,24.4-28.6,36.6-43,1-1.2,1.6-2.8,2.5-4.4-3.9-2.2-6.7-.1-8.9,1.7-7.6,6.2-15.3,12.4-22.2,19.3-12,11.8-23.4,24.2-35.1,36.2-9.5,9.9-21.1,14.3-34.8,12.3-11.4-1.7-19.9-13.5-17.8-24.9.4-2.1,1.1-4.3,2.4-5.9,1.1-1.3,3.1-2.1,4.9-2.6.5-.2,2.4,1.7,2.2,1.9-.7,1.5-1.6,3.2-2.9,4.2-4.2,3.5-5.4,10.5-1.5,16.3,2.4,3.6,6.3,6.3,9.6,9.4.5-.4.9-.8,1.4-1.2-.7-1.4-1.4-2.7-2-4.1-2.5-5.6-.1-13.1,5.2-15.5,1-.5,2.4-.1,3.6-.1-.2,1.2-.1,2.6-.7,3.5-1,1.5-3.2,2.3-3.8,3.9-1.1,2.9-2.4,6.4-1.7,9.2.9,3.6,4.8,5.5,8.4,4.5,6.2-1.7,12.7-3.2,18-6.5,12.2-7.8,21-19.3,30.3-30.2,4.8-5.7,9.6-11.5,14.8-16.9,5.2-5.3,11-10.1,16.3-15.9-7,3.1-14.2,5.8-20.8,9.5-18.6,10.2-38.1,17.5-59.4,18.9-24.9,1.7-48.7-3.4-71.8-12.3-12.7-4.9-25.1-10.7-37.7-15.8-19.3-7.8-32.2-10.7-47.6,11.9,3.2-9.1,9.7-15.4,18.2-19.9-.2-.4-.4-.8-.6-1.1-6.3,1.8-12.7,3.7-19,5.5h0c2.5-1.7,5-3.4,6.7-4.7-2.9-4.2-5.8-8.4-8.7-12.5h0c.9,1.1,2,2.1,2.7,3.2,2.9,4.5,7.1,6.9,12.2,6.2,10.6-1.4,20.1,1.8,29.5,5.6,19.3,7.8,38.3,16.1,57.8,23.2,17,6.2,34.8,8.4,53.2,6.7-2.7-.7-5.4-1.2-8-2-19.9-5.6-34.2-18.7-46-34.9-3.8-5.2-7.3-10.7-10.9-16.2-6.7-10.3-19.2-12.7-29.1-5.3-3.7,2.7-4.7,6.2-3.1,10.5,1.9,5.1,5.9,8.5,10.1,8.3,4-.2,7-3.9,5.7-7.5-.5-1.5-2.1-2.8-3.5-3.8-.4-.3-2.4.7-2.4,1.1,0,1.4.7,2.7.2,4.7-.9-1.4-2.9-3.3-2.5-4.1.7-1.4,2.6-3,4.2-3.2,3.8-.5,6.9,2.9,6.8,6.8-.1,4.6-4.3,8.3-9,8-4.9-.2-9.4-3.9-11.4-9.2-1.9-5.1-.6-9.5,3.1-13.2,1.4-1.3,2.9-2.5,4.3-3.7-.2-.4-.4-.9-.6-1.3-5.1,1.7-10.3,3.3-15.3,5.1-11.7,4.2-22.9,3.6-32.2-5.1-9.4-8.8-11.8-20.2-9.3-32.5,1.1-5.2,5.3-8.8,9.5-8.8s5.8,1.6,6,5.2c.2,2.7,0,5.9-3.7,6-1.8.1-3.7-1.5-5.5-2.3.8-1.6,1.5-3.3,2.4-4.9.3-.5,1-.7,1.9-1.3-6.9,1-10.9,5.9-10.2,12.9.5,4.2,1.4,8.5,2.9,12.6,5.7,15.8,18.1,21.8,34.2,16.9,2.2-.7,4.5-1.4,6.6-2.2,12.6-5,25-7.8,36.8,2.9,4-11.2,4.7-23.8,17.6-28.5,1.8-.6,3.9-.3,5.9-.5.2.6.5,1.3.7,1.9-1.7,1.2-3.3,2.9-5.3,3.4-11.9,3.2-14.1,13-16,23-.3,1.5.1,3.5,1,4.8,6.2,9.2,12.7,18.3,19,27.4.4-.2.8-.3,1.2-.5-.2-1.6-.6-3.2-.7-4.9-1-9.7,5.5-16.8,15.1-16,4,.3,8,1.8,11.8,3.3,1.2.5,2,2.4,2.6,3.9.2.4-1.3,2.1-1.6,2-1.5-.5-3.4-1.1-4.2-2.2-1.9-3-4.3-4.4-7.7-4.4-5.6,0-10.3,1.7-12.6,7.2-2.6,6.2-2.1,12.6,2.3,17.4,6.7,7.2,15,12.5,24.4,16.1-.6-2.9-2-5.9-1.4-8.3.7-2.6,3-5.2,5.3-6.7,5.1-3.2,14.2-2.5,17.9,2.1-2.9-.4-4.6-.6-6.3-.8-2.5-.2-5.2-.9-7.6-.5-3.8.7-6.8,2.8-7.2,7.2-.4,4.6,2.5,7.7,6.2,8.6,5.4,1.3,11.2,1.9,16.7,1.5,21.8-1.4,41.8-9.2,61.4-18.1,16.5-7.6,33-15.1,51.3-17.7.8-.1,1.5-.5,3.6-1.3-13.9-2.5-25.8-6.3-36.6-13-26.4-16.2-51-34.6-69.6-59.8-2.3-3.1-5-5.8-7.6-8.6-6.1-6.5-15.1-8.3-21.8-4.4-3.7,2.2-5.8,5.5-5.4,10,.3,3.3,1.4,6,5.5,7.2.2-1.3,0-2.4.4-3.1,1.1-1.6,2.4-4.1,3.8-4.3,1.7-.3,4.3,1.1,5.3,2.6.8,1.1.2,3.9-.8,5.2-3.8,5-11.6,4.2-14.7-1.2-3.9-6.8-.4-16.4,7-19,6.7-2.4,13.1-1.8,18.9,2.7,2.2,1.7,4.3,3.5,6.9,5.1-6.4-13.5-5.3-28.3-8.4-42.3-1.4-6.3-4.5-12.5-7.9-18.1-1.1-1.9-5.3-2.5-8.1-2.5s-2,3.6-3,5.6c.4.3.8.6,1.2.8,1.4-.3,2.7-.6,4.1-.9.4.3.8.7,1.3,1-1.2,1.7-2.5,3.3-3.7,5-1.5-1.4-4-2.5-4.5-4.2-1.7-6.3,3.5-11.3,9.5-8.7,3.1,1.3,6.6,4.1,7.7,7,3,7.3,6.2,15.1,6.7,22.8,2.1,33.5,19.2,57.7,45,77.2,3.5,2.6,7,5,10.6,7.5.5.3,1.2.4,2.6.9-6.5-11-9.5-22-8.5-33.9,1.3-16.4,13.9-30.5,30-32.8,3-.4,6.6-.5,9.3.7,2.2,1.1,4,4.1,4.9,6.6.2.7-3.2,3.4-5.3,4-3,.8-6.3.7-9.4.6-15.7-.7-28.1,10.2-26.4,32.5,1.6-3.1,2.8-6.4,4.8-9.1,5.3-6.8,17.8-9.3,25.7-5.6,1,.5,2.3,1.1,2.8,2,1,1.9,1.5,4.1,2.3,6.1-2.1.4-4.3,1.5-6.3,1.2-3.4-.6-6.6-2.2-10-3.1-9.3-2.5-17.2,3.5-17.2,13.2-.1,7.2,3.4,13.1,7.2,18.8,1.9,2.7,3.4,5.7,5.1,8.5.6-.4,1.3-.9,1.9-1.3-.4-1.1-.8-2.2-1.3-3.3.4-.5.6-.6.7-.8Z"/>
    <path class="cls-3" d="M-268,182.3c4.3-5.9,8-11.4,12.2-16.5,3.5-4.2,8.1-7.1,13.7-3.8,1.7,1,3.3,3.3,3.6,5.2.2,1.6-1.5,3.4-2.4,5.2-.5-.2-1-.4-1.5-.7.1-.9,0-1.9.4-2.7,2.2-4.1.8-7-3.7-6.2-3.2.6-6.9,2.3-9,4.7-17,19.5-18.6,31.3-5.6,55.6,1.6,2.9,3.9,5.4,5.7,8.2,1,1.5,1.6,3.3,2.3,5-.4.3-.8.5-1.2.8-1.5-1.4-3.3-2.6-4.4-4.3-12.5-18.9-18.3-39.2-10.7-61.6,9.3-27.4,43.7-45.6,70.2-37.1,10.9,3.5,19.5,10,23.2,21.5,3.5,10.9-1.1,25.2-10.7,31.5-3,1.9-7.1,2.9-10.7,2.8-5.2-.1-7.3-4.6-3.9-8.7,2.3-2.8,5.8-5,9.1-6.3,10.4-4.1,13-8.9,9.8-19.7-4.2-14-18.2-22.1-35.4-20.4-24.3,2.4-45.9,21.7-50.8,45.7-.2.4-.2.9-.2,1.8Z"/>
    <path class="cls-3" d="M-299.8,231.6c2.1,7.3,4.3,14.6,6.6,22.5-11.2-2.4-16.6-7.8-18-17.3-.6-3.6-.7-7.3-1.6-10.8-.8-3.3-2.5-6.3-3.7-9.2,3.7.1,17.6,6.8,22.3,11.1,7.7,7,5.1,16,4.6,24.7-2.2-7.7-3.6-16-10.2-21Z"/>
    <path class="cls-3" d="M-366.1,376.2c-3.3-5.7-5.7-11.1-9.3-15.5-5.5-6.6-3-12.3.8-19.8,3.4,5.7,6.2,10.4,9.2,15.5,1.6-6.1-2.8-10.2-4.6-15,6.6,1.8,11.3,8.8,10.3,15.6-.4,2.6-1,5.3-1.8,7.8-1.4,3.6-3,7.3-4.6,11.4Z"/>
    <path class="cls-3" d="M-383,281c-9.7-.3-14-3.8-16.1-11.6-1.5-5.5-3.6-10.8-5.3-15.7,17.5.7,26.2,9.3,24.5,26.1-3.1-5.7-3.8-12.3-10.3-15.7,2.5,5.8,4.7,11,7.2,16.9Z"/>
    <path class="cls-3" d="M-306.5,157c17.9-3.7,23.3-1.9,31.2,11.9-5.2-3.4-9.6-6.3-14.1-9.2-.3.4-.6.8-.9,1.2,4.5,3.7,9.1,7.5,13.9,11.4-6.4,3.3-10.9,2.8-15.6-1.6-5-4.4-9.8-9.1-14.5-13.7Z"/>
    <path class="cls-3" d="M-490.2,299.8c2.8,4.4,5.4,8.5,8,12.6.4-.1.7-.3,1.1-.4-1.7-4.1-3.3-8.2-4.8-12,6.7,2.2,10.3,8,8.4,15.1-1.3,4.8-3.3,9.3-5.1,14.3-3.1-5-5.8-9.4-8.7-13.8-4.1-6.2-4.1-8.4,1.1-15.8Z"/>
    <path class="cls-3" d="M-530.1,198.4c14.6,7.6,19.2,15.9,16,29.3-1.7-5.2-3.3-10.5-5-15.7-.3.1-.6.2-.9.4.9,5.3,1.8,10.5,2.9,16.8-7.8-3.9-11.5-9-11.8-16.6-.2-4.9-.8-9.7-1.2-14.2Z"/>
    <path class="cls-3" d="M-538.4,304.3c-1.1-13.5,3.4-22,12.4-21-2.6,2.6-5.1,5.3-7.7,7.9.3.3.5.6.8,1,3.4-2.4,6.8-4.9,10.5-7.5,1.6,7-.2,10.9-5.3,13.6-3.6,1.9-7.1,4-10.7,6Z"/>
    <path class="cls-3" d="M-300.3,303.6c-13.7.6-20.7-2.3-21.5-13.3,2.8,3,5.4,5.7,8,8.4.3-.2.6-.5,1-.7-2.3-3.5-4.6-7.1-7.1-10.9,8.1-1,11,.6,14.3,6.9,1.8,3.3,3.6,6.5,5.3,9.6Z"/>
    <path class="cls-3" d="M-387.1,215.4c3,7.8,2.3,10.8-2.7,15.4-2.9,2.6-5.5,5.5-8.1,8.1-4-14.7-2.6-20.2,6.9-24-1.9,3.5-3.6,6.6-5.3,9.6.4.2.7.5,1.1.7,2.5-3.2,5.1-6.3,8.1-9.8Z"/>
    <path class="cls-3" d="M-424.3,373.7c2.9,3,5.5,5.7,8.1,8.4.4-.2.7-.5,1.1-.7-1.9-2.9-3.9-5.8-5.6-8.4,8.8,1.1,11.2,7.7,7.7,23.5-4.4-7.5-16.4-10-11.3-22.8Z"/>
    <path class="cls-3" d="M-269.7,336.5c-8.3,2.3-17.3-8.3-16-19.8,1.8-16.3,11.4-27.6,24.6-36.2,3.6-2.4,7.8-4,12.2-5-5.5,3.5-11.1,6.8-16.3,10.6-11,7.9-16.4,18.9-17.4,32.2-.7,9.7,3.3,15.5,12.9,18.2Z"/>
    <path class="cls-3" d="M-425.8,212.8c5.4-14,9.8-17.7,20.3-16.4-3.7,1.9-7.2,3.7-10.8,5.4.2.3.3.7.5,1,3.6-1.2,7.3-2.4,11.2-3.7-1.2,6.9-3.9,9.7-9.7,10.9-3.9.9-7.7,1.9-11.5,2.8Z"/>
    <path class="cls-3" d="M-232.2,207.9c-2.9,3.1-5.7,5.6-7.7,8.5-3.2,4.6-7.2,5.3-13.1,3.4,2.7-3.1,5.2-5.9,7.6-8.7-.2-.3-.4-.5-.6-.8-2.7,1.9-5.4,3.7-7.9,5.5.9-9.7,8.9-10.1,21.7-7.9Z"/>
    <path class="cls-3" d="M-452.1,374.4c-10.4-2.7-12-5.5-12.2-20.8,5,6.3,16.1,6.5,14.8,18.4-3.1-1.8-5.8-3.3-8.6-4.9-.2.2-.5.4-.7.6,2,2.1,4.1,4.1,6.7,6.7Z"/>
    <path class="cls-3" d="M-478.9,389.1c3,1.8,5.2,3.2,7.4,4.5l.7-.7-4.6-4.6c7.6-.2,11.4,6.6,9.2,17.2-5-4.9-14.9-5.4-12.7-16.4Z"/>
    <path class="cls-3" d="M-401.2,187.5c3.1-2.3,5.6-4.1,8-5.9-.1-.3-.3-.5-.4-.8-2.5,1.2-5.1,2.3-7.6,3.5,1.7-7.2,8.5-8.4,20.4-3.2-6.8,2.5-10.3,11.6-20.4,6.4Z"/>
    <path class="cls-3" d="M-362.5,253.9c.8-6,6.1-10.1,12-9.4,5.9.8,9.8,6.2,8.8,12.3-.9,5.7-6.3,9.7-11.9,8.8-5.8-.8-9.7-6-8.9-11.7ZM-360.5,254.1c-.5,4.6,2.9,8.8,7.7,9.3,4.3.4,8.3-2.7,8.9-6.9.7-4.6-2.8-9-7.4-9.5-4.4-.6-8.6,2.7-9.2,7.1Z"/>
    <path class="cls-3" d="M-349.4,233.5c-5.4-6.3-4.9-14.3,1.1-18.7,3.6-2.6,8.9-2.5,11.4.5.8.9,1.1,2.7.8,3.9-.2.7-2.2,1.4-3.2,1.2-3.6-.7-8-3.2-9.9,1.8-1.1,3.1.1,6.9.2,10.4v.5c0,.2-.2.3-.4.4Z"/>
    <path class="cls-3" d="M-228.5,160.4c10.5,3,16,11.7,13.8,21.3-.3,1.4-.8,3-1.8,4s-2.5,1-3.8,1.5c-.3-1.2-.8-2.3-1-3.5-.1-.6.2-1.3.4-1.9,3.5-9.2,2.4-16.7-7.6-21.4Z"/>
    <path class="cls-3" d="M-326,324.4c-.7,6.1-6.2,10.5-12.2,9.8-5.9-.6-10.4-6.4-9.7-12.4.8-6.3,6.5-10.6,12.8-9.7,5.8.9,9.8,6.3,9.1,12.3ZM-345.9,321.9c-.6,5,3,9.6,8,10.3,4.8.7,9.6-3.2,10.1-8.2.5-4.9-3.3-9.5-8.3-10-4.9-.4-9.2,3-9.8,7.9Z"/>
    <path class="cls-3" d="M-273.4,242.9c.7-4.9,5.6-8.5,10.6-7.6,4.5.8,7.6,5.2,7,10-.6,4.9-5,8.3-9.9,7.6-4.9-.8-8.4-5.3-7.7-10ZM-263.8,237.2c-3.6-.4-7.6,2.6-7.7,6.3-.1,4,1.9,6.7,5.9,7.4,3.8.7,7.3-2,7.8-5.9.6-4-2.1-7.4-6-7.8Z"/>
    <path class="cls-3" d="M-484,390.1c1.3,8.5-6,8.9-9.8,12.9,0-10.1,1.6-13.1,7.4-14.1-1.2,1.3-2.2,2.5-3.3,3.6.1.2.3.4.4.7,1.6-1,3.2-1.9,5.3-3.1Z"/>
    <path class="cls-3" d="M-489.6,285.6c-4.3-.6-7-4.2-6.3-8.5.7-4.1,4.6-7.1,8.6-6.4,4,.6,6.9,4.7,6.3,8.7-.6,4.2-4.2,6.8-8.6,6.2ZM-489.4,272.1c-1.3,1.4-4,3.1-4.7,5.3-1,3.4,1.3,6.2,5,6.6,3.4.4,5.9-1.4,6.3-4.9.5-3.6-1.4-5.8-6.6-7Z"/>
    <path class="cls-3" d="M-234.6,179.1c.7-6.2,9-9.3,4.9-16.4,4.2,2.7,3.7,6.2,2.8,9.7-.9,3.5-2.5,6.5-7.7,6.7Z"/>
    <path class="cls-3" d="M-584.6,254.6c-1.4-1.6-2.7-3.4-4.3-4.8-4.2-3.7-7.1-2.8-8.4,2.7-.3,1.1-.5,2.2-.8,3.3-.5.1-.9.3-1.4.4-.5-1.5-2-3.8-1.4-4.5,1.6-2.2,3.8-4.9,6.2-5.4,5.3-1.1,8.8,2.4,9.9,8.3,0,0,.2,0,.2,0Z"/>
    <path class="cls-3" d="M-341.2,322.7c2.2-1.1,3.5-2.3,4.7-2.2.9.1,2.5,2.4,2.2,3-.5,1.2-2.1,2.4-3.3,2.5-.8,0-1.9-1.7-3.6-3.3Z"/>
  </g>
  <rect class="cls-1" width="841.9" height="595.3"/>
  <g>
    <path class="cls-3" d="M560.8,264c-1.6,4.1-3.1,8.2-4.8,12.3-3.7,9.1-4.2,18.5-1.4,27.8.7,2.3,3.6,4.7,6,5.5,1.4.4,3.8-2.3,5.1-3.3-2.1-2.3-3.3-3.6-4.5-4.9,1.4-.8,3.8-2.4,4.1-2.1,1.4,1.4,3.5,3.9,3,5.2-1,2.5-3,5.2-5.3,6.5-3.9,2.3-6.7-.8-9.4-3.4-.8-1.8-1.6-3.7-2.4-5.5-2.4-12.8.7-24.5,7.4-35.4.7-1.1,1.6-1.9,2.2-2.7.1,0,0,0,0,0Z"/>
    <path class="cls-3" d="M550.3,250.1c.3.1.6.3.9.4-.3-.1-.7-.2-1-.3h0Z"/>
    <path class="cls-3" d="M560.8,264c0-.1,0-.2.2-.2,0,0,0,.1-.2.2h0Z"/>
    <path class="cls-3" d="M841.9,92v2.9c-2.7.8-5.4,1.6-8.1,2.5-18.3,5.8-32.3,17.5-43.5,32.8-1.1,1.5-1.7,3.6-2.1,5.5-4.2,21.7-7.5,43.7-12.6,65.2-8.4,35.4-23.3,67.7-50.5,93-13,12.2-27,23.2-44.8,28.1-11.3,3.1-22.6,4.1-33.9.5-8.1-2.6-14-7.8-16.7-15.9-1-3.1-1.1-7-.3-10.2,1.6-5.8,8-6.9,11.8-3.2-2.1.2-6.5-.5-7.1.7-1.6,3.3-2.9,7.8-1.9,11.1,2.4,8.1,8.4,13.3,16.5,16,12.7,4.2,25.1,1.7,37.1-2.6,8.1-2.9,15.9-6.7,22.8-13.5-5.1,1.6-9.3,3.6-13.7,4.1-5.2.5-10.7.4-15.7-.9-6.8-1.8-9.6-7.3-9-15.9,1.4,6.3,3.2,11.7,9,12.8,5.1,1,10.6,1.3,15.7.8,14.1-1.4,24.3-9.6,33.4-19.9,22-25,35.7-54.2,42.8-86.3,4.1-18.3,6.4-37,9.5-55.6.3-1.6,0-3.2,0-5-4.5.1-5.8,3.3-6.8,6-3.3,9.2-6.8,18.5-9.3,28-4.2,16.3-7.8,32.7-11.7,49.1-3.2,13.4-10.8,23.1-23.6,28.3-10.6,4.4-24-1.5-28-12.3-.7-2-1.2-4.3-.9-6.3.2-1.7,1.6-3.4,2.9-4.8.4-.4,2.9.2,2.9.5.2,1.7.2,3.5-.3,5.1-1.8,5.2.7,11.8,7.1,14.8,3.9,1.9,8.6,2.2,13,3.2.2-.6.4-1.2.6-1.8-1.3-.8-2.6-1.6-3.8-2.5-5-3.5-6.7-11.2-3.4-16,.6-.9,2-1.3,3.1-2,.4,1.1,1.3,2.3,1.2,3.4-.2,1.8-1.6,3.6-1.3,5.2.5,3.1,1.2,6.7,3.2,8.8,2.6,2.7,6.9,2.3,9.6-.5,4.4-4.6,9.3-9.2,12.1-14.8,6.5-12.9,8.2-27.3,10.6-41.5,1.2-7.4,2.3-14.8,4.1-22.1,1.8-7.2,4.3-14.3,5.9-22-4.4,6.2-9.2,12.2-13.1,18.8-10.8,18.3-23.9,34.5-41.4,46.6-20.5,14.1-43.6,22-68,26.1-13.4,2.3-27,3.7-40.5,5.7-20.6,3.1-33.2,7.2-34.8,34.5-1.9-9.5.5-18.2,5.5-26.4-.4-.2-.7-.5-1.1-.7-4.4,4.8-8.9,9.5-13.3,14.2,1.2-2.7,2.4-5.4,3.2-7.3-4.4-2-8.7-3.9-12.9-5.9,1,.3,2,.5,2.9,1,4.8,2.4,9.7,2.3,13.7-.9,8.3-6.6,18.2-8.7,28.3-10.3,20.5-3.2,41.2-5.7,61.6-9.6,17.8-3.4,34.2-10.5,49.2-21.4-2.6.8-5.2,1.7-7.9,2.4-20,5.4-38.9,1.4-57.4-6.5-6-2.5-11.8-5.5-17.6-8.3-11-5.5-23-1.1-27.8,10.3-1.8,4.2-.9,7.7,2.7,10.6,4.2,3.4,9.4,4.3,12.9,2,3.4-2.2,4-6.9,1-9.4-1.2-1-3.2-1.3-4.9-1.5-.5,0-1.7,1.9-1.5,2.1.8,1.1,2,1.9,2.6,3.9-1.5-.7-4.2-1.3-4.3-2.2-.2-1.6.8-3.9,2-4.9,3-2.4,7.4-1.1,9.4,2.4,2.2,4,.6,9.3-3.7,11.5-4.4,2.3-10.1,1.4-14.5-2.1-4.3-3.4-5.4-7.8-4-12.9.5-1.8,1.2-3.6,1.8-5.4-.4-.3-.8-.5-1.2-.8-3.5,4.1-7.2,8.1-10.6,12.2-7.9,9.6-17.9,14.8-30.3,12-12.5-2.8-20.5-11.3-24.6-23.2-1.8-5,0-10.2,3.7-12.5,3-1.8,5.8-1.6,7.9,1.4,1.5,2.2,2.9,5.1,0,7-1.5,1-3.9.6-5.9.8-.2-1.8-.4-3.6-.5-5.4,0-.6.5-1.2,1-2.1-5.5,4.4-6.4,10.7-2.2,16.3,2.6,3.4,5.6,6.6,8.9,9.4,12.9,10.7,26.7,9.5,38-2.9,1.6-1.7,3.1-3.5,4.5-5.3,8.2-10.8,17.5-19.5,33.1-16.3-2.3-11.7-8.1-22.9.6-33.5,1.2-1.5,3.2-2.3,4.8-3.4.5.4,1.1.9,1.6,1.3-.9,1.9-1.4,4.2-2.8,5.6-8.6,8.8-5.5,18.4-2,27.9.5,1.4,1.9,2.9,3.3,3.6,10.1,4.7,20.2,9.2,30.4,13.8.3-.4.5-.7.8-1.1-1-1.3-2.1-2.5-3.1-3.8-5.8-7.8-3.8-17.2,4.8-21.4,3.6-1.8,7.8-2.5,11.9-3.2,1.3-.2,3,1,4.2,2,.4.3,0,2.5-.3,2.6-1.5.3-3.5.8-4.7.2-3.1-1.6-5.9-1.6-8.9.2-4.8,2.9-8,6.7-7.2,12.6.9,6.6,4.6,11.9,10.9,13.7,9.4,2.8,19.3,3,29.2,1.4-2-2.2-4.8-4.1-5.4-6.5-.7-2.6,0-6,1.2-8.5,2.7-5.4,10.9-9.4,16.5-7.4-2.7,1.2-4.3,1.8-5.8,2.6-2.3,1.1-4.9,1.9-6.8,3.5-2.9,2.5-4.4,5.9-2.5,9.8,2,4.1,6.1,5.3,9.7,4.2,5.3-1.7,10.6-4.1,15.1-7.2,18-12.3,31.2-29.3,43.5-47,10.4-15,20.7-29.8,35-41.4.6-.5,1-1.2,2.5-3-13.2,4.9-25.4,7.7-38.1,7.5-31-.5-61.5-3.7-90.4-15.9-3.5-1.5-7.3-2.4-10.9-3.5-8.6-2.5-17.3.6-20.9,7.3-2.1,3.8-2.1,7.7.4,11.3,1.9,2.7,4.3,4.4,8.4,3.4-.5-1.2-1.3-2.1-1.2-2.9,0-2,0-4.7,1.1-5.6,1.3-1.1,4.2-1.2,5.9-.5,1.2.5,2.2,3.2,2,4.9-.7,6.3-7.8,9.5-13.3,6.5-6.8-3.8-8.7-13.8-3.7-19.9,4.6-5.5,10.4-8.2,17.6-7.4,2.8.3,5.5.8,8.6.8-12.4-8.3-19.1-21.6-28.8-32-4.4-4.8-10.3-8.4-16-11.5-1.9-1.1-5.9.5-8.3,2-.9.5,0,4.1.2,6.3.5,0,1,0,1.5,0,1-1,2-1.9,3-2.9.5,0,1.1.2,1.6.2-.2,2.1-.4,4.1-.6,6.2-2-.4-4.7,0-6-1.3-4.7-4.5-2.7-11.5,3.7-12.3,3.3-.5,7.7,0,10.2,2.1,6.3,4.8,13,9.8,17.4,16.2,18.9,27.7,46,39.8,78.1,43.3,4.3.5,8.6.7,12.9,1,.6,0,1.2-.2,2.7-.6-11.2-6.1-19.4-14.1-24.7-24.8-7.3-14.8-3.6-33.4,9-43.5,2.4-1.9,5.4-3.8,8.3-4.1,2.5-.2,5.5,1.5,7.6,3.2.5.5-1,4.6-2.5,6.1-2.2,2.2-5,3.8-7.8,5.3-13.9,7.4-19,23.1-6.1,41.4-.2-3.4-.9-6.9-.5-10.3,1.2-8.5,10.6-17.1,19.2-18,1.1,0,2.6-.3,3.4.3,1.8,1.1,3.4,2.7,5.1,4.1-1.6,1.5-2.9,3.5-4.8,4.2-3.2,1.2-6.8,1.5-10.2,2.5-9.2,2.6-13,11.8-8.1,20.2,3.6,6.2,9.6,9.5,15.8,12.5,3,1.4,5.8,3.2,8.7,4.8.3-.7.7-1.4,1-2.1-.9-.7-1.9-1.5-2.8-2.2,0-.2.2-.4.2-.5,12.9,5.3,26,5.3,39,.7,12.1-4.3,23.9-9.2,36-13.4,7.7-2.6,15.7-4.5,23.6-6.4.5-.2.9-.3,1.4-.2Z"/>
    <path class="cls-3" d="M783.4,84.8c5.6,5.2,11.1,10.4,17.2,16-10.9,3.7-18.3,1.8-24.3-5.6-2.3-2.8-4.3-6-6.9-8.5-2.4-2.4-5.4-4.2-7.9-6.1,3.3-1.8,18.6-3.1,24.9-1.8,10.2,2.1,12.6,11.2,16.6,18.9-6-5.5-11.3-11.9-19.6-12.9Z"/>
    <path class="cls-3" d="M800.3,243c-5.8-3.2-10.6-6.7-15.9-8.6-8.2-2.9-8.9-9.1-9.4-17.5,5.8,3.2,10.6,5.8,15.8,8.6-1.7-6.1-7.6-7.3-11.6-10.6,6.6-1.9,14.2,1.7,16.8,8.1,1,2.5,1.8,5,2.4,7.6.7,4.1,1.2,8.1,1.9,12.4Z"/>
    <path class="cls-3" d="M737.2,169.8c-8.5,4.7-14,3.8-19.8-1.8-4.1-3.9-8.6-7.4-12.6-10.8,15.4-8.3,27.3-5.4,34.4,9.9-5.5-3.3-9.5-8.7-16.9-8.3,5.1,3.9,9.7,7.2,14.9,11Z"/>
    <path class="cls-3" d="M654.5,240.8c4.7,2.3,9,4.5,13.3,6.7.2-.3.5-.6.7-.9-3.5-2.7-7-5.4-10.3-7.9,6.9-1.5,13,1.6,15,8.7,1.4,4.7,1.9,9.7,2.9,14.9-5.2-2.7-9.8-5.2-14.5-7.4-6.5-3.2-7.6-5.1-7.1-14.1Z"/>
    <path class="cls-3" d="M568.5,174c16.4-1,24.6,3.8,28.7,17-4.1-3.6-8.2-7.3-12.3-10.9-.2.3-.4.5-.6.8,3.5,4.1,7,8.1,11.1,12.9-8.7.6-14.5-1.9-18.6-8.3-2.7-4-5.7-7.8-8.3-11.5Z"/>
    <path class="cls-3" d="M615.4,269.3c-7.8-11.1-8.3-20.6,0-24.4-.9,3.6-1.7,7.2-2.6,10.7.4.1.8.3,1.2.4,1.7-3.8,3.4-7.7,5.2-11.9,4.9,5.2,5.4,9.4,2.4,14.5-2.1,3.5-4.1,7.1-6.2,10.7Z"/>
    <path class="cls-3" d="M819.8,147c-11.4,7.5-18.9,8.6-25.2-.4,3.9,1.1,7.6,2.1,11.2,3.1,0-.4.3-.7.4-1.1-3.8-1.9-7.6-3.7-11.7-5.7,6.4-4.9,9.8-5.1,15.8-1.4,3.2,1.9,6.5,3.7,9.5,5.5Z"/>
    <path class="cls-3" d="M700.1,115.5c6.6,5.1,7.5,8.1,5.6,14.6-1.1,3.7-1.9,7.5-2.9,11.1-11-10.5-12.6-16-6.4-24.1,0,4,.2,7.5.3,11h1.3c.7-4,1.3-8.1,2.1-12.6Z"/>
    <path class="cls-3" d="M749,270.6c4.1,1.1,7.7,2.1,11.3,3,.2-.4.4-.8.6-1.2-3.1-1.5-6.3-3-9.1-4.4,8.1-3.5,13.6.9,18.6,16.3-7.7-4.1-19.2,0-21.4-13.7Z"/>
    <path class="cls-3" d="M838,116c-5.4,12.4-4.5,24.6,1.5,36.6.7,1.4,1.5,2.8,2.4,3.9v3.8c-2.4-1.9-4.5-4.5-5.9-7.6-6.8-15-4.3-29.6,2.7-43.7.9-1.8,2-3.6,3.2-5.2v4c-1.4,2.8-2.7,5.5-3.9,8.2Z"/>
    <path class="cls-3" d="M665.5,133.1c-2.6-14.8-.6-20.2,9-24.4-2.2,3.5-4.3,6.8-6.5,10.2.3.2.6.4.9.6,2.5-2.9,5-5.8,7.7-8.9,2.5,6.5,1.6,10.3-2.8,14.3-2.7,2.6-5.5,5.4-8.3,8.2Z"/>
    <path class="cls-3" d="M725.5,285.5c-10.3,2.9-13.1,1.4-21.1-11.6,7.5,2.9,17.2-2.7,22.1,8.3-3.5.1-6.7.1-9.9.2,0,.3-.2.6-.3.9,2.8.6,5.6,1.3,9.2,2.2Z"/>
    <path class="cls-3" d="M709.9,311.7c3.5,0,6.1.1,8.7.1,0-.3.2-.7.2-1-2.1-.5-4.3-1.1-6.3-1.6,6.4-4,13.2-.1,16.7,10.1-6.7-1.7-15.5,3-19.3-7.6Z"/>
    <path class="cls-3" d="M673.7,98.8c1.5-3.6,2.7-6.4,3.9-9.2-.2-.2-.5-.3-.7-.5-1.6,2.3-3.2,4.6-4.8,6.9-2.2-7.1,3-11.5,15.9-13.2-4.6,5.7-2.9,15.2-14.3,16Z"/>
    <path class="cls-3" d="M760.3,127.9c-2.3-5.7-8.4-8.4-13.9-6.1s-7.9,8.6-5.5,14.2c2.2,5.3,8.2,7.8,13.7,5.6,5.3-2.1,7.9-8.3,5.7-13.7ZM754.2,139.2c-4.4,2-9.5.2-11.4-4-1.8-4,.2-9,4.3-10.9,4.2-1.9,9.4,0,11.2,4.4,1.6,3.9-.2,8.7-4.1,10.5Z"/>
    <path class="cls-3" d="M741.8,111.8c-7.9-2.7-11.5-9.8-8.6-16.7,1.7-4.1,6.4-6.7,10-5.4,1.2.4,2.4,1.8,2.7,2.9.2.7-1.2,2.3-2.2,2.7-3.5,1.3-8.6,1.3-7.5,6.6.6,3.2,3.6,5.9,5.5,8.9,0,0,.2.3.3.4,0,.2,0,.4-.2.6Z"/>
    <path class="cls-3" d="M808.3,178c-2.5-5.5-8.6-8.1-14.1-5.8-5.9,2.5-8.6,9.1-6.1,14.8,2.4,5.5,9.2,8.2,14.6,5.7,5.6-2.5,8.1-9.1,5.6-14.7ZM802.1,190.9c-4.6,2-10.1-.2-12.1-4.8-2-4.5,0-9.7,4.4-11.8,4.6-2.1,10.2-.1,12.2,4.4,2,4.5-.1,10.3-4.5,12.2Z"/>
    <path class="cls-3" d="M828.2,74.1c-1.9-4.4-6.9-6.6-11.1-5-4.6,1.8-7.1,7.3-5.2,11.9,1.8,4.4,7.1,6.5,11.7,4.6,4.5-1.8,6.6-7,4.6-11.5ZM822.7,83.9c-3.8,1.4-7,.2-8.9-3.4-1.8-3.2,0-7.8,3.4-9.3,3.6-1.6,7.6,0,9.2,3.6,1.6,3.6,0,7.8-3.7,9.1Z"/>
    <path class="cls-3" d="M706,315.2c5.5,6.6-.6,10.7-1.9,16.1-5.1-8.7-5.3-12.1-.9-15.9-.4,1.8-.7,3.3-1,4.8.2.1.5.2.7.3,1-1.6,1.9-3.2,3.1-5.3Z"/>
    <path class="cls-3" d="M652.1,218.5c-1.6-3.8-6.1-5.8-9.8-4.3-3.8,1.5-5.6,6-4.1,9.9,1.6,4,5.7,5.7,9.7,4,4.1-1.6,5.8-5.6,4.2-9.6ZM647.5,226.7c-3.4,1.5-6.7.3-7.6-3.1-.6-2.3.9-5.2,1.3-7,5.1-1.7,7.8-.7,9.3,2.7,1.3,3.2,0,6-3,7.4Z"/>
    <g>
      <path class="cls-3" d="M841.9,69.4v1.8c-1.1.2-2.3.3-3.3.2-17.3-2.7-31.9-9.9-40.7-25.8C790.3,31.9,791.7,13.5,799.7,0h2.2c-9.3,15-8.8,35.6,1.6,49.9.2.3.5.5,1.1,1-1.1-5.5-2.4-10.5-3.1-15.5-.6-4.2.2-8.3,4.9-9.8,1.4-.5,3.6-.2,4.8.7,1,.7,1.2,2.7,1.7,4.1-.4.2-.8.3-1.2.5-.5-.5-1.1-1-1.3-1.6-1.2-3.4-3.6-4.1-5.5-1.1-1.3,2.1-2.3,5.1-2,7.5,2.3,19.8,8.2,26.8,28.8,32,2.5.6,5.1.6,7.6,1,.9,0,1.8.4,2.6.7Z"/>
      <path class="cls-3" d="M841.9,0v15.7c-1.5-.3-2.8-1.6-3.1-3.9-.4-2.7,0-5.9,1.1-8.5.5-1.2.8-2.3,1.1-3.3,0,0,.9,0,.9,0Z"/>
      <path class="cls-3" d="M770.2,59.8c7.2-12.2,11-14.3,22.9-11.6-4.6,1.2-8.6,2.2-12.5,3.3,0,.4.2.8.2,1.1,4.5-.7,9-1.3,13.7-2-1.4,5.4-4,7.7-9,8.1-5.1.4-10.3.8-15.3,1.1Z"/>
      <path class="cls-3" d="M837.7,43.7c.3,3.3.2,6.1.9,8.8,1,4.2-.7,6.8-4.8,9.2-.4-3.2-.7-6-1-8.8-.3,0-.5,0-.8,0-.3,2.5-.7,5-1,7.3-5.1-5.4-1.2-10.2,6.7-16.4Z"/>
      <path class="cls-3" d="M812.5,17c7.1-4.5,15-3,19.3,3.2.6.9,1.3,2,1.3,3.1s-.7,2-1.1,3c-.8-.4-1.7-.8-2.5-1.3-.4-.3-.6-.8-.9-1.2-3.4-6.8-8.2-10.1-16.1-6.8Z"/>
      <path class="cls-3" d="M820,30.1c-3.2-3.6-.6-10-6.8-11.3,3.7-1,5.5,1.1,7,3.5,1.5,2.3,2.5,4.8-.2,7.8Z"/>
    </g>
    <path class="cls-3" d="M550.3,250.1c-2-.7-4-1.5-6.1-1.9-5.5-1.1-7.5,1.2-5.8,6.6.3,1.1.7,2.2,1,3.2-.3.4-.6.7-1,1.1-1.2-1-3.6-2.2-3.5-3.1.3-2.7.8-6.2,2.6-7.8,4-3.6,8.8-2.5,12.8,2.1v-.2Z"/>
    <path class="cls-3" d="M794.4,184.3c1.3-2.1,1.8-3.8,2.9-4.3.8-.4,3.3.8,3.4,1.4.2,1.3-.6,3.1-1.6,3.9-.6.4-2.4-.5-4.7-1Z"/>
    <g>
      <path class="cls-3" d="M830.2,217.5c-1.6,3.5-.8,5.6,2.3,7.2,2.8,1.4,6.9.3,8.4-2.3,1.4-2.5.6-5.1-2.1-5.8,0,.4,0,.9-.2,1.2-.6.8-1.3,2.3-2,2.2-1-.1-2.3-.9-2.8-1.8-.3-.5.3-2.3.9-2.6,1.5-.7,3.5-1.5,4.7-1,.9.4,1.7,1.2,2.3,2.1v6.5c-.3.3-.6.7-1,.9-2.5,1.9-5.4,2.5-8.4,1.5-2.6-.9-4.3-3.1-3.8-5.9.5-2.7,1.8-5.2,2.9-7.7.7-1.6,1.8-3,2.8-4.5-.2-.2-.5-.5-.7-.7-2.4,1.7-4.9,3.3-7.1,5.2-3.4,2.9-6.6,6.1-8,10.5s-.8,4.4,1,6.1c1.6,1.5,2.8-.1,4.2-.8.5-.3,1.4,0,2.1,0,0,.7,0,1.6-.4,2.1-1.2,1.4-2.9,1.9-4.7,1-2.9-1.3-4.1-3.6-3.8-6.8-1.6,3.6-2.4,7-1.3,10.7,1.3,4.2,4.7,5.8,8.6,3.8,1.5-.7,2.7-2,4.1-2.7,1-.5,2.3-.5,3.5-.7-.3,1.2-.3,2.8-1,3.6-3,3.1-9.6,5-13.9.4-.3-.4-.8-.6-1.3-1,.2,1.2.7,2.1,1.2,3,4,6.9,8.3,8.5,15.8,5.9,1.2-.4,2.4-.7,3.5-.8.8,0,2,.2,2.3.7.4.7.3,2,0,2.6-.7.9-1.7,1.8-2.8,2.2-2,.6-4.1.7-6.2,1.1-1.4-.3-2.7-.6-4.1-.9-3.9-2.1-7.4-4.8-9.2-8.9-3.9-8.7-3.1-17,2.6-24.5,3.2-4.2,7.5-7.5,11.2-11.3.4-.4.7-.8,1.5-1.5-6.3,0-11.8-1.3-17-4.1.8-.1,1.6.1,2.4.2,1.9.4,3.7,1,5.6,1.3,7.1,1,13.6-.1,19.4-3.1v3.5c-4.6,4-8.7,8.3-11.4,13.9Z"/>
      <path class="cls-3" d="M841.9,198.9c-3.8-1.2-4.5-3.1-3.8-8.7.9,1.3,2.5,2,3.8,3v3.9c-.6-.4-1.1-.8-1.7-1.1,0,.1-.2.2-.3.3.6.7,1.2,1.3,1.9,2.1v.5h0Z"/>
    </g>
  </g>
  <line class="cls-2" x1="841.9" y1="198.9" x2="841.9" y2="198.3"/>
</svg>