<?xml version="1.0" encoding="UTF-8"?>
<svg id="Layer_1" data-name="Layer 1" xmlns="http://www.w3.org/2000/svg" viewBox="0 0 841.9 250.62">
  <defs>
    <style>
      .cls-1 {
        fill: #779a66;
      }

      .cls-1, .cls-2 {
        stroke-width: 0px;
      }

      .cls-2 {
        fill: #5c4833;
      }
    </style>
  </defs>
  <rect class="cls-1" width="841.9" height="250.62"/>
  <g>
    <path class="cls-2" d="M796.59,172.53c-24.93,7.93-48.22,15.73-71.86,22.55-16.4,4.78-33.24,7.26-50.4,5.03-19.07-2.35-33.11-13.09-40.63-30.05-5.58-12.79-2.74-26.3,6.23-37.59,4.22-5.28,10.05-7.46,16.99-6.51,1.68.28,3.31.85,4.97.62,1.35-.18,2.56-1.4,3.81-2.21-.91-1.27-1.84-3.55-2.67-3.48-4.82.32-10.51-.22-14.25,2.2-6.36,4.12-11.52,10.15-16.79,15.06-5-7.11-10.6-15.54-16.63-23.84-3.14-4.27-6.62-8.39-10.48-11.98-5.54-5.07-13.3-5.35-18.4-1.53-3.93,2.9-4.63,6.53-1.54,11.1-1.04-4.73-.62-8.52,3.64-10.34,5.24-2.27,10.7-1.57,14.53,2.21,5.25,5.03,9.61,11.12,14.24,16.85-.38.44-.85.87-1.23,1.32-2.58-.93-5.05-1.95-7.66-2.69-8.73-2.36-16.01-.02-20.33,6.46-4.45,6.66-3.95,17.08,1.19,23.41,4.89,5.98,14.69,5.58,18.99-.81,3.1-4.66,1.73-11.07-3.4-13.13-1.99-.84-5.61-.42-6.95.98-2.33,2.45-.85,5.13,1.93,6.71.24-2.09.37-4.09.9-6.03.05-.3,2.79-.35,3.6.29,1.05.99,2.52,3.15,2.07,3.99-1.28,2.83-2.74,6.13-5.16,7.86-3.11,2.22-6.67,1.12-9.57-1.59-4.13-3.83-5.22-11.31-2.63-17.77,2.26-5.71,5.88-7.95,12.47-7.97,11.84.14,29.34,10.13,27.15,28.83-2.12,18.3,5.52,31.53,19.35,42.23,1.89,1.43,3.54,3.12,4.74,5.65-1.22,0-2.56.18-3.73-.11-29.45-5.79-57.55-15.42-83.51-30.67-11.83-6.93-15.62-18.3-14.38-31.27,1.03-11.08,5.18-14.75,16.67-16.8-5.35-2.61-10.82-1.39-14.43,3.89-6.39,9.18-5.95,19.39-3.82,29.78.45,2.2,1.2,4.36,1.76,6.48-.44.23-.81.58-1.25.81-4.13-4.44-8.85-8.36-12.29-13.29-9.37-13.21-17.81-27.08-21.56-43-2.97-12.66-1.95-24.95,6.79-35.47,6.98-8.47,17.86-7.48,21.32,1.61.3.66.15,1.55.3,3.09-2.07-.34-3.6-.9-5.15-.75-1.45.17-3.67.71-4.14,1.75-.59,1.12.04,3.45.89,4.41,2.98,3.43,6.78,3.15,10.51,1.44,3.52-1.65,3.74-4.85,2.87-8.14-2.72-10.49-15.89-15.41-24.93-9.2-9.73,6.7-12.15,17.04-13.24,27.91-1.22,12.27,3.65,23.21,8.78,33.89,3.62,7.49,7.59,14.74,11.68,22.51-1.28-.21-2.3-.18-3.06-.51-6.97-3.18-13.8-2.39-20.88-.01-3.65,1.22-7.74,2.06-11.69,2.02-7.4,0-9.33-4.28-5.35-10.52,1.21-1.83,2.25-3.78,3.38-5.72-.31-.56-.72-1.13-1.02-1.79-2.66.78-5.92.84-7.61,2.49-1.69,1.65-2.66,5.03-2.34,7.42,1.49,8.76,8.31,12.83,17.53,11.02.62-.1,1.35-.18,1.91-.49,14-7.41,25.37-1.98,36.7,6.69,17.37,13.22,36.93,22.44,57.43,29.59,11.5,4.03,22.69,8.63,34.16,12.86,21.67,8.05,43.92,8.39,66.45,4.53,28.47-4.81,56.18-12.38,83.15-22.81.99-.44,2.14-.66,2.55-.69-6.42,7.55-13.01,15.48-19.95,23.15-5.83,6.43-12.9,11.14-22.05,11.35-1.94.08-4.18.12-5.87-.67-1.97-.94-4.34-2.54-4.87-4.25-.31-1.17,2.25-3.17,4.19-5.69.86,2.17,1.1,3.73,1.52,3.7,1.4.13,2.79-.35,4.24-.51-.33-1.07-.27-2.68-.99-3.2-2.8-2.09-9.85-.52-11.85,2.39-2.02,3.01-.75,6.97,3.16,8.43,7.93,2.94,15.74,2.3,23.05-2.06,5.18-3.1,10.25-6.21,14.77-9.01,2.4,3.24,5.65,7.52,8.99,11.83-.38.44-.85.87-1.23,1.32-2.5-.21-5-.42-7.81-.58,2.16,3.5,7.39,4.97,9.77,2.84,3.1-2.83,1.66-5.71-.45-8.29-.43-.48-.95-.97-1.4-1.35-6.35-6.32-6.6-7.89-1.95-15.73,7.45-12.55,23.82-20.18,38.57-18.04,11.38,1.68,22.67,3.86,32.43,11.05,1.08-1.64,1.89-2.83,2.31-3.57-4.77-4.24-9.03-8.49-13.71-12.1-1.89-1.43-4.83-1.41-8.34-2.29.96,2.19,1.47,3.39,2.34,5.46-16.99-8.8-35.09-6.63-52.39-9.29-3.26-.54-6.63-1-9.82-1.93-17.28-4.59-26.67-21.35-22.16-38.75,2.51-9.62,4.64-19.4,6.37-29.25.97-5.21.66-10.74-3.38-15.06-2.58-2.76-5.84-3.91-9.54-2.39-3.6,1.53-5.14,4.72-4.86,8.52.15,1.55,1.65,4.12,2.65,4.19,1.91.11,3.94-1.17,5.88-1.86-1.12-1.81-2.32-3.73-4.15-6.77.48-.43,2.41-2.94,3.57-2.55,2.42.7,5.97,2.51,6.35,4.5,1.11,5.56,1.92,11.67,1,17.2-1.68,9.55-4.75,18.88-7.45,29.07-1.76-3.43-3.01-6.28-4.61-8.87-3.98-6.54-9.84-9.74-17.47-9.59-7.02.15-12.85,6.59-12.68,13.51.17,6.31,5.91,10.81,11.65,8.62,1.84-.71,3.93-2.9,4.12-4.69.15-1.5-2.03-4.29-3.49-4.63-1.66-.38-3.88,1.38-5.67,2.41-.56.31-.82,1.28-1.38,2.2-3.39-2.18-2.88-5.24-2.11-8.05,1.18-4.06,4.01-6.43,8.18-7.16,7.63-1.37,15.33,3.55,18.6,11.9,2.42,6.18,4.73,12.44,6.82,18.77,4.01,11.92,12.08,19.44,24.33,21.98,9.7,2.01,19.22,3.29,30.07,5.09Z"/>
    <path class="cls-2" d="M718.54,231.87c-.2-18.38-4.18-21.88-26.88-23.72,6.25,3.87,13.83,4.02,17.25,10.26-6.96-2.67-14.11-5.38-21.56-8.14-.35,7.64,1.32,10.96,7.15,13.15,4.29,1.62,8.91,2.49,13.32,4.03,3.75,1.23,7.42,2.95,10.72,4.41Z"/>
    <path class="cls-2" d="M635.96,155.84c6.48-1.76,11.73-4.75,18.41-2.22-6.1,1.93-11.32,3.5-16.78,5.23,4.28,6.59,11.06,8.52,17.4,5.72,5.57-2.42,11.13-4.74,16.24-6.84-17.72-13.58-23.65-13.85-35.27-1.89Z"/>
    <path class="cls-2" d="M785.29,150.79c-10.8-13.14-18.34-14.7-32.19-5.74,5.64-.38,11.16-.68,16.7-1.08.03.41.05.92.08,1.33-5.97,1.14-12.02,2.16-18.41,3.44,4.66,6.75,8.67,8.23,15.44,6.51,6.13-1.52,12.36-3.02,18.38-4.46Z"/>
    <path class="cls-2" d="M581.26,185.6c-16.16-2.78-21.86,1.04-27.34,16.96,6.02-.83,12.44-1.69,18.87-2.55,6.74-.91,9.89-4.04,11.17-11.73-6.41,1.37-12.41,2.71-17.98,3.91q.94-1.97,15.28-6.59Z"/>
    <path class="cls-2" d="M708.61,192.72c-.34-15.06-5.46-20.27-20.42-21.12,1.63,4.83,3.54,9.81,5.03,14.92,1.85,5.98,5.93,8.89,13.32,9.51-2.39-5.77-4.5-10.78-6.61-15.79.33-.15.58-.41.9-.56,2.52,4.37,5.15,8.66,7.77,13.05Z"/>
    <path class="cls-2" d="M714.14,165.46c5.28-.65,10.45-1.31,15.63-1.97,6.94-.88,9.3-2.92,11.47-10.47-5.87,1.16-11.21,2.2-17.19,3.43,3.7-3.95,8.63-4.35,13.38-5.49-11.54-4.35-19.28.76-23.28,14.49Z"/>
    <path class="cls-2" d="M592.09,188.71c1.89,2.04,3.62,3.84,5.35,5.65-.15.28-.39.54-.54.82-2.22-1.28-4.42-2.66-7.01-4.2-2.74,11.61,8.26,11.91,12.79,17.63,2.69-11.31-.95-18.1-10.59-19.9Z"/>
    <path class="cls-2" d="M750.52,182.64c4.95.72,9.42-2.39,10.22-7.23s-2.18-9.48-7.13-10.2c-4.74-.78-9.53,2.47-10.32,7.21-.77,4.64,2.69,9.47,7.23,10.22ZM752.9,167.02c3.86.54,6.55,3.92,6.11,7.8-.44,3.88-4.02,6.53-7.79,6.01-3.45-.57-6.32-4.09-5.96-7.47.34-3.9,3.97-6.84,7.64-6.34Z"/>
    <path class="cls-2" d="M610.38,176.23c-.82,4.93,2.19,9.39,7,10.38,4.82.9,9.48-2.18,10.38-7,.88-4.72-2.39-9.42-7.11-10.3-4.8-1-9.37,2.1-10.27,6.91ZM620.35,171.1c3.83.74,6.27,4.38,5.43,8.2-.84,3.81-4.37,6.17-8.28,5.32-3.62-.8-5.89-4.22-5.28-7.87.72-3.73,4.5-6.35,8.13-5.65Z"/>
    <path class="cls-2" d="M528.81,162c.69-4.75-2.46-9.02-7.11-9.69-4.55-.65-8.96,2.67-9.63,7.32-.65,4.55,2.88,8.89,7.46,9.45,4.59.46,8.66-2.72,9.28-7.08ZM513.86,159.83c.67-4.04,4.01-6.43,7.85-5.79,3.63.7,6.1,4.15,5.63,7.62-.54,3.86-4.09,6.32-8.03,5.66-3.77-.52-6.07-3.74-5.45-7.49Z"/>
    <path class="cls-2" d="M592.08,115.42c.92-1.87,2.33-3.67,2.33-5.49,0-1.22-2.01-2.56-3.01-3.84-.74.79-1.48,1.58-2.2,2.27,1.17.9,2.22,1.89,3.92,3.28-.62.71-1.53,1.88-2.43,3.04.46.28.94.46,1.4.74Z"/>
  </g>
</svg>