<?xml version="1.0" encoding="UTF-8"?>
<svg id="Layer_1" data-name="Layer 1" xmlns="http://www.w3.org/2000/svg" version="1.1" viewBox="0 0 1920 375">
  <defs>
    <style>
      .cls-1 {
        fill: #c2dbc5;
      }

      .cls-1, .cls-2 {
        stroke-width: 0px;
      }

      .cls-2 {
        fill: #f5faf7;
      }
    </style>
  </defs>
  <rect class="cls-1" width="1920" height="375"/>
  <g>
    <path class="cls-2" d="M468.8,240.7c-.8,11.8-9.4,18-21.8,16.7-.9-.1-1.8-.1-2.6-.4-19.4-8.1-33.7.4-47.6,13.3-21.3,19.6-46,34.1-72.2,46.2-14.6,6.7-28.9,14.1-43.5,21.1-27.7,13.3-56.9,16.5-87.2,14.2-38.2-2.9-75.7-9.5-112.6-19.9-1.4-.4-2.9-.6-3.4-.7,9.4,9.2,19.1,18.9,29.1,28.1,8.5,7.8,18.3,13.1,30.5,12.3,2.6-.2,5.5-.3,7.7-1.5,2.5-1.4,5.4-3.8,5.8-6.2.3-1.6-3.4-4-6.2-7.1-.9,3-1,5-1.5,5.1-1.8.3-3.8,0-5.7-.2.3-1.5,0-3.6,1-4.4,3.5-3.1,12.9-1.8,15.9,1.8,3,3.7,1.9,9.1-3.2,11.6-10.1,4.9-20.4,5-30.7.1-7.2-3.4-14.3-7-20.7-10.1-2.5,4-5.7,9.2-9,14.6h-4.4c.4-1.4,1.2-2.8,2.1-4.1.5-.7,1.1-1.3,1.7-2,7.7-9.1,7.7-11.2.6-21-11.3-15.6-33.9-23.8-53.1-19.1-10.8,2.6-21.5,5.6-31.1,11.1-1.4.8-2.7,1.6-4,2.5-.9.6-1.7,1.2-2.6,1.9v-9.3c3.1-3.4,6.1-6.7,9.5-9.7,2.3-2.1,6.3-2.5,10.7-4.1-1,3-1.5,4.6-2.4,7.4,21.3-13.6,45.4-13,68-18.7,4.3-1.1,8.6-2.2,12.7-3.7,22.2-8.2,32.6-31.5,24.5-53.9-4.5-12.4-8.4-25.1-11.9-37.8-1.9-6.8-2.2-14.1,2.6-20.3,3.1-4,7.2-5.9,12.2-4.3,5,1.6,7.4,5.6,7.4,10.6,0,2.1-1.6,5.6-2.9,5.8-2.5.4-5.3-1.1-8.1-1.8,1.3-2.6,2.6-5.2,4.7-9.4-.7-.4-3.6-3.5-5.1-3-3.1,1.2-7.6,4.1-7.8,6.6-.8,7.5-1.1,15.6.8,22.8,3.4,12.4,8.6,24.4,13.4,37.4,1.9-4.7,3.2-8.6,5-12.3,4.4-9.1,11.8-14.1,21.9-14.8,9.2-.6,17.8,7.1,18.4,16.3.5,8.3-6.5,15-14.3,12.8-2.4-.7-5.5-3.4-6-5.6-.4-1.9,2.1-5.9,4.1-6.5,2.1-.7,5.2,1.3,7.8,2.4.8.4,1.3,1.6,2.1,2.7,4.2-3.4,3.2-7.2,1.8-10.9-2.1-5.2-6.1-8-11.7-8.5-10.2-.9-19.9,6.6-23.1,18.1-2.4,8.5-4.7,17-6.7,25.6-3.9,16.2-13.6,27.1-29.5,32-12.2,3.7-24.6,6.6-38.6,10.3,33.9,7.4,65.6,14.9,97.7,21,22.2,4.3,44.8,5.5,67.1.5,24.9-5.5,42.1-21.3,49.9-44.7,5.9-17.6.4-35-12.9-48.8-6.2-6.5-14.2-8.6-23.2-6.5-2.1.5-4.3,1.6-6.4,1.5-1.8-.1-3.6-1.5-5.4-2.4,1-1.7,2-4.9,3.1-4.9,6.4-.2,13.9-1.6,19.1,1.1,8.9,4.6,16.4,12,24,17.8,5.7-10,12.1-21.9,19.1-33.5,3.6-6,7.6-11.9,12.4-17.1,6.7-7.3,16.9-8.8,24.1-4.4,5.6,3.4,6.9,8,3.4,14.5.7-6.3-.2-11.3-6-13.2-7.1-2.3-14.3-.7-18.9,4.7-6.3,7.3-11.2,15.9-16.8,24,.6.5,1.2,1,1.8,1.6,3.3-1.5,6.5-3.2,9.9-4.5,11.3-4.2,21.2-2,27.7,6,6.7,8.3,7.3,22,1.3,31.1-5.7,8.5-18.7,9.2-25.1,1.3-4.7-5.8-3.6-14.4,2.9-17.7,2.5-1.3,7.4-1.2,9.3.4,3.3,2.9,1.7,6.7-1.8,9.2-.6-2.8-.9-5.4-1.9-7.8-.1-.3-3.8-.1-4.7.9-1.4,1.4-2.9,4.4-2.3,5.6,2,3.6,4.4,7.7,7.7,9.7,4.3,2.6,9,.6,12.4-3.2,5-5.5,5.5-15.6,1.3-23.8-3.7-7.2-8.7-9.8-17.5-8.9-15.6,1.6-37.5,16.9-32.4,41.4,5.1,23.9-3.4,42.3-20.4,58.1-2.3,2.1-4.3,4.5-5.6,8.1,1.6-.2,3.3-.1,4.9-.6,38.2-11.3,74.1-27.4,106.5-50.7,14.7-10.6,18.3-26.1,15.1-43.1-2.8-14.6-8.6-18.8-24-20.1,6.8-4.1,14.1-3.1,19.5,3.4,9.5,11.4,10.2,24.9,8.7,38.9-.3,3-1,5.9-1.5,8.8.6.3,1.2.6,1.8.9,4.9-6.3,10.7-12.1,14.6-19,10.7-18.6,20.1-37.9,23.2-59.4,2.4-17.1-.5-33.2-13.3-46-10.3-10.3-24.6-7.7-28,4.8-.3.9,0,2,0,4.2,2.6-.7,4.7-1.7,6.7-1.6,2,0,4.9.4,5.7,1.8.9,1.4.4,4.5-.7,6-3.5,4.8-8.6,5-13.7,3.2-4.9-1.7-5.5-5.9-4.8-10.4,2.3-14.2,19.1-22.3,31.8-15.2,13.7,7.6,18.2,21,21,35.2,3.1,16.1-1.9,31.1-7.5,45.8-3.9,10.3-8.3,20.4-12.7,31.1,1.7-.4,3-.5,4-1.1,8.8-5.1,18-4.9,27.6-2.6,5,1.2,10.5,1.7,15.6,1.2,9.7-.9,11.8-6.7,5.7-14.6-1.8-2.3-3.4-4.8-5.2-7.2.4-.8.8-1.6,1.1-2.4,3.5.7,7.9.4,10.4,2.4,2.4,1.9,4.2,6.3,4,9.5h0Z"/>
    <path class="cls-2" d="M200.7,375h-31c1.7-12.4,9.9-16.4,32.6-20.3-7.8,5.9-17.8,7-21.5,15.6,8.9-4.4,18-8.8,27.4-13.4,1.4,10-.4,14.5-7.6,18.1Z"/>
    <path class="cls-2" d="M269.5,278.8c-8.8-1.6-16-4.8-24.6-.7,8.3,1.8,15.4,3.3,22.8,4.8-4.8,9.2-13.6,12.6-22.3,9.7-7.6-2.6-15.3-4.8-22.2-7,21.7-20.1,29.4-21.2,46.3-6.8h0Z"/>
    <path class="cls-2" d="M71.7,290.5c12.7-18.7,22.5-21.6,41.8-11.5-7.4.2-14.8.5-22.2.7,0,.6,0,1.2,0,1.8,8.1.7,16.1,1.4,24.7,2.2-5.4,9.5-10.5,11.9-19.6,10.5-8.3-1.3-16.7-2.5-24.8-3.6h0Z"/>
    <path class="cls-2" d="M345.3,311.3c21-5.6,29-1.3,38.2,19-8.1-.3-16.6-.6-25.2-1-9-.4-13.5-4.1-16.2-14.1,8.6,1.1,16.7,2.1,24.2,3-.9-1.7-7.9-4-21-6.9h0Z"/>
    <path class="cls-2" d="M178.1,336.4c-1.4-20,4.8-27.4,24.3-30.4-1.6,6.5-3.4,13.4-4.9,20.3-1.7,8.1-6.7,12.4-16.4,14.1,2.5-7.9,4.6-14.8,6.8-21.6-.4-.2-.8-.4-1.2-.6-2.9,6-5.7,12.1-8.6,18.2h0Z"/>
    <path class="cls-2" d="M167.4,301.1c-7-.2-13.9-.5-20.9-.7-9.2-.3-12.7-2.7-16.4-12.5,7.9.8,15,1.5,23.1,2.4-5.4-4.8-11.9-4.7-18.4-5.6,14.6-7.1,25.5-1.2,32.5,16.3h0Z"/>
    <path class="cls-2" d="M331.4,316.8c-2.3,2.9-4.4,5.5-6.4,8.2.3.3.6.6.9,1,2.8-2,5.5-4,8.7-6.4,5,15-9.5,16.8-14.7,24.8-4.9-14.5-1-24,11.6-27.5h0Z"/>
    <path class="cls-2" d="M129.7,313.7c-1.7-6.1-8.3-9.8-14.6-8.2-6.4,1.7-9.9,7.8-8.1,14.4,1.7,6.3,7.9,9.9,14.4,8.3,6-1.5,10-8.4,8.3-14.5ZM120.4,325.8c-4.9,1.2-9.9-1.9-11-6.9-1.1-5,2-9.8,7.1-11,4.8-1.1,9.9,2.4,10.9,7.3.9,4.4-2.4,9.5-6.9,10.6h0Z"/>
    <path class="cls-2" d="M305.6,302.5c-1.7-6.2-8.1-9.8-14.4-7.9-6.2,1.8-9.9,8.4-8.1,14.5,1.8,6.2,8.4,9.7,14.6,7.9,6.3-1.8,9.7-8.1,8-14.5h0ZM297.3,314.5c-5,1.6-10-1-11.5-6-1.6-5,1.1-10,6.1-11.5,4.7-1.4,10.1,1.7,11.4,6.5,1.3,4.7-1.3,9.5-6,11h0Z"/>
    <path class="cls-2" d="M433.4,268.5c-1.4-6-7.7-9.9-13.6-8.5-6,1.5-9.7,7.5-8.2,13.7,1.4,5.8,7.2,9.4,13.1,8.2,6-1.3,10.1-7.5,8.8-13.4h0ZM424.8,279.7c-5.1,1.3-10.1-1.5-11.3-6.5-1.1-4.5,1.8-9.4,6.5-10.8,5-1.4,9.8,1.4,11.1,6.6,1.2,4.9-1.4,9.4-6.3,10.7h0Z"/>
    <path class="cls-2" d="M322.4,220c-1.4-2.3-3.5-4.5-3.8-7-.2-1.7,2.3-3.6,3.6-5.4,1,.9,2.1,1.9,3.1,2.8-1.4,1.4-2.7,2.7-4.8,4.8.9.9,2.2,2.3,3.6,3.8-.6.4-1.1.7-1.7,1.1h0Z"/>
    <path class="cls-2" d="M40.8,366.8c-.4,1.5-1.9,3.2-3.3,3.8-.9.3-2.5-1.4-3.8-2.3-.4-.3-.5-1.1-.8-1.6-3.2,2-3.5,5.6-1,8.5h-2.7c-.7-1.1-1-2.4-.9-3.8.2-2.5,1.2-5.6,3-7.1,1.6-1.3,4.8-1,7.2-.7,1,.1,2.6,2.4,2.4,3.3Z"/>
    <path class="cls-2" d="M72.4,375c-1.1-2.4-2.8-4.6-4.6-6.8,1.1,2.5,1.3,4.8.7,6.8h-2.3c1.4-3,.3-5.9-1.5-8.5-3.9-5.7-9.8-8.9-15.9-11.6-4-1.8-8.2-3-12.3-4.4-.2.4-.5.9-.7,1.3,2,1.7,4.2,3.2,5.9,5.2,2.7,3.1,5.6,6.2,7.5,9.8,1.5,3,1,6-1,8.3h-2.2c3.5-3.5,3.7-6.9,0-11-7.1-7.9-16.2-12.5-26.2-15.4-5.1-1.5-10.2-3.2-15.2-5.1-.6-.2-1.1-.6-1.6-1-.7-.6-1.3-1.3-2-1.9,1.8-3,3.5-1.9,5.3-1,.2.1.5.2.8.4,14.5,6.7,29.2,7.9,44.1.9,2.6-1.2,5-2.9,7.5-4.3,1-.6,2-1.1,3.3-1.3-6.2,6.1-13.5,10.3-22.5,13.1,1.4.8,2,1.2,2.7,1.6,7,3.7,14.5,6.7,20.9,11.3,5.4,3.9,9.3,8.5,11.7,13.8h-2Z"/>
    <path class="cls-2" d="M5.2,363.9c1.5-2.8,3.2-5.3,4.3-8.1,1.6-4,4.5-5.3,9.4-4.9-1.6,2.9-3,5.4-4.4,8,.2.2.4.3.5.5,1.8-1.9,3.5-3.8,5.2-5.7,1.2,6.6-4.3,10-15,10.2h0Z"/>
  </g>
  <g>
    <path class="cls-2" d="M1567.6,143.9c-5.4-.5-10.8-1-16.1-1.6-12-1.4-23.3,1-33.4,7.4-2.5,1.6-4.5,5.8-4.6,8.9,0,1.8,4,3.7,5.6,5,2-3.2,3.2-5,4.4-6.9,1.4,1.4,4.1,3.7,3.8,4.2-1.2,2.1-3.5,5.4-5.1,5.2-3.3-.3-7.1-1.9-9.5-4.2-4-3.9-1.2-8.3,1-12.2,1.9-1.6,3.8-3.1,5.7-4.6,14.4-7.1,29.3-7.1,44.5-2.8,1.3.4,2.5,1.1,3.7,1.7h0c0-.1,0,0,0,0Z"/>
    <path class="cls-2" d="M1567.6,143.9c.1,0,.2.1.3.2-.1,0-.2,0-.3,0h0Z"/>
    <path class="cls-2" d="M1580.6,127c0,.4-.1.8-.2,1.2v-1.3h.1s0,0,0,0h0Z"/>
    <path class="cls-2" d="M1885.2,274.4c-.4.8-5.8.3-8.1-1-3.3-1.9-6.2-4.8-8.8-7.6-13.3-14.1-33.7-15-51.1,6.3,4-1.4,7.9-3.3,12-3.9,10.5-1.4,23.8,7,27.6,17,.5,1.3,1.1,2.9.8,4.1-.8,2.5-2.1,4.9-3.2,7.4-2.2-1.4-5.1-2.4-6.6-4.3-2.5-3.4-4-7.6-6.2-11.3-6.1-10.1-18.2-11.5-26.6-3-6.2,6.3-8.2,14.5-9.7,22.9-.7,4-1.9,7.9-2.8,11.9.9.2,1.9.3,2.8.5.6-1.3,1.1-2.7,1.7-4,.2,0,.5,0,.7.1-2.1,17,2.2,32.6,11.9,46.5,4.5,6.5,9.2,12.9,13.9,19.2h-26.9c-1.8-.8-3.7-1.5-5.5-2.2-2.2-.8-4.8-.9-7.2-.7-11,.9-22.1,1.9-33.1,2.9h-104.4c-24.7-4.2-48.5-12.4-70.8-26.2-18.7-11.5-36.4-24.5-47.9-44-7.3-12.4-12.2-25.5-11.6-40.1.4-10.4,4.7-19.2,13.5-25,3.4-2.2,8-3.6,12-3.6,7.4,0,10.8,7.2,7.7,12.9-.9-2.5-1.6-7.9-3.2-8.2-4.4-.8-10.2-.9-13.7,1.3-8.8,5.5-13.1,14.3-13.7,24.8-.9,16.5,6.2,30.3,15.1,43.2,6.1,8.7,13.1,16.7,23.4,22.6-3.6-5.5-7.4-9.9-9.3-14.9-2.3-6-4-12.6-4-18.9,0-8.7,5.5-13.8,15.9-15.9-7.1,3.8-12.8,7.6-12.3,14.9.5,6.4,1.9,13,4.1,19,6.2,16.3,19.3,25.7,34.5,33.1,36.8,18,75.9,24.7,116.4,22.7,23.1-1.1,46.1-4.5,69.1-6.9,1.9-.2,3.8-1.1,6-1.7-1.6-5.3-5.8-5.8-9.3-6.1-12-1-24.1-2-36.2-1.9-20.7.2-41.4,1.4-62.1,2.1-16.9.6-30.9-5.3-41.3-18.8-8.7-11.2-6.1-29,5.5-37.3,2.1-1.5,4.7-2.9,7.2-3.2,2.1-.3,4.6.8,6.6,1.9.6.3.7,3.5.3,3.6-1.9.8-4.1,1.4-6.2,1.3-6.8-.5-13.7,4.7-15.2,13.2-.9,5.3.2,11,.4,16.5.8,0,1.5,0,2.3.1.6-1.8,1.1-3.6,1.7-5.4,2.5-7.1,11.1-11.6,17.8-9.3,1.3.5,2.2,2,3.3,3-1.2.9-2.3,2.3-3.6,2.5-2.2.4-4.8-.7-6.7.2-3.5,1.7-7.6,3.6-9.4,6.6-2.3,4-.5,8.9,3.7,11.2,6.9,3.8,14,8,21.5,9.6,17.5,3.6,35.1.8,52.6-1,9.2-1,18.3-2.1,27.6-2.3,9.2-.3,18.3.4,28-.1-8.8-3.2-17.5-6.9-26.5-9.4-25.2-6.8-48.7-17.1-68.8-34-23.5-19.7-40.3-44.6-53.2-72.2-7.1-15.2-13.1-30.9-20-46.2-10.4-23.4-19.4-37-52.3-30,10.6-5.3,21.7-5.3,33.1-2.1.2-.5.3-1,.5-1.5-7.1-3.7-14.2-7.4-21.2-11.2,3.6.6,7.2,1.1,9.7,1.5.9-5.8,1.9-11.6,2.8-17.3,0,1.3,0,2.6-.2,3.8-1.3,6.5.4,12.2,5.5,15.9,10.6,7.8,16.2,18.7,21.4,30.2,10.4,23.3,20.2,47,31.4,69.9,9.8,20,23.7,37.2,41.4,51.4-1.8-2.9-3.7-5.7-5.4-8.6-12.9-22-14.3-45.8-11-70.2,1.1-7.9,2.7-15.8,4.2-23.6,2.9-14.9-6.2-27.6-21.3-29.6-5.6-.7-9.4,1.4-11.8,6.6-2.7,6.1-2.1,12.6,1.8,16,3.7,3.3,9.5,2.5,11.5-1.8.8-1.8.5-4.2.2-6.3,0-.6-2.8-1.4-3-1.1-1.1,1.3-1.7,3-3.8,4.4.4-2,.2-5.4,1.2-5.8,1.8-.7,4.9-.4,6.5.8,3.9,2.8,3.7,8.5.2,11.9-4,4-10.8,3.7-14.9-.6-4.2-4.4-5-11.5-2.2-17.8,2.7-6.2,7.5-8.9,14.1-9,2.3,0,4.7.3,7,.4.2-.6.4-1.1.6-1.7-6-2.9-11.9-5.9-17.9-8.6-13.9-6.3-23.3-16.4-24.2-32-.8-15.8,6.8-28,19.6-36.8,5.4-3.7,12.2-3.3,16,.3,3.1,3,3.8,6.4.9,9.8-2.2,2.5-5,5.2-8.3,2.2-1.7-1.5-2-4.4-2.9-6.7,2.1-.8,4.2-1.7,6.3-2.3.7-.2,1.5.2,2.8.5-7-5.1-14.7-4.1-20,2.8-3.2,4.2-6,8.8-8.2,13.6-8.4,18.8-2.6,34.8,15.8,44.1,2.6,1.3,5.1,2.6,7.8,3.7,15.4,6.3,28.8,14.4,30.1,34,13.1-6.6,24.5-17.1,39.9-10.2,2.1.9,3.8,3,5.6,4.6-.3.8-.7,1.6-1,2.4-2.5-.5-5.4-.3-7.5-1.5-13.2-7.4-23.6-.5-33.8,6.7-1.5,1.1-2.8,3.2-3.2,5.1-2.3,13.5-4.4,27-6.5,40.5.5.2,1,.4,1.5.6,1.2-1.6,2.3-3.3,3.5-4.9,7.4-9.4,19.2-10.2,27-1.2,3.3,3.8,5.5,8.5,7.7,13,.7,1.5-.2,3.9-1,5.7-.2.5-3,.8-3.2.4-.9-1.7-2.1-3.9-1.8-5.5.9-4.2,0-7.6-3.1-10.5-5-4.8-10.5-7.3-17.3-4.4-7.6,3.3-12.6,9.4-12.8,17.4-.3,12.1,2.7,23.9,7.8,35.1,2-3.1,3.3-7,5.9-8.5,2.8-1.7,7.1-2,10.4-1.4,7.3,1.5,14.8,9.9,14.1,17.1-2.3-2.8-3.6-4.5-4.9-6.1-2.1-2.4-3.8-5.2-6.3-6.9-3.9-2.6-8.5-3.3-12.5.2-4.2,3.7-4.3,9-1.8,12.9,3.7,5.7,8.3,11.2,13.5,15.6,20.5,17.4,44.9,27.5,69.9,36.3,21.1,7.4,42.1,14.9,60.5,28.1.8.5,1.7.8,4.3,2-10.2-14.1-17.4-27.6-21.3-42.8-9.5-36.9-15.6-74.1-10.6-112.5.6-4.7.6-9.4.6-14.1.2-11-6.3-20.3-15.5-22.5-5.2-1.2-9.8,0-13.3,4.2-2.6,3.1-3.9,6.6-1.3,11,1.3-1,2.1-2.2,3.1-2.4,2.4-.5,5.6-1.6,7-.5,1.7,1.2,2.8,4.6,2.5,6.8-.2,1.6-3.2,3.7-5.1,4-7.7,1.2-13.9-6.1-12-13.7,2.3-9.4,13.6-14.8,22.4-10.8,8,3.6,13.1,9.6,14.5,18.5.5,3.4.8,6.8,1.8,10.4,5.8-17.4,19.4-29.6,28.7-44.6,4.2-6.8,6.6-14.9,8.5-22.8.6-2.6-2.6-6.8-5.1-9.2-.9-.9-4.9,1.5-7.4,2.4.1.6.2,1.2.4,1.8,1.5.9,2.9,1.8,4.4,2.7,0,.6.2,1.3.3,2-2.5.4-5,.9-7.6,1.3-.2-2.5-1.4-5.6-.4-7.5,3.8-7.1,12.8-6.9,15.9.4,1.6,3.8,2.3,9.2.9,12.8-3.7,9-7.4,18.6-13.6,25.9-26.8,31.4-32.3,67.6-26,106.8.8,5.3,2,10.5,3,15.7.1.7.7,1.3,1.6,3,3.6-15.3,10.4-27.5,21.4-37.4,15.1-13.4,38.4-15.2,54.6-3.5,3.1,2.2,6.3,5.2,7.6,8.5,1.1,2.9,0,7-1.3,10h0Z"/>
    <path class="cls-2" d="M1846.2,375h-1.3c4.4-8.1,9.2-15.9,7.8-25.2-4.3,8.2-8.5,16.3-13.2,25.2h-.5c-7.7-11.5-7.7-20.8-1-30.3,2.6-3.7,5.7-7,7.9-10.9,2-3.6,3.2-7.7,4.6-11.3,3.2,3.3,9.7,21.1,10.2,28.9.8,11.5-7.2,17.3-14.6,23.6h0Z"/>
    <path class="cls-2" d="M1736.8,322.6c-8.3-8.5-9.1-15.3-4.4-24.1,3.3-6.1,6-12.6,8.7-18.4,14.8,15.6,15.3,30.6-.6,44,2.1-7.6,7.2-14.1,4.3-22.7-2.8,7.3-5.2,13.8-8.1,21.2h0Z"/>
    <path class="cls-2" d="M1625.7,247.7c-1.3,6.3-2.4,12.2-3.6,18,.4.2.9.4,1.3.6,2.1-5.1,4.1-10.1,6-14.8,4.1,7.7,2.3,15.9-5.4,20.6-5.2,3.1-10.9,5.4-16.7,8.3,1.5-7.1,2.9-13.3,4.1-19.6,1.6-8.9,3.4-10.8,14.4-13.1h0Z"/>
    <path class="cls-2" d="M1676.9,123.8c6.5,19.2,3.5,30.5-10.9,39.6,3-6,6-12.1,9-18.2-.4-.2-.8-.3-1.1-.5-3.7,5.4-7.3,10.9-11.7,17.4-3.5-10.1-2.4-17.8,3.7-24.8,4-4.5,7.5-9.3,11-13.6h0Z"/>
    <path class="cls-2" d="M1579.1,210.5c10.6-12.9,21.8-16.6,28.9-8-4.5.1-9.1.3-13.6.4,0,.5,0,1,0,1.6,5.1.8,10.2,1.5,15.8,2.3-4.6,7.5-9.4,9.5-16.4,7.5-4.8-1.4-9.7-2.6-14.6-3.9h0Z"/>
    <path class="cls-2" d="M1789.1,260.9c-4,9.5-7.2,11.6-15.5,11.4-4.8-.1-9.6.1-14.2.2,8.9-16.4,14.9-20.1,26.6-15.4-4.7,1.4-8.8,2.7-13,4,.1.5.3,1,.4,1.5,5.1-.5,10.1-1.1,15.7-1.7h0Z"/>
    <path class="cls-2" d="M1621,369.5c0,1.9,0,3.7,0,5.5h-7.2c1.4-2.1,3.7-3.9,7.2-5.5Z"/>
    <path class="cls-2" d="M1626.9,375h-2.6c.2-1.1.4-2.1.6-3.1.8,1,1.5,2.1,2,3.1h0Z"/>
    <path class="cls-2" d="M1757.1,225.6c16.8-7.9,23.8-7.4,31.9,2.8-4.9-1.5-9.5-2.9-14.2-4.4-.1.4-.3.9-.4,1.3,4.2,2.1,8.5,4.1,13.1,6.3-6.9,5.1-11.7,5.3-17.9,1.4-4.1-2.6-8.3-4.9-12.5-7.4h0Z"/>
    <path class="cls-2" d="M1595.7,346.4c-6.8-11.3-5.9-15.1,6.9-28.8-1,9.8,8.8,19.5-2.6,28.9-1.2-4.2-2.3-7.9-3.4-11.6-.4,0-.8,0-1.1,0,0,3.5.2,7.1.2,11.6h0Z"/>
    <path class="cls-2" d="M1559.5,336.4c1.1,4.2,1.9,7.3,2.7,10.4.4,0,.8,0,1.3,0,0-2.7-.1-5.4-.2-8,6.9,6.3,4.4,15.6-6.6,23.1-.2-8.5-8.6-17.3,2.8-25.4h0Z"/>
    <path class="cls-2" d="M1800.4,224.2c4.7.6,8.4,1.1,12.1,1.6.1-.4.2-.7.3-1-3.2-1.1-6.5-2.3-9.7-3.4,7.7-4.9,14.7-.1,20.9,14.6-8.2-3.6-19.1,1.5-23.6-11.8h0Z"/>
    <path class="cls-2" d="M1796.7,318c-4.6-5.7-12.7-6.6-18.6-1.9-5.6,4.4-6.5,12.3-2.1,18.1,4.2,5.6,12.4,6.6,18.1,2.3,6.1-4.6,7.2-12.7,2.7-18.5h0ZM1792.5,334.3c-4.1,3.2-10.4,2.5-13.8-1.5-3.9-4.5-3.4-11.2,1.1-14.9,4.2-3.4,10.7-2.7,14.3,1.6,3.7,4.4,2.9,11.2-1.6,14.8h0Z"/>
    <path class="cls-2" d="M1807.1,309.2c.6-10.2,7.9-16.9,17-15.6,5.4.8,10,5.4,9.6,10.1-.1,1.5-1.3,3.4-2.6,4.1-.7.4-3.1-.7-3.9-1.7-2.7-3.7-4.4-9.7-10.3-6.8-3.6,1.8-5.8,6.2-8.7,9.5-.1.1-.2.3-.4.5-.2,0-.5,0-.7-.1h0Z"/>
    <path class="cls-2" d="M1554.1,333c-6,8.7-12.9,2.8-19.7,3,8.7-8.9,12.6-10.2,18.6-6.2-2.2.1-4.1.3-6,.4,0,.3-.1.6-.2.9,2.2.5,4.3,1.1,7.3,1.8h0Z"/>
    <path class="cls-2" d="M1653.1,224.4c-3-4-9-4.7-13.1-1.6-4.2,3.2-4.9,8.6-1.6,12.9,3.3,4.3,8.8,5.1,12.9,1.9,4-3.1,4.8-9.2,1.8-13.1h0ZM1649.9,235.8c-3.4,2.7-7.1,2.1-9.8-1.1-2.9-3.5-2.6-7.9,1.2-10.1,2.5-1.5,6.4-.6,8.7-.8,3.6,5.5,3.4,9.1-.2,11.9h0Z"/>
    <path class="cls-2" d="M1580.6,127c.1-2.6.5-5.3.3-7.9-.6-6.9-3.9-8.5-9.7-4.8-1.2.8-2.3,1.5-3.5,2.2-.5-.3-1.1-.5-1.6-.8.8-1.8,1.4-5,2.6-5.2,3.3-.5,7.6-1.1,10.1.5,5.6,3.5,5.8,9.7,1.7,15.9h.2s0,0,0,0Z"/>
  </g>
  <path class="cls-2" d="M1919.6,358.4v4.1c-8-4.6-16.8-6.6-26.8-5.2-2.4.4-4.7,1.1-7.1,1.6-1,.2-1.9.4-3,.3,6.5-3.4,13.5-5.1,21.5-5.1-.9-1-1.4-1.5-1.8-2-4.8-4.7-10.2-9-14.2-14.3-7.2-9.4-8.2-20.1-3.3-31,2.4-5.3,6.7-8.7,11.7-11.3,1.7-.4,3.5-.8,5.2-1.1,2.6.4,5.3.6,7.8,1.4,1.3.4,2.7,1.6,3.5,2.8.6.8.6,2.5.2,3.3-.3.6-1.9,1-2.9.9-1.5-.1-3-.5-4.5-1-9.5-3.2-14.9-1.2-20,7.5-.7,1.1-1.3,2.3-1.5,3.8.5-.4,1.2-.7,1.6-1.2,5.4-5.8,13.8-3.4,17.6.5,1,1,.9,3,1.3,4.6-1.5-.3-3.1-.2-4.4-.9-1.9-.9-3.4-2.5-5.2-3.5-4.9-2.5-9.3-.5-10.9,4.8-1.5,4.7-.4,9.1,1.6,13.6-.4-4.1,1.2-7,4.8-8.6,2.3-1.1,4.4-.5,6,1.4.5.6.4,1.8.6,2.7-.9,0-1.9.4-2.6,0-1.7-.9-3.3-2.9-5.3-1-2.3,2.1-2.2,5-1.3,7.7,1.8,5.6,5.8,9.6,10.1,13.3,2.8,2.4,5.9,4.4,8.9,6.6.3-.3.6-.6.9-.9-1.2-1.9-2.6-3.6-3.5-5.6-1.4-3.2-3-6.4-3.7-9.8-.7-3.5,1.4-6.3,4.8-7.5,3.8-1.4,7.5-.5,10.7,1.9,2.4,1.7,3.4,4.4,2.5,7-.7,2-2.3,4.3-4.1,5-1.6.7-4.1-.4-6-1.2-.8-.4-1.5-2.6-1.1-3.3.7-1.1,2.3-2.2,3.6-2.2.8,0,1.7,1.8,2.5,2.8.3.4.2,1,.2,1.5,3.3-.9,4.4-4.1,2.6-7.3-1.9-3.3-7-4.7-10.6-2.9-4,2-5,4.7-3,9.1,3.7,8,9.7,13.9,17,18.6h0Z"/>
</svg>