<?xml version="1.0" encoding="UTF-8"?>
<svg id="Layer_1" xmlns="http://www.w3.org/2000/svg" viewBox="0 0 1920 375">
  <defs>
    <style>
      .cls-1 {
        fill: #f5faf7;
      }

      .cls-1, .cls-2 {
        stroke-width: 0px;
      }

      .cls-2 {
        fill: #c2deb0;
      }
    </style>
  </defs>
  <rect class="cls-2" y="0" width="1920" height="375"/>
  <g>
    <path class="cls-1" d="M468.75,240.68c-.83,11.76-9.41,17.95-21.84,16.66-.88-.1-1.82-.11-2.61-.44-19.39-8.1-33.7.43-47.6,13.27-21.26,19.63-45.97,34.15-72.25,46.16-14.64,6.7-28.94,14.13-43.46,21.09-27.66,13.27-56.93,16.47-87.19,14.19-38.21-2.89-75.73-9.45-112.59-19.9-1.41-.4-2.88-.56-3.44-.66,9.45,9.16,19.06,18.87,29.12,28.09,8.52,7.81,18.35,13.11,30.46,12.26,2.61-.18,5.54-.3,7.69-1.55,2.46-1.41,5.4-3.83,5.84-6.23.29-1.63-3.36-3.98-6.22-7.06-.85,2.99-1.04,5.03-1.53,5.11-1.83.28-3.77-.08-5.66-.19.29-1.49.06-3.56.96-4.36,3.48-3.07,12.95-1.84,15.93,1.75,3.04,3.66,1.85,9.13-3.2,11.56-10.09,4.86-20.44,4.95-30.65.11-7.17-3.4-14.26-6.95-20.66-10.08-2.46,3.98-5.7,9.2-9.01,14.57h-4.4c.42-1.37,1.22-2.75,2.14-4.11.49-.73,1.14-1.34,1.71-2.02,7.65-9.08,7.71-11.24.64-20.96-11.35-15.6-33.94-23.75-53.13-19.11-10.82,2.61-21.48,5.61-31.11,11.14-1.37.78-2.71,1.62-4.02,2.51-.88.59-1.74,1.2-2.59,1.85v-9.34c3.09-3.4,6.15-6.67,9.45-9.67,2.33-2.12,6.27-2.47,10.71-4.08-.96,2.96-1.49,4.58-2.42,7.44,21.29-13.65,45.45-13.05,67.98-18.71,4.27-1.07,8.57-2.16,12.7-3.68,22.24-8.2,32.56-31.51,24.48-53.89-4.49-12.43-8.45-25.09-11.95-37.84-1.87-6.81-2.25-14.09,2.55-20.3,3.08-4,7.23-5.94,12.24-4.33,5.01,1.6,7.42,5.64,7.4,10.62,0,2.05-1.62,5.59-2.94,5.81-2.52.42-5.35-1.07-8.05-1.77,1.28-2.58,2.55-5.17,4.65-9.43-.69-.44-3.57-3.53-5.05-2.96-3.12,1.18-7.55,4.08-7.82,6.65-.78,7.52-1.13,15.59.82,22.77,3.37,12.45,8.6,24.39,13.38,37.43,1.9-4.71,3.24-8.61,5.01-12.3,4.39-9.15,11.81-14.11,21.91-14.79,9.25-.62,17.82,7.1,18.4,16.29.53,8.33-6.51,14.96-14.3,12.82-2.44-.67-5.51-3.39-5.96-5.63-.39-1.94,2.1-5.87,4.09-6.51,2.14-.68,5.23,1.32,7.79,2.43.84.36,1.31,1.59,2.14,2.68,4.25-3.37,3.22-7.24,1.77-10.93-2.05-5.2-6.14-7.99-11.66-8.47-10.22-.9-19.86,6.57-23.1,18.06-2.4,8.5-4.66,17.04-6.73,25.62-3.9,16.19-13.58,27.15-29.47,32-12.16,3.71-24.58,6.56-38.64,10.26,33.87,7.35,65.64,14.86,97.67,21,22.17,4.26,44.75,5.45,67.11.5,24.93-5.51,42.14-21.3,49.93-44.71,5.85-17.57.38-35.02-12.85-48.8-6.2-6.46-14.24-8.64-23.17-6.49-2.14.52-4.31,1.59-6.41,1.47-1.82-.11-3.57-1.54-5.35-2.39,1.03-1.72,2.01-4.89,3.08-4.92,6.44-.17,13.91-1.57,19.12,1.13,8.92,4.64,16.43,12,24.05,17.83,5.67-10.01,12.12-21.89,19.07-33.47,3.62-6.02,7.64-11.95,12.35-17.12,6.68-7.34,16.9-8.76,24.13-4.35,5.56,3.39,6.88,8.04,3.37,14.53.74-6.31-.16-11.28-6.03-13.17-7.14-2.31-14.29-.7-18.93,4.66-6.34,7.33-11.25,15.91-16.77,23.96.6.52,1.19,1.04,1.79,1.56,3.28-1.51,6.48-3.22,9.85-4.49,11.27-4.22,21.19-1.99,27.68,6.04,6.7,8.3,7.26,22.03,1.26,31.07-5.67,8.54-18.7,9.22-25.12,1.32-4.67-5.75-3.64-14.36,2.9-17.74,2.48-1.28,7.4-1.21,9.29.44,3.34,2.92,1.74,6.68-1.77,9.15-.58-2.75-.94-5.39-1.89-7.8-.13-.34-3.75-.11-4.7.88-1.35,1.4-2.9,4.4-2.26,5.56,1.98,3.62,4.35,7.72,7.7,9.72,4.32,2.58,9,.61,12.44-3.24,4.95-5.52,5.49-15.59,1.29-23.77-3.72-7.23-8.72-9.84-17.47-8.95-15.59,1.58-37.55,16.94-32.35,41.38,5.09,23.9-3.35,42.33-20.43,58.1-2.29,2.11-4.3,4.53-5.62,8.07,1.63-.18,3.33-.12,4.87-.58,38.16-11.29,74.09-27.4,106.48-50.7,14.74-10.6,18.34-26.07,15.09-43.05-2.79-14.55-8.62-18.83-24.04-20.1,6.75-4.15,14.09-3.11,19.54,3.39,9.53,11.38,10.23,24.93,8.72,38.87-.31,2.95-1,5.87-1.52,8.8.58.31,1.17.61,1.75.92,4.94-6.31,10.69-12.14,14.65-19.01,10.7-18.58,20.15-37.9,23.19-59.43,2.4-17.07-.51-33.16-13.26-45.98-10.26-10.31-24.56-7.71-27.97,4.82-.26.95-.04,2.04-.06,4.17,2.65-.7,4.66-1.66,6.66-1.63,1.99.02,4.89.45,5.7,1.75.86,1.38.41,4.49-.67,5.98-3.49,4.83-8.62,5.01-13.74,3.22-4.9-1.71-5.53-5.92-4.81-10.38,2.31-14.22,19.08-22.32,31.82-15.23,13.71,7.62,18.19,21.04,20.95,35.17,3.15,16.09-1.93,31.07-7.46,45.8-3.87,10.28-8.29,20.36-12.71,31.14,1.7-.45,2.97-.52,3.95-1.08,8.81-5.1,17.96-4.88,27.57-2.61,5.03,1.2,10.48,1.74,15.61,1.24,9.72-.93,11.75-6.72,5.7-14.57-1.8-2.33-3.44-4.78-5.16-7.17.38-.82.76-1.63,1.13-2.44,3.55.68,7.9.36,10.4,2.35,2.4,1.91,4.17,6.33,3.95,9.48Z"/>
    <path class="cls-1" d="M200.67,375.03h-30.97c1.7-12.43,9.89-16.36,32.63-20.33-7.84,5.85-17.79,7.05-21.5,15.62,8.93-4.37,17.96-8.79,27.41-13.41,1.4,9.96-.39,14.47-7.57,18.12Z"/>
    <path class="cls-1" d="M269.47,278.79c-8.78-1.58-16.04-4.83-24.57-.69,8.29,1.76,15.43,3.28,22.81,4.84-4.79,9.2-13.56,12.62-22.32,9.67-7.6-2.56-15.31-4.83-22.22-6.99,21.7-20.14,29.4-21.17,46.31-6.83h0Z"/>
    <path class="cls-1" d="M71.68,290.45c12.67-18.69,22.48-21.62,41.76-11.52-7.45.22-14.81.45-22.16.67.02.59.05,1.19.08,1.78,8.06.72,16.12,1.44,24.74,2.21-5.36,9.45-10.46,11.92-19.6,10.52-8.33-1.28-16.67-2.45-24.81-3.64h0Z"/>
    <path class="cls-1" d="M345.29,311.3c20.99-5.65,29-1.34,38.18,19.01-8.1-.32-16.65-.63-25.2-1-8.99-.39-13.53-4.06-16.22-14.07,8.62,1.07,16.72,2.07,24.19,2.99q-1.37-2.5-20.95-6.93h0Z"/>
    <path class="cls-1" d="M178.12,336.43c-1.36-19.99,4.75-27.4,24.3-30.4-1.58,6.55-3.42,13.4-4.87,20.33-1.71,8.15-6.68,12.43-16.41,14.12,2.47-7.89,4.62-14.75,6.77-21.62-.4-.21-.8-.43-1.2-.64-2.85,6.03-5.7,12.06-8.6,18.21h0Z"/>
    <path class="cls-1" d="M167.4,301.06c-7.01-.23-13.95-.47-20.89-.69-9.23-.3-12.69-2.7-16.38-12.46,7.85.81,15.04,1.55,23.15,2.38-5.42-4.8-11.93-4.7-18.37-5.57,14.64-7.06,25.54-1.23,32.49,16.33h0Z"/>
    <path class="cls-1" d="M331.4,316.79c-2.3,2.94-4.35,5.55-6.4,8.17.29.32.57.63.86.95,2.76-2.03,5.52-4.05,8.72-6.41,4.97,14.98-9.47,16.8-14.74,24.79-4.93-14.49-.98-23.97,11.56-27.5h0Z"/>
    <path class="cls-1" d="M129.69,313.73c-1.67-6.06-8.34-9.83-14.55-8.22-6.37,1.66-9.86,7.83-8.14,14.4,1.66,6.3,7.93,9.92,14.39,8.29,6.04-1.52,9.97-8.38,8.3-14.47ZM120.37,325.77c-4.95,1.24-9.93-1.88-11.03-6.91-1.1-5,2.02-9.83,7.08-10.98,4.75-1.07,9.91,2.37,10.9,7.28.89,4.44-2.41,9.48-6.95,10.61Z"/>
    <path class="cls-1" d="M305.62,302.54c-1.67-6.23-8.11-9.75-14.44-7.9-6.19,1.8-9.91,8.44-8.13,14.53,1.79,6.17,8.36,9.72,14.61,7.9,6.26-1.82,9.69-8.09,7.96-14.53ZM297.29,314.45c-4.97,1.61-9.98-.99-11.55-5.97-1.56-4.96,1.14-10.04,6.12-11.48,4.69-1.36,10.07,1.68,11.42,6.46,1.32,4.66-1.3,9.49-5.99,10.99Z"/>
    <path class="cls-1" d="M433.43,268.48c-1.38-6.01-7.67-9.93-13.61-8.48-6.03,1.48-9.67,7.54-8.22,13.71,1.37,5.77,7.2,9.41,13.08,8.16,6.03-1.28,10.09-7.49,8.75-13.39ZM424.84,279.69c-5.08,1.33-10.06-1.55-11.28-6.54-1.12-4.55,1.82-9.41,6.51-10.76,5-1.43,9.76,1.41,11.08,6.62,1.23,4.88-1.44,9.4-6.31,10.68Z"/>
    <path class="cls-1" d="M322.41,220.04c-1.36-2.32-3.53-4.54-3.81-6.98-.19-1.66,2.28-3.62,3.56-5.44,1.05.93,2.1,1.87,3.15,2.8-1.37,1.36-2.74,2.72-4.82,4.78.88.92,2.25,2.34,3.61,3.76-.56.36-1.12.72-1.69,1.08h0Z"/>
    <path class="cls-1" d="M40.85,366.77c-.43,1.5-1.87,3.24-3.29,3.77-.86.31-2.55-1.4-3.76-2.33-.42-.33-.52-1.06-.77-1.65-3.24,1.97-3.54,5.62-1.05,8.47h-2.74c-.68-1.1-1.02-2.39-.93-3.81.16-2.48,1.18-5.63,2.95-7.06,1.6-1.28,4.8-1,7.19-.67,1,.13,2.64,2.41,2.4,3.28Z"/>
    <path class="cls-1" d="M72.37,375.03c-1.14-2.4-2.76-4.63-4.63-6.82,1.06,2.5,1.28,4.77.67,6.82h-2.27c1.37-2.96.27-5.92-1.51-8.53-3.92-5.72-9.84-8.85-15.92-11.58-3.96-1.78-8.21-2.95-12.33-4.4-.25.43-.5.86-.74,1.29,1.98,1.7,4.18,3.21,5.89,5.16,2.71,3.07,5.61,6.17,7.46,9.76,1.53,2.95.96,5.96-1,8.3h-2.24c3.52-3.49,3.7-6.87-.01-10.99-7.09-7.88-16.16-12.52-26.25-15.43-5.13-1.48-10.19-3.22-15.19-5.09-.6-.22-1.12-.6-1.63-1.04-.68-.6-1.32-1.31-2-1.87,1.81-3.02,3.46-1.85,5.26-.99.25.12.51.24.76.35,14.52,6.73,29.24,7.93,44.13.94,2.59-1.21,4.97-2.85,7.45-4.28,1.02-.58,2.05-1.14,3.26-1.34-6.17,6.11-13.46,10.3-22.46,13.09,1.37.79,2.04,1.21,2.74,1.58,7.01,3.71,14.54,6.67,20.91,11.26,5.36,3.87,9.26,8.51,11.67,13.81h-2.02Z"/>
    <path class="cls-1" d="M5.15,363.85c1.52-2.8,3.21-5.32,4.32-8.07,1.62-4.01,4.53-5.3,9.4-4.94-1.59,2.86-3.01,5.41-4.43,7.97.17.17.35.34.52.52,1.76-1.92,3.52-3.83,5.2-5.66,1.2,6.63-4.33,10.05-15.01,10.19h0Z"/>
  </g>
  <g>
    <path class="cls-1" d="M1567.62,143.94c-5.38-.54-10.76-1.02-16.13-1.64-12.01-1.38-23.3,1.04-33.41,7.42-2.53,1.6-4.47,5.78-4.61,8.87-.08,1.77,4.02,3.73,5.57,5.04,2.03-3.18,3.22-5.04,4.41-6.9,1.36,1.44,4.12,3.7,3.84,4.17-1.25,2.14-3.53,5.39-5.14,5.23-3.31-.32-7.1-1.88-9.48-4.19-4.04-3.91-1.19-8.26.96-12.22,1.91-1.55,3.83-3.1,5.74-4.65,14.45-7.07,29.34-7.13,44.49-2.75,1.3.38,2.5,1.14,3.74,1.72l.02-.12h0Z"/>
    <path class="cls-1" d="M1567.62,143.94c.11.06.22.12.33.17-.12-.01-.23-.03-.35-.05l.02-.12Z"/>
    <path class="cls-1" d="M1580.59,127.03c-.07.41-.13.82-.2,1.23,0-.42,0-.84,0-1.26h.01l.11.02s.07.01.07.01Z"/>
    <path class="cls-1" d="M1885.24,274.35c-.36.8-5.77.27-8.1-1.02-3.32-1.85-6.15-4.75-8.82-7.56-13.35-14.05-33.65-15.01-51.09,6.27,4.03-1.35,7.93-3.34,12.03-3.89,10.51-1.43,23.75,6.96,27.6,16.97.51,1.31,1.14,2.94.79,4.15-.76,2.55-2.13,4.93-3.24,7.37-2.24-1.41-5.1-2.36-6.56-4.34-2.53-3.43-4.01-7.6-6.23-11.28-6.11-10.11-18.25-11.53-26.58-3-6.15,6.3-8.2,14.46-9.66,22.85-.69,4-1.86,7.92-2.81,11.88.95.16,1.9.32,2.84.47.57-1.34,1.14-2.67,1.71-4.01.25.03.49.07.73.1-2.09,17.05,2.21,32.56,11.91,46.49,4.52,6.49,9.23,12.86,13.92,19.23h-26.95c-1.82-.79-3.67-1.53-5.54-2.25-2.17-.83-4.8-.85-7.17-.66-11.03.86-22.06,1.91-33.08,2.91h-104.45c-24.68-4.21-48.46-12.44-70.81-26.2-18.7-11.52-36.39-24.49-47.91-44-7.32-12.38-12.21-25.51-11.58-40.13.45-10.42,4.72-19.2,13.49-24.96,3.38-2.23,7.96-3.63,11.99-3.63,7.39,0,10.78,7.25,7.7,12.91-.89-2.47-1.56-7.92-3.2-8.22-4.42-.83-10.15-.92-13.74,1.3-8.82,5.46-13.11,14.35-13.66,24.82-.87,16.46,6.16,30.28,15.14,43.2,6.05,8.71,13.09,16.68,23.45,22.61-3.55-5.53-7.36-9.86-9.28-14.91-2.28-5.98-3.98-12.58-4.03-18.93-.07-8.68,5.5-13.77,15.95-15.86-7.07,3.76-12.84,7.57-12.31,14.91.47,6.39,1.86,12.96,4.14,18.95,6.23,16.33,19.31,25.7,34.52,33.14,36.81,18.02,75.88,24.7,116.37,22.74,23.09-1.12,46.06-4.45,69.08-6.87,1.93-.2,3.79-1.07,5.97-1.72-1.57-5.31-5.8-5.83-9.35-6.11-12.04-.95-24.12-2.03-36.18-1.88-20.69.25-41.37,1.43-62.05,2.14-16.87.59-30.87-5.31-41.31-18.83-8.65-11.21-6.06-28.96,5.48-37.27,2.1-1.51,4.68-2.86,7.19-3.18,2.11-.26,4.56.82,6.58,1.87.62.31.67,3.48.31,3.62-1.94.76-4.12,1.43-6.16,1.29-6.76-.45-13.71,4.7-15.23,13.19-.94,5.3.23,10.97.45,16.48.77.04,1.53.08,2.3.12.57-1.8,1.08-3.61,1.71-5.39,2.53-7.09,11.08-11.63,17.83-9.26,1.31.46,2.24,1.96,3.35,2.99-1.21.87-2.32,2.27-3.64,2.51-2.17.4-4.84-.7-6.66.17-3.46,1.66-7.6,3.6-9.38,6.64-2.32,3.98-.46,8.93,3.67,11.18,6.9,3.75,14,8.02,21.53,9.56,17.46,3.56,35.1.84,52.64-.98,9.17-.95,18.35-2.06,27.55-2.33,9.16-.28,18.34.4,28.01-.11-8.84-3.16-17.51-6.93-26.54-9.37-25.24-6.8-48.72-17.08-68.84-33.99-23.48-19.74-40.3-44.6-53.18-72.17-7.1-15.2-13.14-30.88-19.97-46.21-10.45-23.44-19.41-37.02-52.32-30.04,10.64-5.34,21.74-5.32,33.12-2.06.17-.5.33-.99.49-1.49-7.08-3.72-14.15-7.43-21.22-11.16,3.61.55,7.19,1.09,9.66,1.47.93-5.84,1.86-11.58,2.78-17.32,0,1.3.05,2.6-.21,3.84-1.34,6.47.43,12.21,5.54,15.95,10.59,7.75,16.25,18.74,21.39,30.19,10.45,23.33,20.18,47,31.41,69.95,9.78,19.97,23.65,37.22,41.42,51.36-1.81-2.87-3.69-5.69-5.41-8.61-12.91-21.96-14.28-45.77-10.99-70.24,1.06-7.92,2.65-15.76,4.18-23.61,2.9-14.86-6.21-27.62-21.27-29.59-5.59-.74-9.45,1.42-11.75,6.65-2.7,6.14-2.05,12.6,1.85,15.99,3.74,3.26,9.47,2.54,11.48-1.84.82-1.79.51-4.25.2-6.33-.09-.55-2.81-1.42-3.04-1.12-1.06,1.31-1.65,3-3.8,4.35.37-2.02.22-5.39,1.22-5.78,1.83-.71,4.86-.37,6.47.8,3.86,2.79,3.7,8.46.23,11.88-4.02,3.97-10.82,3.69-14.88-.6-4.17-4.42-4.99-11.46-2.21-17.84,2.69-6.18,7.53-8.92,14.05-8.99,2.33-.03,4.67.27,7.01.43.19-.57.39-1.13.58-1.7-5.97-2.87-11.89-5.88-17.93-8.6-13.94-6.28-23.35-16.37-24.16-32.04-.8-15.75,6.75-27.95,19.57-36.75,5.43-3.72,12.15-3.28,15.98.34,3.14,2.97,3.77,6.42.89,9.8-2.15,2.53-5.04,5.15-8.32,2.16-1.65-1.5-1.98-4.43-2.91-6.72,2.1-.79,4.16-1.66,6.3-2.3.68-.21,1.54.24,2.79.48-6.98-5.08-14.72-4.12-20.02,2.75-3.21,4.17-6.04,8.79-8.2,13.58-8.45,18.82-2.58,34.82,15.85,44.13,2.56,1.3,5.13,2.6,7.78,3.68,15.45,6.26,28.81,14.43,30.12,34.02,13.13-6.57,24.5-17.08,39.9-10.22,2.13.95,3.75,3.04,5.61,4.6-.33.78-.67,1.56-1,2.35-2.53-.47-5.4-.33-7.53-1.51-13.25-7.36-23.6-.52-33.83,6.67-1.52,1.07-2.85,3.23-3.17,5.07-2.33,13.48-4.39,27.01-6.53,40.52.51.2,1.01.39,1.52.59,1.16-1.64,2.26-3.34,3.5-4.92,7.36-9.4,19.22-10.18,27.03-1.25,3.28,3.75,5.54,8.49,7.68,13.04.69,1.46-.25,3.88-.96,5.66-.2.53-2.97.8-3.16.44-.91-1.71-2.13-3.85-1.77-5.53.89-4.25,0-7.55-3.1-10.52-4.97-4.75-10.53-7.32-17.28-4.4-7.55,3.26-12.59,9.39-12.77,17.37-.27,12.12,2.7,23.89,7.84,35.12,2.01-3.1,3.26-6.99,5.89-8.54,2.81-1.66,7.11-2.02,10.43-1.35,7.3,1.48,14.77,9.89,14.13,17.14-2.29-2.84-3.57-4.5-4.94-6.09-2.05-2.37-3.81-5.22-6.33-6.9-3.95-2.64-8.47-3.31-12.49.25-4.23,3.74-4.35,8.99-1.82,12.93,3.69,5.74,8.31,11.19,13.52,15.61,20.47,17.42,44.92,27.55,69.91,36.34,21.11,7.42,42.13,14.87,60.51,28.1.76.55,1.73.8,4.34,1.95-10.17-14.08-17.42-27.6-21.35-42.79-9.54-36.93-15.64-74.15-10.61-112.46.61-4.66.55-9.41.61-14.12.15-11.01-6.29-20.34-15.54-22.47-5.2-1.2-9.84-.04-13.3,4.21-2.55,3.12-3.86,6.56-1.29,11.01,1.29-1.04,2.08-2.17,3.06-2.37,2.36-.5,5.55-1.59,7.04-.52,1.71,1.21,2.85,4.63,2.52,6.83-.24,1.59-3.15,3.66-5.11,3.96-7.68,1.18-13.86-6.12-11.99-13.69,2.31-9.36,13.6-14.84,22.42-10.82,8.01,3.65,13.14,9.64,14.49,18.5.51,3.37.79,6.77,1.77,10.42,5.79-17.44,19.4-29.62,28.66-44.62,4.19-6.79,6.64-14.91,8.48-22.76.62-2.63-2.57-6.81-5.07-9.19-.9-.86-4.86,1.48-7.42,2.36.12.59.24,1.17.36,1.76,1.47.89,2.95,1.77,4.43,2.66.09.65.18,1.31.27,1.96-2.52.43-5.03.87-7.55,1.3-.19-2.54-1.42-5.63-.4-7.51,3.84-7.06,12.75-6.95,15.86.39,1.61,3.8,2.34,9.2.87,12.83-3.65,9.03-7.39,18.65-13.57,25.92-26.75,31.43-32.31,67.56-26.03,106.77.84,5.26,1.96,10.47,3.01,15.69.14.7.68,1.33,1.59,3.01,3.62-15.26,10.38-27.55,21.42-37.36,15.14-13.45,38.41-15.16,54.6-3.52,3.07,2.21,6.33,5.18,7.62,8.52,1.09,2.85.02,7-1.34,10Z"/>
    <path class="cls-1" d="M1846.22,375.03h-1.31c4.42-8.06,9.2-15.91,7.79-25.2-4.26,8.16-8.53,16.34-13.16,25.2h-.48c-7.65-11.52-7.68-20.79-.98-30.3,2.59-3.67,5.67-7.04,7.86-10.93,2.04-3.6,3.2-7.71,4.63-11.3,3.17,3.28,9.72,21.06,10.25,28.9.77,11.53-7.24,17.32-14.6,23.63Z"/>
    <path class="cls-1" d="M1736.78,322.61c-8.32-8.52-9.11-15.31-4.37-24.11,3.31-6.15,6-12.63,8.71-18.42,14.84,15.57,15.26,30.64-.6,44.03,2.14-7.65,7.19-14.15,4.33-22.72-2.77,7.3-5.25,13.82-8.07,21.23h0Z"/>
    <path class="cls-1" d="M1625.69,247.66c-1.27,6.31-2.44,12.16-3.61,18.01.45.19.9.37,1.35.56,2.05-5.06,4.09-10.11,5.99-14.79,4.07,7.73,2.33,15.9-5.44,20.63-5.18,3.15-10.88,5.44-16.7,8.29,1.48-7.09,2.94-13.31,4.06-19.59,1.59-8.91,3.43-10.84,14.36-13.1h0Z"/>
    <path class="cls-1" d="M1676.88,123.78c6.48,19.16,3.52,30.49-10.87,39.65,2.98-6.04,5.98-12.12,8.98-18.19-.38-.16-.75-.32-1.13-.47-3.68,5.44-7.35,10.89-11.73,17.37-3.52-10.14-2.45-17.79,3.74-24.75,3.97-4.47,7.54-9.29,11.01-13.61h0Z"/>
    <path class="cls-1" d="M1579.11,210.53c10.63-12.91,21.75-16.57,28.9-7.97-4.52.14-9.05.29-13.57.44-.03.52-.06,1.03-.08,1.55,5.11.75,10.22,1.5,15.76,2.32-4.59,7.52-9.45,9.49-16.39,7.53-4.83-1.36-9.69-2.57-14.61-3.87h0Z"/>
    <path class="cls-1" d="M1789.12,260.88c-3.96,9.52-7.18,11.6-15.52,11.36-4.79-.14-9.58.15-14.15.24,8.94-16.44,14.92-20.15,26.58-15.42-4.69,1.44-8.83,2.71-12.97,3.98.13.51.26,1.02.39,1.53,5.05-.55,10.1-1.1,15.67-1.7h0Z"/>
    <path class="cls-1" d="M1620.99,369.52c.01,1.91.01,3.74.02,5.51h-7.22c1.44-2.06,3.71-3.92,7.2-5.51Z"/>
    <path class="cls-1" d="M1626.88,375.03h-2.6c.19-1.06.38-2.1.56-3.11.84,1.04,1.52,2.08,2.04,3.11Z"/>
    <path class="cls-1" d="M1757.05,225.61c16.75-7.86,23.79-7.36,31.94,2.78-4.9-1.51-9.54-2.93-14.18-4.36-.14.42-.29.85-.43,1.28,4.25,2.05,8.5,4.1,13.06,6.31-6.93,5.08-11.7,5.27-17.91,1.39-4.11-2.57-8.34-4.95-12.49-7.4h0Z"/>
    <path class="cls-1" d="M1595.72,346.38c-6.85-11.27-5.88-15.12,6.9-28.84-.97,9.84,8.75,19.5-2.61,28.93-1.22-4.18-2.31-7.92-3.4-11.65-.38-.01-.75-.03-1.13-.05.08,3.55.15,7.09.25,11.61h0Z"/>
    <path class="cls-1" d="M1559.46,336.44c1.1,4.2,1.91,7.29,2.71,10.37.42-.02.85-.03,1.27-.05-.06-2.71-.12-5.43-.17-8.05,6.88,6.28,4.44,15.58-6.57,23.08-.15-8.51-8.58-17.32,2.76-25.35h0Z"/>
    <path class="cls-1" d="M1800.44,224.17c4.72.64,8.42,1.14,12.13,1.64.12-.35.23-.69.35-1.04-3.23-1.13-6.46-2.27-9.71-3.41,7.7-4.91,14.67-.14,20.86,14.58-8.24-3.65-19.05,1.48-23.63-11.78h0Z"/>
    <path class="cls-1" d="M1796.69,318.01c-4.55-5.71-12.73-6.56-18.61-1.93-5.6,4.41-6.53,12.29-2.13,18.08,4.23,5.57,12.41,6.61,18.07,2.3,6.06-4.61,7.23-12.73,2.67-18.45ZM1792.47,334.33c-4.14,3.21-10.36,2.54-13.82-1.5-3.86-4.51-3.38-11.19,1.07-14.85,4.18-3.43,10.74-2.71,14.34,1.58,3.69,4.4,2.95,11.24-1.59,14.77Z"/>
    <path class="cls-1" d="M1807.13,309.21c.62-10.2,7.88-16.87,16.98-15.61,5.4.75,10.03,5.37,9.64,10.13-.12,1.5-1.35,3.39-2.63,4.14-.74.44-3.11-.66-3.87-1.71-2.67-3.68-4.36-9.73-10.3-6.79-3.59,1.78-5.85,6.22-8.71,9.46-.13.15-.25.32-.38.48-.24-.03-.48-.07-.73-.1h0Z"/>
    <path class="cls-1" d="M1554.12,333.02c-6.04,8.67-12.94,2.76-19.7,3.03,8.65-8.9,12.62-10.23,18.56-6.19-2.21.14-4.09.26-5.97.37-.06.31-.12.63-.18.94,2.18.55,4.35,1.1,7.3,1.84h0Z"/>
    <path class="cls-1" d="M1653.11,224.44c-3.02-3.98-8.98-4.72-13.1-1.64-4.24,3.18-4.94,8.65-1.64,12.88,3.34,4.3,8.75,5.07,12.89,1.85,3.97-3.09,4.83-9.16,1.85-13.09ZM1649.86,235.81c-3.4,2.69-7.11,2.11-9.77-1.11-2.91-3.51-2.58-7.86,1.23-10.06,2.54-1.47,6.4-.63,8.7-.76,3.64,5.46,3.42,9.09-.16,11.93Z"/>
    <path class="cls-1" d="M1580.59,127.03c.12-2.63.5-5.28.3-7.88-.55-6.92-3.91-8.51-9.73-4.79-1.17.75-2.34,1.48-3.51,2.22-.53-.27-1.05-.54-1.58-.81.84-1.82,1.45-5.02,2.55-5.19,3.32-.53,7.57-1.06,10.11.54,5.61,3.54,5.81,9.66,1.69,15.89,0,0,.18.02.18.02h0Z"/>
  </g>
  <path class="cls-1" d="M1919.63,358.44v4.08c-7.97-4.63-16.83-6.63-26.83-5.18-2.4.35-4.74,1.09-7.11,1.64-.97.22-1.94.42-2.98.29,6.53-3.44,13.49-5.06,21.49-5.1-.92-.98-1.36-1.49-1.84-1.97-4.78-4.74-10.17-9-14.22-14.3-7.19-9.44-8.21-20.06-3.28-31.01,2.39-5.29,6.73-8.66,11.73-11.29,1.73-.38,3.47-.75,5.2-1.13,2.61.43,5.28.63,7.79,1.38,1.35.41,2.68,1.57,3.5,2.76.56.81.61,2.45.15,3.34-.33.64-1.89.97-2.86.9-1.52-.1-3.04-.54-4.49-1.04-9.48-3.24-14.89-1.25-20.01,7.46-.67,1.13-1.28,2.3-1.54,3.8.54-.39,1.16-.71,1.6-1.19,5.4-5.84,13.81-3.41,17.56.5.98,1.01.89,3.03,1.29,4.59-1.48-.27-3.12-.24-4.42-.88-1.86-.92-3.38-2.55-5.23-3.49-4.95-2.49-9.29-.49-10.94,4.78-1.47,4.68-.38,9.07,1.6,13.59-.45-4.14,1.16-7,4.78-8.65,2.32-1.06,4.4-.5,5.99,1.35.52.6.39,1.76.56,2.67-.88.03-1.93.4-2.61.05-1.73-.9-3.33-2.85-5.31-1-2.29,2.12-2.17,4.99-1.31,7.74,1.78,5.62,5.82,9.62,10.08,13.34,2.79,2.43,5.95,4.43,8.95,6.62.31-.29.61-.58.92-.87-1.19-1.87-2.61-3.64-3.52-5.64-1.44-3.17-3.03-6.4-3.65-9.77-.65-3.52,1.44-6.27,4.78-7.46,3.84-1.35,7.47-.51,10.67,1.86,2.36,1.74,3.45,4.39,2.46,7.05-.73,1.97-2.34,4.28-4.14,5-1.61.66-4.14-.37-6.01-1.22-.77-.36-1.54-2.62-1.14-3.26.72-1.12,2.32-2.18,3.61-2.25.78-.05,1.73,1.76,2.48,2.82.26.37.16.99.22,1.53,3.35-.87,4.43-4.14,2.61-7.29-1.89-3.27-7.01-4.67-10.58-2.88-3.96,1.98-5.03,4.71-2.99,9.08,3.73,7.96,9.74,13.86,16.99,18.65Z"/>
</svg>