<?xml version="1.0" encoding="utf-8"?>
<!-- Generator: Adobe Illustrator 27.9.1, SVG Export Plug-In . SVG Version: 6.00 Build 0)  -->
<svg version="1.1" id="Layer_1" xmlns="http://www.w3.org/2000/svg" xmlns:xlink="http://www.w3.org/1999/xlink" x="0px" y="0px"
	 viewBox="0 0 1920 157.6" style="enable-background:new 0 0 1920 157.6;" xml:space="preserve">
<style type="text/css">
	.st0{fill:#C2DEB0;}
	.st1{fill:#F5FAF7;}
</style>
<rect class="st0" width="1920" height="157.6"/>
<path class="st1" d="M1553.6,72.1c-3.8-3.7-7.5-7.4-11.3-11c-8.5-8.1-13.8-18-15.4-29.5c-0.4-2.9,1.5-6.9,3.7-9
	c1.3-1.2,5.3,0.7,7.2,1c-1.1,3.5-1.7,5.5-2.4,7.6c1.9,0.1,5.3,0.8,5.5,0.2c0.8-2.3,1.8-6,0.7-7.1c-2.3-2.3-5.8-4.1-9-4.4
	c-5.4-0.6-6.9,4.3-8.5,8.4c0,2.4,0.1,4.8,0.1,7.2c3.8,15.2,13,26.3,25.8,34.8C1551.2,71.1,1552.5,71.5,1553.6,72.1
	C1553.7,72,1553.6,72.1,1553.6,72.1z"/>
<path class="st1" d="M1549,92.2c0.3-0.3,0.6-0.5,0.9-0.8c-0.3,0.3-0.5,0.6-0.8,0.9L1549,92.2z"/>
<path class="st1" d="M1553.7,72c0.1,0.1,0.2,0.2,0.2,0.2C1553.8,72.2,1553.8,72.2,1553.7,72L1553.7,72z"/>
<path class="st1" d="M1612.2,2.7c-0.7-0.8-1.3-1.7-1.9-2.7h4.9c1,1.1,2.2,2.2,3.3,3.1c1.2,1,5.7-1.9,8.1-2.8
	C1624.4,6.1,1616.9,8.2,1612.2,2.7z"/>
<path class="st1" d="M1568.6,157.6h-10.1c-0.1-0.4-0.3-0.8-0.4-1.1c2.3-0.7,4.7-2.3,6.8-2C1567.2,154.7,1568.2,156,1568.6,157.6z"/>
<path class="st1" d="M1920.2,117.5v5.8c-1.8,0.2-3.7,0.5-5.5,0.7c-15.2,1.5-30.6,2-45.8,3.4c-16.4,1.5-30.7,8-42,20.2
	c-0.2-0.2-0.4-0.3-0.5-0.5c0.6-1.3,1.3-2.5,1.9-3.8c-0.7-0.6-1.4-1.2-2.1-1.8c-2.4,3.2-4.5,6.5-7.1,9.5c-1.8,2.2-3.6,4.3-5.1,6.6
	h-3.5c1.2-2,2.6-3.9,4-5.8c-1.8,0.4-2.6,0.4-3.2,0.7c-3.1,1.7-6.3,3.4-9.4,5.1h-5.7c13.7-8.7,28.1-16.3,42.9-23.4
	c13.8-6.6,28.4-9.6,45.2-10.9c-2.5-1.2-3.3-1.8-4.2-2c-21.3-5.4-40-16.4-58.7-27.4c-22.1-13.1-45-25-70.7-29.3
	c-6.6-1.1-13.5-1.1-20.1-0.3c-4.5,0.6-8.3,4-8.5,9.4c-0.1,5.2,3.2,8.2,7.6,9.5c2.8,0.8,6,0.3,9.1,0.4c2,0,4.1-0.1,7.6-0.1
	c-5,5-15.9,4.7-21.6,0.2c-2.6-2.1-5-5.5-5.5-8.6c-0.5-2.9,1.6-6.3,2.7-9.7c-11.6,3.2-22.2,8.3-31,16.1c-5.8,5.1-7.2,12.7-4.9,20.4
	c2,6.9,7.4,9.4,14.1,10.1c4.2,0.4,7.2-1,9.8-4.3c1-1.3,3.4-1.8,5.2-2.1c0.4-0.1,1.9,2.2,1.7,2.6c-0.9,1.6-2.1,3.8-3.6,4.2
	c-4.7,1.2-9.7,2.5-14.5,2.4c-11.5-0.2-18.4-9.5-16-20.9c0.4-1.9,1-3.8,1.5-5.7c-0.5-0.2-0.9-0.5-1.4-0.8c-8.7,10-17.5,20-26.1,30.2
	c-1.2,1.4-1.9,3.7-1.8,5.5c1,12.1,2.4,24.1,16.2,29.3c2.2,0.8,3.9,3.1,5.8,4.7c-0.1,0.1-0.1,0.3-0.2,0.4h-8.8
	c-13.7-7.3-13.1-22-16.4-35.6c-15.4,11.3-29.8,6.4-44.1-1.2c-2.5-1.3-5-2.4-7.6-3.5c-18.5-7.9-34-2.3-42.7,15.8
	c-2.2,4.6-3.9,9.6-5,14.6c-0.8,3.8-0.4,7.1,1,9.8h-2.3c-0.1-0.6-0.2-1.2-0.3-1.8c-1.5-15,2.9-28.3,15.1-37.5
	c12.2-9.2,25.5-8.5,38.9-2c5.8,2.8,11.7,5.3,17.6,8c0.3-0.5,0.6-1,0.9-1.5c-1.6-1.6-3.3-3.2-4.7-4.9c-4-4.9-5-10.2-2.1-16.1
	c3-6,8.8-9.8,14.7-9.5c5.7,0.3,10.2,5.2,9.8,10.7c-0.4,4.7-4.5,8.4-9,7.3c-1.9-0.5-4-2.5-4.6-4.3c-0.3-1,2.3-3,3.5-4.5
	c0.3,2.5-0.5,3.9-0.9,5.5c-0.1,0.4,2.3,1.8,2.7,1.6c1.7-1.1,3.8-2.4,4.6-4.1c2-4.2-1-8.9-5.8-9.7c-5-0.8-10.2,2.8-13.1,8.6
	c-2.5,5-1.7,9.2,2.4,12.9c10.9,10,26.1,8.8,35.3-2.7c4.9-6,9.7-12.1,14.9-17.9c16.2-17.7,34.7-31.6,59.1-35.7
	c3.2-0.5,6.5-0.9,9.8-1.4c-21.6-4.4-43.1-3.9-64.1,1.3c-24.1,6-47.8,13.5-71.7,20.3c-11.7,3.3-23.5,6-35.8,3
	c-6-1.5-11.4,0.8-15.3,5.9c-0.8,1-1.8,1.8-2.8,2.6c3.7-4.3,7.4-8.6,11.2-12.9c-1.8-1.6-4.5-3.9-7.1-6.3c7.2,2.9,14.4,5.9,21.6,8.8
	c0.3-0.4,0.6-0.9,0.8-1.3c-9.5-6.4-16.5-14.7-19.2-25.9c15.4,28.8,31.1,27,55.1,20.2c15.7-4.5,31.1-9.8,46.9-14
	c28.5-7.7,57.6-10.7,86.9-5.5c25.1,4.4,47.5,15.5,68.3,30c7.5,5.2,15.7,9.3,23.5,13.9c-5.7-7.5-11.9-13.9-17.4-20.9
	c-5.5-7-10.4-14.5-15.5-22c-9.6-14.2-18.6-29-32.2-39.8c-5.9-4.7-13.5-7.3-20.6-10c-4.2-1.7-9.1,0-10.6,4.3c-1.2,3.2,0,7.5,0.9,11.1
	c0.5,1.9,3,3.2,4,5.1c0.6,1.1,0.3,2.8,0.4,4.3c-1.4-0.2-3.1,0.1-4.3-0.6c-6-3.5-7.9-12.7-4.2-19.1c0.9-1.6,2-3.1,2.9-4.6
	c-0.5-0.5-1-1.1-1.5-1.6c-4.2,3.3-9.2,6-12.5,10c-5.4,6.4-4.9,14.8-0.3,19.6c1.4,1.4,2.2,3.5,2.9,5.4c0.1,0.4-2.3,2.3-2.9,2
	c-2-0.9-4.4-2-5.5-3.7c-1.3-2.1-1.9-4.8-2.1-7.3c-1-13.8,10.6-26.8,24.3-27.4c16.6-0.7,29.7,6,39.8,19c12.4,15.8,24.4,32,37.2,47.5
	c7.4,9.1,15.8,17.4,24,25.7c2.4,2.5,5.5,5.3,10.4,3.1c-0.9-2-1.4-4-2.5-5.5c-12.6-18.6-24.5-37.8-38.1-55.7
	c-10.4-13.6-21.8-26.1-34.4-37.1h7.9c11,10.1,21.1,21.3,30.6,33.4c16.3,20.8,30.8,43,46.2,64.6c1.3,1.9,3,3.8,5,4.9
	C1885.8,111.7,1902.4,117.2,1920.2,117.5z"/>
<path class="st1" d="M1899.8,131.8c-0.4,9.1,1.1,18.6-5.2,25.8h-24.8c0.9-3.2,1.4-6.5,2.3-9.7c2.9-11.1,10-16.8,23.6-18.3
	c-3.8,9.1-7.2,17.5-10.7,26C1893.5,150.4,1896.1,140.8,1899.8,131.8z"/>
<path class="st1" d="M1821.8,0c-3.9,5.3-7.7,10.3-12.1,16.2c-2.4-6.2-4.2-11.3-3-16.2H1821.8z"/>
<path class="st1" d="M1829.5,0c-0.2,7.8-6.4,15-14.2,16.2c2.6-5.2,8-9.4,7.5-16.2H1829.5z"/>
<path class="st1" d="M1792.3,86.3c-11.5-0.9-17.1,2.8-20.7,11.8c-2.5,6.3-5.7,12.4-8.3,18c20.9,1.3,32.3-7.8,32.4-28
	c-4.4,6.4-6,14.2-14.2,17.4C1785.2,99,1788.5,93.1,1792.3,86.3z"/>
<path class="st1" d="M1667.1,50.5c3.9-4.9,7.5-9.4,11.1-13.9c0.4,0.2,0.8,0.4,1.3,0.7c-2.5,4.7-5,9.4-7.3,13.7
	c8.3-1.8,13.3-8.2,11.9-16.9c-0.9-5.8-2.8-11.5-4.3-17.6c-4.3,5.5-8.1,10.5-12,15.3C1662.2,38.4,1661.9,41,1667.1,50.5z"/>
<path class="st1" d="M1621.9,157.6h-13.2c0.6-2.7,1.1-5.5,1.5-8.3c1.3-8.9,6.3-14.5,16.1-18.2c-2.1,7.3-3.8,13.4-5.6,19.6
	c0.3,0.2,0.7,0.4,1,0.5c2.7-6,5.3-12.1,7.9-18.1C1631.1,143.9,1628.7,151.6,1621.9,157.6z"/>
<path class="st1" d="M1610.4,39.1c-3,16,1.3,26.5,12.1,26.5c-2.7-3.5-5.4-6.9-8.2-10.4c0.4-0.3,0.7-0.7,1.1-1
	c3.8,3.3,7.5,6.7,11.6,10.3c2.7-8.1,1.2-13-4.6-16.9C1618.3,44.8,1614.4,41.9,1610.4,39.1z"/>
<path class="st1" d="M1893.5,69.9c-16.2-2.4-24.9,0.1-27.2,13.1c3.7-3.2,7.2-6.1,10.6-9c0.3,0.3,0.7,0.7,1,1
	c-3.2,3.9-6.4,7.8-9.8,12.1c9.5,2.2,13.2,0.7,17.9-6.4C1888.5,76.9,1891.1,73.3,1893.5,69.9z"/>
<path class="st1" d="M1781.7,157.6h-6.8c-1.5-2.2-2.9-4.3-4.3-6.5c-0.5,0.2-0.9,0.4-1.4,0.7c0.8,1.9,1.6,3.8,2.5,5.8h-4.9
	c-3-5-2-11.7,2.4-23.1c2.8,3.5,5.6,7.2,8.7,10.7C1781.8,149.6,1783.1,152.8,1781.7,157.6z"/>
<path class="st1" d="M1916.3,54.6c-0.3,8.2,1,15.8,3.8,22.7v6.2c-4.8-7.9-7.7-16.9-7.7-27.4c0-7.3,3.2-13.9,7.7-18v3.7
	C1917.8,45,1916.5,49.3,1916.3,54.6z"/>
<path class="st1" d="M1813.3,121.1c0.2,7.3,6,12.8,13.1,12.6c7.1-0.2,12.4-6.1,12.1-13.5c-0.3-6.9-6.2-12.3-13-12
	C1818.3,108.6,1813,114.2,1813.3,121.1z M1815.7,121.2c-0.1-5.6,4.6-10.1,10.4-10.1c5.2,0,9.6,4.3,9.8,9.4c0.2,5.6-4.4,10.4-10,10.4
	C1820.4,130.9,1815.7,126.4,1815.7,121.2z"/>
<path class="st1" d="M1826.8,147.5c0,0.2-0.1,0.4-0.1,0.6c-0.5,3.1-1.7,6.4-1.8,9.5h-4.2c0.4-3.7,2.3-7.4,5.6-10.5
	C1826.5,147.2,1826.6,147.4,1826.8,147.5z"/>
<path class="st1" d="M1865.5,41.9c-0.1-7.3-6-13.2-13.3-13.2c-7.1,0-13.2,6.3-13.1,13.5c0.1,7.5,6.4,13.4,14,13.1
	C1860.1,55,1865.6,49.1,1865.5,41.9z M1841.5,42.3c-0.1-6,4.8-11.1,10.8-11.3c5.8-0.2,11,5,11,11c0,5.9-5.1,10.9-11.1,10.9
	C1846.3,52.9,1841.6,48.2,1841.5,42.3z"/>
<path class="st1" d="M1917.8,145.4c0.1,2.3,1,4.5,2.4,6.2v-13.1C1918.6,140.4,1917.7,142.8,1917.8,145.4z"/>
<path class="st1" d="M1666.1,67.4c-5.2,0.2-8.8,4.1-8.6,9.3c0.3,5,4.6,9,9.4,8.7c4.8-0.2,8.8-4.7,8.6-9.6
	C1675.4,70.8,1671.4,67.2,1666.1,67.4z M1664.6,83.5c-1.3-1.8-4.4-4.1-4.9-6.9c-0.7-4.2,2.3-7.2,6.7-7.2c4.1,0,6.8,2.4,6.9,6.6
	C1673.5,80.3,1671,82.8,1664.6,83.5z"/>
<path class="st1" d="M1549.2,92.4c-1.9,1.7-3.6,3.7-5.7,5.1c-5.5,3.9-8.8,2.4-9.6-4.2c-0.2-1.3-0.4-2.7-0.5-4
	c-0.5-0.2-1.1-0.4-1.6-0.7c-0.8,1.8-2.8,4.2-2.3,5.1c1.7,2.8,3.9,6.3,6.7,7.2c6.1,2,10.8-1.7,12.9-8.7
	C1549,92.2,1549.2,92.4,1549.2,92.4z"/>
<path class="st1" d="M1847.3,42c2.4,1.6,3.9,3.2,5.4,3.3c1.1,0,3.2-2.5,3-3.3c-0.5-1.5-2.2-3.1-3.6-3.4
	C1850.9,38.4,1849.5,40.3,1847.3,42z"/>
<g>
	<g>
		<path class="st1" d="M347.5,1.2c0.2-0.4,0.4-0.8,0.6-1.2h6.4c0,0,0,0,0,0.1c-0.5,0.8-0.5,1.8-1,3.7c2.5,0,4.6-0.4,6.3,0.1
			c1.8,0.5,4.3,1.6,4.7,2.9c0.4,1.4-0.7,4.1-2,5.2c-4.2,3.5-8.9,2.5-13-0.4C345.4,9,345.8,5,347.5,1.2z"/>
		<path class="st1" d="M413.8,97.2c-3.5,10.3-12.6,13.8-23.5,9.8c-0.8-0.3-1.6-0.5-2.2-1c-15.4-11.8-30.2-7.5-45.7,0.7
			c-23.6,12.5-49.1,19.7-75.5,24.3c-14.7,2.5-29.2,5.8-43.8,8.6c-27.9,5.4-54.8,1.4-81.3-7.8c-33.5-11.6-65.5-26.3-96-44.3
			c-1.2-0.7-2.5-1.2-2.9-1.4c6.3,10.4,12.6,21.4,19.4,32c5.8,9,13.3,16,24.4,18.1c2.4,0.5,5,1,7.2,0.4c2.5-0.7,5.7-2.2,6.7-4.2
			c0.7-1.4-2.1-4.4-3.9-7.8c-1.5,2.5-2.1,4.2-2.6,4.2c-1.7-0.2-3.4-1-5-1.5c0.6-1.3,0.9-3.2,1.9-3.7c3.8-1.9,12,1.4,13.8,5.3
			c1.9,4-0.5,8.6-5.6,9.6c-10.2,2-19.5-0.4-27.5-7.1c-5.6-4.7-11.1-9.6-16.1-13.9c-3.6,3.4-8.4,8-13.2,12.5c0.4,0.6,0.8,1.2,1.2,1.8
			c3,0.2,6.1,0.5,9.6,0.8c-3.3,3.9-9.9,4.6-12.4,1.5c-3.2-4-0.9-7.2,2.3-9.9c0.6-0.5,1.3-0.9,2-1.4c9-6.3,9.5-8.2,5.5-18.6
			C44.2,87.6,25.9,75,7.7,74.7c-2.6,0-5.1-0.1-7.7,0v-7.2c18.7-3,36.8,1.5,55,1.7c4.1,0,8.2,0.1,12.2-0.3
			c21.8-2.1,36.5-20.5,34.6-42.4c-0.8-8.8-1.3-17.5-1.6-26.3h1.6c0.3,10.9,2,21.8,3.1,33.5c2.8-3.8,4.9-6.9,7.4-9.8
			c6.1-7.2,13.9-9.9,23.1-8.1c8.4,1.6,14.3,10.5,12.6,18.9c-1.5,7.6-9.3,11.8-15.8,8.1c-2-1.2-4.1-4.3-4-6.4
			c0.1-1.8,3.3-4.8,5.2-4.9c2.1-0.1,4.4,2.4,6.4,4c0.7,0.5,0.8,1.7,1.3,2.9c4.6-2,4.6-5.7,4.1-9.4c-0.6-5.1-3.6-8.6-8.4-10.3
			c-8.9-3.2-19.3,1.2-24.9,10.7c-4.1,7-8.2,14.2-12,21.3c-7.3,13.6-18.5,21.1-33.9,21.7c-11.7,0.5-23.5,0.1-37,0.1
			c28.6,14.5,55.2,28.7,82.4,41.8c18.8,9,38.8,15.4,59.9,16.2c23.6,0.9,42.7-9.2,55.2-28.3c9.4-14.3,8.6-31.2,0-46.7
			c-4-7.2-10.7-11.1-19.2-11.2c-2,0-4.2,0.4-6.1-0.2c-1.6-0.5-2.8-2.2-4.2-3.4c1.3-1.3,2.9-3.9,3.9-3.7c5.8,1.4,12.8,1.9,16.8,5.5
			C224.6,48.7,229.6,57,235,64c7.4-7.6,16-16.7,24.9-25.5c4.6-4.5,9.6-8.9,15.1-12.4c7.7-5,17.2-3.9,22.6,1.8
			c4.2,4.3,4.3,8.8-0.4,13.8c2.2-5.5,2.5-10.1-2.3-13.2c-5.8-3.8-12.6-4-18-0.3c-7.4,5.1-13.8,11.6-20.6,17.5
			c0.4,0.6,0.8,1.2,1.2,1.8c3.3-0.6,6.5-1.4,9.9-1.7c11.1-1.1,19.4,3.2,23.4,11.9c4,9,1.3,21.4-6.2,28.1c-7.1,6.3-18.9,3.9-22.8-4.7
			c-2.8-6.2,0.1-13.7,6.8-15.2c2.5-0.6,6.9,0.7,8.2,2.6c2.3,3.4,0,6.4-3.7,7.8c0.1-2.6,0.4-5,0.1-7.4c0-0.3-3.3-1-4.4-0.3
			c-1.5,0.9-3.6,3.2-3.3,4.4c0.9,3.7,2.1,7.9,4.6,10.5c3.2,3.3,7.9,2.7,11.9,0c5.7-3.8,8.6-12.7,6.7-21c-1.6-7.3-5.5-10.9-13.5-12.1
			c-14.3-2.2-37.6,6.3-38.7,29.4c-1.1,22.6-13,37.1-31.9,47.2c-2.5,1.4-4.9,3-6.9,5.9c1.5,0.2,3,0.7,4.5,0.6
			c36.8-1.1,72.7-7.1,107.2-20.3c15.7-6,22.5-19,23.6-35c0.9-13.7-3.3-18.9-16.8-23.6c7-2.1,13.3,0.5,16.7,7.6
			c5.9,12.4,3.3,24.7-1.3,36.8c-1,2.6-2.3,5-3.4,7.5c0.5,0.4,0.9,0.8,1.4,1.2c5.9-4.5,12.4-8.3,17.6-13.6
			c13.9-14.1,26.9-29.2,34.7-47.7c6.2-14.7,7.3-29.8-1-44.2c-0.5-0.8-1-1.6-1.6-2.3h4.8c6.5,9.2,7,20.3,6.2,31.5
			c-1,15.1-9,27.3-17.5,39.2c-5.9,8.3-12.2,16.3-18.7,24.9c1.6,0,2.8,0.2,3.8,0c9.1-2.5,17.2-0.2,25.3,4.1c4.2,2.3,9,4,13.7,4.8
			c8.9,1.5,12.1-3.2,8.5-11.7c-1.1-2.5-2-5.1-2.9-7.6c0.5-0.6,1.1-1.3,1.6-1.9c3,1.4,7,2.2,8.7,4.5C414.2,90,414.8,94.4,413.8,97.2z
			"/>
		<path class="st1" d="M153.5,139.9c-1.1,9.4-3.8,13-11.3,14.5c-5.5,1.2-11.3,1.2-16.9,2.2c-1.7,0.3-3.4,0.7-5,1h-8.4
			c3.9-20.2,10-23.4,36.9-21.1c-8.4,3.4-17.6,2.1-22.9,8.9C134.8,143.6,144,141.8,153.5,139.9z"/>
		<path class="st1" d="M226.6,84.4c-7.5-3.5-13.2-8.1-21.8-6.4c7,3.5,13,6.6,19.3,9.7c-6.5,7.1-15.1,8.1-22.2,3.4
			c-6.2-4.1-12.6-7.9-18.2-11.5C207.8,66.7,214.9,67.6,226.6,84.4z"/>
		<path class="st1" d="M47,48.3C62.7,34.6,72.2,34.3,87,47.8c-6.7-1.6-13.4-3.1-20-4.6c-0.1,0.5-0.2,1.1-0.3,1.6
			c7,2.5,14.1,5.1,21.6,7.8c-7,7.2-12.2,8.2-20,4.8C61.2,54.3,54,51.3,47,48.3z"/>
		<path class="st1" d="M286.8,131.3c20.1-0.1,26.3,5.6,29.7,26c-7.2-2.2-14.7-4.5-22.3-6.8c-8-2.5-11.1-6.8-11.2-16.4
			c7.5,3,14.5,5.8,20.9,8.4C303.3,139.9,303.3,139.9,286.8,131.3z"/>
		<path class="st1" d="M131.4,114.5c3.5-18.2,10.7-23.4,28.9-21.5c-3,5.5-6.2,11.2-9.1,17c-3.4,6.9-8.9,9.5-18,8.8
			c4.1-6.5,7.6-12.1,11.1-17.7c-0.3-0.3-0.6-0.6-0.9-0.9C139.4,104.9,135.4,109.7,131.4,114.5z"/>
		<path class="st1" d="M130.1,80.3c-6.2-1.9-12.4-3.7-18.5-5.5c-8.2-2.4-10.7-5.4-11.7-15c6.8,2.6,13.1,4.9,20.1,7.6
			c-3.7-5.6-9.6-7-15.1-9.3C119.6,55.2,128,63,130.1,80.3z"/>
		<path class="st1" d="M273.1,132.9c-2.7,2.1-5.2,3.9-7.6,5.8c0.2,0.4,0.4,0.7,0.5,1.1c2.9-1.2,5.9-2.3,9.3-3.7
			c0.9,14.6-12.4,12.8-19,18.7C255.3,140.7,261,133.1,273.1,132.9z"/>
		<path class="st1" d="M82.3,72c-6.1,0-10.7,4.7-10.7,11c0,6,4.8,10.7,10.9,10.8c5.8,0.1,10.9-5.2,10.8-11C93.3,77,88.2,72,82.3,72z
			 M82.2,91.3c-4.7,0-8.4-4-8.2-8.8c0.2-4.7,4.1-8.3,8.9-8.2c4.5,0.2,8.3,4.5,8,9.1C90.7,87.7,86.6,91.4,82.2,91.3z"/>
		<path class="st1" d="M242.3,103.7c-6,0.2-10.8,5.2-10.7,11.1c0.2,5.9,5.2,10.7,11.2,10.5c6-0.2,10.6-5,10.5-11.1
			C253.4,108.2,248.4,103.5,242.3,103.7z M243.1,122.8c-4.8,0.3-8.7-3.2-8.9-8.1c-0.2-4.8,3.4-8.7,8.2-8.8c4.5-0.1,8.6,3.9,8.7,8.5
			C251.2,118.9,247.7,122.6,243.1,122.8z"/>
		<path class="st1" d="M365.5,102.9c-5.7-0.1-10.4,4.5-10.6,10.3c-0.1,5.5,4.2,10.1,9.8,10.4c5.7,0.3,10.8-4.3,11-9.9
			C375.9,108,371.2,103,365.5,102.9z M365.4,121.7c-4.9,0-8.6-3.8-8.6-8.5c0.1-4.3,3.8-8,8.3-8.1c4.8-0.1,8.4,3.6,8.4,8.5
			C373.5,118.3,370,121.7,365.4,121.7z"/>
		<path class="st1" d="M287.8,44.3c-0.7-2.4-2.1-4.9-1.8-7.1c0.2-1.5,2.9-2.7,4.5-4c0.7,1.1,1.4,2.2,2.2,3.2
			c-1.5,0.9-3.1,1.8-5.4,3.1c0.6,1,1.5,2.6,2.3,4.2C289,43.9,288.4,44.1,287.8,44.3z"/>
	</g>
	<g>
		<path class="st1" d="M0,110.9v-5.1c0,0,0.1,0,0.1,0c0.9,0.4,1.8,2.8,1.4,3.5C1.1,109.9,0.6,110.4,0,110.9z"/>
		<path class="st1" d="M27.2,143.1c-2.4,5.9-7,9.7-12.3,12.8c-1.9,0.5-3.8,1-5.6,1.4c-2.9-0.4-5.8-0.5-8.5-1.2
			C0.5,156,0.2,156,0,155.8v-7.3c1.5,0.1,3,0.5,4.5,0.9c10.4,3.1,16.2,0.8,21.5-8.9c0.7-1.3,1.3-2.5,1.5-4.2
			c-0.6,0.5-1.2,0.8-1.7,1.4c-5.6,6.6-14.9,4.3-19.1,0.2c-1.1-1.1-1.1-3.3-1.6-4.9c1.6,0.2,3.4,0.1,4.8,0.8c2.1,0.9,3.8,2.6,5.8,3.6
			c5.5,2.5,10.1,0.2,11.7-5.7c1.4-5.1,0-9.9-2.3-14.7c0.7,4.5-1,7.7-4.8,9.6c-2.5,1.2-4.8,0.7-6.6-1.2c-0.6-0.6-0.5-1.9-0.7-2.9
			c1-0.1,2.1-0.5,2.8-0.2c1.9,0.9,3.7,3,5.8,0.9c2.4-2.4,2.1-5.5,1.1-8.5c-2.2-6-6.7-10.2-11.5-14.1C8.2,98,4.6,96,1.3,93.8
			c-0.3,0.3-0.6,0.6-1,1c1.4,2,3,3.9,4.1,6c1.7,3.4,3.6,6.8,4.4,10.5c0.8,3.8-1.3,6.9-4.9,8.3c-1.3,0.5-2.6,0.8-3.9,0.9V119
			c1.3-0.1,2.5-0.4,3.6-1c4.2-2.3,5.3-5.3,2.9-10c-1.8-3.5-4-6.5-6.5-9.3V88.6c5.2,1,10.7,1,16.5,0c2.6-0.5,5.1-1.4,7.7-2.1
			c1-0.3,2.1-0.5,3.2-0.4c-7,4-14.5,6-23.2,6.4c1,1,1.5,1.6,2.1,2.1c5.4,5,11.4,9.4,16,15C30.5,119.5,32.1,131,27.2,143.1z"/>
	</g>
</g>
<rect x="1975.9" y="143.7" class="st0" width="1920" height="512.3"/>
<g>
	<path class="st1" d="M3616.2,379.2c-0.8-5.1-1.6-10.2-2.5-15.3c-2.1-11.4-0.4-22.3,5-32.3c1.4-2.5,5.2-4.6,8.2-4.9
		c1.7-0.2,3.8,3.6,5.1,5c-2.9,2.1-4.6,3.4-6.3,4.6c1.5,1.2,3.8,3.7,4.2,3.4c2-1.3,4.9-3.7,4.7-5.2c-0.5-3.1-2.2-6.7-4.6-8.8
		c-4-3.6-7.9-0.6-11.6,1.7c-1.4,1.9-2.7,3.8-4.1,5.8c-5.9,14.2-5,28.4,0.1,42.6c0.4,1.2,1.2,2.3,1.9,3.5
		C3616.3,379.1,3616.2,379.2,3616.2,379.2z"/>
	<path class="st1" d="M3788.6,598.1c16.1-3,31.2,0.1,45.1,8.5c12.9,7.8,25.3,16.3,38.3,24c8.2,4.9,17,8.9,25.6,13
		c1.6,0.8,3.7,0.6,5.6,0.8c0.1-0.5,0.3-1,0.4-1.6c-4.2-2.3-8.5-4.5-12.6-6.9c-19.7-11.1-33-27.9-42.3-48.1c-0.9-2-1.1-4.5-1.1-6.8
		c0.4-26,1.8-52.1,1-78.1c-1.3-42.8-10.8-83.5-36-119.2c-12.1-17.1-25.6-33.2-44.9-43c-12.3-6.2-25.1-10.1-39-8.6
		c-9.9,1.1-18,5.7-23,14.4c-1.9,3.4-3,7.8-2.7,11.7c0.5,7,7.6,9.8,12.8,6.5c-2.4-0.7-7.6-1-8-2.5c-1.1-4.2-1.5-9.6,0.4-13.2
		c4.7-8.7,12.9-13.4,22.8-14.5c15.6-1.8,29.3,4,42.1,11.8c8.7,5.2,16.7,11.5,23,21c-5.5-3-9.9-6.4-14.8-7.9
		c-5.8-1.8-12.2-3-18.3-2.7c-8.3,0.5-12.8,6.1-14.2,16.2c3.1-7,6.4-12.7,13.5-12.6c6.1,0.1,12.5,1,18.3,2.8
		c16,4.9,25.7,16.8,33.7,30.9c19.4,34,28.2,70.8,28.8,109.6c0.3,22.1-1.4,44.2-2.3,66.3c-0.1,1.9-0.8,3.7-1.3,5.8
		c-5.2-1.2-5.9-5.2-6.4-8.5c-1.6-11.4-3.4-22.9-4-34.4c-1-19.7-1.2-39.5-1.7-59.3c-0.5-16.1-7-29.1-20.5-38.2
		c-11.2-7.6-28-4-35.2,7.5c-1.3,2.1-2.4,4.6-2.6,7c-0.1,2,1.1,4.3,2.2,6.2c0.3,0.6,3.4,0.4,3.5,0.1c0.6-1.9,1.1-4,0.9-6
		c-0.8-6.4,3.6-13.4,11.6-15.3c5-1.2,10.5-0.5,15.7-0.6c0.1,0.7,0.2,1.5,0.3,2.2c-1.7,0.7-3.4,1.2-5,2c-6.6,2.8-10.4,11.3-7.7,17.6
		c0.5,1.2,2,2,3.1,3c0.8-1.2,2-2.3,2.2-3.6c0.2-2.1-1-4.6-0.2-6.4c1.4-3.4,3-7.5,5.8-9.3c3.7-2.5,8.5-1,10.9,2.8
		c4,6.4,8.5,12.9,10.4,20c4.5,16.4,2.9,33.4,2.3,50.3c-0.3,8.8-0.8,17.6-0.5,26.4c0.3,8.7,1.5,17.5,1.6,26.7
		c-3.6-8.2-7.7-16.3-10.6-24.7c-8-23.6-19.3-45.4-36.6-63.6c-20.3-21.2-45-35.7-72.1-46.3c-14.9-5.8-30.3-10.6-45.3-16.2
		c-23-8.5-36.5-16.2-31.8-48.1c-4.4,10.5-3.7,21.1,0.1,31.7c-0.5,0.2-0.9,0.4-1.4,0.6c-4-6.6-8.1-13.2-12.1-19.9c0,0,0.1,0,0.1,0
		c0.8,3.5,1.5,7.1,2.1,9.5c-5.9,1.3-11.7,2.7-17.5,4l0-0.2c1.6-0.2,3.3-0.1,4.9-0.5c6.1-1.7,11.7-0.3,15.5,4.3
		c8,9.6,18.9,14.4,30.1,18.5c22.9,8.5,46.1,16.4,68.6,25.7c19.6,8.1,36.9,20.3,51.5,36.4c-2.8-1.5-5.7-3.2-8.5-4.6
		c-21.7-11-44.5-10.8-67.7-6.2c-7.5,1.5-14.9,3.5-22.2,5.4c-14,3.7-26.7-4.2-29.5-18.5c-1-5.3,0.8-9.1,5.6-11.6
		c5.7-2.9,11.9-2.7,15.4,0.8c3.3,3.4,3,8.9-1,11.1c-1.7,0.9-4,0.7-6,0.6c-0.5,0-1.5-2.6-1.3-2.8c1.2-1.1,2.8-1.7,3.9-3.9
		c-1.9,0.5-5.1,0.5-5.4,1.5c-0.6,1.8-0.1,4.7,1.2,6.1c2.9,3.5,8.3,3,11.3-0.5c3.5-4.1,2.9-10.5-1.5-14.1c-4.5-3.7-11.2-4.1-17.1-1
		c-5.7,2.9-8.1,7.7-7.7,13.9c0.1,2.2,0.6,4.4,0.8,6.7c-0.5,0.2-1.1,0.4-1.6,0.7c-3.1-5.5-6.3-11-9.3-16.6c-6.8-12.9-17-21.3-32-21.1
		c-15.1,0.2-26.2,8.1-33.8,20.9c-3.2,5.4-2.4,11.8,1.3,15.2c3,2.8,6.3,3.2,9.4,0.3c2.3-2.2,4.6-5.1,1.6-8.1
		c-1.5-1.5-4.3-1.6-6.6-2.4c-0.6,2-1.3,4.1-1.8,6.2c-0.2,0.7,0.3,1.5,0.6,2.6c-5.3-6.4-4.8-13.8,1.4-19.3c3.8-3.3,8-6.3,12.4-8.6
		c17.4-9.2,33-4.6,43.1,12.4c1.4,2.4,2.8,4.7,4,7.2c6.9,14.4,15.5,26.6,34.3,26.6c-5.5,12.9-14.8,24.4-7.3,38.7c1,2,3.1,3.4,4.7,5.1
		c0.7-0.4,1.4-0.7,2.2-1.1c-0.6-2.4-0.6-5.1-1.9-7.1c-7.8-12.2-1.9-22.5,4.3-32.7c0.9-1.5,2.9-2.9,4.6-3.3c12.7-3,25.5-5.8,38.2-8.7
		c0.2,0.5,0.4,0.9,0.6,1.4c-1.5,1.2-3,2.4-4.5,3.6c-8.5,7.6-8.5,18.9,0.5,25.9c3.8,2.9,8.4,4.8,12.9,6.5c1.4,0.6,3.7-0.5,5.3-1.3
		c0.5-0.2,0.6-2.9,0.2-3c-1.7-0.8-3.8-1.8-5.4-1.4c-4,1.1-7.2,0.5-10.2-2.3c-4.8-4.4-7.6-9.6-5.3-16.2c2.7-7.4,8.2-12.6,15.8-13.2
		c11.5-1,22.9,1.1,34,5.3c-2.8,2.1-6.5,3.5-7.8,6.1c-1.4,2.8-1.5,6.9-0.6,10c1.9,6.9,10.3,13.5,17.2,12.4c-2.8-2-4.5-3.1-6.1-4.3
		c-2.4-1.8-5.2-3.3-7-5.6c-2.8-3.6-3.7-7.9-0.5-11.9c3.3-4.3,8.3-4.7,12.2-2.5c5.7,3.2,11.2,7.2,15.7,11.9
		c17.9,18.5,29,41.2,38.9,64.4c8.4,19.7,16.8,39.3,30.5,56c0.6,0.7,0.9,1.6,2.1,4c-14-8.8-27.4-14.9-42.1-17.7
		c-35.8-6.8-71.7-10.4-107.9-3.2c-4.4,0.9-8.9,1.1-13.4,1.4c-10.5,0.8-19.8-4.8-22.4-13.5c-1.5-4.9-0.6-9.4,3.2-12.9
		c2.8-2.6,6-4.1,10.4-1.9c-0.9,1.3-1.9,2.1-2.1,3.1c-0.3,2.3-1.2,5.4-0.1,6.7c1.3,1.6,4.6,2.4,6.7,2c1.5-0.3,3.3-3.2,3.5-5.1
		c0.7-7.4-6.7-12.8-13.8-10.6c-8.8,2.8-13.3,13.9-9,22c4,7.4,10,11.9,18.5,12.7c3.2,0.3,6.5,0.3,10,1.1
		c-16.3,6.6-27.1,20.3-40.8,30.1c-6.2,4.4-13.8,7.2-21.2,9.5c-2.5,0.8-6.7-2-9.1-4.3c-0.9-0.8,1.1-4.7,1.8-7.2
		c0.6,0.1,1.1,0.2,1.7,0.2c0.9,1.4,1.9,2.7,2.8,4.1c0.6,0,1.3,0.1,1.9,0.1c0.3-2.4,0.5-4.9,0.8-7.3c-2.4,0-5.5-1-7.2,0.1
		c-6.5,4.1-5.8,12.6,1.3,15.1c3.7,1.3,8.9,1.7,12.3,0.1c8.4-4,17.3-8.2,23.9-14.5c28.3-27.4,62.4-34.9,100.2-31.3
		c5.1,0.5,10.1,1.2,15.1,1.9c0.7,0.1,1.3,0.6,3,1.3c-14.3,4.4-25.6,11.6-34.3,22.7c-11.9,15.3-12.1,37.5,0,52.3
		c2.3,2.8,5.3,5.7,8.6,6.7c2.8,0.9,6.7-0.4,9.5-1.9c0.7-0.4-0.1-5.5-1.5-7.7c-2-3.1-4.9-5.6-7.7-8c-14.2-11.9-16.4-31.2,2.9-49.1
		c-1,3.9-2.7,7.8-3,11.7c-0.7,10.1,8.1,22.2,17.9,25.3c1.3,0.4,2.9,0.9,4,0.5c2.4-0.9,4.6-2.3,6.8-3.5c-1.5-2-2.6-4.7-4.5-6
		c-3.4-2.2-7.5-3.4-11.1-5.3c-10-5.2-12.1-16.7-4.5-25.2c5.6-6.3,13.3-8.7,21.2-10.6c3.8-0.9,7.4-2.3,11.2-3.4
		c0.2,0.9,0.4,1.8,0.6,2.7c-1.2,0.6-2.5,1.3-3.7,1.9C3788.5,597.7,3788.5,597.9,3788.6,598.1z"/>
	<path class="st1" d="M3830,638.4c7.6-4.6,15.3-9.3,23.6-14.3c-11.7-6.8-20.6-6.4-29.4,0.7c-3.3,2.7-6.4,5.8-9.9,8.2
		c-3.3,2.2-7.2,3.5-10.5,5.1c3.3,2.8,20.7,8,28.2,8c12.3,0,17.1-9.9,23.6-17.9C3847.4,633.2,3839.7,639.3,3830,638.4z"/>
	<path class="st1" d="M3887.1,460.3c-7.4,2.3-13.8,5.2-20.4,6.1c-10.1,1.4-12.4,8.4-15,17.9c7.4-2.3,13.6-4.1,20.2-6.2
		c-3.4,6.6-10.5,6.6-15.9,9.4c7.2,3.7,16.8,1.4,21.3-5.4c1.7-2.6,3.3-5.3,4.5-8.2C3883.7,469.6,3885.2,465.1,3887.1,460.3z"/>
	<path class="st1" d="M3796.9,529.6c-8.6-7.4-15.2-7.8-23.3-2.7c-5.7,3.5-11.7,6.5-17,9.4c15.8,13.2,30.2,12.7,41.9-3.3
		c-7.2,2.5-13.1,7.7-21.4,5.5C3784,535.5,3790,532.7,3796.9,529.6z"/>
	<path class="st1" d="M3718.7,428.2c5.9-1.6,11.4-3.1,16.9-4.5c0.2,0.4,0.4,0.8,0.6,1.3c-4.7,2.3-9.4,4.5-13.7,6.6
		c7.6,3.4,15.3,1.3,19.3-6.4c2.7-5.1,4.5-10.7,6.9-16.4c-6.7,1.8-12.5,3.6-18.4,5.1C3721.9,415.8,3720.1,417.7,3718.7,428.2z"/>
	<path class="st1" d="M3603.7,484.6c18.7,5,29.3,1.5,37.1-12.8c-5.6,3.2-11.2,6.4-16.8,9.7c-0.2-0.3-0.3-0.7-0.5-1
		c5-3.8,9.9-7.7,15.8-12.2c-9.9-2.7-17.1-1.2-23.4,5.1C3612,477.3,3607.6,481,3603.7,484.6z"/>
	<path class="st1" d="M3680.4,386.1c-11.7,10.9-14.5,21.8-5.8,28c-0.1-4.3-0.3-8.6-0.4-13c0.5-0.1,1-0.1,1.5-0.2
		c1,4.8,2.1,9.7,3.2,14.9c6.9-4.8,8.5-9.6,6.2-16.1C3683.4,395.2,3682,390.7,3680.4,386.1z"/>
	<path class="st1" d="M3886.7,575.5c-11.4-11.4-19.8-14.4-29.2-5.5c4.8-0.3,9.2-0.6,13.7-0.9c0.1,0.5,0.2,0.9,0.2,1.4
		c-4.8,1.2-9.6,2.5-14.8,3.8c6.2,7.2,10.1,8.2,17.9,5.4C3878.5,578.2,3882.7,576.9,3886.7,575.5z"/>
	<path class="st1" d="M3741.3,583.2c8.8-4.4,10.6-7.6,9.9-15.5c-0.4-4.6-0.4-9.1-0.6-13.5c-15.1,9.5-18.3,15.5-13.1,26.3
		c1.1-4.6,2-8.6,3-12.6c0.5,0.1,1,0.2,1.5,0.3C3741.7,573,3741.5,577.9,3741.3,583.2z"/>
	<path class="st1" d="M3834.6,416.3c5-0.3,9.3-0.6,13.7-0.8c0.1,0.5,0.2,1,0.4,1.5c-4,1-7.9,2-11.5,2.9c8.5,6,15.8,2.2,25.3-14.3
		C3852.6,408.5,3840.3,401.2,3834.6,416.3z"/>
	<path class="st1" d="M3939.3,571.2c-5.3-8.6-21.6-6.5-29.6,4.5c-11.4,15.6-12,33-7.4,51c1.3,5,3.6,9.6,6.7,14
		c-1.9-7.4-4.2-14.7-5.8-22.2c-3.3-15.5,0.7-29.4,10.4-41.8C3920.7,567.8,3928.8,565.9,3939.3,571.2z"/>
	<path class="st1" d="M3705.7,554.8c-6.5,16.4-5.6,23.1,4.6,30.3c-1.7-4.6-3.4-8.9-5-13.3c0.4-0.2,0.8-0.3,1.2-0.5
		c2.2,3.9,4.4,7.9,6.8,12.1c4.4-6.9,4.3-11.5,0.2-17.2C3710.8,562.5,3708.3,558.6,3705.7,554.8z"/>
	<path class="st1" d="M3811,393.6c-11.2-5.8-14.8-4.7-27.1,8.3c9.3-1.5,19.1,7.2,27.4-4.3c-4.1-0.9-7.7-1.7-11.3-2.5
		c0-0.4-0.1-0.7-0.1-1.1C3803.3,393.9,3806.7,393.8,3811,393.6z"/>
	<path class="st1" d="M3799.3,359.6c4.1,0.8,7.1,1.4,10.1,2c0,0.4,0,0.8,0,1.2c-2.6,0.1-5.2,0.2-7.7,0.3c6.4,6.2,15.1,3.3,21.6-7.7
		C3815.2,355.8,3806.3,348.3,3799.3,359.6z"/>
	<path class="st1" d="M3706.9,596.3c0.9,4.5,1.6,8,2.3,11.5c-0.3,0.1-0.6,0.3-1,0.4c-1.3-3-2.6-6-3.8-9c-4.2,7.6,0.8,14,15.2,19
		C3715.6,610.5,3719.9,599.8,3706.9,596.3z"/>
	<path class="st1" d="M3793.2,569.3c-4.1,5.9-2.7,13.6,3,17.6c5.7,4,13.4,2.4,17.4-3.7c3.8-5.7,2.3-13.4-3.3-17.1
		C3804.5,562.4,3797.1,563.7,3793.2,569.3z M3795.1,570.8c3.2-4.5,9.6-5.3,14.1-1.9c4.1,3,5.1,8.9,2.3,13.1c-3.1,4.5-9.6,5.7-14,2.4
		C3793.2,581.2,3792.1,575,3795.1,570.8z"/>
	<path class="st1" d="M3788.4,597.5c-9.7,1.2-15.6,8.5-13.8,17.1c1,5.1,5.7,9.2,10.2,8.6c1.4-0.2,3.1-1.5,3.8-2.8
		c0.4-0.7-0.8-2.9-1.9-3.6c-3.7-2.3-9.5-3.6-7.1-9.4c1.5-3.5,5.6-6,8.5-8.9c0.1-0.1,0.3-0.3,0.4-0.4
		C3788.5,597.9,3788.5,597.7,3788.4,597.5z"/>
	<path class="st1" d="M3880.8,537c4.2-5.9,2.9-14-2.8-18.2c-5.6-4.1-14.1-2.7-18.2,3.1c-4.3,6-2.8,14.3,3.4,18.5
		C3868.9,544.3,3876.6,542.8,3880.8,537z M3861.6,523.4c3.4-4.8,10.2-6,15.1-2.7c4.7,3.2,5.7,10.4,2.3,15.1
		c-3.4,4.7-10.4,5.7-15.1,2.1C3859.2,534.5,3858.2,528.2,3861.6,523.4z"/>
	<path class="st1" d="M3861.9,649.5c-3.3,4.8-1.8,11.8,3.1,15c4.5,2.9,10.7,1.5,14-3.1c3.4-4.7,2.2-11.2-2.6-14.5
		C3871.6,643.7,3865,644.9,3861.9,649.5z M3865.7,662.2c-3.5-2.5-4.5-8.3-1.7-11.5c3.1-3.6,7-4.2,11-1.7c3.9,2.4,4.7,7.6,2.1,11.3
		C3874.4,664,3869.5,664.8,3865.7,662.2z"/>
	<path class="st1" d="M3795.7,354.8c7.9-6.3,1.8-12.5,1.7-19c-8,8.8-9,12.7-4.8,18.1c0-2.1,0-3.9,0-5.7c0.3-0.1,0.6-0.2,0.9-0.2
		C3794.1,349.9,3794.8,352,3795.7,354.8z"/>
	<path class="st1" d="M3708,441c-4.2-2.9-9.4-1.9-12.2,2.4c-2.7,4.1-1.6,9.8,2.4,12.4c3.9,2.6,9.7,1.4,12.4-2.6
		C3713.4,449.1,3712.3,444,3708,441z M3697.5,452.9c0-2.2-1.1-5.8,0.2-8.3c1.9-3.8,6-4.3,9.5-1.8c3.2,2.3,4,5.8,1.7,9.2
		C3706.4,455.6,3702.9,456,3697.5,452.9z"/>
	<path class="st1" d="M3600.9,392.6c-2.5,0.3-5,0.8-7.5,0.8c-6.6-0.1-8.4-3.2-5.2-9c0.6-1.2,1.3-2.3,1.9-3.5c-0.3-0.5-0.6-1-0.9-1.5
		c-1.7,0.9-4.7,1.7-4.8,2.8c-0.3,3.2-0.6,7.3,1.1,9.6c3.7,5.1,9.6,5,15.3,0.6C3600.9,392.4,3600.9,392.6,3600.9,392.6z"/>
	<path class="st1" d="M3866.3,526.5c1,2.7,1.2,4.8,2.3,5.7c0.8,0.6,4-0.1,4.3-0.8c0.5-1.4,0.1-3.7-0.9-4.8
		C3871.3,525.8,3869,526.5,3866.3,526.5z"/>
</g>
<g>
	<g>
		<g>
			<path class="st1" d="M2016.5,584.1c29.4-1.7,57.1-2.8,84.7-5.1c19.1-1.6,37.9-5.7,55-14.9c19.1-10.2,29.6-27,30.7-48
				c0.8-15.7-7.7-28.7-21.6-37c-6.6-3.9-13.6-3.8-20.4,0c-1.6,0.9-3.2,2.3-4.9,2.7c-1.5,0.3-3.3-0.4-4.9-0.7
				c0.4-1.6,0.5-4.5,1.4-4.7c5.2-1.6,11-4.5,15.9-3.4c8.4,1.8,16.2,6.1,23.7,9.1c2.4-9.5,4.9-20.7,8-31.7c1.6-5.8,3.5-11.5,6.2-16.8
				c3.8-7.5,11.8-11,18.8-9.1c5.3,1.5,7.5,5,6.1,11.1c-0.8-5.3-2.7-9.2-7.9-9.4c-6.4-0.3-11.9,2.7-14.4,8.1
				c-3.5,7.4-5.6,15.6-8.3,23.4c0.6,0.3,1.2,0.6,1.8,0.9c2.3-2,4.6-4.1,7-5.9c8.3-6,16.9-6.5,24-1.4c7.4,5.3,11,16.4,8.1,25.1
				c-2.7,8.3-13.2,11.8-20.3,6.8c-5.1-3.6-6.3-10.9-1.7-15.2c1.7-1.6,5.8-2.7,7.7-1.8c3.4,1.6,2.9,5.1,0.6,7.9c-1.1-2.1-2-4.2-3.3-6
				c-0.2-0.2-3.1,0.8-3.6,1.8c-0.8,1.4-1.4,4.3-0.6,5.1c2.5,2.5,5.3,5.3,8.5,6.2c4.1,1.1,7.5-1.6,9.4-5.5c2.8-5.7,0.9-14-4.4-19.8
				c-4.7-5.1-9.4-6.1-16.3-3.3c-12.4,4.8-26.9,22.4-17,41.2c9.6,18.4,6.9,35.4-3.5,52.2c-1.4,2.3-2.5,4.7-2.8,7.9
				c1.3-0.5,2.7-0.9,3.9-1.6c28.7-17.9,54.4-39.3,75.6-65.8c9.6-12,9.1-25.5,2.5-38.7c-5.6-11.3-11.4-13.4-24.3-11
				c4.6-4.9,10.8-5.8,16.8-1.7c10.4,7.1,14.1,18.1,16,29.8c0.4,2.5,0.5,5,0.8,7.6c0.5,0.1,1.1,0.2,1.6,0.4c2.6-6.3,6-12.4,7.7-18.9
				c4.5-17.7,7.9-35.6,5.4-53.9c-1.9-14.5-8-27-21.3-34.6c-10.8-6.1-21.9-0.7-21.8,10.3c0,0.8,0.4,1.7,0.9,3.4
				c2-1.2,3.4-2.4,5.1-2.9c1.6-0.4,4.1-0.7,5.1,0.1c1,0.9,1.4,3.6,0.8,5.1c-1.8,4.7-5.9,6.1-10.5,5.8c-4.4-0.3-5.9-3.6-6.3-7.4
				c-1.4-12.2,10.5-22.6,22.6-19.7c13,3.1,19.7,13.1,25.2,24c6.2,12.5,5.5,25.9,4.3,39.2c-0.8,9.3-2.1,18.6-3.3,28.4
				c1.3-0.8,2.3-1.1,3-1.8c6.1-6.2,13.6-8.1,22-8.4c4.4-0.2,9-1,13.1-2.5c7.7-3,8.1-8.2,1.3-13.2c-2-1.5-3.9-3.1-5.9-4.7
				c0.1-0.8,0.2-1.5,0.4-2.3c3.1-0.2,6.5-1.5,9-0.4c2.4,1,4.9,4.2,5.4,6.9c2,9.8-3.6,16.8-14.1,18.6c-0.7,0.1-1.5,0.3-2.2,0.2
				c-17.7-2.2-27.5,8-35.9,21.7c-12.9,20.9-29.8,38.4-48.6,54.2c-10.5,8.8-20.5,18.2-30.8,27.2c-19.6,17.2-42.8,26.5-68.1,31.5
				c-31.9,6.4-64.1,9.5-96.7,9.4c-1.2,0-2.5,0.2-3,0.2c9.8,5.3,19.9,11.1,30.2,16.4c8.7,4.4,18,6.5,27.7,3.1c2.1-0.7,4.5-1.5,5.9-3
				c1.7-1.7,3.5-4.4,3.4-6.4c-0.1-1.4-3.7-2.5-6.7-4.4c0,2.6,0.3,4.4-0.1,4.5c-1.4,0.7-3.1,0.8-4.7,1.1c-0.1-1.3-0.8-2.9-0.2-3.8
				c2.2-3.3,10.2-4.5,13.4-2.2c3.3,2.3,3.6,7.1,0,10.2c-7.2,6.3-15.6,8.7-25.1,7.1c-6.6-1.1-13.3-2.4-19.2-3.5
				c-1.3,4.3-3,10.2-4.7,16.1c0.6,0.3,1.2,0.6,1.8,0.9c2.5-1.2,5.1-2.4,8-3.8c-0.8,4.6-5.8,8.2-9.1,6.9c-4.4-1.7-4-5.3-2.8-8.9
				c0.2-0.7,0.6-1.4,0.9-2c4.2-9.2,3.7-11-4.3-17.3c-12.9-10.2-33.2-11.7-47.8-3.5c-11.3,6.3-22.3,13.2-29.7,24.6
				c-1.8-1.3-3.1-2.2-3.9-2.8c3.3-6.4,6.1-12.6,9.6-18.2c1.4-2.3,4.6-3.5,7.8-5.8c-0.1,2.6-0.2,4.1-0.3,6.6
				c14.3-16,34.2-21,51.4-30.8c3.3-1.9,6.5-3.7,9.6-5.9c16.3-11.8,19.5-33.2,7.7-49.7c-6.5-9.2-12.6-18.6-18.4-28.2
				c-3.1-5.2-5.1-11-2.5-17.2c1.6-4,4.6-6.5,9-6.3c4.5,0.2,7.4,2.9,8.5,7c0.5,1.7-0.1,4.9-1.1,5.4c-2,0.9-4.6,0.3-7,0.4
				c0.5-2.4,0.9-4.8,1.7-8.8c-0.7-0.2-3.7-2.1-4.8-1.3c-2.3,1.7-5.2,5.1-4.9,7.2c1.1,6.3,2.6,13,5.9,18.5c5.6,9.4,12.6,18,19.5,27.6
				c0.5-4.3,0.7-7.8,1.3-11.2c1.5-8.5,6.4-14.2,14.6-17.1c7.4-2.6,16.2,1.7,18.8,9.1c2.3,6.7-1.9,13.7-8.8,13.8
				c-2.1,0-5.3-1.5-6.2-3.2c-0.8-1.5,0.4-5.3,1.9-6.3c1.6-1,4.6-0.1,6.9,0.2c0.8,0.1,1.4,1,2.4,1.7c2.7-3.7,1-6.7-1-9.3
				c-2.9-3.8-6.8-5.1-11.5-4.3c-8.6,1.6-14.8,9.9-14.8,20.1c0,7.5,0.1,15,0.3,22.5c0.5,14.1-4.9,25.3-16.8,32.9
				C2036.7,572.7,2027.2,577.9,2016.5,584.1z"/>
			<path class="st1" d="M2122.4,615.2c-7.2-19.4-4.4-24.7,18.8-35.7c-5.1,6.6-13,9.8-14,17.7c6.3-5.6,12.7-11.3,19.4-17.2
				c3.5,7.9,3,12-2.2,16.7c-3.9,3.5-8.4,6.2-12.4,9.6C2128.5,609.1,2125.4,612.4,2122.4,615.2z"/>
			<path class="st1" d="M2178.9,502c-7.5,0.7-14.2-0.3-20.3,5c7.2-0.4,13.4-0.8,19.8-1.2c-1.8,8.6-8.2,13.4-16.1,13
				c-6.8-0.4-13.6-0.5-19.8-0.7C2155.7,496.7,2161.8,494.1,2178.9,502z"/>
			<path class="st1" d="M2019.6,556.7c6.1-18.2,13.5-22.8,31.5-19c-6.1,1.9-12,3.7-18,5.6c0.2,0.5,0.3,1,0.5,1.4
				c6.8-1.2,13.5-2.5,20.8-3.8c-2.2,9-5.8,12.1-13.6,13.1C2033.7,554.9,2026.6,555.8,2019.6,556.7z"/>
			<path class="st1" d="M2248.3,511.4c15.9-9.4,23.4-7.7,35.6,6.9c-6.7,1.6-13.8,3.3-20.9,4.9c-7.5,1.7-12-0.2-16.5-7.8
				c7.3-1.1,14.2-2.1,20.5-3.1C2265.4,510.5,2265.4,510.5,2248.3,511.4z"/>
			<path class="st1" d="M2117.2,570c-5.7-16-2.4-23.5,13-30.4c0.2,5.7,0.3,11.7,0.7,17.7c0.5,7.1-2.6,11.7-10.2,15.3
				c0.2-7,0.4-13.1,0.6-19.2c-0.4-0.1-0.8-0.2-1.1-0.3C2119.2,558.8,2118.2,564.3,2117.2,570z"/>
			<path class="st1" d="M2100.4,543.5c-5.8,1.4-11.5,2.8-17.3,4.2c-7.6,1.9-11,0.7-16.2-6.5c6.6-1.1,12.7-2.2,19.5-3.3
				c-5.5-2.7-10.8-1.1-16.3-0.4C2080.5,528.5,2090.7,530.7,2100.4,543.5z"/>
			<path class="st1" d="M2238.2,519c-1.2,2.9-2.3,5.5-3.4,8.1c0.3,0.2,0.6,0.4,0.9,0.6c1.8-2.3,3.6-4.6,5.7-7.2
				c7.5,11.1-3.9,15.9-6.4,23.6C2227.7,533.4,2228.8,524.8,2238.2,519z"/>
			<path class="st1" d="M2068.9,576.2c-4.9,2.8-10.9,1.3-13.7-3.5c-2.9-5-1.5-10.8,3.4-13.6c4.7-2.7,11-1.2,13.8,3.4
				C2075.2,567.1,2073.5,573.6,2068.9,576.2z M2060.2,560.7c-3.9,2.1-5.3,6.8-3.3,10.6c2.1,3.9,6.8,5.3,10.6,3.1
				c3.5-2,5-6.8,3.3-10.3C2068.9,560.4,2063.9,558.8,2060.2,560.7z"/>
			<path class="st1" d="M2213.9,513.2c2.9,4.9,1.5,10.8-3.2,13.7c-4.7,2.9-10.9,1.5-13.8-3.1c-2.8-4.6-1.3-10.9,3.3-13.7
				C2205,507.1,2211.1,508.5,2213.9,513.2z M2201.4,511.8c-3.7,2.3-4.8,7.1-2.4,10.8c2.4,3.7,7.1,4.7,10.8,2.3
				c3.5-2.3,4.5-6.8,2.4-10.4C2210,510.9,2204.9,509.6,2201.4,511.8z"/>
			<path class="st1" d="M2294,465.5c-2.6-4.7-1-10.5,3.6-13.1c4.5-2.5,10.6-0.8,13.1,3.8c2.4,4.5,0.5,10.5-4.1,13
				C2302.1,471.5,2296.5,469.9,2294,465.5z M2309,457.2c-2.3-4-6.8-5.2-10.6-2.9c-3.5,2.2-4.8,6.8-2.9,10.3c2.1,3.8,6.9,5,10.7,2.8
				C2309.9,465.2,2311.1,460.9,2309,457.2z"/>
			<path class="st1" d="M2208.8,441.9c-1.6-1.6-3.9-2.9-4.7-4.8c-0.5-1.3,1-3.5,1.7-5.3c1.1,0.5,2.1,1.1,3.2,1.6
				c-0.8,1.4-1.6,2.8-2.9,5c0.9,0.6,2.4,1.4,3.8,2.3C2209.6,441,2209.2,441.5,2208.8,441.9z"/>
		</g>
		<g>
			<path class="st1" d="M2040.2,660.6c-2.4,1-4.8,2.3-7.3,3c-1.4,0.4-3.1,0.1-4.4-0.4c-0.9-0.4-1.8-1.7-1.9-2.7
				c-0.1-0.7,1.1-1.8,1.9-2.3c1.3-0.7,2.9-1.2,4.4-1.5c9.7-2.3,13.2-6.9,12.9-17c0-1.3-0.2-2.6-0.7-4c-0.2,0.6-0.6,1.2-0.7,1.9
				c-1.4,7.8-9.8,10.3-15.1,9c-1.4-0.3-2.4-2.1-3.5-3.2c1.4-0.6,2.8-1.5,4.2-1.6c2.1-0.2,4.2,0.3,6.3,0.1c5.5-0.6,8.1-4.6,6.7-9.9
				c-1.3-4.7-4.5-7.9-8.6-10.6c2.6,3.3,2.8,6.5,0.6,9.9c-1.4,2.1-3.4,2.8-5.8,2.1c-0.8-0.2-1.3-1.3-1.9-2c0.7-0.5,1.4-1.4,2.2-1.4
				c1.9-0.2,4.3,0.6,5-2c0.8-3-0.8-5.4-3.1-7.2c-4.5-3.8-10.1-5-15.7-5.8c-3.7-0.6-7.4-0.5-11.1-0.8c-0.1,0.4-0.2,0.8-0.3,1.2
				c2,0.9,4.2,1.7,6,2.9c2.9,1.9,6,3.8,8.3,6.3c2.4,2.6,2.1,6.1,0,8.9c-2.5,3.2-6,4.4-10,4.2c-2.9-0.2-5.3-1.9-5.9-4.6
				c-0.4-2.1-0.3-4.9,0.8-6.4c1-1.4,3.7-1.9,5.7-2.2c0.8-0.1,2.7,1.4,2.7,2.1c0,1.3-0.8,3.1-1.8,3.8c-0.6,0.5-2.4-0.6-3.6-1
				c-0.4-0.2-0.7-0.8-1-1.2c-2.4,2.5-1.5,5.9,1.7,7.5c3.3,1.7,8.4,0.2,10.5-3.2c2.3-3.8,1.7-6.7-2.4-9.3c-7.6-4.8-16.1-6.6-25-6.6
				c-4.5,0-9.1-0.3-13.6-0.7c-1.3-0.1-2.4-1-3.6-1.6c0.8-2.9,2.4-2.3,4.1-2c13.7,2.4,26.2,0.1,37-9.2c1.8-1.6,3.4-3.5,5.1-5.2
				c0.7-0.7,1.4-1.4,2.4-1.8c-3.7,6.4-8.7,11.5-15.4,15.8c1.3,0.3,1.9,0.5,2.6,0.7c6.6,1.4,13.4,2.1,19.7,4.4
				c11.1,4.1,17.7,12.5,19.4,24.4c0.8,5.7-1,10.9-3.8,15.8C2042.8,658.1,2041.5,659.4,2040.2,660.6z"/>
			<path class="st1" d="M1981.9,631.9c0.6-2.6,1.4-5.1,1.7-7.6c0.4-3.7,2.5-5.4,6.6-6.2c-0.6,2.7-1.2,5.1-1.8,7.5
				c0.2,0.1,0.4,0.2,0.5,0.3c1-2,2-3.9,3-5.8C1994.4,625.3,1990.7,629.4,1981.9,631.9z"/>
		</g>
	</g>
	<g>
		<path class="st1" d="M2193.1,609.6c6.6-2.8,12.5-5.7,18.7-7.9c5.1-1.8,10.5-1.9,13.6,3.7c0.9,1.7,1.1,4.5,0.4,6.2
			c-0.6,1.5-3,2.1-4.7,3.2c-0.3-0.5-0.6-0.9-1-1.4c0.5-0.7,1-1.6,1.7-2.1c3.9-2.4,4.2-5.6,0-7.2c-3-1.1-7-1.6-10-0.6
			c-24.3,7.9-31.7,17.2-32.9,44.5c-0.1,3.3,0.6,6.6,0.7,9.8c0.1,1.8-0.4,3.6-0.6,5.4c-0.5,0-0.9,0-1.4,0.1c-0.6-2-1.5-3.9-1.6-5.9
			c-1.1-22.4,4.3-42.6,22-57.8c21.8-18.6,60.2-16.6,78.4,3.9c7.5,8.5,11.6,18.4,8.9,30.1c-2.5,11.1-13.7,20.9-25,21.3
			c-3.5,0.1-7.5-1.2-10.5-3c-4.4-2.7-3.9-7.6,1.1-9.4c3.3-1.2,7.4-1.4,11-0.8c10.9,1.8,15.6-0.9,18.3-11.8
			c3.5-14.1-4.3-28-19.8-35.3c-21.9-10.3-50-4.7-66.3,13.1C2193.7,608.4,2193.5,608.8,2193.1,609.6z"/>
		<path class="st1" d="M2173,568.6c17.1,5.9,20.8,10.2,20.5,25.9c-2.7-5.5-5-10.2-7.3-14.9c-0.5,0.2-0.9,0.4-1.4,0.6
			c2,5.5,4,11,6,16.7c-7.1-0.4-10.7-3.1-12.5-9.2C2176.5,581.3,2174.8,574.9,2173,568.6z"/>
		<path class="st1" d="M2210.5,649.5c-4,1.2-7.6,1.9-10.8,3.4c-5,2.3-8.8,0.8-12.9-3.7c3.9-1.3,7.4-2.4,10.9-3.5
			c0-0.3-0.1-0.7-0.1-1c-3.2,0.2-6.5,0.4-9.5,0.6C2193.8,637.5,2200.7,641.2,2210.5,649.5z"/>
		<path class="st1" d="M2237.7,611c7.5,7.8,7.7,18,0.9,25.1c-1,1-2.2,2.2-3.5,2.5c-1.2,0.3-2.7-0.4-4-0.7c0.3-1.2,0.5-2.4,1-3.5
			c0.2-0.6,0.8-1,1.3-1.4C2241,627,2243.8,620,2237.7,611z"/>
		<path class="st1" d="M2223.1,623.8c3.7-5,12.4-3.4,12.5-11.4c2.2,4.4,0,7.2-2.6,9.7C2230.5,624.5,2227.6,626.3,2223.1,623.8z"/>
	</g>
</g>
<path class="st1" d="M1822.7,0h-0.9c0.3-0.3,0.5-0.7,0.8-1C1822.7-0.7,1822.7-0.3,1822.7,0z"/>
</svg>
