<?xml version="1.0" encoding="UTF-8"?>
<svg id="Layer_1" data-name="Layer 1" xmlns="http://www.w3.org/2000/svg" version="1.1" viewBox="0 0 1280 280">
  <defs>
    <style>
      .cls-1 {
        fill: #c2dbc5;
      }

      .cls-1, .cls-2 {
        stroke-width: 0px;
      }

      .cls-2 {
        fill: #f5faf7;
      }
    </style>
  </defs>
  <rect class="cls-1" width="1280" height="280"/>
  <g>
    <path class="cls-2" d="M23.4,233.8c-7.4,2.3-15,4.1-23.4,6.2v-3.7c4.9-.8,9.8-1.6,14.6-2.8,3-.8,6.1-1.5,9.1-2.6,15.9-5.8,23.2-22.5,17.5-38.4-3.2-8.9-6-17.9-8.5-27-1.3-4.9-1.6-10,1.8-14.5,2.2-2.9,5.2-4.2,8.7-3.1,3.6,1.1,5.3,4,5.3,7.6,0,1.5-1.2,4-2.1,4.1-1.8.3-3.8-.8-5.7-1.3.9-1.8,1.8-3.7,3.3-6.7-.5-.3-2.5-2.5-3.6-2.1-2.2.8-5.4,2.9-5.6,4.7-.6,5.4-.8,11.1.6,16.2,2.4,8.9,6.1,17.4,9.5,26.7,1.4-3.4,2.3-6.1,3.6-8.8,3.1-6.5,8.4-10.1,15.6-10.5,6.6-.4,12.7,5.1,13.1,11.6.4,5.9-4.6,10.7-10.2,9.1-1.7-.5-3.9-2.4-4.2-4-.3-1.4,1.5-4.2,2.9-4.6,1.5-.5,3.7.9,5.6,1.7.6.3.9,1.1,1.5,1.9,3-2.4,2.3-5.2,1.3-7.8-1.5-3.7-4.4-5.7-8.3-6-7.3-.6-14.2,4.7-16.5,12.9-1.7,6.1-3.3,12.2-4.8,18.3-2.8,11.5-9.7,19.4-21,22.8h0Z"/>
    <path class="cls-2" d="M287.7,184.2c-.6,8.4-6.7,12.8-15.6,11.9-.6,0-1.3,0-1.9-.3-13.8-5.8-24,.3-33.9,9.5-15.2,14-32.8,24.4-51.5,32.9-10.4,4.8-20.6,10.1-31,15-19.7,9.5-40.6,11.7-62.2,10.1-27.2-2.1-54-6.7-80.3-14.2-1-.3-2.1-.4-2.5-.5,6.7,6.5,13.6,13.5,20.8,20,6.1,5.6,13.1,9.3,21.7,8.7,1.9-.1,3.9-.2,5.5-1.1,1.8-1,3.8-2.7,4.2-4.4.2-1.2-2.4-2.8-4.4-5-.6,2.1-.7,3.6-1.1,3.6-1.3.2-2.7,0-4-.1.2-1.1,0-2.5.7-3.1,2.5-2.2,9.2-1.3,11.4,1.3,2.2,2.6,1.3,6.5-2.3,8.2-7.2,3.5-14.6,3.5-21.9,0-5.1-2.4-10.2-5-14.7-7.2-1.8,2.8-4.1,6.6-6.4,10.4h0s-3.1,0-3.1,0c.3-1,.9-2,1.5-2.9.3-.5.8-1,1.2-1.4,5.5-6.5,5.5-8,.5-14.9-4.3-5.9-10.9-10.4-18.3-12.7v-5.9c22.6,5,43.9,9.9,65.5,14.1,15.8,3,31.9,3.9,47.9.4,17.8-3.9,30.1-15.2,35.6-31.9,4.2-12.5.3-25-9.2-34.8-4.4-4.6-10.2-6.2-16.5-4.6-1.5.4-3.1,1.1-4.6,1.1-1.3,0-2.5-1.1-3.8-1.7.7-1.2,1.4-3.5,2.2-3.5,4.6-.1,9.9-1.1,13.6.8,6.4,3.3,11.7,8.6,17.1,12.7,4-7.1,8.6-15.6,13.6-23.9,2.6-4.3,5.4-8.5,8.8-12.2,4.8-5.2,12.1-6.2,17.2-3.1,4,2.4,4.9,5.7,2.4,10.4.5-4.5-.1-8-4.3-9.4-5.1-1.7-10.2-.5-13.5,3.3-4.5,5.2-8,11.3-12,17.1.4.4.8.7,1.3,1.1,2.3-1.1,4.6-2.3,7-3.2,8-3,15.1-1.4,19.7,4.3,4.8,5.9,5.2,15.7.9,22.2-4,6.1-13.3,6.6-17.9.9-3.3-4.1-2.6-10.2,2.1-12.6,1.8-.9,5.3-.9,6.6.3,2.4,2.1,1.2,4.8-1.3,6.5-.4-2-.7-3.8-1.3-5.6,0-.2-2.7,0-3.4.6-1,1-2.1,3.1-1.6,4,1.4,2.6,3.1,5.5,5.5,6.9,3.1,1.8,6.4.4,8.9-2.3,3.5-3.9,3.9-11.1.9-16.9-2.7-5.2-6.2-7-12.5-6.4-11.1,1.1-26.8,12.1-23.1,29.5,3.6,17-2.4,30.2-14.6,41.4-1.6,1.5-3.1,3.2-4,5.7,1.2-.1,2.4,0,3.5-.4,27.2-8.1,52.8-19.5,75.9-36.2,10.5-7.6,13.1-18.6,10.8-30.7-2-10.4-6.1-13.4-17.1-14.3,4.8-3,10-2.2,13.9,2.4,6.8,8.1,7.3,17.8,6.2,27.7-.2,2.1-.7,4.2-1.1,6.3.4.2.8.4,1.3.7,3.5-4.5,7.6-8.7,10.4-13.6,7.6-13.2,14.4-27,16.5-42.4,1.7-12.2-.4-23.6-9.5-32.8-7.3-7.4-17.5-5.5-19.9,3.4-.2.7,0,1.5,0,3,1.9-.5,3.3-1.2,4.8-1.2,1.4,0,3.5.3,4.1,1.2.6,1,.3,3.2-.5,4.3-2.5,3.4-6.1,3.6-9.8,2.3-3.5-1.2-3.9-4.2-3.4-7.4,1.7-10.1,13.6-15.9,22.7-10.9,9.8,5.4,13,15,14.9,25.1,2.2,11.5-1.4,22.2-5.3,32.7-2.8,7.3-5.9,14.5-9.1,22.2,1.2-.3,2.1-.4,2.8-.8,6.3-3.6,12.8-3.5,19.7-1.9,3.6.9,7.5,1.2,11.1.9,6.9-.7,8.4-4.8,4.1-10.4-1.3-1.7-2.4-3.4-3.7-5.1.3-.6.5-1.2.8-1.7,2.5.5,5.6.3,7.4,1.7,1.7,1.4,3,4.5,2.8,6.8h0Z"/>
    <path class="cls-2" d="M96.5,280h-22.1c1.2-8.9,7.1-11.7,23.3-14.5-5.6,4.2-12.7,5-15.3,11.1,6.4-3.1,12.8-6.3,19.5-9.6,1,7.1-.3,10.3-5.4,12.9h0Z"/>
    <path class="cls-2" d="M145.6,211.4c-6.3-1.1-11.4-3.4-17.5-.5,5.9,1.3,11,2.3,16.3,3.5-3.4,6.6-9.7,9-15.9,6.9-5.4-1.8-10.9-3.4-15.8-5,15.5-14.4,21-15.1,33-4.9h0Z"/>
    <path class="cls-2" d="M4.5,219.7c9-13.3,16-15.4,29.8-8.2-5.3.2-10.6.3-15.8.5,0,.4,0,.8,0,1.3,5.7.5,11.5,1,17.6,1.6-3.8,6.7-7.5,8.5-14,7.5-5.9-.9-11.9-1.8-17.7-2.6h0Z"/>
    <path class="cls-2" d="M199.6,234.6c15-4,20.7-1,27.2,13.6-5.8-.2-11.9-.4-18-.7-6.4-.3-9.6-2.9-11.6-10,6.1.8,11.9,1.5,17.2,2.1-.7-1.2-5.6-2.8-14.9-4.9h0Z"/>
    <path class="cls-2" d="M80.4,252.5c-1-14.3,3.4-19.5,17.3-21.7-1.1,4.7-2.4,9.6-3.5,14.5-1.2,5.8-4.8,8.9-11.7,10.1,1.8-5.6,3.3-10.5,4.8-15.4-.3-.2-.6-.3-.9-.5-2,4.3-4.1,8.6-6.1,13h0Z"/>
    <path class="cls-2" d="M72.8,227.3c-5-.2-9.9-.3-14.9-.5-6.6-.2-9-1.9-11.7-8.9,5.6.6,10.7,1.1,16.5,1.7-3.9-3.4-8.5-3.4-13.1-4,10.4-5,18.2-.9,23.2,11.6h0Z"/>
    <path class="cls-2" d="M189.7,238.5c-1.6,2.1-3.1,4-4.6,5.8.2.2.4.5.6.7,2-1.4,3.9-2.9,6.2-4.6,3.5,10.7-6.8,12-10.5,17.7-3.5-10.3-.7-17.1,8.2-19.6h0Z"/>
    <path class="cls-2" d="M45.9,236.3c-1.2-4.3-5.9-7-10.4-5.9-4.5,1.2-7,5.6-5.8,10.3,1.2,4.5,5.7,7.1,10.3,5.9,4.3-1.1,7.1-6,5.9-10.3ZM39.2,244.9c-3.5.9-7.1-1.3-7.9-4.9-.8-3.6,1.4-7,5.1-7.8,3.4-.8,7.1,1.7,7.8,5.2.6,3.2-1.7,6.8-5,7.6Z"/>
    <path class="cls-2" d="M171.3,228.3c-1.2-4.4-5.8-7-10.3-5.6-4.4,1.3-7.1,6-5.8,10.4,1.3,4.4,6,6.9,10.4,5.6,4.5-1.3,6.9-5.8,5.7-10.4ZM165.4,236.8c-3.5,1.2-7.1-.7-8.2-4.3-1.1-3.5.8-7.2,4.4-8.2,3.3-1,7.2,1.2,8.1,4.6.9,3.3-.9,6.8-4.3,7.8h0Z"/>
    <path class="cls-2" d="M262.5,204c-1-4.3-5.5-7.1-9.7-6-4.3,1.1-6.9,5.4-5.9,9.8,1,4.1,5.1,6.7,9.3,5.8,4.3-.9,7.2-5.3,6.2-9.5ZM256.4,212c-3.6,1-7.2-1.1-8-4.7-.8-3.2,1.3-6.7,4.6-7.7,3.6-1,7,1,7.9,4.7.9,3.5-1,6.7-4.5,7.6h0Z"/>
    <path class="cls-2" d="M183.3,169.5c-1-1.7-2.5-3.2-2.7-5-.1-1.2,1.6-2.6,2.5-3.9.8.7,1.5,1.3,2.2,2-1,1-1.9,1.9-3.4,3.4.6.7,1.6,1.7,2.6,2.7-.4.3-.8.5-1.2.8h0Z"/>
    <path class="cls-2" d="M6.5,280h-1.4c-.8-1.7-2-3.3-3.3-4.9.8,1.8.9,3.4.5,4.9H.6c.8-1.8.4-3.6-.6-5.3v-3.1c2.9,2.4,5,5.3,6.5,8.4Z"/>
  </g>
  <g>
    <path class="cls-2" d="M1053.4,126.2c-4.2-.4-8.4-.7-12.6-1.1-9.4-.9-18.2.7-26.1,4.9-2,1.1-3.5,3.8-3.6,5.9,0,1.2,3.1,2.5,4.4,3.4,1.6-2.1,2.5-3.4,3.4-4.6,1.1,1,3.2,2.5,3,2.8-1,1.4-2.8,3.6-4,3.5-2.6-.2-5.5-1.3-7.4-2.8-3.2-2.6-.9-5.5.8-8.1,1.5-1,3-2.1,4.5-3.1,11.3-4.7,22.9-4.7,34.7-1.8,1,.3,1.9.8,2.9,1.1h0c0,0,0,0,0,0Z"/>
    <path class="cls-2" d="M1053.4,126.2c0,0,.2,0,.3.1,0,0-.2,0-.3,0,0,0,0,0,0,0Z"/>
    <path class="cls-2" d="M1063.5,115c0,.3,0,.5-.2.8,0-.3,0-.6,0-.8h0s0,0,0,0Z"/>
    <path class="cls-2" d="M1279.9,222.9c-.4,1.2-1.1,2.3-1.7,3.4-.3.5-.6,1-.8,1.5-1.8-.9-4-1.6-5.1-2.9-2-2.3-3.1-5.1-4.9-7.5-4.8-6.7-14.3-7.7-20.8-2-4.8,4.2-6.4,9.6-7.5,15.2-.5,2.7-1.5,5.3-2.2,7.9.7.1,1.5.2,2.2.3.4-.9.9-1.8,1.3-2.7.2,0,.4,0,.6,0-1.6,11.3,1.7,21.7,9.3,30.9,3.5,4.3,7.1,8.5,10.7,12.6,0,0,0,0,.1.1h-21c-.1,0-.3,0-.4-.1-1.3-.5-2.6-.9-3.9-1.4-1.7-.6-3.8-.6-5.6-.4-8,.5-16,1.2-24,1.8-.6,0-1.2,0-1.9.1h-81.6c-.3,0-.6,0-1-.1-18.9-2.8-37.2-8.3-54.3-17.3-14.6-7.7-28.4-16.3-37.4-29.3-5.7-8.2-9.5-17-9-26.7.3-6.9,3.7-12.8,10.5-16.6,2.6-1.5,6.2-2.4,9.4-2.4,5.8,0,8.4,4.8,6,8.6-.7-1.6-1.2-5.3-2.5-5.5-3.5-.6-7.9-.6-10.7.9-6.9,3.6-10.2,9.5-10.7,16.5-.7,11,4.8,20.1,11.8,28.7,4.7,5.8,10.2,11.1,18.3,15-2.8-3.7-5.7-6.6-7.3-9.9-1.8-4-3.1-8.4-3.1-12.6,0-5.8,4.3-9.2,12.5-10.6-5.5,2.5-10,5-9.6,9.9.4,4.3,1.5,8.6,3.2,12.6,4.9,10.9,15.1,17.1,27,22.1,28.7,12,59.3,16.4,90.9,15.1,18-.7,36-3,53.9-4.6,1.5-.1,3-.7,4.7-1.1-1.2-3.5-4.5-3.9-7.3-4.1-9.4-.6-18.8-1.4-28.3-1.3-16.2.2-32.3,1-48.5,1.4-13.2.4-24.1-3.5-32.3-12.5-6.8-7.5-4.7-19.3,4.3-24.8,1.6-1,3.7-1.9,5.6-2.1,1.7-.2,3.6.5,5.1,1.2.5.2.5,2.3.2,2.4-1.5.5-3.2,1-4.8.9-5.3-.3-10.7,3.1-11.9,8.8-.7,3.5.2,7.3.3,11,.6,0,1.2,0,1.8,0,.4-1.2.8-2.4,1.3-3.6,2-4.7,8.7-7.7,13.9-6.2,1,.3,1.8,1.3,2.6,2-.9.6-1.8,1.5-2.8,1.7-1.7.3-3.8-.5-5.2.1-2.7,1.1-5.9,2.4-7.3,4.4-1.8,2.6-.4,5.9,2.9,7.4,5.4,2.5,10.9,5.3,16.8,6.4,13.6,2.4,27.4.6,41.1-.7,7.2-.6,14.3-1.4,21.5-1.6,7.2-.2,14.3.3,21.9,0-6.9-2.1-13.7-4.6-20.7-6.2-19.7-4.5-38-11.4-53.8-22.6-18.3-13.1-31.5-29.7-41.5-48-5.5-10.1-10.3-20.5-15.6-30.7-8.2-15.6-15.2-24.6-40.9-20,8.3-3.6,17-3.5,25.9-1.4.1-.3.3-.7.4-1-5.5-2.5-11-4.9-16.6-7.4,2.8.4,5.6.7,7.5,1,.7-3.9,1.5-7.7,2.2-11.5,0,.9,0,1.7-.2,2.6-1,4.3.3,8.1,4.3,10.6,8.3,5.2,12.7,12.5,16.7,20.1,8.2,15.5,15.8,31.3,24.5,46.5,7.6,13.3,18.5,24.8,32.3,34.2-1.4-1.9-2.9-3.8-4.2-5.7-10.1-14.6-11.2-30.5-8.6-46.7.8-5.3,2.1-10.5,3.3-15.7,2.3-9.9-4.9-18.4-16.6-19.7-4.4-.5-7.4.9-9.2,4.4-2.1,4.1-1.6,8.4,1.4,10.6,2.9,2.2,7.4,1.7,9-1.2.6-1.2.4-2.8.2-4.2,0-.4-2.2-.9-2.4-.7-.8.9-1.3,2-3,2.9.3-1.3.2-3.6,1-3.8,1.4-.5,3.8-.2,5.1.5,3,1.9,2.9,5.6.2,7.9-3.1,2.6-8.5,2.5-11.6-.4-3.3-2.9-3.9-7.6-1.7-11.9,2.1-4.1,5.9-5.9,11-6,1.8,0,3.6.2,5.5.3.2-.4.3-.8.5-1.1-4.7-1.9-9.3-3.9-14-5.7-10.9-4.2-18.2-10.9-18.9-21.3-.6-10.5,5.3-18.6,15.3-24.5,4.2-2.5,9.5-2.2,12.5.2,2.4,2,2.9,4.3.7,6.5-1.7,1.7-3.9,3.4-6.5,1.4-1.3-1-1.5-2.9-2.3-4.5,1.6-.5,3.3-1.1,4.9-1.5.5-.1,1.2.2,2.2.3-5.4-3.4-11.5-2.7-15.6,1.8-2.5,2.8-4.7,5.8-6.4,9-6.6,12.5-2,23.2,12.4,29.4,2,.9,4,1.7,6.1,2.4,12.1,4.2,22.5,9.6,23.5,22.6,10.3-4.4,19.1-11.4,31.2-6.8,1.7.6,2.9,2,4.4,3.1-.3.5-.5,1-.8,1.6-2-.3-4.2-.2-5.9-1-10.3-4.9-18.4-.3-26.4,4.4-1.2.7-2.2,2.1-2.5,3.4-1.8,9-3.4,18-5.1,27,.4.1.8.3,1.2.4.9-1.1,1.8-2.2,2.7-3.3,5.7-6.3,15-6.8,21.1-.8,2.6,2.5,4.3,5.6,6,8.7.5,1-.2,2.6-.8,3.8-.2.4-2.3.5-2.5.3-.7-1.1-1.7-2.6-1.4-3.7.7-2.8,0-5-2.4-7-3.9-3.2-8.2-4.9-13.5-2.9-5.9,2.2-9.8,6.2-10,11.6-.2,8.1,2.1,15.9,6.1,23.4,1.6-2.1,2.5-4.7,4.6-5.7,2.2-1.1,5.6-1.3,8.1-.9,5.7,1,11.5,6.6,11,11.4-1.8-1.9-2.8-3-3.9-4.1-1.6-1.6-3-3.5-4.9-4.6-3.1-1.8-6.6-2.2-9.8.2-3.3,2.5-3.4,6-1.4,8.6,2.9,3.8,6.5,7.4,10.6,10.4,16,11.6,35.1,18.3,54.6,24.2,16.5,4.9,32.9,9.9,47.3,18.7.6.4,1.4.5,3.4,1.3-7.9-9.4-13.6-18.4-16.7-28.5-7.5-24.6-12.2-49.3-8.3-74.8.5-3.1.4-6.3.5-9.4.1-7.3-4.9-13.5-12.1-15-4.1-.8-7.7,0-10.4,2.8-2,2.1-3,4.4-1,7.3,1-.7,1.6-1.4,2.4-1.6,1.8-.3,4.3-1.1,5.5-.3,1.3.8,2.2,3.1,2,4.5-.2,1.1-2.5,2.4-4,2.6-6,.8-10.8-4.1-9.4-9.1,1.8-6.2,10.6-9.9,17.5-7.2,6.3,2.4,10.3,6.4,11.3,12.3.4,2.2.6,4.5,1.4,6.9,4.5-11.6,15.1-19.7,22.4-29.7,3.3-4.5,5.2-9.9,6.6-15.1.5-1.8-2-4.5-4-6.1-.7-.6-3.8,1-5.8,1.6,0,.4.2.8.3,1.2,1.1.6,2.3,1.2,3.5,1.8,0,.4.1.9.2,1.3-2,.3-3.9.6-5.9.9-.1-1.7-1.1-3.7-.3-5,3-4.7,10-4.6,12.4.3,1.3,2.5,1.8,6.1.7,8.5-2.8,6-5.8,12.4-10.6,17.2-20.9,20.9-25.2,45-20.3,71,.7,3.5,1.5,7,2.4,10.4.1.5.5.9,1.2,2,2.8-10.2,8.1-18.3,16.7-24.9,6.8-5.1,15.6-7.7,24.3-7.5v6c-9.2-2.8-20.1-.2-29.9,9.9,3.1-.9,6.2-2.2,9.4-2.6,7.4-.9,16.6,3.6,20.5,9.4.4.6.8,1.3,1.1,1.9.4.9.9,2,.6,2.8h0Z"/>
    <path class="cls-2" d="M1278.2,251.4v22.9c-2,2-4.6,3.7-7,5.5,0,0-.1,0-.2.1h-1s0,0,0-.1c3.4-5.3,7.1-10.5,6-16.6-3.3,5.4-6.6,10.8-10.2,16.6,0,0,0,0,0,.1h-.4s0,0-.1-.1c-5.9-7.6-5.8-13.7-.7-20,2-2.4,4.4-4.7,6.1-7.3,1.6-2.4,2.5-5.1,3.6-7.5,1,.9,2.4,3.4,3.8,6.3h0Z"/>
    <path class="cls-2" d="M1185.5,245.1c-6.5-5.7-7.1-10.2-3.4-16,2.6-4.1,4.7-8.4,6.8-12.3,11.6,10.4,11.9,20.4-.5,29.3,1.7-5.1,5.6-9.4,3.4-15.1-2.2,4.9-4.1,9.2-6.3,14.1h0Z"/>
    <path class="cls-2" d="M1098.8,195.2c-1,4.2-1.9,8.1-2.8,12,.4.1.7.2,1.1.4,1.6-3.4,3.2-6.7,4.7-9.8,3.2,5.1,1.8,10.6-4.3,13.7-4,2.1-8.5,3.6-13,5.5,1.2-4.7,2.3-8.9,3.2-13,1.2-5.9,2.7-7.2,11.2-8.7h0Z"/>
    <path class="cls-2" d="M1138.7,112.8c5.1,12.7,2.7,20.3-8.5,26.4,2.3-4,4.7-8.1,7-12.1-.3-.1-.6-.2-.9-.3-2.9,3.6-5.7,7.2-9.2,11.6-2.7-6.7-1.9-11.8,2.9-16.5,3.1-3,5.9-6.2,8.6-9.1h0Z"/>
    <path class="cls-2" d="M1062.4,170.5c8.3-8.6,17-11,22.6-5.3-3.5,0-7.1.2-10.6.3,0,.3,0,.7,0,1,4,.5,8,1,12.3,1.5-3.6,5-7.4,6.3-12.8,5-3.8-.9-7.6-1.7-11.4-2.6h0Z"/>
    <path class="cls-2" d="M1226.4,204c-3.1,6.3-5.6,7.7-12.1,7.6-3.7,0-7.5,0-11.1.2,7-10.9,11.7-13.4,20.8-10.3-3.7,1-6.9,1.8-10.1,2.6,0,.3.2.7.3,1,3.9-.4,7.9-.7,12.2-1.1h0Z"/>
    <path class="cls-2" d="M1095.1,276.3c0,1.3,0,2.5,0,3.7h-5.6c1.1-1.4,2.9-2.6,5.6-3.7Z"/>
    <path class="cls-2" d="M1099.7,280h-2c.1-.7.3-1.4.4-2.1.7.7,1.2,1.4,1.6,2.1Z"/>
    <path class="cls-2" d="M1201.4,180.6c13.1-5.2,18.6-4.9,24.9,1.8-3.8-1-7.5-1.9-11.1-2.9-.1.3-.2.6-.3.9,3.3,1.4,6.6,2.7,10.2,4.2-5.4,3.4-9.1,3.5-14,.9-3.2-1.7-6.5-3.3-9.7-4.9h0Z"/>
    <path class="cls-2" d="M1075.4,260.9c-5.4-7.5-4.6-10.1,5.4-19.2-.8,6.5,6.8,13-2,19.3-1-2.8-1.8-5.3-2.7-7.8-.3,0-.6,0-.9,0,0,2.4.1,4.7.2,7.7h0Z"/>
    <path class="cls-2" d="M1047,254.3c.9,2.8,1.5,4.9,2.1,6.9.3,0,.7,0,1,0,0-1.8,0-3.6-.1-5.4,5.4,4.2,3.5,10.4-5.1,15.4-.1-5.7-6.7-11.5,2.2-16.9h0Z"/>
    <path class="cls-2" d="M1235.2,179.6c3.7.4,6.6.8,9.5,1.1,0-.2.2-.5.3-.7-2.5-.8-5-1.5-7.6-2.3,6-3.3,11.5,0,16.3,9.7-6.4-2.4-14.9,1-18.5-7.8h0Z"/>
    <path class="cls-2" d="M1232.3,242.1c-3.6-3.8-9.9-4.4-14.5-1.3-4.4,2.9-5.1,8.2-1.7,12,3.3,3.7,9.7,4.4,14.1,1.5,4.7-3.1,5.6-8.5,2.1-12.3h0ZM1229,252.9c-3.2,2.1-8.1,1.7-10.8-1-3-3-2.6-7.4.8-9.9,3.3-2.3,8.4-1.8,11.2,1.1,2.9,2.9,2.3,7.5-1.2,9.8h0Z"/>
    <path class="cls-2" d="M1240.5,236.2c.5-6.8,6.2-11.2,13.3-10.4,4.2.5,7.8,3.6,7.5,6.7,0,1-1.1,2.3-2,2.8-.6.3-2.4-.4-3-1.1-2.1-2.4-3.4-6.5-8-4.5-2.8,1.2-4.6,4.1-6.8,6.3-.1,0-.2.2-.3.3-.2,0-.4,0-.6,0h0Z"/>
    <path class="cls-2" d="M1042.9,252c-4.7,5.8-10.1,1.8-15.4,2,6.8-5.9,9.9-6.8,14.5-4.1-1.7,0-3.2.2-4.7.2,0,.2,0,.4-.1.6,1.7.4,3.4.7,5.7,1.2h0Z"/>
    <path class="cls-2" d="M1120.2,179.8c-2.4-2.6-7-3.1-10.2-1.1-3.3,2.1-3.9,5.8-1.3,8.6,2.6,2.9,6.8,3.4,10.1,1.2,3.1-2.1,3.8-6.1,1.5-8.7h0ZM1117.6,187.4c-2.7,1.8-5.5,1.4-7.6-.7-2.3-2.3-2-5.2,1-6.7,2-1,5-.4,6.8-.5,2.8,3.6,2.7,6-.1,7.9h0Z"/>
    <path class="cls-2" d="M1063.5,115c0-1.8.4-3.5.2-5.2-.4-4.6-3.1-5.7-7.6-3.2-.9.5-1.8,1-2.7,1.5-.4-.2-.8-.4-1.2-.5.7-1.2,1.1-3.3,2-3.5,2.6-.4,5.9-.7,7.9.4,4.4,2.4,4.5,6.4,1.3,10.6,0,0,.1,0,.1,0h0Z"/>
  </g>
</svg>