<?xml version="1.0" encoding="UTF-8"?>
<svg id="Layer_1" xmlns="http://www.w3.org/2000/svg" viewBox="0 0 1920 320">
  <defs>
    <style>
      .cls-1 {
        fill: #f5faf7;
      }

      .cls-1, .cls-2 {
        stroke-width: 0px;
      }

      .cls-2 {
        fill: #c2deb0;
      }
    </style>
  </defs>
  <rect class="cls-2" x="0" y="0" width="1920" height="320"/>
  <g>
    <path class="cls-1" d="M35.12,250.65c-11.19,3.42-22.58,6.15-35.12,9.37v-5.52c7.39-1.2,14.74-2.41,21.94-4.22,4.57-1.15,9.18-2.31,13.61-3.94,23.83-8.79,34.89-33.77,26.23-57.75-4.81-13.32-9.06-26.89-12.81-40.55-2-7.3-2.41-15.1,2.74-21.75,3.3-4.29,7.74-6.37,13.11-4.64,5.37,1.71,7.95,6.04,7.93,11.38,0,2.2-1.73,5.99-3.15,6.23-2.7.45-5.73-1.15-8.63-1.9,1.38-2.77,2.74-5.54,4.99-10.11-.74-.47-3.83-3.78-5.41-3.17-3.35,1.27-8.09,4.37-8.38,7.13-.84,8.06-1.21,16.7.88,24.4,3.61,13.34,9.21,26.13,14.33,40.11,2.04-5.05,3.47-9.23,5.37-13.18,4.71-9.81,12.66-15.12,23.48-15.85,9.91-.67,19.09,7.61,19.72,17.45.56,8.93-6.98,16.03-15.33,13.74-2.61-.72-5.9-3.63-6.38-6.03-.42-2.08,2.25-6.29,4.38-6.98,2.29-.73,5.6,1.42,8.35,2.61.9.38,1.4,1.7,2.29,2.87,4.55-3.61,3.45-7.76,1.9-11.71-2.2-5.58-6.58-8.57-12.5-9.08-10.95-.97-21.28,7.04-24.75,19.35-2.57,9.11-4.99,18.26-7.21,27.45-4.18,17.35-14.56,29.1-31.58,34.29Z"/>
    <path class="cls-1" d="M432.29,176.03c-.89,12.6-10.08,19.24-23.4,17.85-.94-.1-1.95-.11-2.8-.47-20.78-8.68-36.11.46-51,14.22-22.79,21.04-49.26,36.6-77.42,49.46-15.69,7.18-31.02,15.15-46.57,22.6-29.64,14.22-61.01,17.65-93.43,15.21-40.95-3.1-81.15-10.13-120.65-21.32-1.51-.43-3.09-.6-3.69-.71,10.13,9.81,20.43,20.22,31.21,30.1,9.13,8.37,19.66,14.05,32.64,13.14,2.79-.2,5.93-.33,8.24-1.67,2.63-1.51,5.78-4.1,6.25-6.67.32-1.75-3.6-4.27-6.66-7.57-.91,3.21-1.11,5.39-1.64,5.48-1.96.3-4.04-.09-6.06-.2.31-1.6.06-3.82,1.02-4.68,3.73-3.29,13.88-1.97,17.07,1.88,3.26,3.92,1.99,9.78-3.42,12.39-10.82,5.2-21.91,5.3-32.85.11-7.68-3.64-15.28-7.44-22.14-10.8-2.63,4.27-6.1,9.85-9.64,15.61,0,0,0,.01,0,.01h-4.72c.45-1.48,1.31-2.95,2.3-4.41.52-.78,1.22-1.43,1.83-2.16,8.2-9.73,8.26-12.05.68-22.46C20.93,282.03,10.99,275.38,0,271.88v-8.86c33.96,7.44,66.04,14.93,98.37,21.13,23.76,4.57,47.95,5.84,71.91.54,26.72-5.91,45.16-22.83,53.51-47.91,6.27-18.83.4-37.53-13.77-52.29-6.65-6.93-15.26-9.26-24.83-6.96-2.29.56-4.62,1.71-6.87,1.58-1.95-.12-3.82-1.65-5.73-2.56,1.1-1.85,2.15-5.24,3.3-5.28,6.9-.18,14.9-1.68,20.49,1.21,9.56,4.98,17.6,12.86,25.77,19.11,6.07-10.73,12.99-23.46,20.43-35.86,3.88-6.46,8.19-12.81,13.24-18.35,7.15-7.87,18.11-9.39,25.85-4.66,5.96,3.63,7.38,8.61,3.61,15.57.8-6.76-.17-12.09-6.46-14.11-7.65-2.48-15.31-.75-20.28,4.99-6.8,7.85-12.06,17.05-17.97,25.67.64.56,1.27,1.12,1.92,1.68,3.51-1.62,6.94-3.45,10.55-4.82,12.08-4.52,22.71-2.13,29.66,6.48,7.18,8.89,7.78,23.6,1.35,33.29-6.07,9.15-20.04,9.88-26.92,1.41-5-6.16-3.9-15.38,3.11-19,2.66-1.38,7.93-1.3,9.96.47,3.58,3.13,1.86,7.15-1.9,9.8-.62-2.95-1.01-5.77-2.02-8.36-.14-.36-4.02-.11-5.04.95-1.45,1.5-3.11,4.71-2.42,5.95,2.12,3.88,4.66,8.28,8.25,10.42,4.63,2.76,9.64.65,13.33-3.47,5.3-5.92,5.88-16.71,1.38-25.47-3.99-7.75-9.34-10.55-18.72-9.59-16.71,1.69-40.24,18.15-34.66,44.34,5.45,25.61-3.59,45.36-21.9,62.26-2.45,2.26-4.6,4.85-6.02,8.64,1.75-.19,3.57-.13,5.22-.62,40.89-12.1,79.39-29.36,114.1-54.33,15.79-11.36,19.65-27.93,16.17-46.13-2.99-15.59-9.24-20.18-25.76-21.54,7.23-4.44,15.1-3.33,20.94,3.64,10.21,12.19,10.96,26.71,9.34,41.65-.33,3.16-1.07,6.29-1.63,9.43.62.33,1.26.65,1.88.98,5.29-6.76,11.45-13,15.7-20.37,11.46-19.91,21.59-40.61,24.85-63.68,2.57-18.29-.55-35.53-14.21-49.27-11-11.05-26.32-8.26-29.97,5.17-.28,1.01-.05,2.18-.07,4.46,2.84-.75,4.99-1.78,7.14-1.74,2.13.02,5.24.48,6.11,1.87.92,1.48.43,4.81-.72,6.41-3.74,5.18-9.24,5.37-14.73,3.45-5.25-1.83-5.92-6.34-5.15-11.12,2.48-15.24,20.45-23.92,34.1-16.32,14.69,8.16,19.49,22.54,22.45,37.68,3.37,17.25-2.07,33.3-8,49.08-4.14,11.02-8.88,21.82-13.62,33.37,1.82-.48,3.19-.56,4.24-1.16,9.44-5.46,19.24-5.23,29.54-2.79,5.39,1.28,11.23,1.86,16.73,1.33,10.41-1,12.59-7.21,6.1-15.62-1.93-2.49-3.68-5.12-5.53-7.68.41-.88.82-1.75,1.21-2.62,3.81.73,8.47.39,11.15,2.52,2.57,2.05,4.47,6.79,4.23,10.16Z"/>
    <path class="cls-1" d="M145.03,320h-33.19c1.82-13.32,10.6-17.53,34.97-21.78-8.4,6.27-19.06,7.55-23.04,16.74,9.57-4.68,19.25-9.42,29.37-14.37,1.5,10.67-.42,15.51-8.11,19.42Z"/>
    <path class="cls-1" d="M218.75,216.87c-9.41-1.69-17.19-5.17-26.33-.74,8.88,1.89,16.53,3.51,24.44,5.19-5.14,9.86-14.53,13.53-23.92,10.36-8.15-2.75-16.4-5.17-23.81-7.49,23.26-21.58,31.51-22.68,49.62-7.31h0Z"/>
    <path class="cls-1" d="M6.8,229.37c13.57-20.02,24.08-23.17,44.74-12.35-7.99.24-15.87.48-23.75.71.03.64.05,1.27.08,1.91,8.63.77,17.27,1.54,26.51,2.36-5.74,10.13-11.21,12.77-21.01,11.27-8.92-1.37-17.87-2.63-26.58-3.9h0Z"/>
    <path class="cls-1" d="M300,251.71c22.5-6.05,31.07-1.44,40.91,20.37-8.67-.34-17.84-.67-27-1.07-9.64-.42-14.5-4.35-17.38-15.08,9.24,1.14,17.92,2.21,25.92,3.21q-1.47-2.68-22.45-7.42h0Z"/>
    <path class="cls-1" d="M120.86,278.64c-1.46-21.42,5.09-29.36,26.04-32.58-1.7,7.02-3.66,14.36-5.22,21.78-1.83,8.73-7.16,13.32-17.58,15.13,2.65-8.46,4.95-15.81,7.26-23.16-.43-.23-.85-.46-1.28-.69-3.05,6.46-6.11,12.93-9.22,19.52h0Z"/>
    <path class="cls-1" d="M109.37,240.74c-7.51-.25-14.95-.5-22.38-.74-9.89-.32-13.6-2.89-17.55-13.35,8.41.87,16.12,1.66,24.81,2.56-5.81-5.15-12.78-5.04-19.69-5.97,15.68-7.56,27.37-1.32,34.81,17.5h0Z"/>
    <path class="cls-1" d="M285.11,257.59c-2.46,3.15-4.66,5.95-6.86,8.76.31.34.61.68.92,1.02,2.96-2.17,5.91-4.34,9.34-6.87,5.32,16.05-10.15,18-15.8,26.56-5.28-15.53-1.05-25.69,12.39-29.47h0Z"/>
    <path class="cls-1" d="M68.97,254.31c-1.79-6.49-8.94-10.53-15.59-8.81-6.83,1.78-10.57,8.39-8.73,15.43,1.78,6.75,8.5,10.63,15.42,8.88,6.48-1.62,10.69-8.98,8.9-15.5ZM58.98,267.21c-5.3,1.33-10.64-2.01-11.82-7.4-1.18-5.36,2.17-10.54,7.59-11.77,5.09-1.15,10.62,2.54,11.68,7.8.95,4.76-2.58,10.16-7.45,11.37Z"/>
    <path class="cls-1" d="M257.49,242.32c-1.79-6.68-8.69-10.45-15.47-8.47-6.64,1.93-10.62,9.05-8.72,15.57,1.92,6.61,8.96,10.42,15.66,8.47,6.71-1.95,10.38-8.67,8.53-15.57ZM248.56,255.08c-5.32,1.73-10.69-1.06-12.37-6.4-1.68-5.31,1.22-10.76,6.55-12.3,5.03-1.46,10.79,1.8,12.24,6.92,1.42,5-1.39,10.17-6.42,11.78Z"/>
    <path class="cls-1" d="M394.44,205.82c-1.47-6.44-8.21-10.64-14.58-9.09-6.46,1.59-10.36,8.08-8.81,14.69,1.47,6.19,7.72,10.09,14.02,8.75,6.46-1.37,10.81-8.03,9.37-14.35ZM385.24,217.83c-5.44,1.43-10.78-1.66-12.09-7.01-1.2-4.87,1.95-10.08,6.98-11.53,5.36-1.53,10.46,1.52,11.87,7.1,1.32,5.23-1.54,10.07-6.76,11.44Z"/>
    <path class="cls-1" d="M275.47,153.92c-1.46-2.48-3.79-4.87-4.09-7.48-.2-1.78,2.44-3.88,3.81-5.83,1.13,1,2.25,2,3.37,3-1.47,1.46-2.93,2.91-5.16,5.13.95.98,2.41,2.51,3.87,4.03-.6.38-1.2.77-1.81,1.15h0Z"/>
    <path class="cls-1" d="M9.71,319.99h0s-2.16.01-2.16.01h0c-1.23-2.59-2.96-4.97-4.96-7.31,1.13,2.68,1.37,5.1.71,7.3h0s-2.43.01-2.43.01h0c1.26-2.74.57-5.47-.87-7.95v-4.66c4.32,3.66,7.56,7.89,9.71,12.6Z"/>
  </g>
  <g>
    <path class="cls-1" d="M1582.16,89.12c-6.31-.54-12.63-1.02-18.93-1.64-14.09-1.38-27.35,1.04-39.22,7.42-2.97,1.6-5.25,5.78-5.41,8.87-.09,1.77,4.71,3.73,6.54,5.04,2.38-3.18,3.78-5.04,5.18-6.9,1.6,1.44,4.83,3.7,4.5,4.17-1.47,2.14-4.14,5.39-6.04,5.23-3.88-.32-8.33-1.88-11.12-4.19-4.74-3.91-1.39-8.26,1.13-12.22,2.24-1.55,4.49-3.1,6.73-4.65,16.96-7.07,34.43-7.13,52.21-2.75,1.53.38,2.93,1.14,4.4,1.72l.02-.12h0Z"/>
    <path class="cls-1" d="M1582.16,89.13c.13.06.26.12.39.17-.14-.01-.27-.03-.41-.05l.02-.12Z"/>
    <path class="cls-1" d="M1597.38,72.22c-.08.41-.15.82-.23,1.23,0-.42,0-.84.01-1.26h.01l.13.02s.08.01.08.01Z"/>
    <path class="cls-1" d="M1922.55,234.45c-.62,1.77-1.59,3.46-2.55,5.15-.43.74-.85,1.48-1.25,2.22-2.63-1.41-5.99-2.36-7.7-4.34-2.97-3.43-4.71-7.6-7.31-11.28-7.17-10.11-21.42-11.53-31.2-3-7.21,6.3-9.62,14.46-11.33,22.85-.81,4-2.19,7.92-3.3,11.88,1.11.16,2.23.32,3.33.47.67-1.34,1.34-2.67,2.01-4.01.29.03.56.07.85.1-2.45,17.05,2.6,32.56,13.98,46.49,5.25,6.42,10.71,12.71,16.15,19.01.06.07.13.15.19.22h-31.63c-.21-.08-.41-.15-.62-.22-1.94-.71-3.9-1.38-5.88-2.03-2.55-.83-5.64-.85-8.42-.66-12,.8-24.01,1.76-36.01,2.69-.94.07-1.87.15-2.81.22h-122.59c-.48-.07-.97-.14-1.45-.22-28.44-4.27-55.86-12.45-81.65-25.98-21.95-11.52-42.71-24.49-56.23-44-8.59-12.38-14.33-25.51-13.59-40.13.52-10.42,5.54-19.2,15.83-24.96,3.97-2.23,9.34-3.63,14.07-3.63,8.67,0,12.65,7.25,9.04,12.91-1.05-2.47-1.83-7.92-3.76-8.22-5.19-.83-11.91-.92-16.12,1.3-10.35,5.46-15.39,14.35-16.04,24.82-1.02,16.46,7.23,30.28,17.77,43.2,7.1,8.71,15.37,16.68,27.53,22.61-4.17-5.53-8.64-9.86-10.9-14.91-2.67-5.98-4.67-12.58-4.73-18.93-.08-8.68,6.46-13.77,18.72-15.86-8.29,3.76-15.07,7.57-14.44,14.91.55,6.39,2.18,12.96,4.86,18.95,7.31,16.33,22.66,25.7,40.51,33.14,43.2,18.02,89.06,24.7,136.58,22.74,27.1-1.12,54.05-4.45,81.07-6.87,2.27-.2,4.45-1.07,7.01-1.72-1.84-5.31-6.81-5.83-10.98-6.11-14.13-.95-28.3-2.03-42.46-1.88-24.28.25-48.55,1.43-72.82,2.14-19.8.59-36.23-5.31-48.49-18.83-10.15-11.21-7.11-28.96,6.44-37.27,2.46-1.51,5.49-2.86,8.43-3.18,2.48-.26,5.36.82,7.73,1.87.72.31.78,3.48.36,3.62-2.28.76-4.83,1.43-7.23,1.29-7.93-.45-16.09,4.7-17.87,13.19-1.11,5.3.27,10.97.52,16.48.91.04,1.8.08,2.7.12.67-1.8,1.27-3.61,2.01-5.39,2.97-7.09,13-11.63,20.93-9.26,1.53.46,2.63,1.96,3.93,2.99-1.42.87-2.72,2.27-4.27,2.51-2.55.4-5.68-.7-7.82.17-4.06,1.66-8.92,3.6-11.01,6.64-2.72,3.98-.54,8.93,4.31,11.18,8.1,3.75,16.43,8.02,25.27,9.56,20.49,3.56,41.19.84,61.78-.98,10.76-.95,21.53-2.06,32.33-2.33,10.75-.28,21.53.4,32.88-.11-10.38-3.16-20.56-6.93-31.15-9.37-29.63-6.8-57.18-17.08-80.8-33.99-27.55-19.74-47.29-44.6-62.41-72.17-8.33-15.2-15.42-30.88-23.44-46.21-12.26-23.44-22.78-37.02-61.4-30.04,12.48-5.34,25.51-5.32,38.87-2.06.2-.5.38-.99.57-1.49-8.31-3.72-16.6-7.43-24.9-11.16,4.23.55,8.44,1.09,11.34,1.47,1.09-5.84,2.18-11.58,3.26-17.32,0,1.3.06,2.6-.25,3.84-1.57,6.47.51,12.21,6.5,15.95,12.43,7.75,19.08,18.74,25.11,30.19,12.26,23.33,23.68,47,36.86,69.95,11.48,19.97,27.76,37.22,48.61,51.36-2.12-2.87-4.33-5.69-6.35-8.61-15.15-21.96-16.76-45.77-12.89-70.24,1.24-7.92,3.11-15.76,4.9-23.61,3.41-14.86-7.29-27.62-24.96-29.59-6.56-.74-11.09,1.42-13.79,6.65-3.17,6.14-2.41,12.6,2.17,15.99,4.39,3.26,11.11,2.54,13.47-1.84.97-1.79.6-4.25.24-6.33-.11-.55-3.3-1.42-3.57-1.12-1.24,1.31-1.94,3-4.46,4.35.43-2.02.26-5.39,1.43-5.78,2.15-.71,5.71-.37,7.6.8,4.53,2.79,4.34,8.46.27,11.88-4.72,3.97-12.7,3.69-17.47-.6-4.89-4.42-5.86-11.46-2.59-17.84,3.16-6.18,8.84-8.92,16.49-8.99,2.73-.03,5.48.27,8.22.43.23-.57.46-1.13.69-1.7-7.01-2.87-13.96-5.88-21.05-8.6-16.36-6.28-27.4-16.37-28.35-32.04-.94-15.75,7.92-27.95,22.97-36.75,6.37-3.72,14.25-3.28,18.75.34,3.68,2.97,4.42,6.42,1.04,9.8-2.52,2.53-5.91,5.15-9.76,2.16-1.94-1.5-2.32-4.43-3.42-6.72,2.47-.79,4.89-1.66,7.4-2.3.8-.21,1.81.24,3.27.48-8.19-5.08-17.27-4.12-23.49,2.75-3.77,4.17-7.09,8.79-9.63,13.58-9.91,18.82-3.03,34.82,18.6,44.13,3.01,1.3,6.03,2.6,9.14,3.68,18.13,6.26,33.81,14.43,35.35,34.02,15.41-6.57,28.75-17.08,46.82-10.22,2.5.95,4.41,3.04,6.59,4.6-.39.78-.79,1.56-1.18,2.35-2.96-.47-6.33-.33-8.83-1.51-15.55-7.36-27.7-.52-39.71,6.67-1.78,1.07-3.34,3.23-3.72,5.07-2.73,13.48-5.15,27.01-7.66,40.52.6.2,1.18.39,1.78.59,1.36-1.64,2.65-3.34,4.11-4.92,8.64-9.4,22.56-10.18,31.72-1.25,3.85,3.75,6.51,8.49,9.02,13.04.81,1.46-.3,3.88-1.13,5.66-.23.53-3.49.8-3.71.44-1.07-1.71-2.5-3.85-2.08-5.53,1.05-4.25.02-7.55-3.63-10.52-5.84-4.75-12.36-7.32-20.28-4.4-8.87,3.26-14.78,9.39-14.99,17.37-.32,12.12,3.17,23.89,9.2,35.12,2.36-3.1,3.83-6.99,6.91-8.54,3.3-1.66,8.35-2.02,12.24-1.35,8.57,1.48,17.34,9.89,16.59,17.14-2.69-2.84-4.19-4.5-5.8-6.09-2.41-2.37-4.47-5.22-7.43-6.9-4.64-2.64-9.94-3.31-14.66.25-4.96,3.74-5.1,8.99-2.13,12.93,4.33,5.74,9.75,11.19,15.86,15.61,24.03,17.42,52.72,27.55,82.05,36.34,24.78,7.42,49.45,14.87,71.02,28.1.89.55,2.03.8,5.09,1.95-11.93-14.08-20.44-27.6-25.05-42.79-11.2-36.93-18.36-74.15-12.46-112.46.72-4.66.65-9.41.72-14.12.18-11.01-7.38-20.34-18.24-22.47-6.1-1.2-11.55-.04-15.61,4.21-2.99,3.12-4.53,6.56-1.51,11.01,1.51-1.04,2.44-2.17,3.59-2.37,2.77-.5,6.51-1.59,8.26-.52,2.01,1.21,3.35,4.63,2.96,6.83-.28,1.59-3.7,3.66-6,3.96-9.01,1.18-16.27-6.12-14.07-13.69,2.71-9.36,15.96-14.84,26.31-10.82,9.4,3.65,15.42,9.64,17.01,18.5.6,3.37.93,6.77,2.08,10.42,6.79-17.44,22.76-29.62,33.63-44.62,4.92-6.79,7.8-14.91,9.96-22.76.72-2.63-3.02-6.81-5.96-9.19-1.05-.86-5.7,1.48-8.7,2.36.14.59.28,1.17.42,1.76,1.72.89,3.46,1.77,5.2,2.66.1.65.21,1.31.32,1.96-2.96.43-5.91.87-8.87,1.3-.22-2.54-1.66-5.63-.47-7.51,4.51-7.06,14.97-6.95,18.62.39,1.89,3.8,2.74,9.2,1.02,12.83-4.28,9.03-8.67,18.65-15.93,25.92-31.39,31.43-37.92,67.56-30.55,106.77.99,5.26,2.3,10.47,3.54,15.69.16.7.79,1.33,1.86,3.01,4.25-15.26,12.18-27.55,25.14-37.36,10.17-7.69,23.45-11.55,36.52-11.25v9.07c-13.86-4.2-30.24-.36-44.89,14.87,4.73-1.35,9.31-3.34,14.12-3.89,11.14-1.29,24.88,5.42,30.77,14.1.64.93,1.18,1.89,1.62,2.87.6,1.31,1.34,2.94.93,4.15Z"/>
    <path class="cls-1" d="M1920,277.22v34.47c-3.06,3.01-6.86,5.61-10.55,8.3-.1.07-.21.15-.31.22h-1.54c.05-.07.1-.15.14-.22,5.15-7.98,10.64-15.77,9-24.98-4.96,8.09-9.93,16.2-15.3,24.98-.05.07-.09.15-.14.22h-.57c-.06-.07-.11-.15-.17-.22-8.8-11.42-8.79-20.63-.98-30.08,3.04-3.67,6.66-7.04,9.23-10.93,2.39-3.6,3.75-7.71,5.43-11.3,1.51,1.33,3.68,5.06,5.76,9.54Z"/>
    <path class="cls-1" d="M1780.69,267.8c-9.77-8.52-10.69-15.31-5.13-24.11,3.89-6.15,7.04-12.63,10.22-18.42,17.41,15.57,17.9,30.64-.71,44.03,2.51-7.65,8.43-14.15,5.09-22.72-3.26,7.3-6.17,13.82-9.47,21.23h0Z"/>
    <path class="cls-1" d="M1650.3,192.84c-1.49,6.31-2.86,12.16-4.24,18.01.53.19,1.05.37,1.58.56,2.4-5.06,4.8-10.11,7.03-14.79,4.78,7.73,2.73,15.9-6.39,20.63-6.08,3.15-12.77,5.44-19.6,8.29,1.74-7.09,3.45-13.31,4.77-19.59,1.87-8.91,4.03-10.84,16.85-13.1h0Z"/>
    <path class="cls-1" d="M1710.39,68.96c7.61,19.16,4.13,30.49-12.76,39.65,3.5-6.04,7.02-12.12,10.54-18.19-.44-.16-.88-.32-1.32-.47-4.31,5.44-8.63,10.89-13.76,17.37-4.13-10.14-2.87-17.79,4.39-24.75,4.66-4.47,8.84-9.29,12.92-13.61h0Z"/>
    <path class="cls-1" d="M1595.65,155.71c12.47-12.91,25.53-16.57,33.92-7.97-5.31.14-10.62.29-15.93.44-.03.52-.07,1.03-.1,1.55,6,.75,12,1.5,18.5,2.32-5.39,7.52-11.09,9.49-19.24,7.53-5.66-1.36-11.38-2.57-17.15-3.87h0Z"/>
    <path class="cls-1" d="M1842.12,206.07c-4.64,9.52-8.43,11.6-18.22,11.36-5.62-.14-11.25.15-16.61.24,10.5-16.44,17.51-20.15,31.2-15.42-5.51,1.44-10.37,2.71-15.23,3.98.15.51.31,1.02.46,1.53,5.93-.55,11.85-1.1,18.39-1.7h0Z"/>
    <path class="cls-1" d="M1644.8,314.71c.01,1.91.01,3.74.02,5.51h-8.47c1.69-2.06,4.35-3.92,8.45-5.51Z"/>
    <path class="cls-1" d="M1651.71,320.22h-3.05c.22-1.06.45-2.1.66-3.11.99,1.04,1.78,2.08,2.39,3.11Z"/>
    <path class="cls-1" d="M1804.48,170.8c19.65-7.86,27.93-7.36,37.48,2.78-5.76-1.51-11.2-2.93-16.64-4.36-.17.42-.34.85-.5,1.28,4.99,2.05,9.98,4.1,15.33,6.31-8.14,5.08-13.74,5.27-21.02,1.39-4.82-2.57-9.78-4.95-14.65-7.4h0Z"/>
    <path class="cls-1" d="M1615.14,291.57c-8.04-11.27-6.9-15.12,8.09-28.84-1.13,9.84,10.27,19.5-3.06,28.93-1.43-4.18-2.71-7.92-3.99-11.65-.44-.01-.88-.03-1.33-.05.09,3.55.18,7.09.29,11.61h0Z"/>
    <path class="cls-1" d="M1572.58,281.63c1.29,4.2,2.24,7.29,3.18,10.37.5-.02,1-.03,1.49-.05-.07-2.71-.14-5.43-.2-8.05,8.08,6.28,5.21,15.58-7.71,23.08-.18-8.51-10.07-17.32,3.24-25.35h0Z"/>
    <path class="cls-1" d="M1855.4,169.35c5.54.64,9.89,1.14,14.24,1.64.14-.35.27-.69.41-1.04-3.79-1.13-7.58-2.27-11.39-3.41,9.03-4.91,17.22-.14,24.48,14.58-9.68-3.65-22.36,1.48-27.73-11.78h0Z"/>
    <path class="cls-1" d="M1851.01,263.19c-5.34-5.71-14.94-6.56-21.84-1.93-6.58,4.41-7.67,12.29-2.5,18.08,4.96,5.57,14.56,6.61,21.2,2.3,7.12-4.61,8.49-12.73,3.14-18.45ZM1846.05,279.51c-4.85,3.21-12.15,2.54-16.22-1.5-4.53-4.51-3.96-11.19,1.26-14.85,4.91-3.43,12.6-2.71,16.83,1.58,4.33,4.4,3.46,11.24-1.87,14.77Z"/>
    <path class="cls-1" d="M1863.25,254.39c.73-10.2,9.25-16.87,19.92-15.61,6.34.75,11.77,5.37,11.31,10.13-.15,1.5-1.58,3.39-3.08,4.14-.87.44-3.65-.66-4.54-1.71-3.13-3.68-5.12-9.73-12.09-6.79-4.21,1.78-6.87,6.22-10.23,9.46-.16.15-.3.32-.45.48-.28-.03-.57-.07-.85-.1h0Z"/>
    <path class="cls-1" d="M1566.31,278.21c-7.09,8.67-15.19,2.76-23.12,3.03,10.15-8.9,14.81-10.23,21.78-6.19-2.59.14-4.8.26-7.01.37-.07.31-.14.63-.21.94,2.55.55,5.11,1.1,8.56,1.84h0Z"/>
    <path class="cls-1" d="M1682.5,169.62c-3.55-3.98-10.54-4.72-15.38-1.64-4.98,3.18-5.8,8.65-1.92,12.88,3.92,4.3,10.27,5.07,15.12,1.85,4.66-3.09,5.67-9.16,2.18-13.09ZM1678.68,180.99c-3.99,2.69-8.34,2.11-11.47-1.11-3.41-3.51-3.02-7.86,1.45-10.06,2.98-1.47,7.51-.63,10.21-.76,4.27,5.46,4.01,9.09-.19,11.93Z"/>
    <path class="cls-1" d="M1597.38,72.22c.14-2.63.59-5.28.35-7.88-.64-6.92-4.59-8.51-11.42-4.79-1.37.75-2.75,1.48-4.12,2.22-.62-.27-1.23-.54-1.85-.81.98-1.82,1.71-5.02,3-5.19,3.9-.53,8.88-1.06,11.86.54,6.59,3.54,6.82,9.66,1.98,15.89-.01,0,.21.02.21.02h0Z"/>
  </g>
</svg>