<?xml version="1.0" encoding="UTF-8"?>
<svg id="Layer_1" data-name="Layer 1" xmlns="http://www.w3.org/2000/svg" version="1.1" viewBox="0 0 1920 320">
  <defs>
    <style>
      .cls-1 {
        fill: #f5faf7;
      }

      .cls-1, .cls-2 {
        stroke-width: 0px;
      }

      .cls-2 {
        fill: #bbd1bd;
      }
    </style>
  </defs>
  <rect class="cls-2" width="1920" height="320"/>
  <g>
    <path class="cls-1" d="M35.1,250.6c-11.2,3.4-22.6,6.1-35.1,9.4v-5.5c7.4-1.2,14.7-2.4,21.9-4.2,4.6-1.1,9.2-2.3,13.6-3.9,23.8-8.8,34.9-33.8,26.2-57.8-4.8-13.3-9.1-26.9-12.8-40.6-2-7.3-2.4-15.1,2.7-21.8,3.3-4.3,7.7-6.4,13.1-4.6,5.4,1.7,7.9,6,7.9,11.4,0,2.2-1.7,6-3.2,6.2-2.7.4-5.7-1.1-8.6-1.9,1.4-2.8,2.7-5.5,5-10.1-.7-.5-3.8-3.8-5.4-3.2-3.3,1.3-8.1,4.4-8.4,7.1-.8,8.1-1.2,16.7.9,24.4,3.6,13.3,9.2,26.1,14.3,40.1,2-5.1,3.5-9.2,5.4-13.2,4.7-9.8,12.7-15.1,23.5-15.9,9.9-.7,19.1,7.6,19.7,17.4.6,8.9-7,16-15.3,13.7-2.6-.7-5.9-3.6-6.4-6-.4-2.1,2.2-6.3,4.4-7,2.3-.7,5.6,1.4,8.3,2.6.9.4,1.4,1.7,2.3,2.9,4.6-3.6,3.4-7.8,1.9-11.7-2.2-5.6-6.6-8.6-12.5-9.1-10.9-1-21.3,7-24.8,19.4-2.6,9.1-5,18.3-7.2,27.4-4.2,17.4-14.6,29.1-31.6,34.3h0Z"/>
    <path class="cls-1" d="M432.3,176c-.9,12.6-10.1,19.2-23.4,17.9-.9-.1-2-.1-2.8-.5-20.8-8.7-36.1.5-51,14.2-22.8,21-49.3,36.6-77.4,49.5-15.7,7.2-31,15.1-46.6,22.6-29.6,14.2-61,17.6-93.4,15.2-40.9-3.1-81.2-10.1-120.7-21.3-1.5-.4-3.1-.6-3.7-.7,10.1,9.8,20.4,20.2,31.2,30.1,9.1,8.4,19.7,14,32.6,13.1,2.8-.2,5.9-.3,8.2-1.7,2.6-1.5,5.8-4.1,6.2-6.7.3-1.8-3.6-4.3-6.7-7.6-.9,3.2-1.1,5.4-1.6,5.5-2,.3-4,0-6.1-.2.3-1.6,0-3.8,1-4.7,3.7-3.3,13.9-2,17.1,1.9,3.3,3.9,2,9.8-3.4,12.4-10.8,5.2-21.9,5.3-32.8.1-7.7-3.6-15.3-7.4-22.1-10.8-2.6,4.3-6.1,9.9-9.6,15.6h0s-4.7,0-4.7,0c.5-1.5,1.3-3,2.3-4.4.5-.8,1.2-1.4,1.8-2.2,8.2-9.7,8.3-12,.7-22.5-6.5-8.9-16.5-15.6-27.4-19.1v-8.9c34,7.4,66,14.9,98.4,21.1,23.8,4.6,48,5.8,71.9.5,26.7-5.9,45.2-22.8,53.5-47.9,6.3-18.8.4-37.5-13.8-52.3-6.6-6.9-15.3-9.3-24.8-7-2.3.6-4.6,1.7-6.9,1.6-1.9-.1-3.8-1.6-5.7-2.6,1.1-1.9,2.1-5.2,3.3-5.3,6.9-.2,14.9-1.7,20.5,1.2,9.6,5,17.6,12.9,25.8,19.1,6.1-10.7,13-23.5,20.4-35.9,3.9-6.5,8.2-12.8,13.2-18.4,7.2-7.9,18.1-9.4,25.8-4.7,6,3.6,7.4,8.6,3.6,15.6.8-6.8-.2-12.1-6.5-14.1-7.6-2.5-15.3-.8-20.3,5-6.8,7.9-12.1,17.1-18,25.7.6.6,1.3,1.1,1.9,1.7,3.5-1.6,6.9-3.4,10.6-4.8,12.1-4.5,22.7-2.1,29.7,6.5,7.2,8.9,7.8,23.6,1.4,33.3-6.1,9.1-20,9.9-26.9,1.4-5-6.2-3.9-15.4,3.1-19,2.7-1.4,7.9-1.3,10,.5,3.6,3.1,1.9,7.1-1.9,9.8-.6-2.9-1-5.8-2-8.4-.1-.4-4-.1-5,.9-1.5,1.5-3.1,4.7-2.4,5.9,2.1,3.9,4.7,8.3,8.2,10.4,4.6,2.8,9.6.6,13.3-3.5,5.3-5.9,5.9-16.7,1.4-25.5-4-7.8-9.3-10.6-18.7-9.6-16.7,1.7-40.2,18.1-34.7,44.3,5.4,25.6-3.6,45.4-21.9,62.3-2.4,2.3-4.6,4.9-6,8.6,1.8-.2,3.6-.1,5.2-.6,40.9-12.1,79.4-29.4,114.1-54.3,15.8-11.4,19.6-27.9,16.2-46.1-3-15.6-9.2-20.2-25.8-21.5,7.2-4.4,15.1-3.3,20.9,3.6,10.2,12.2,11,26.7,9.3,41.7-.3,3.2-1.1,6.3-1.6,9.4.6.3,1.3.6,1.9,1,5.3-6.8,11.5-13,15.7-20.4,11.5-19.9,21.6-40.6,24.9-63.7,2.6-18.3-.5-35.5-14.2-49.3-11-11.1-26.3-8.3-30,5.2-.3,1,0,2.2,0,4.5,2.8-.8,5-1.8,7.1-1.7,2.1,0,5.2.5,6.1,1.9.9,1.5.4,4.8-.7,6.4-3.7,5.2-9.2,5.4-14.7,3.4-5.2-1.8-5.9-6.3-5.1-11.1,2.5-15.2,20.5-23.9,34.1-16.3,14.7,8.2,19.5,22.5,22.5,37.7,3.4,17.2-2.1,33.3-8,49.1-4.1,11-8.9,21.8-13.6,33.4,1.8-.5,3.2-.6,4.2-1.2,9.4-5.5,19.2-5.2,29.5-2.8,5.4,1.3,11.2,1.9,16.7,1.3,10.4-1,12.6-7.2,6.1-15.6-1.9-2.5-3.7-5.1-5.5-7.7.4-.9.8-1.8,1.2-2.6,3.8.7,8.5.4,11.1,2.5,2.6,2.1,4.5,6.8,4.2,10.2h0Z"/>
    <path class="cls-1" d="M145,320h-33.2c1.8-13.3,10.6-17.5,35-21.8-8.4,6.3-19.1,7.5-23,16.7,9.6-4.7,19.2-9.4,29.4-14.4,1.5,10.7-.4,15.5-8.1,19.4h0Z"/>
    <path class="cls-1" d="M218.8,216.9c-9.4-1.7-17.2-5.2-26.3-.7,8.9,1.9,16.5,3.5,24.4,5.2-5.1,9.9-14.5,13.5-23.9,10.4-8.1-2.8-16.4-5.2-23.8-7.5,23.3-21.6,31.5-22.7,49.6-7.3h0Z"/>
    <path class="cls-1" d="M6.8,229.4c13.6-20,24.1-23.2,44.7-12.4-8,.2-15.9.5-23.8.7,0,.6,0,1.3,0,1.9,8.6.8,17.3,1.5,26.5,2.4-5.7,10.1-11.2,12.8-21,11.3-8.9-1.4-17.9-2.6-26.6-3.9h0Z"/>
    <path class="cls-1" d="M300,251.7c22.5-6.1,31.1-1.4,40.9,20.4-8.7-.3-17.8-.7-27-1.1-9.6-.4-14.5-4.4-17.4-15.1,9.2,1.1,17.9,2.2,25.9,3.2-1-1.8-8.5-4.3-22.5-7.4h0Z"/>
    <path class="cls-1" d="M120.9,278.6c-1.5-21.4,5.1-29.4,26-32.6-1.7,7-3.7,14.4-5.2,21.8-1.8,8.7-7.2,13.3-17.6,15.1,2.7-8.5,4.9-15.8,7.3-23.2-.4-.2-.9-.5-1.3-.7-3.1,6.5-6.1,12.9-9.2,19.5h0Z"/>
    <path class="cls-1" d="M109.4,240.7c-7.5-.2-14.9-.5-22.4-.7-9.9-.3-13.6-2.9-17.6-13.4,8.4.9,16.1,1.7,24.8,2.6-5.8-5.1-12.8-5-19.7-6,15.7-7.6,27.4-1.3,34.8,17.5h0Z"/>
    <path class="cls-1" d="M285.1,257.6c-2.5,3.1-4.7,6-6.9,8.8.3.3.6.7.9,1,3-2.2,5.9-4.3,9.3-6.9,5.3,16-10.1,18-15.8,26.6-5.3-15.5-1-25.7,12.4-29.5h0Z"/>
    <path class="cls-1" d="M69,254.3c-1.8-6.5-8.9-10.5-15.6-8.8-6.8,1.8-10.6,8.4-8.7,15.4,1.8,6.8,8.5,10.6,15.4,8.9,6.5-1.6,10.7-9,8.9-15.5ZM59,267.2c-5.3,1.3-10.6-2-11.8-7.4-1.2-5.4,2.2-10.5,7.6-11.8,5.1-1.1,10.6,2.5,11.7,7.8.9,4.8-2.6,10.2-7.5,11.4Z"/>
    <path class="cls-1" d="M257.5,242.3c-1.8-6.7-8.7-10.4-15.5-8.5-6.6,1.9-10.6,9.1-8.7,15.6,1.9,6.6,9,10.4,15.7,8.5,6.7-1.9,10.4-8.7,8.5-15.6ZM248.6,255.1c-5.3,1.7-10.7-1.1-12.4-6.4-1.7-5.3,1.2-10.8,6.6-12.3,5-1.5,10.8,1.8,12.2,6.9,1.4,5-1.4,10.2-6.4,11.8h0Z"/>
    <path class="cls-1" d="M394.4,205.8c-1.5-6.4-8.2-10.6-14.6-9.1-6.5,1.6-10.4,8.1-8.8,14.7,1.5,6.2,7.7,10.1,14,8.8,6.5-1.4,10.8-8,9.4-14.4ZM385.2,217.8c-5.4,1.4-10.8-1.7-12.1-7-1.2-4.9,2-10.1,7-11.5,5.4-1.5,10.5,1.5,11.9,7.1,1.3,5.2-1.5,10.1-6.8,11.4h0Z"/>
    <path class="cls-1" d="M275.5,153.9c-1.5-2.5-3.8-4.9-4.1-7.5-.2-1.8,2.4-3.9,3.8-5.8,1.1,1,2.2,2,3.4,3-1.5,1.5-2.9,2.9-5.2,5.1,1,1,2.4,2.5,3.9,4-.6.4-1.2.8-1.8,1.1h0Z"/>
    <path class="cls-1" d="M9.7,320h-2.2c-1.2-2.6-3-5-5-7.3,1.1,2.7,1.4,5.1.7,7.3H.9C2.1,317.3,1.4,314.5,0,312v-4.7c4.3,3.7,7.6,7.9,9.7,12.6Z"/>
  </g>
  <g>
    <path class="cls-1" d="M1582.2,89.1c-6.3-.5-12.6-1-18.9-1.6-14.1-1.4-27.3,1-39.2,7.4-3,1.6-5.2,5.8-5.4,8.9,0,1.8,4.7,3.7,6.5,5,2.4-3.2,3.8-5,5.2-6.9,1.6,1.4,4.8,3.7,4.5,4.2-1.5,2.1-4.1,5.4-6,5.2-3.9-.3-8.3-1.9-11.1-4.2-4.7-3.9-1.4-8.3,1.1-12.2,2.2-1.6,4.5-3.1,6.7-4.7,17-7.1,34.4-7.1,52.2-2.8,1.5.4,2.9,1.1,4.4,1.7h0c0-.1,0,0,0,0Z"/>
    <path class="cls-1" d="M1582.2,89.1c.1,0,.3.1.4.2-.1,0-.3,0-.4,0,0,0,0-.1,0-.1Z"/>
    <path class="cls-1" d="M1597.4,72.2c0,.4-.2.8-.2,1.2,0-.4,0-.8,0-1.3h.1s0,0,0,0Z"/>
    <path class="cls-1" d="M1922.6,234.4c-.6,1.8-1.6,3.5-2.6,5.1-.4.7-.8,1.5-1.2,2.2-2.6-1.4-6-2.4-7.7-4.3-3-3.4-4.7-7.6-7.3-11.3-7.2-10.1-21.4-11.5-31.2-3-7.2,6.3-9.6,14.5-11.3,22.9-.8,4-2.2,7.9-3.3,11.9,1.1.2,2.2.3,3.3.5.7-1.3,1.3-2.7,2-4,.3,0,.6,0,.8.1-2.4,17.1,2.6,32.6,14,46.5,5.2,6.4,10.7,12.7,16.2,19,0,0,.1.1.2.2h-31.6c-.2,0-.4-.1-.6-.2-1.9-.7-3.9-1.4-5.9-2-2.6-.8-5.6-.9-8.4-.7-12,.8-24,1.8-36,2.7-.9,0-1.9.1-2.8.2h-122.6c-.5,0-1-.1-1.4-.2-28.4-4.3-55.9-12.5-81.7-26-21.9-11.5-42.7-24.5-56.2-44-8.6-12.4-14.3-25.5-13.6-40.1.5-10.4,5.5-19.2,15.8-25,4-2.2,9.3-3.6,14.1-3.6,8.7,0,12.7,7.2,9,12.9-1.1-2.5-1.8-7.9-3.8-8.2-5.2-.8-11.9-.9-16.1,1.3-10.3,5.5-15.4,14.4-16,24.8-1,16.5,7.2,30.3,17.8,43.2,7.1,8.7,15.4,16.7,27.5,22.6-4.2-5.5-8.6-9.9-10.9-14.9-2.7-6-4.7-12.6-4.7-18.9,0-8.7,6.5-13.8,18.7-15.9-8.3,3.8-15.1,7.6-14.4,14.9.6,6.4,2.2,13,4.9,18.9,7.3,16.3,22.7,25.7,40.5,33.1,43.2,18,89.1,24.7,136.6,22.7,27.1-1.1,54.1-4.5,81.1-6.9,2.3-.2,4.4-1.1,7-1.7-1.8-5.3-6.8-5.8-11-6.1-14.1-1-28.3-2-42.5-1.9-24.3.2-48.6,1.4-72.8,2.1-19.8.6-36.2-5.3-48.5-18.8-10.2-11.2-7.1-29,6.4-37.3,2.5-1.5,5.5-2.9,8.4-3.2,2.5-.3,5.4.8,7.7,1.9.7.3.8,3.5.4,3.6-2.3.8-4.8,1.4-7.2,1.3-7.9-.4-16.1,4.7-17.9,13.2-1.1,5.3.3,11,.5,16.5.9,0,1.8,0,2.7.1.7-1.8,1.3-3.6,2-5.4,3-7.1,13-11.6,20.9-9.3,1.5.5,2.6,2,3.9,3-1.4.9-2.7,2.3-4.3,2.5-2.6.4-5.7-.7-7.8.2-4.1,1.7-8.9,3.6-11,6.6-2.7,4-.5,8.9,4.3,11.2,8.1,3.8,16.4,8,25.3,9.6,20.5,3.6,41.2.8,61.8-1,10.8-1,21.5-2.1,32.3-2.3,10.8-.3,21.5.4,32.9-.1-10.4-3.2-20.6-6.9-31.2-9.4-29.6-6.8-57.2-17.1-80.8-34-27.6-19.7-47.3-44.6-62.4-72.2-8.3-15.2-15.4-30.9-23.4-46.2-12.3-23.4-22.8-37-61.4-30,12.5-5.3,25.5-5.3,38.9-2.1.2-.5.4-1,.6-1.5-8.3-3.7-16.6-7.4-24.9-11.2,4.2.6,8.4,1.1,11.3,1.5,1.1-5.8,2.2-11.6,3.3-17.3,0,1.3,0,2.6-.2,3.8-1.6,6.5.5,12.2,6.5,15.9,12.4,7.8,19.1,18.7,25.1,30.2,12.3,23.3,23.7,47,36.9,69.9,11.5,20,27.8,37.2,48.6,51.4-2.1-2.9-4.3-5.7-6.3-8.6-15.2-22-16.8-45.8-12.9-70.2,1.2-7.9,3.1-15.8,4.9-23.6,3.4-14.9-7.3-27.6-25-29.6-6.6-.7-11.1,1.4-13.8,6.7-3.2,6.1-2.4,12.6,2.2,16,4.4,3.3,11.1,2.5,13.5-1.8,1-1.8.6-4.2.2-6.3-.1-.6-3.3-1.4-3.6-1.1-1.2,1.3-1.9,3-4.5,4.3.4-2,.3-5.4,1.4-5.8,2.2-.7,5.7-.4,7.6.8,4.5,2.8,4.3,8.5.3,11.9-4.7,4-12.7,3.7-17.5-.6-4.9-4.4-5.9-11.5-2.6-17.8,3.2-6.2,8.8-8.9,16.5-9,2.7,0,5.5.3,8.2.4.2-.6.5-1.1.7-1.7-7-2.9-14-5.9-21.1-8.6-16.4-6.3-27.4-16.4-28.3-32-.9-15.8,7.9-28,23-36.8,6.4-3.7,14.2-3.3,18.8.3,3.7,3,4.4,6.4,1,9.8-2.5,2.5-5.9,5.2-9.8,2.2-1.9-1.5-2.3-4.4-3.4-6.7,2.5-.8,4.9-1.7,7.4-2.3.8-.2,1.8.2,3.3.5-8.2-5.1-17.3-4.1-23.5,2.8-3.8,4.2-7.1,8.8-9.6,13.6-9.9,18.8-3,34.8,18.6,44.1,3,1.3,6,2.6,9.1,3.7,18.1,6.3,33.8,14.4,35.3,34,15.4-6.6,28.8-17.1,46.8-10.2,2.5.9,4.4,3,6.6,4.6-.4.8-.8,1.6-1.2,2.3-3-.5-6.3-.3-8.8-1.5-15.6-7.4-27.7-.5-39.7,6.7-1.8,1.1-3.3,3.2-3.7,5.1-2.7,13.5-5.2,27-7.7,40.5.6.2,1.2.4,1.8.6,1.4-1.6,2.7-3.3,4.1-4.9,8.6-9.4,22.6-10.2,31.7-1.2,3.8,3.8,6.5,8.5,9,13,.8,1.5-.3,3.9-1.1,5.7-.2.5-3.5.8-3.7.4-1.1-1.7-2.5-3.9-2.1-5.5,1.1-4.2,0-7.6-3.6-10.5-5.8-4.8-12.4-7.3-20.3-4.4-8.9,3.3-14.8,9.4-15,17.4-.3,12.1,3.2,23.9,9.2,35.1,2.4-3.1,3.8-7,6.9-8.5,3.3-1.7,8.3-2,12.2-1.4,8.6,1.5,17.3,9.9,16.6,17.1-2.7-2.8-4.2-4.5-5.8-6.1-2.4-2.4-4.5-5.2-7.4-6.9-4.6-2.6-9.9-3.3-14.7.2-5,3.7-5.1,9-2.1,12.9,4.3,5.7,9.8,11.2,15.9,15.6,24,17.4,52.7,27.6,82.1,36.3,24.8,7.4,49.4,14.9,71,28.1.9.5,2,.8,5.1,2-11.9-14.1-20.4-27.6-25.1-42.8-11.2-36.9-18.4-74.1-12.5-112.5.7-4.7.7-9.4.7-14.1.2-11-7.4-20.3-18.2-22.5-6.1-1.2-11.6,0-15.6,4.2-3,3.1-4.5,6.6-1.5,11,1.5-1,2.4-2.2,3.6-2.4,2.8-.5,6.5-1.6,8.3-.5,2,1.2,3.3,4.6,3,6.8-.3,1.6-3.7,3.7-6,4-9,1.2-16.3-6.1-14.1-13.7,2.7-9.4,16-14.8,26.3-10.8,9.4,3.7,15.4,9.6,17,18.5.6,3.4.9,6.8,2.1,10.4,6.8-17.4,22.8-29.6,33.6-44.6,4.9-6.8,7.8-14.9,10-22.8.7-2.6-3-6.8-6-9.2-1.1-.9-5.7,1.5-8.7,2.4.1.6.3,1.2.4,1.8,1.7.9,3.5,1.8,5.2,2.7,0,.7.2,1.3.3,2-3,.4-5.9.9-8.9,1.3-.2-2.5-1.7-5.6-.5-7.5,4.5-7.1,15-6.9,18.6.4,1.9,3.8,2.7,9.2,1,12.8-4.3,9-8.7,18.7-15.9,25.9-31.4,31.4-37.9,67.6-30.6,106.8,1,5.3,2.3,10.5,3.5,15.7.2.7.8,1.3,1.9,3,4.2-15.3,12.2-27.6,25.1-37.4,10.2-7.7,23.4-11.6,36.5-11.2v9.1c-13.9-4.2-30.2-.4-44.9,14.9,4.7-1.4,9.3-3.3,14.1-3.9,11.1-1.3,24.9,5.4,30.8,14.1.6.9,1.2,1.9,1.6,2.9.6,1.3,1.3,2.9.9,4.1h0Z"/>
    <path class="cls-1" d="M1920,277.2v34.5c-3.1,3-6.9,5.6-10.6,8.3,0,0-.2.1-.3.2h-1.5c0,0,0-.1.1-.2,5.2-8,10.6-15.8,9-25-5,8.1-9.9,16.2-15.3,25,0,0,0,.1-.1.2h-.6c0,0-.1-.1-.2-.2-8.8-11.4-8.8-20.6-1-30.1,3-3.7,6.7-7,9.2-10.9,2.4-3.6,3.8-7.7,5.4-11.3,1.5,1.3,3.7,5.1,5.8,9.5h0Z"/>
    <path class="cls-1" d="M1780.7,267.8c-9.8-8.5-10.7-15.3-5.1-24.1,3.9-6.1,7-12.6,10.2-18.4,17.4,15.6,17.9,30.6-.7,44,2.5-7.6,8.4-14.1,5.1-22.7-3.3,7.3-6.2,13.8-9.5,21.2h0Z"/>
    <path class="cls-1" d="M1650.3,192.8c-1.5,6.3-2.9,12.2-4.2,18,.5.2,1.1.4,1.6.6,2.4-5.1,4.8-10.1,7-14.8,4.8,7.7,2.7,15.9-6.4,20.6-6.1,3.1-12.8,5.4-19.6,8.3,1.7-7.1,3.4-13.3,4.8-19.6,1.9-8.9,4-10.8,16.8-13.1h0Z"/>
    <path class="cls-1" d="M1710.4,69c7.6,19.2,4.1,30.5-12.8,39.7,3.5-6,7-12.1,10.5-18.2-.4-.2-.9-.3-1.3-.5-4.3,5.4-8.6,10.9-13.8,17.4-4.1-10.1-2.9-17.8,4.4-24.8,4.7-4.5,8.8-9.3,12.9-13.6h0Z"/>
    <path class="cls-1" d="M1595.7,155.7c12.5-12.9,25.5-16.6,33.9-8-5.3.1-10.6.3-15.9.4,0,.5,0,1,0,1.6,6,.8,12,1.5,18.5,2.3-5.4,7.5-11.1,9.5-19.2,7.5-5.7-1.4-11.4-2.6-17.2-3.9h0Z"/>
    <path class="cls-1" d="M1842.1,206.1c-4.6,9.5-8.4,11.6-18.2,11.4-5.6-.1-11.2.1-16.6.2,10.5-16.4,17.5-20.1,31.2-15.4-5.5,1.4-10.4,2.7-15.2,4,.2.5.3,1,.5,1.5,5.9-.6,11.8-1.1,18.4-1.7h0Z"/>
    <path class="cls-1" d="M1644.8,314.7c0,1.9,0,3.7,0,5.5h-8.5c1.7-2.1,4.3-3.9,8.4-5.5Z"/>
    <path class="cls-1" d="M1651.7,320.2h-3.1c.2-1.1.4-2.1.7-3.1,1,1,1.8,2.1,2.4,3.1Z"/>
    <path class="cls-1" d="M1804.5,170.8c19.7-7.9,27.9-7.4,37.5,2.8-5.8-1.5-11.2-2.9-16.6-4.4-.2.4-.3.9-.5,1.3,5,2.1,10,4.1,15.3,6.3-8.1,5.1-13.7,5.3-21,1.4-4.8-2.6-9.8-4.9-14.7-7.4h0Z"/>
    <path class="cls-1" d="M1615.1,291.6c-8-11.3-6.9-15.1,8.1-28.8-1.1,9.8,10.3,19.5-3.1,28.9-1.4-4.2-2.7-7.9-4-11.6-.4,0-.9,0-1.3,0,0,3.5.2,7.1.3,11.6h0Z"/>
    <path class="cls-1" d="M1572.6,281.6c1.3,4.2,2.2,7.3,3.2,10.4.5,0,1,0,1.5,0,0-2.7-.1-5.4-.2-8,8.1,6.3,5.2,15.6-7.7,23.1-.2-8.5-10.1-17.3,3.2-25.4h0Z"/>
    <path class="cls-1" d="M1855.4,169.4c5.5.6,9.9,1.1,14.2,1.6.1-.4.3-.7.4-1-3.8-1.1-7.6-2.3-11.4-3.4,9-4.9,17.2-.1,24.5,14.6-9.7-3.6-22.4,1.5-27.7-11.8h0Z"/>
    <path class="cls-1" d="M1851,263.2c-5.3-5.7-14.9-6.6-21.8-1.9-6.6,4.4-7.7,12.3-2.5,18.1,5,5.6,14.6,6.6,21.2,2.3,7.1-4.6,8.5-12.7,3.1-18.5h0ZM1846.1,279.5c-4.8,3.2-12.2,2.5-16.2-1.5-4.5-4.5-4-11.2,1.3-14.9,4.9-3.4,12.6-2.7,16.8,1.6,4.3,4.4,3.5,11.2-1.9,14.8h0Z"/>
    <path class="cls-1" d="M1863.2,254.4c.7-10.2,9.2-16.9,19.9-15.6,6.3.8,11.8,5.4,11.3,10.1-.2,1.5-1.6,3.4-3.1,4.1-.9.4-3.7-.7-4.5-1.7-3.1-3.7-5.1-9.7-12.1-6.8-4.2,1.8-6.9,6.2-10.2,9.5-.2.1-.3.3-.4.5-.3,0-.6,0-.8-.1h0Z"/>
    <path class="cls-1" d="M1566.3,278.2c-7.1,8.7-15.2,2.8-23.1,3,10.2-8.9,14.8-10.2,21.8-6.2-2.6.1-4.8.3-7,.4,0,.3-.1.6-.2.9,2.6.5,5.1,1.1,8.6,1.8h0Z"/>
    <path class="cls-1" d="M1682.5,169.6c-3.6-4-10.5-4.7-15.4-1.6-5,3.2-5.8,8.6-1.9,12.9,3.9,4.3,10.3,5.1,15.1,1.9,4.7-3.1,5.7-9.2,2.2-13.1h0ZM1678.7,181c-4,2.7-8.3,2.1-11.5-1.1-3.4-3.5-3-7.9,1.4-10.1,3-1.5,7.5-.6,10.2-.8,4.3,5.5,4,9.1-.2,11.9h0Z"/>
    <path class="cls-1" d="M1597.4,72.2c.1-2.6.6-5.3.3-7.9-.6-6.9-4.6-8.5-11.4-4.8-1.4.8-2.8,1.5-4.1,2.2-.6-.3-1.2-.5-1.8-.8,1-1.8,1.7-5,3-5.2,3.9-.5,8.9-1.1,11.9.5,6.6,3.5,6.8,9.7,2,15.9,0,0,.2,0,.2,0h0Z"/>
  </g>
</svg>