<?xml version="1.0" encoding="UTF-8"?>
<svg id="Layer_1" xmlns="http://www.w3.org/2000/svg" viewBox="0 0 841.89 595.28">
  <defs>
    <style>
      .cls-1 {
        stroke: #231f20;
        stroke-miterlimit: 10;
      }

      .cls-1, .cls-2 {
        fill: #5c4833;
      }

      .cls-2, .cls-3 {
        stroke-width: 0px;
      }

      .cls-3 {
        fill: #556e48;
      }
    </style>
  </defs>
  <g>
    <path class="cls-3" d="M274.88,321.92c6.9.21,14.53-1.03,20.2-3.61,4.95-2.27,7.73-8.55,2.16-12.67-3.61-2.78-15.15-5.36-19.58-5.98-1.75,2.06-13.09,18.34-16.59,26.07-1.24,2.68-2.37,3.09-1.34-.21,1.75-5.56,10.51-19.27,15.04-26.17-.93-.21-1.55-.31-2.47-.72-2.27-.82-1.85-2.78-.93-2.89,1.24-.1,4.12-.31,5.87-.82,6.18-8.45,11.95-18.96,14.74-24.94.62-1.24,1.55-4.22-.31-4.53-1.65-.31,6.59-4.84,5.87-.62-1.03,5.87-13.5,24.94-16.69,29.78,5.87-1.03,28.34-6.29,36.37-12.98,5.15-4.22,10.1-11.85,1.55-18.24-12.78-9.58-30.81-11.54-47.5-11.85-3.81-.1-25.97-1.55-31.53,9.38-2.16,4.22,4.33,9.17,6.8,10.51,2.06,1.13,1.96,2.78-.52,1.24-4.64-2.89-12.26-7.32-9.07-12.98,5.15-9.27,32.36-10,34.11-10,18.65.31,34.93,1.24,49.46,11.33,9.48,6.59,7.01,15.97-1.75,21.85-10.61,7.21-26.89,11.13-36.06,12.67-1.75.31-1.75,1.44-.1,1.65,8.55,1.13,15.97,5.36,18.24,7.62,6.39,6.29-.41,11.44-5.05,14.63-4.64,3.2-11.54,5.05-20.2,4.53-4.43-.31-2.47-2.16-.72-2.06Z"/>
    <path class="cls-3" d="M350.61,299.26c-4.64.72-19.99.72-28.23.72-3.09,4.12-7.32,10.3-7.73,16.8-.31,6.08,3.4,7.52,6.9,7.11,4.53-.52,10.2-2.78,13.91-4.95,1.13-.62,1.96-.1.82.72-2.89,2.06-8.76,5.56-13.81,6.49-4.12.72-10.51-4.02-10.3-9.38.72-15.04,17.1-31.74,26.69-35.34,5.15-1.96,8.45,5.15,6.18,9.17-2.16,3.81-7.93,6.59-14.73,7.62,7.52,0,15.87,0,20.3-.52,2.89-.31,6.18-2.16,7.83-3.61.62-.93,1.44-.52.72.41-1.34,1.44-4.74,4.23-8.55,4.74ZM338.66,285.14c-5.05,2.89-10.51,8.04-15.15,13.09,7.21,0,15.77-3.61,19.06-8.55,2.89-4.43.21-6.8-3.92-4.53Z"/>
    <path class="cls-3" d="M353.7,291.01v-.31c25.45-57.7,52.65-87.48,81.82-89.23,10-.62,18.86,2.47,26.38,8.96,7.73,6.49,11.33,13.81,10.51,22.05-.21,2.58-1.03,5.15-2.27,7.63-6.49,12.37-24.01,23.91-52.66,34.83-19.58,7.42-39.77,13.19-60.59,17.11-2.27,6.39-4.02,14.12-4.22,19.68-.31,12.88,8.55,10.51,15.15,5.77,2.58-1.86,1.85,0,.82.93-9.58,8.55-19.78,8.35-20.2-4.43-.31-7.11,1.85-15.04,5.26-22.98ZM469.73,230.73c.82-7.21-2.37-13.7-9.17-19.27-6.9-5.77-15.25-8.55-25.04-8.14-16.49.62-33.39,13.29-50.59,37.3-10.3,14.43-19.17,30.29-26.69,47.81h.1c-.31.72-.52,1.34-.93,2.06,25.04-5.15,47.4-11.95,66.98-20.51,23.49-10.3,38.02-21.23,43.59-32.66,1.03-2.16,1.54-4.33,1.75-6.59Z"/>
    <path class="cls-3" d="M392.65,257.32c6.59-10.1,15.66-20.4,25.04-31.32.52-.62,2.47-1.44,5.77-2.68,3.3-1.13,4.22-1.75,5.87-1.75.82,0,1.13.41,1.13.93,0,.41-.31.52-1.03.72-6.49,1.34-17.11,12.16-32.05,32.66-8.35,12.36-14.12,22.36-20.2,36.17-2.27,6.39-4.02,14.12-4.22,19.68-.31,12.88,8.55,10.51,15.15,5.77,2.58-1.86,1.85,0,.82.93-9.58,8.55-19.78,8.35-20.2-4.43-.82-18.03,13.5-40.6,23.91-56.67Z"/>
    <path class="cls-3" d="M427.27,299.26c-4.64.72-19.99.72-28.23.72-3.09,4.12-7.32,10.3-7.73,16.8-.31,6.08,3.4,7.52,6.9,7.11,4.53-.52,10.2-2.78,13.91-4.95,1.13-.62,1.96-.1.82.72-2.89,2.06-8.76,5.56-13.81,6.49-4.12.72-10.51-4.02-10.3-9.38.72-15.04,17.1-31.74,26.69-35.34,5.15-1.96,8.45,5.15,6.18,9.17-2.16,3.81-7.93,6.59-14.73,7.62,7.52,0,15.87,0,20.3-.52,2.89-.31,6.18-2.16,7.83-3.61.62-.93,1.44-.52.72.41-1.34,1.44-4.74,4.23-8.55,4.74ZM415.32,285.14c-5.05,2.89-10.51,8.04-15.15,13.09,7.21,0,15.77-3.61,19.06-8.55,2.89-4.43.21-6.8-3.92-4.53Z"/>
    <path class="cls-3" d="M476.94,298.64c.82,0,.93.72,3.5,1.55,4.22.21,9.27-.62,15.35-2.27,6.08-1.75,11.23-3.92,15.35-6.49,7.21-4.43,10.82-10.2,10.82-17.41,0-6.8-2.99-12.88-8.96-18.03-4.74-4.23-11.44-7.52-19.99-10-8.45-2.47-17.41-3.71-26.79-3.71-8.55,0-16.49,1.03-23.6,3.19-6.7,1.96-10.1,5.87-10.1,11.13,0,1.85.41,3.92,1.44,6.18,1.03,2.16,1.54,3.3,1.54,3.3,0,.1-.21.1-.31.1-.21,0-.52-.21-1.13-.82-2.16-2.37-3.09-5.25-3.09-8.45,0-6.29,3.71-10.51,11.13-12.88,7.42-2.37,15.66-3.5,24.83-3.5s18.44,1.13,27.1,3.5c8.76,2.37,15.66,5.46,20.81,9.48,7.32,5.67,11.03,12.06,11.03,19.37,0,8.14-4.64,14.84-13.81,19.99-3.71,2.16-8.35,4.02-13.81,5.67-6.29,1.96-12.06,2.99-17.52,3.3-.52,0-.62.51-.52,1.34.52,3.09,1.96,7.52,4.33,13.09,2.58,5.98,4.95,9.99,7.11,12.16,2.37,2.37,4.54,3.5,6.6,3.5.82,0,1.65-.1,2.68-.52.51-.1.82-.21,1.13-.21.31.1.41.21.31.31-.1.31-.41.52-.82.72-1.44.82-2.88,1.13-4.22,1.13-2.16,0-4.74-1.13-7.73-3.4-1.96-1.55-4.95-6.18-8.86-13.91-3.92-7.73-5.87-12.88-5.87-15.25,0-1.44.72-2.16,2.06-2.16ZM474.36,292.35c-9.69,14.73-14.12,23.91-13.71,27.41.1.72-.62,1.03-1.85,1.03s-1.96-.52-2.16-1.24c-1.03-3.3,9.99-21.23,33.08-53.79.82-.82.93-1.65.52-2.47-.1-.21-.21-.41-.21-.52,0-.62.31-.93.82-.93.41,0,.72.21,1.03.52,1.03,1.03,1.44,1.75,1.03,2.16-6.18,9.27-12.47,18.55-18.55,27.82Z"/>
    <path class="cls-3" d="M512.39,321.2c.1-5.56,4.64-14.01,13.81-25.25.21-.41.1-.82-.21-.93-1.24-.72-2.78-1.65-2.78-2.47,0-.41-.21-1.34,2.99-1.44,2.58-.1,3.81-.21,3.92-.1.21,0,.62-.1,1.13-.41,1.55-1.44,2.99-2.16,4.53-2.27,1.13-.1,2.68.72,4.64,1.85.21.1.41.31.72.41,3.09.1,7.62.21,13.39.41,1.03,0,1.55.21,1.55.41,0,.31-.52.62-1.55.62-2.16,0-3.5.41-4.12,1.24-.1.21-.1.41,0,.62.1.41.31.82.31,1.13-.41,5.15-4.43,11.13-12.57,18.14-8.04,6.9-15.04,10.92-21.12,11.75-1.96.31-4.64-1.55-4.64-3.71ZM514.96,321.72c0,1.65,1.13,2.27,3.3,1.85,4.64-.72,10.2-4.02,16.8-10.1,6.9-6.18,10.82-11.75,11.85-16.69.52-2.16-.93-3.3-3.92-3.61-3.3-.41-6.18,0-8.66.93-.21-.1-.82.31-1.75.93-7.32,6.8-12.98,14.94-17,24.42-.41.72-.62,1.55-.62,2.27Z"/>
    <path class="cls-3" d="M561.84,289.05c.31-.82.62-1.34.1-.21v-.72c25.55-57.7,52.76-87.48,81.92-89.23,9.89-.62,18.75,2.47,26.38,8.96,7.73,6.49,11.23,13.81,10.41,22.05-.21,2.58-1.03,5.15-2.27,7.62-6.49,12.37-24.01,24.01-52.55,34.83-19.68,7.52-39.98,13.19-60.79,17.1-1.96,3.5-4.12,9.07-7.01,16.8-.93,2.37-1.65,4.33-2.16,5.98,2.37-2.16,6.9-5.15,13.6-9.58,8.14-5.36,14.32-8.97,18.34-10.61.62-.31,1.34-.41,2.06-.41,2.47,0,3.5,1.24,3.4,3.81-.21.93-.72,1.96-1.24,3.09-4.02,6.7-10.1,12.47-18.55,17.52-8.45,5.05-16.28,7.52-23.29,7.42-.21,0-.41-.1-.62-.21-1.03-.31-1.96-1.44-1.96-2.47.31-.72.72-1.44,1.44-2.47,2.68-6.29,6.59-15.46,11.64-27.2.1,0,.21-.1.31-.52,0-.1-.1-.21,0-.31,0-.1.21-.21.21-.31l.1-.1v.21c.1-.21.21-.41.31-.72,0,.1-.1.21-.1.21.1-.21.21-.41.31-.52ZM554.12,318.32c0,.1.1.1.1.21-.1.1-.1.31-.21.41l.1.41c-.21.82-.1,1.44.51,1.55.62.21,2.16.1,4.74-.41,5.26-1.13,10.3-3.61,15.66-7.52,5.56-4.02,9.27-8.24,11.13-12.57l.41-1.65c.1-2.06-.51-3.19-2.27-3.19-1.44,0-5.98,2.47-13.4,7.42-5.98,4.02-10.41,7.32-13.5,9.69-1.65,1.34-2.78,3.3-3.3,5.67ZM678.08,228.16c.62-7.21-2.37-13.7-9.17-19.27-7.01-5.77-15.35-8.55-25.04-8.14-16.59.62-33.49,13.29-50.7,37.3-10.61,14.94-19.89,31.53-27.51,49.87,25.04-5.15,47.4-11.85,67.08-20.51,23.39-10.2,37.92-21.23,43.48-32.66,1.03-2.16,1.44-4.33,1.85-6.59Z"/>
    <path class="cls-3" d="M631.5,299.26c-4.64.72-19.99.72-28.23.72-3.09,4.12-7.32,10.3-7.73,16.8-.31,6.08,3.4,7.52,6.9,7.11,4.53-.52,10.2-2.78,13.91-4.95,1.13-.62,1.96-.1.83.72-2.89,2.06-8.76,5.56-13.81,6.49-4.12.72-10.51-4.02-10.3-9.38.72-15.04,17.11-31.74,26.69-35.34,5.15-1.96,8.45,5.15,6.18,9.17-2.16,3.81-7.93,6.59-14.73,7.62,7.52,0,15.87,0,20.3-.52,2.88-.31,6.18-2.16,7.83-3.61.62-.93,1.44-.52.72.41-1.34,1.44-4.74,4.23-8.55,4.74ZM619.55,285.14c-5.05,2.89-10.51,8.04-15.15,13.09,7.21,0,15.76-3.61,19.06-8.55,2.88-4.43.21-6.8-3.92-4.53Z"/>
    <path class="cls-2" d="M257.12,374.68v-28.64h12.75c4.98,0,8.03,3,8.03,7.3,0,3.61-2.4,6.01-5.02,6.57,3.05.47,5.58,3.61,5.58,7.04,0,4.59-3.05,7.73-8.29,7.73h-13.05ZM260.69,358.45h8.59c3.22,0,4.94-1.97,4.94-4.59s-1.72-4.64-4.94-4.64h-8.59v9.23ZM260.69,371.5h8.76c3.35,0,5.32-1.89,5.32-4.94,0-2.62-1.8-4.94-5.32-4.94h-8.76v9.88Z"/>
    <path class="cls-2" d="M284,374.68v-20.74h3.22v3.35c1.67-2.19,4.08-3.78,6.91-3.78v3.31c-.39-.09-.77-.13-1.29-.13-1.98,0-4.68,1.63-5.62,3.31v14.68h-3.22Z"/>
    <path class="cls-2" d="M312.16,374.68v-2.92c-1.59,1.8-4.29,3.44-7.39,3.44-4.34,0-6.61-2.1-6.61-6.61v-14.64h3.22v13.65c0,3.65,1.85,4.72,4.64,4.72,2.53,0,4.94-1.46,6.14-3.13v-15.24h3.22v20.74h-3.22Z"/>
    <path class="cls-2" d="M336.85,374.68v-3.09c-1.55,2.1-4.08,3.61-7,3.61-5.41,0-9.23-4.12-9.23-10.86s3.78-10.91,9.23-10.91c2.79,0,5.32,1.37,7,3.65v-11.04h3.22v28.64h-3.22ZM336.85,359.65c-1.16-1.8-3.65-3.35-6.23-3.35-4.16,0-6.66,3.44-6.66,8.03s2.49,7.99,6.66,7.99c2.58,0,5.07-1.46,6.23-3.26v-9.4Z"/>
    <path class="cls-2" d="M355.53,353.43c6.27,0,9.96,4.89,9.96,11.12v.82h-16.79c.26,3.91,3.01,7.17,7.47,7.17,2.36,0,4.77-.94,6.4-2.62l1.55,2.1c-2.06,2.06-4.85,3.18-8.24,3.18-6.14,0-10.56-4.42-10.56-10.91,0-6.01,4.29-10.86,10.22-10.86ZM348.7,363h13.61c-.04-3.09-2.1-6.91-6.83-6.91-4.42,0-6.61,3.74-6.78,6.91Z"/>
    <path class="cls-2" d="M368.75,365.71v-2.83h10.31v2.83h-10.31Z"/>
    <path class="cls-2" d="M393.43,364.29c0-6.01,3.95-10.86,10.26-10.86s10.26,4.85,10.26,10.86-3.95,10.91-10.26,10.91-10.26-4.89-10.26-10.91ZM410.57,364.29c0-4.21-2.45-7.99-6.87-7.99s-6.91,3.78-6.91,7.99,2.49,8.03,6.91,8.03,6.87-3.78,6.87-8.03Z"/>
    <path class="cls-2" d="M420.78,377.6c1.72,2.06,3.78,2.83,6.74,2.83,3.43,0,6.66-1.67,6.66-6.23v-2.96c-1.5,2.1-4.04,3.69-6.96,3.69-5.41,0-9.23-4.04-9.23-10.73s3.78-10.78,9.23-10.78c2.79,0,5.28,1.37,6.96,3.65v-3.13h3.22v20.14c0,6.87-4.81,9.02-9.88,9.02-3.52,0-5.93-.69-8.37-3.09l1.63-2.4ZM434.18,359.65c-1.12-1.8-3.61-3.35-6.18-3.35-4.16,0-6.65,3.31-6.65,7.9s2.49,7.9,6.65,7.9c2.58,0,5.07-1.59,6.18-3.39v-9.06Z"/>
    <path class="cls-2" d="M459.04,356.78v17.9h-3.22v-17.9h-3.44v-2.83h3.44v-1.59c0-4.29,2.4-6.74,6.01-6.74,1.2,0,2.32.21,3.13.73l-.82,2.41c-.52-.3-1.12-.47-1.85-.47-2.1,0-3.26,1.46-3.26,4.08v1.59h4.21v2.83h-4.21Z"/>
    <path class="cls-2" d="M476.08,353.43c6.27,0,9.96,4.89,9.96,11.12v.82h-16.79c.26,3.91,3.01,7.17,7.47,7.17,2.36,0,4.77-.94,6.4-2.62l1.55,2.1c-2.06,2.06-4.85,3.18-8.24,3.18-6.14,0-10.56-4.42-10.56-10.91,0-6.01,4.29-10.86,10.22-10.86ZM469.25,363h13.61c-.04-3.09-2.1-6.91-6.83-6.91-4.42,0-6.61,3.74-6.79,6.91Z"/>
    <path class="cls-2" d="M491.11,369.62c1.37,1.59,3.99,2.96,6.83,2.96,3.18,0,4.89-1.42,4.89-3.44,0-2.28-2.53-3.01-5.32-3.69-3.52-.82-7.51-1.76-7.51-6.05,0-3.22,2.79-5.97,7.73-5.97,3.52,0,6.01,1.33,7.69,3.01l-1.5,2.23c-1.24-1.5-3.52-2.62-6.18-2.62-2.83,0-4.59,1.29-4.59,3.13,0,2.02,2.36,2.66,5.07,3.31,3.61.82,7.77,1.85,7.77,6.44,0,3.48-2.79,6.27-8.16,6.27-3.39,0-6.27-1.03-8.37-3.26l1.67-2.32Z"/>
    <path class="cls-2" d="M511.84,370.35v-13.57h-3.43v-2.83h3.43v-5.67h3.22v5.67h4.21v2.83h-4.21v12.88c0,1.55.69,2.66,2.1,2.66.9,0,1.76-.39,2.19-.86l.94,2.4c-.82.77-1.97,1.33-3.86,1.33-3.05,0-4.6-1.76-4.6-4.85Z"/>
    <path class="cls-2" d="M537.95,374.68l-7.47-9.32-3.44,3.39v5.92h-3.22v-28.64h3.22v18.94l10.91-11.04h4.08l-9.19,9.4,9.23,11.33h-4.12Z"/>
    <path class="cls-2" d="M549.11,353.94v22.76c0,4.08-2.19,6.4-6.1,6.4-.9,0-1.63-.09-2.32-.3l.43-2.71c.43.17,1.03.21,1.55.21,1.89,0,3.22-.99,3.22-3.61v-22.76h3.22ZM545.33,348.28c0-1.2.99-2.15,2.15-2.15s2.19.94,2.19,2.15-.99,2.19-2.19,2.19-2.15-.99-2.15-2.19Z"/>
    <path class="cls-2" d="M554.35,364.29c0-6.01,3.95-10.86,10.26-10.86s10.26,4.85,10.26,10.86-3.95,10.91-10.26,10.91-10.26-4.89-10.26-10.91ZM571.48,364.29c0-4.21-2.45-7.99-6.87-7.99s-6.91,3.78-6.91,7.99,2.49,8.03,6.91,8.03,6.87-3.78,6.87-8.03Z"/>
    <path class="cls-2" d="M580.11,374.68v-28.64h3.22v28.64h-3.22Z"/>
    <path class="cls-2" d="M598.79,353.43c6.27,0,9.96,4.89,9.96,11.12v.82h-16.79c.26,3.91,3.01,7.17,7.47,7.17,2.36,0,4.77-.94,6.4-2.62l1.55,2.1c-2.06,2.06-4.85,3.18-8.24,3.18-6.14,0-10.56-4.42-10.56-10.91,0-6.01,4.29-10.86,10.22-10.86ZM591.96,363h13.61c-.04-3.09-2.1-6.91-6.83-6.91-4.42,0-6.61,3.74-6.79,6.91Z"/>
    <path class="cls-2" d="M613.94,374.68v-20.74h3.22v3.35c1.67-2.19,4.08-3.78,6.91-3.78v3.31c-.39-.09-.77-.13-1.29-.13-1.98,0-4.68,1.63-5.62,3.31v14.68h-3.22Z"/>
  </g>
  <g>
    <path class="cls-1" d="M55.27,289.71c-.05-59.46,49.79-103.48,97.8-130.66,108.5-59.53,243.93-72.7,365.49-59.58-112.6-10.04-229.77.47-334.14,45.98-58.43,26.41-127.63,73.51-129.14,144.27h0Z"/>
    <path class="cls-1" d="M823.48,289.71c.45,47.83-33.76,87.29-70.86,113.55-110.64,76.07-270.94,91.69-401.55,75.67,91.77,9.68,185.86,4.41,274.91-20.44,78.06-21.78,194.81-75.22,197.5-168.78h0Z"/>
    <path class="cls-1" d="M273.83,480.29c-12.47,0-22.86-5.61-29.48-16.24-2.53-4.07-3.17-7.26-1.89-9.48,1.25-2.16,4.18-3.18,8.72-3.03,15.6.51,27.07,8.62,36.09,25.5l.59,1.11-1.21.33c-4.46,1.22-8.76,1.82-12.84,1.82ZM250.32,453.52c-3.24,0-5.35.7-6.13,2.04-.87,1.51-.23,4.08,1.85,7.43,8.08,12.99,22.19,18.01,38.86,13.87-8.56-15.43-19.32-22.85-33.79-23.33-.27,0-.54-.01-.8-.01Z"/>
    <path class="cls-1" d="M206.99,479.35l-1.2-.36c-17.99-5.4-28.28-18.03-28.25-34.65,0-4.8,1.16-7.84,3.42-9.04,2.2-1.17,5.23-.48,9,2.05,12.96,8.7,18.4,21.64,17.11,40.75l-.08,1.25ZM183.3,436.75c-.53,0-1,.11-1.4.32-1.54.82-2.35,3.34-2.36,7.28-.03,15.29,9.29,27.03,25.62,32.35.91-17.62-4.29-29.62-16.31-37.68-2.24-1.5-4.12-2.26-5.55-2.26Z"/>
    <path class="cls-1" d="M153.66,414.11c-3.44,0-6.76-.3-9.14-.51-3.54-.32-6.07-1.18-7.54-2.55-1.75-1.64-2.89-4.79,1.66-10.44,4.41-5.47,9.58-11.37,14.45-13.63,5.8-2.68,12.29-.81,19.15,1.16,3.2.92,6.51,1.88,9.86,2.4l1.24.19-.46,1.17c-4.16,10.43-9.34,16.33-17.9,20.36-3.06,1.44-7.27,1.85-11.32,1.85ZM159.55,387.65c-1.98,0-3.86.33-5.62,1.14-4.5,2.08-9.47,7.78-13.73,13.07-2.88,3.57-3.5,6.17-1.85,7.72,1.12,1.05,3.32,1.75,6.35,2.02,4.98.45,14.26,1.28,19.43-1.16,7.74-3.64,12.56-8.94,16.43-18.14-3.04-.56-5.99-1.41-8.86-2.24-4.26-1.23-8.37-2.41-12.14-2.41Z"/>
    <path class="cls-1" d="M242.82,456.32c-70.48-19.13-165.32-63.07-184.95-140.11-2.66-11.24-3.52-22.92-2.15-34.35-.83,11.42.19,23.03,3.2,34.09,21.21,76.02,114.44,118.54,183.9,140.37h0Z"/>
    <path class="cls-1" d="M99.15,453.79l-.47-1.16c-8.1-20.2-4.1-38.66,10.97-50.63,4.32-3.43,7.86-4.58,10.54-3.42,2.6,1.13,4.14,4.34,4.57,9.54,1.48,18.03-6.32,32.31-24.58,44.96l-1.03.71ZM118,400.14c-1.84,0-4.26,1.16-7.11,3.42-14.04,11.15-17.94,28.28-10.81,47.14,16.86-12.02,24.08-25.53,22.68-42.43-.36-4.35-1.52-7.07-3.37-7.87-.42-.18-.88-.27-1.39-.27Z"/>
    <path class="cls-1" d="M101.14,366.53c-6.07,0-13.92-3.51-18.3-5.47-4.38-1.96-6.69-4.25-6.87-6.81-.17-2.49,1.69-4.97,5.54-7.39,5.95-3.74,12.76-7.63,18.1-8.18,6.36-.64,11.88,3.23,17.73,7.34,2.73,1.91,5.54,3.89,8.54,5.48l1.11.59-.82.95c-7.33,8.51-14.15,12.4-23.56,13.42-.48.05-.97.08-1.48.08ZM100.99,340.61c-.39,0-.78.02-1.17.06-4.93.5-11.48,4.27-17.24,7.88-3.13,1.96-4.72,3.89-4.6,5.56.12,1.74,2.09,3.51,5.69,5.12,4.57,2.04,13.06,5.84,18.74,5.23,8.5-.92,14.79-4.36,21.44-11.8-2.69-1.52-5.21-3.29-7.65-5-5.15-3.62-10.03-7.04-15.21-7.04Z"/>
    <path class="cls-1" d="M822.87,299.86c5.87-72.87-61.61-123.18-120.44-151.75-20.64-10.11-42.14-18.32-63.94-25.58,22.11,6.38,43.82,14.27,64.67,24.05,59.49,27.79,128.19,79.87,119.71,153.28h0Z"/>
    <path class="cls-1" d="M631.56,126.79c-.3,0-.6,0-.91-.02-15.6-.55-27.04-8.69-36.03-25.59l-.59-1.11,1.21-.33c18.13-4.9,33.54.4,42.28,14.53,2.52,4.08,3.15,7.27,1.86,9.49-1.17,2.01-3.8,3.03-7.82,3.03ZM596.99,101.36c8.52,15.45,19.27,22.9,33.73,23.41,3.7.14,6.09-.56,6.93-2.01.88-1.51.24-4.08-1.83-7.43-8.04-13.01-22.14-18.06-38.83-13.97Z"/>
    <path class="cls-1" d="M690.41,141.66c-2.1,0-4.48-1.35-7.1-4.02-10.92-11.14-13.62-24.93-8.49-43.37l.34-1.21,1.1.6c16.52,8.94,24.04,23.39,20.63,39.66-.98,4.7-2.73,7.44-5.19,8.16-.42.12-.86.19-1.31.19ZM676.42,96.03c-4.47,17.07-1.81,29.87,8.32,40.21,2.59,2.64,4.8,3.78,6.41,3.31,1.67-.49,2.98-2.79,3.79-6.65,3.13-14.97-3.61-28.35-18.52-36.87Z"/>
    <path class="cls-1" d="M711.19,187.04c-4.52,0-9.2-1.83-14.08-3.74-3.1-1.21-6.31-2.47-9.6-3.3l-1.22-.31.57-1.12c5.1-10.01,10.81-15.4,19.7-18.62,5.88-2.13,15.38-.38,20.49.55,4.72.87,7.51,2.54,8.29,4.98.76,2.38-.46,5.23-3.63,8.49-4.9,5.04-10.58,10.44-15.65,12.24-1.61.57-3.23.81-4.88.81ZM689.22,178.4c2.97.84,5.84,1.96,8.62,3.05,6.3,2.46,12.25,4.79,17.57,2.9,4.67-1.66,10.15-6.87,14.88-11.75,2.58-2.65,3.67-4.9,3.16-6.49-.53-1.66-2.86-2.91-6.74-3.62-4.92-.9-14.08-2.58-19.45-.64-8.04,2.91-13.33,7.75-18.03,16.55Z"/>
    <path class="cls-1" d="M769.98,189.48c-.48,0-.95-.06-1.4-.19-2.73-.76-4.7-3.72-5.84-8.82-3.96-17.65,1.79-32.88,18.12-47.93l.92-.85.62,1.09c10.82,18.89,9.41,37.72-3.86,51.66-3.19,3.35-6.06,5.04-8.56,5.04ZM781.28,134.89c-15.04,14.24-20.31,28.61-16.6,45.16.96,4.26,2.49,6.79,4.43,7.33,2.02.56,4.78-.93,7.98-4.3,12.36-12.99,13.86-30.49,4.19-48.18Z"/>
    <path class="cls-1" d="M784.78,251.53c-6.16,0-11.29-4.13-16.71-8.49-2.59-2.09-5.28-4.25-8.17-6.02l-1.07-.66.88-.9c7.87-8.01,14.93-11.45,24.38-11.85,6.28-.28,14.79,4.25,19.38,6.68,4.24,2.24,6.4,4.68,6.41,7.24.01,2.49-2.01,4.85-6.01,7.01-6.19,3.34-13.23,6.78-18.6,6.98-.17,0-.33,0-.5,0ZM762.02,235.99c2.58,1.69,4.98,3.62,7.31,5.49,5.27,4.24,10.24,8.26,15.89,8.04,4.96-.18,11.74-3.51,17.72-6.74,3.25-1.76,4.97-3.57,4.96-5.25,0-1.74-1.85-3.64-5.34-5.48-4.42-2.34-12.61-6.68-18.36-6.45-8.54.36-15.04,3.39-22.17,10.38Z"/>
    <path class="cls-1" d="M808.87,237.3c.01.25-.53.27-.72.33-4.12.49-8.29.12-12.41-.22-4.35-.54-8.89-.83-12.99-2.45,1.06.28,2.16.35,3.26.45,4.71.42,11.68,1.06,16.4,1.56,1.13.1,3.81.4,4.92.46.41.02.82.04,1.23.02.11-.03.32,0,.32-.16h0Z"/>
    <path class="cls-1" d="M767.53,187.7c3.45-7.73,6.04-15.92,7.4-24.28.22-1.2.26-2.4.29-3.63,1.1,8.88-2.78,20.53-7.69,27.91h0Z"/>
    <path class="cls-1" d="M733.15,163.99c-8.11,3.73-17.09,5.5-25.98,5.72,8.75-1.75,17.36-3.42,25.98-5.72h0Z"/>
    <path class="cls-1" d="M688.49,140.24c-.32-7.74-1.57-15.15-3.5-22.64,3.37,6.93,4.72,15.01,3.5,22.64h0Z"/>
    <path class="cls-1" d="M638.01,123.92c-6.24-5.69-13.18-10.12-20.74-13.84,8.09,2.25,15.65,7.12,20.74,13.84h0Z"/>
    <path class="cls-1" d="M77.09,354.82c9.26-1.48,19.07-2.09,28.35-3.46-9.13,2.87-18.83,3.47-28.35,3.46h0Z"/>
    <path class="cls-1" d="M119.53,399.4c-1.52,7.99-4.43,15.74-8.61,22.72,2.81-7.65,5.63-15.14,8.61-22.72h0Z"/>
    <path class="cls-1" d="M163.4,397.64c-8.94,1.76-17.2,5.87-24.3,11.54-2.62,2.19-.03-.4,1.11-1.51,6.26-5.87,14.56-9.73,23.19-10.03h0Z"/>
    <path class="cls-1" d="M182.3,435.86c3.16,6.96,5.91,13.94,8.77,21.03-4.21-6.37-7.05-13.6-8.77-21.03h0Z"/>
    <path class="cls-1" d="M243.01,455.8c8.82,1.35,17.32,6,22.99,12.93-6.81-5.84-14.51-10.05-22.99-12.93h0Z"/>
  </g>
</svg>