<?xml version="1.0" encoding="utf-8"?>
<!-- Generator: Adobe Illustrator 27.9.1, SVG Export Plug-In . SVG Version: 6.00 Build 0)  -->
<svg version="1.1" id="Layer_1" xmlns="http://www.w3.org/2000/svg" xmlns:xlink="http://www.w3.org/1999/xlink" x="0px" y="0px"
	 viewBox="0 0 841.9 595.3" style="enable-background:new 0 0 841.9 595.3;" xml:space="preserve">
<style type="text/css">
	.st0{fill:#C2DEB0;}
	.st1{fill:#F5FAF7;}
	.st2{fill:none;}
</style>
<rect x="-1095.6" class="st0" width="841.9" height="595.3"/>
<g>
	<path class="st1" d="M-974.7,550.5c-1.5,3.7-2.6,7.6-4.5,11c-1,1.8-3.2,3.4-5.2,4.3c-1.4,0.6-3.8,0.1-5-0.8
		c-0.8-0.7-0.8-3.1-0.4-4.5c0.6-2.2,1.8-4.3,3-6.3c7.8-12.9,6.6-21.5-4.6-31.8c-1.5-1.3-3-2.6-5.1-3.5c0.4,0.9,0.7,1.9,1.2,2.7
		c6.9,9.8,0.6,21.4-6.3,25.6c-1.8,1.1-4.7,0.3-7.2,0.4c0.9-2.1,1.3-4.5,2.7-6.2c1.9-2.4,4.8-4.1,6.8-6.6c5.2-6.5,3.7-13.5-3.5-17.6
		c-6.4-3.6-13.2-3.4-20.5-2c6.2,0.7,9.9,3.9,11.2,9.8c0.8,3.7-0.7,6.6-3.9,8.4c-1.1,0.6-2.7,0-4.1,0c0.2-1.3,0-3,0.8-3.9
		c1.9-2.2,5.2-4,3.2-7.5c-2.4-4-6.6-4.8-11-4.4c-8.8,0.8-16,5.5-22.8,10.6c-4.5,3.3-8.4,7.3-12.6,11c0.3,0.5,0.7,1.1,1,1.6
		c3.1-1.2,6.2-2.7,9.4-3.4c5.1-1.1,10.4-2.4,15.5-2.3c5.4,0.2,8.8,4.1,9.4,9.4c0.8,6.1-1.6,11.1-6.1,15.1c-3.3,2.9-7.5,3.7-11.1,1.4
		c-2.7-1.7-5.5-4.8-6-7.7c-0.4-2.6,1.9-6,3.7-8.4c0.8-1,4.3-1.4,5.1-0.6c1.4,1.4,2.5,4.1,2.2,6c-0.2,1.2-3.1,2-4.9,2.7
		c-0.6,0.3-1.5-0.1-2.3-0.2c0.2,5.2,4.7,7.8,9.9,6.1c5.4-1.7,9.1-8.8,7.6-14.6c-1.6-6.4-5.3-8.9-12.4-7.3c-13.2,3-24,10.3-33.5,19.7
		c-4.8,4.8-9.9,9.4-15.1,13.8c-1.4,1.2-3.7,1.5-5.5,2.2c-2.2-3.9,0.1-5,2.2-6.5c17-12.1,27.8-28,29.3-49.3c0.3-3.6-0.1-7.3-0.1-11
		c0-1.5,0-3,0.5-4.5c3,10.7,3.1,21.4,0.7,33.2c1.7-1,2.6-1.5,3.5-2.1c8.5-5.5,16.5-12.1,25.5-16.3c16.1-7.6,32.1-5.7,46.6,5.1
		c7,5.2,10.6,12.6,12.9,20.8C-974.7,545.2-974.7,547.9-974.7,550.5z"/>
	<path class="st1" d="M-1066.9,582.5c-2.2-3.4-3.9-6.9-6.3-9.8c-3.5-4.3-3.1-8.3,0.3-13.6c2.2,3.6,4.2,6.7,6.1,9.9
		c0.3-0.1,0.6-0.2,0.9-0.3c-1-3.2-2.1-6.3-3.1-9.3C-1060.8,562.2-1060.4,570.5-1066.9,582.5z"/>
	<path class="st1" d="M-1095.5,540.9c11.3,0.8,14.4,3.3,14.7,11.9c-1.6-2.3-2.9-4.2-4.2-6.1c-0.2,0.1-0.5,0.2-0.7,0.4
		c1,2.5,2,5.1,3.2,8.1C-1092.7,554.9-1091.3,545.8-1095.5,540.9z"/>
</g>
<g>
	<path class="st1" d="M-1044.5,120.4c23.3,11.9,45,23.4,67.2,34c15.4,7.4,31.6,12.6,48.9,13.2c19.2,0.8,34.8-7.5,45-23
		c7.6-11.7,7-25.5,0-38.1c-3.3-5.9-8.7-9-15.7-9.2c-1.7,0-3.4,0.3-5-0.2c-1.3-0.4-2.3-1.8-3.4-2.8c1.1-1.1,2.4-3.2,3.2-3
		c4.7,1.1,10.4,1.5,13.7,4.5c5.6,5.1,9.7,11.9,14.1,17.6c6.1-6.2,13-13.6,20.3-20.8c3.8-3.7,7.9-7.2,12.3-10.1
		c6.3-4.1,14-3.1,18.4,1.5c3.4,3.5,3.5,7.2-0.3,11.2c1.8-4.5,2-8.3-1.9-10.8c-4.8-3.1-10.3-3.3-14.7-0.2c-6,4.1-11.3,9.4-16.8,14.3
		c0.3,0.5,0.7,1,1,1.5c2.7-0.5,5.3-1.1,8-1.4c9-0.9,15.8,2.6,19,9.7c3.3,7.3,1.1,17.5-5,22.9c-5.8,5.1-15.4,3.1-18.6-3.9
		c-2.3-5.1,0.1-11.2,5.5-12.4c2.1-0.5,5.6,0.5,6.7,2.1c1.9,2.8,0,5.2-3,6.3c0.1-2.1,0.3-4.1,0.1-6.1c0-0.3-2.7-0.8-3.6-0.3
		c-1.2,0.8-3,2.7-2.7,3.6c0.8,3,1.7,6.5,3.8,8.6c2.7,2.7,6.4,2.2,9.7,0c4.7-3.1,7-10.3,5.5-17.1c-1.3-6-4.5-8.8-11-9.9
		c-11.7-1.8-30.6,5.2-31.5,24c-0.9,18.4-10.6,30.2-26,38.5c-2.1,1.1-4,2.5-5.6,4.8c1.2,0.2,2.5,0.6,3.7,0.5
		c30-0.9,59.3-5.8,87.4-16.6c12.8-4.9,18.4-15.5,19.3-28.5c0.8-11.1-2.7-15.4-13.7-19.3c5.7-1.7,10.9,0.4,13.6,6.2
		c4.8,10.1,2.7,20.1-1.1,30c-0.8,2.1-1.9,4.1-2.8,6.1c0.4,0.3,0.7,0.7,1.1,1c4.8-3.7,10.1-6.8,14.3-11.1
		c11.4-11.5,22-23.8,28.3-38.9c5-12,6-24.3-0.9-36.1c-5.5-9.5-16.4-10.3-21.3-1.9c-0.4,0.6-0.4,1.5-0.8,3c2.1,0,3.7-0.3,5.2,0.1
		c1.4,0.4,3.5,1.3,3.8,2.4c0.4,1.2-0.6,3.4-1.6,4.2c-3.5,2.9-7.2,2-10.6-0.3c-3.2-2.2-2.9-5.4-1.5-8.5c4.4-9.9,18.2-12.6,26.1-5
		c8.5,8.2,9.2,18.8,8.5,29.7c-0.8,12.3-7.4,22.3-14.2,32c-4.8,6.8-9.9,13.3-15.2,20.3c1.3,0,2.3,0.2,3.1,0c7.4-2,14-0.1,20.6,3.4
		c3.4,1.8,7.3,3.3,11.2,3.9c7.3,1.2,9.9-2.7,7-9.5c-0.9-2-1.6-4.1-2.4-6.2c0.4-0.5,0.9-1,1.3-1.6c2.5,1.2,5.7,1.8,7.1,3.7
		c1.4,1.9,1.8,5.4,1.1,7.7c-2.9,8.4-10.3,11.3-19.1,8c-0.6-0.2-1.3-0.4-1.8-0.8c-12.6-9.6-24.7-6.1-37.3,0.6
		c-19.3,10.2-40.1,16.1-61.5,19.8c-12,2.1-23.8,4.8-35.8,7.1c-22.7,4.4-44.7,1.1-66.3-6.4c-27.3-9.4-53.4-21.4-78.3-36.1
		c-0.9-0.6-2-1-2.4-1.1c5.1,8.5,10.3,17.4,15.9,26.1c4.7,7.3,10.9,13.1,19.9,14.8c1.9,0.4,4.1,0.8,5.9,0.3c2.1-0.6,4.7-1.8,5.5-3.4
		c0.5-1.1-1.7-3.5-3.2-6.3c-1.2,2-1.7,3.5-2.1,3.4c-1.4-0.1-2.7-0.8-4.1-1.2c0.5-1,0.7-2.6,1.5-3c3.1-1.6,9.8,1.1,11.3,4.3
		c1.5,3.3-0.4,7-4.5,7.8c-8.3,1.6-15.9-0.3-22.4-5.8c-4.6-3.9-9.1-7.8-13.1-11.3c-2.9,2.8-6.8,6.5-10.8,10.2c0.3,0.5,0.7,1,1,1.5
		c2.5,0.2,5,0.4,7.8,0.7c-2.7,3.1-8.1,3.7-10.1,1.2c-2.6-3.3-0.7-5.9,1.8-8.1c0.5-0.4,1.1-0.8,1.6-1.1c7.3-5.2,7.8-6.7,4.5-15.2
		c-5.3-13.6-20.2-23.8-35.1-24.1c-11.5-0.2-23,0.1-33.8,5.6c-0.8-1.8-1.4-3.1-1.7-3.9c5.4-3.4,10.3-6.9,15.5-9.7
		c2.1-1.1,5-0.6,8.6-0.9c-1.3,2-2,3.1-3.2,5c18.2-5.9,35.7-0.8,53.2-0.6c3.3,0,6.7,0.1,10-0.3c17.8-1.7,29.8-16.7,28.2-34.6
		c-0.9-9.9-1.4-19.9-1.5-29.9c-0.1-5.3,1.1-10.7,5.8-14.3c3-2.3,6.4-2.9,9.8-0.8c3.3,2.1,4.3,5.5,3.4,9.2c-0.4,1.5-2.3,3.8-3.3,3.7
		c-1.9-0.2-3.7-1.8-5.5-2.8c1.4-1.6,2.9-3.3,5.2-6c-0.4-0.5-1.9-3.3-3.1-3.1c-2.5,0.3-6.3,1.5-7,3.4c-2,5.3-3.8,11.2-3.8,16.8
		c0.1,9.7,1.6,19.4,2.6,29.9c2.3-3.1,4-5.7,6-8c5-5.8,11.3-8,18.8-6.6c6.9,1.3,11.6,8.6,10.3,15.4c-1.2,6.2-7.6,9.7-12.9,6.6
		c-1.7-1-3.4-3.5-3.3-5.3c0.1-1.5,2.7-3.9,4.2-4c1.7-0.1,3.6,2,5.2,3.3c0.5,0.4,0.6,1.4,1,2.4c3.7-1.6,3.7-4.7,3.4-7.6
		c-0.5-4.2-2.9-7-6.9-8.4c-7.3-2.6-15.7,1-20.3,8.7c-3.4,5.7-6.7,11.5-9.8,17.4c-5.9,11.1-15.1,17.2-27.6,17.7
		C-1023.9,120.7-1033.5,120.4-1044.5,120.4z"/>
	<path class="st1" d="M-977.2,191.7c3.2-18.1,7.7-20.9,30.4-19c-6.8,2.8-14.3,1.7-18.7,7.3c7.3-1.5,14.8-3,22.6-4.5
		c-0.9,7.6-3.1,10.6-9.2,11.8c-4.5,0.9-9.2,1-13.8,1.8C-969.9,189.7-973.7,190.8-977.2,191.7z"/>
	<path class="st1" d="M-883.3,130.2c-6.1-2.8-10.8-6.6-17.8-5.2c5.7,2.9,10.6,5.3,15.7,7.9c-5.3,5.8-12.3,6.6-18.1,2.8
		c-5.1-3.3-10.2-6.5-14.9-9.4C-898.7,115.8-892.9,116.5-883.3,130.2z"/>
	<path class="st1" d="M-1029.8,100.8c12.8-11.2,20.5-11.5,32.7-0.4c-5.5-1.3-10.9-2.5-16.3-3.8c-0.1,0.4-0.2,0.9-0.3,1.3
		c5.7,2.1,11.5,4.1,17.6,6.4c-5.7,5.9-9.9,6.7-16.3,3.9C-1018.3,105.7-1024.1,103.2-1029.8,100.8z"/>
	<path class="st1" d="M-834.2,168.4c16.4-0.1,21.4,4.6,24.2,21.2c-5.8-1.8-12-3.7-18.2-5.6c-6.5-2-9.1-5.6-9.1-13.4
		c6.1,2.4,11.8,4.7,17.1,6.8C-820.8,175.4-820.8,175.4-834.2,168.4z"/>
	<path class="st1" d="M-961,154.7c2.8-14.8,8.7-19.1,23.6-17.5c-2.4,4.5-5.1,9.1-7.4,13.9c-2.8,5.6-7.3,7.8-14.7,7.2
		c3.3-5.3,6.2-9.9,9.1-14.5c-0.3-0.2-0.5-0.5-0.8-0.7C-954.5,146.9-957.7,150.8-961,154.7z"/>
	<path class="st1" d="M-962,126.9c-5.1-1.5-10.1-3-15.1-4.5c-6.7-2-8.7-4.4-9.6-12.2c5.6,2.1,10.7,4,16.4,6.2
		c-3-4.5-7.8-5.7-12.3-7.6C-970.6,106.4-963.7,112.7-962,126.9z"/>
	<path class="st1" d="M-845.4,169.8c-2.2,1.7-4.2,3.2-6.2,4.7c0.1,0.3,0.3,0.6,0.4,0.9c2.4-0.9,4.8-1.9,7.6-3
		c0.8,11.9-10.1,10.4-15.5,15.3C-860,176.1-855.3,170-845.4,169.8z"/>
	<path class="st1" d="M-1000.8,137.8c-5-0.1-8.9-3.9-8.9-8.8c0-5.1,3.7-9,8.7-8.9c4.8,0,9,4,9,8.8
		C-991.9,133.6-996.1,137.9-1000.8,137.8z M-1000.5,122.1c-3.9-0.1-7.1,2.8-7.3,6.7c-0.2,3.9,2.9,7.1,6.7,7.2c3.5,0,6.9-3,7.1-6.4
		C-993.8,125.7-996.9,122.2-1000.5,122.1z"/>
	<path class="st1" d="M-861.5,154.4c0,5-3.7,8.9-8.6,9.1c-4.9,0.1-9-3.7-9.1-8.6c-0.1-4.8,3.9-8.9,8.7-9
		C-865.5,145.8-861.5,149.6-861.5,154.4z M-870.5,147.8c-3.9,0.1-6.9,3.3-6.7,7.2c0.2,3.9,3.3,6.8,7.3,6.6c3.7-0.2,6.5-3.2,6.5-6.9
		C-863.5,150.9-866.8,147.7-870.5,147.8z"/>
	<path class="st1" d="M-778.7,153.7c0.1-4.8,3.9-8.5,8.6-8.4c4.6,0.1,8.4,4.1,8.3,8.8c-0.1,4.6-4.3,8.3-8.9,8.1
		C-775.2,162-778.8,158.2-778.7,153.7z M-763.5,154.1c0-4.1-2.9-7-6.8-7c-3.7,0.1-6.7,3.1-6.8,6.6c-0.1,3.9,3,6.9,7,6.9
		C-766.4,160.6-763.5,157.9-763.5,154.1z"/>
	<path class="st1" d="M-833.4,97.5c-0.6-2-1.7-4-1.4-5.8c0.2-1.2,2.4-2.2,3.6-3.3c0.6,0.9,1.2,1.8,1.8,2.6c-1.3,0.7-2.5,1.5-4.4,2.6
		c0.5,0.8,1.2,2.1,1.9,3.4C-832.5,97.2-833,97.3-833.4,97.5z"/>
</g>
<g>
	<path class="st1" d="M-767.4,336.9c3.5-2.7,6.9-5.5,10.4-8.1c7.8-6,13.1-13.7,15.4-23.2c0.6-2.4-0.6-5.9-2.3-7.8
		c-1-1.1-4.5,0.1-6.1,0.2c0.6,3,1,4.8,1.3,6.5c-1.6-0.1-4.5,0.2-4.6-0.3c-0.5-2-1-5.1,0.1-6c2.1-1.7,5.2-2.9,7.9-2.9
		c4.6,0,5.3,4.2,6.3,7.7c-0.2,2-0.5,4-0.7,6c-4.5,12.3-13.2,20.7-24.5,26.7C-765.2,336.2-766.4,336.4-767.4,336.9
		C-767.4,336.8-767.4,336.9-767.4,336.9z"/>
	<path class="st1" d="M-1001.2,375.5c-8.4-11.2-19.6-17.8-33.2-20.5c-12.6-2.5-25.3-4.3-37.8-6.9c-8-1.7-15.8-4.2-23.6-6.5
		c-1.5-0.4-2.7-1.8-4-2.7c0.2-0.4,0.4-0.8,0.6-1.2c4,1,7.9,2,11.9,2.9c18.7,4.3,36.7,1.4,54.1-6c1.7-0.7,3.3-2.2,4.6-3.7
		c14.7-16.5,28.7-33.7,44.1-49.6c25.3-26.1,54.7-46.3,90.9-54.2c17.4-3.8,35.1-6.2,52.8-1.3c11.3,3.1,21.5,8,29.4,17
		c5.6,6.3,8.1,13.9,6.2,22.2c-0.7,3.2-2.6,6.6-5,8.9c-4.3,4.2-10.4,1.8-11.8-3.2c1.9,0.9,5.4,3.8,6.5,3c3.1-2,6.5-5.2,7.3-8.5
		c2.1-8.2-0.4-15.8-6-22.2c-8.8-10.1-20.7-14.2-33.2-16.7c-8.5-1.7-17.1-2.4-26.5,0c5.2,1.2,9.9,1.6,13.8,3.5
		c4.7,2.2,9.4,5.1,13,8.8c4.9,5,4.5,11.2-0.4,18.3c2-6.2,3.3-11.7-1.2-15.7c-3.9-3.5-8.4-6.5-13.1-8.8c-12.9-6-25.8-4.2-38.9,0.1
		c-31.7,10.2-58.3,28.3-80.9,52.3c-12.9,13.7-24.4,28.6-36.6,43c-1,1.2-1.6,2.8-2.5,4.4c3.9,2.2,6.7,0.1,8.9-1.7
		c7.6-6.2,15.3-12.4,22.2-19.3c12-11.8,23.4-24.2,35.1-36.2c9.5-9.9,21.1-14.3,34.8-12.3c11.4,1.7,19.9,13.5,17.8,24.9
		c-0.4,2.1-1.1,4.3-2.4,5.9c-1.1,1.3-3.1,2.1-4.9,2.6c-0.5,0.2-2.4-1.7-2.2-1.9c0.7-1.5,1.6-3.2,2.9-4.2c4.2-3.5,5.4-10.5,1.5-16.3
		c-2.4-3.6-6.3-6.3-9.6-9.4c-0.5,0.4-0.9,0.8-1.4,1.2c0.7,1.4,1.4,2.7,2,4.1c2.5,5.6,0.1,13.1-5.2,15.5c-1,0.5-2.4,0.1-3.6,0.1
		c0.2-1.2,0.1-2.6,0.7-3.5c1-1.5,3.2-2.3,3.8-3.9c1.1-2.9,2.4-6.4,1.7-9.2c-0.9-3.6-4.8-5.5-8.4-4.5c-6.2,1.7-12.7,3.2-18,6.5
		c-12.2,7.8-21,19.3-30.3,30.2c-4.8,5.7-9.6,11.5-14.8,16.9c-5.2,5.3-11,10.1-16.3,15.9c7-3.1,14.2-5.8,20.8-9.5
		c18.6-10.2,38.1-17.5,59.4-18.9c24.9-1.7,48.7,3.4,71.8,12.3c12.7,4.9,25.1,10.7,37.7,15.8c19.3,7.8,32.2,10.7,47.6-11.9
		c-3.2,9.1-9.7,15.4-18.2,19.9c0.2,0.4,0.4,0.8,0.6,1.1c6.3-1.8,12.7-3.7,19-5.5c0,0-0.1-0.1-0.1-0.1c-2.5,1.8-5,3.5-6.7,4.8
		c2.9,4.2,5.8,8.4,8.7,12.5l0.1-0.1c-0.9-1-2-2-2.7-3.1c-2.9-4.5-7.1-6.9-12.2-6.2c-10.6,1.4-20.1-1.8-29.5-5.6
		c-19.3-7.8-38.3-16.1-57.8-23.2c-17-6.2-34.8-8.4-53.2-6.7c2.7,0.7,5.4,1.2,8,2c19.9,5.6,34.2,18.7,46,34.9
		c3.8,5.2,7.3,10.7,10.9,16.2c6.7,10.3,19.2,12.7,29.1,5.3c3.7-2.7,4.7-6.2,3.1-10.5c-1.9-5.1-5.9-8.5-10.1-8.3
		c-4,0.2-7,3.9-5.7,7.5c0.5,1.5,2.1,2.8,3.5,3.8c0.4,0.3,2.4-0.7,2.4-1.1c-0.1-1.4-0.7-2.7-0.2-4.7c0.9,1.4,2.9,3.3,2.5,4.1
		c-0.7,1.4-2.6,3-4.2,3.2c-3.8,0.5-6.9-2.9-6.8-6.8c0.1-4.6,4.3-8.3,9-8c4.9,0.2,9.4,3.9,11.4,9.2c1.9,5.1,0.6,9.5-3.1,13.2
		c-1.4,1.3-2.9,2.5-4.3,3.7c0.2,0.4,0.4,0.9,0.6,1.3c5.1-1.7,10.3-3.3,15.3-5.1c11.7-4.2,22.9-3.6,32.2,5.1
		c9.4,8.8,11.8,20.2,9.3,32.5c-1.1,5.2-5.3,8.8-9.5,8.8c-3.5,0-5.8-1.6-6-5.2c-0.2-2.7,0-5.9,3.7-6c1.8-0.1,3.7,1.5,5.5,2.3
		c-0.8,1.6-1.5,3.3-2.4,4.9c-0.3,0.5-1,0.7-1.9,1.3c6.9-1,10.9-5.9,10.2-12.9c-0.5-4.2-1.4-8.5-2.9-12.6
		c-5.7-15.8-18.1-21.8-34.2-16.9c-2.2,0.7-4.5,1.4-6.6,2.2c-12.6,5-25,7.8-36.8-2.9c-4,11.2-4.7,23.8-17.6,28.5
		c-1.8,0.6-3.9,0.3-5.9,0.5c-0.2-0.6-0.5-1.3-0.7-1.9c1.7-1.2,3.3-2.9,5.3-3.4c11.9-3.2,14.1-13,16-23c0.3-1.5-0.1-3.5-1-4.8
		c-6.2-9.2-12.7-18.3-19-27.4c-0.4,0.2-0.8,0.3-1.2,0.5c0.2,1.6,0.6,3.2,0.7,4.9c1,9.7-5.5,16.8-15.1,16c-4-0.3-8-1.8-11.8-3.3
		c-1.2-0.5-2-2.4-2.6-3.9c-0.2-0.4,1.3-2.1,1.6-2c1.5,0.5,3.4,1.1,4.2,2.2c1.9,3,4.3,4.4,7.7,4.4c5.6,0,10.3-1.7,12.6-7.2
		c2.6-6.2,2.1-12.6-2.3-17.4c-6.7-7.2-15-12.5-24.4-16.1c0.6,2.9,2,5.9,1.4,8.3c-0.7,2.6-3,5.2-5.3,6.7c-5.1,3.2-14.2,2.5-17.9-2.1
		c2.9,0.4,4.6,0.6,6.3,0.8c2.5,0.2,5.2,0.9,7.6,0.5c3.8-0.7,6.8-2.8,7.2-7.2c0.4-4.6-2.5-7.7-6.2-8.6c-5.4-1.3-11.2-1.9-16.7-1.5
		c-21.8,1.4-41.8,9.2-61.4,18.1c-16.5,7.6-33,15.1-51.3,17.7c-0.8,0.1-1.5,0.5-3.6,1.3c13.9,2.5,25.8,6.3,36.6,13
		c26.4,16.2,51,34.6,69.6,59.8c2.3,3.1,5,5.8,7.6,8.6c6.1,6.5,15.1,8.3,21.8,4.4c3.7-2.2,5.8-5.5,5.4-10c-0.3-3.3-1.4-6-5.5-7.2
		c-0.2,1.3,0,2.4-0.4,3.1c-1.1,1.6-2.4,4.1-3.8,4.3c-1.7,0.3-4.3-1.1-5.3-2.6c-0.8-1.1-0.2-3.9,0.8-5.2c3.8-5,11.6-4.2,14.7,1.2
		c3.9,6.8,0.4,16.4-7,19c-6.7,2.4-13.1,1.8-18.9-2.7c-2.2-1.7-4.3-3.5-6.9-5.1c6.4,13.5,5.3,28.3,8.4,42.3
		c1.4,6.3,4.5,12.5,7.9,18.1c1.1,1.9,5.3,2.5,8.1,2.5c1,0,2-3.6,3-5.6c-0.4-0.3-0.8-0.6-1.2-0.8c-1.4,0.3-2.7,0.6-4.1,0.9
		c-0.4-0.3-0.8-0.7-1.3-1c1.2-1.7,2.5-3.3,3.7-5c1.5,1.4,4,2.5,4.5,4.2c1.7,6.3-3.5,11.3-9.5,8.7c-3.1-1.3-6.6-4.1-7.7-7
		c-3-7.3-6.2-15.1-6.7-22.8c-2.1-33.5-19.2-57.7-45-77.2c-3.5-2.6-7-5-10.6-7.5c-0.5-0.3-1.2-0.4-2.6-0.9c6.5,11,9.5,22,8.5,33.9
		c-1.3,16.4-13.9,30.5-30,32.8c-3,0.4-6.6,0.5-9.3-0.7c-2.2-1.1-4-4.1-4.9-6.6c-0.2-0.7,3.2-3.4,5.3-4c3-0.8,6.3-0.7,9.4-0.6
		c15.7,0.7,28.1-10.2,26.4-32.5c-1.6,3.1-2.8,6.4-4.8,9.1c-5.3,6.8-17.8,9.3-25.7,5.6c-1-0.5-2.3-1.1-2.8-2c-1-1.9-1.5-4.1-2.3-6.1
		c2.1-0.4,4.3-1.5,6.3-1.2c3.4,0.6,6.6,2.2,10,3.1c9.3,2.5,17.2-3.5,17.2-13.2c0.1-7.2-3.4-13.1-7.2-18.8c-1.9-2.7-3.4-5.7-5.1-8.5
		c-0.6,0.4-1.3,0.9-1.9,1.3c0.4,1.1,0.8,2.2,1.3,3.3C-1000.8,375.3-1001,375.4-1001.2,375.5z"/>
	<path class="st1" d="M-1082.1,426.4c-4.3,5.9-8,11.4-12.2,16.5c-3.5,4.2-8.1,7.1-13.7,3.8c-1.7-1-3.3-3.3-3.6-5.2
		c-0.2-1.6,1.5-3.4,2.4-5.2c0.5,0.2,1,0.4,1.5,0.7c-0.1,0.9,0,1.9-0.4,2.7c-2.2,4.1-0.8,7,3.7,6.2c3.2-0.6,6.9-2.3,9-4.7
		c17-19.5,18.6-31.3,5.6-55.6c-1.6-2.9-3.9-5.4-5.7-8.2c-1-1.5-1.6-3.3-2.3-5c0.4-0.3,0.8-0.5,1.2-0.8c1.5,1.4,3.3,2.6,4.4,4.3
		c12.5,18.9,18.3,39.2,10.7,61.6c-9.3,27.4-43.7,45.6-70.2,37.1c-10.9-3.5-19.5-10-23.2-21.5c-3.5-10.9,1.1-25.2,10.7-31.5
		c3-1.9,7.1-2.9,10.7-2.8c5.2,0.1,7.3,4.6,3.9,8.7c-2.3,2.8-5.8,5-9.1,6.3c-10.4,4.1-13,8.9-9.8,19.7c4.2,14,18.2,22.1,35.4,20.4
		c24.3-2.4,45.9-21.7,50.8-45.7C-1082,427.8-1082.1,427.3-1082.1,426.4z"/>
	<path class="st1" d="M-1050.3,377.1c-2.1-7.3-4.3-14.6-6.6-22.5c11.2,2.4,16.6,7.8,18,17.3c0.6,3.6,0.7,7.3,1.6,10.8
		c0.8,3.3,2.5,6.3,3.7,9.2c-3.7-0.1-17.6-6.8-22.3-11.1c-7.7-7-5.1-16-4.6-24.7C-1058.2,363.8-1056.9,372-1050.3,377.1z"/>
	<path class="st1" d="M-983.9,232.5c3.3,5.7,5.7,11.1,9.3,15.5c5.5,6.6,3,12.3-0.8,19.8c-3.4-5.7-6.2-10.4-9.2-15.5
		c-1.6,6.1,2.8,10.2,4.6,15c-6.6-1.8-11.3-8.8-10.3-15.6c0.4-2.6,1-5.3,1.8-7.8C-987.2,240.3-985.6,236.6-983.9,232.5z"/>
	<path class="st1" d="M-967.1,327.7c9.7,0.3,14,3.8,16.1,11.6c1.5,5.5,3.6,10.8,5.3,15.7c-17.5-0.7-26.2-9.3-24.5-26.1
		c3.1,5.7,3.8,12.3,10.3,15.7C-962.3,338.8-964.6,333.6-967.1,327.7z"/>
	<path class="st1" d="M-1043.5,451.6c-17.9,3.7-23.3,1.9-31.2-11.9c5.2,3.4,9.6,6.3,14.1,9.2c0.3-0.4,0.6-0.8,0.9-1.2
		c-4.5-3.7-9.1-7.5-13.9-11.4c6.4-3.3,10.9-2.8,15.6,1.6C-1053.1,442.4-1048.2,447.1-1043.5,451.6z"/>
	<path class="st1" d="M-859.8,308.9c-2.8-4.4-5.4-8.5-8-12.6c-0.4,0.1-0.7,0.3-1.1,0.4c1.7,4.1,3.3,8.2,4.8,12
		c-6.7-2.2-10.3-8-8.4-15.1c1.3-4.8,3.3-9.3,5.1-14.3c3.1,5,5.8,9.4,8.7,13.8C-854.7,299.3-854.7,301.4-859.8,308.9z"/>
	<path class="st1" d="M-819.9,410.3c-14.6-7.6-19.2-15.9-16-29.3c1.7,5.2,3.3,10.5,5,15.7c0.3-0.1,0.6-0.2,0.9-0.4
		c-0.9-5.3-1.8-10.5-2.9-16.8c7.8,3.9,11.5,9,11.8,16.6C-821,401-820.3,405.8-819.9,410.3z"/>
	<path class="st1" d="M-811.6,304.4c1.1,13.5-3.4,22-12.4,21c2.6-2.6,5.1-5.3,7.7-7.9c-0.3-0.3-0.5-0.6-0.8-1
		c-3.4,2.4-6.8,4.9-10.5,7.5c-1.6-7,0.2-10.9,5.3-13.6C-818.8,308.4-815.2,306.4-811.6,304.4z"/>
	<path class="st1" d="M-1049.8,305.1c13.7-0.6,20.7,2.3,21.5,13.3c-2.8-3-5.4-5.7-8-8.4c-0.3,0.2-0.6,0.5-1,0.7
		c2.3,3.5,4.6,7.1,7.1,10.9c-8.1,1-11-0.6-14.3-6.9C-1046.2,311.4-1048.1,308.2-1049.8,305.1z"/>
	<path class="st1" d="M-962.9,393.3c-3-7.8-2.3-10.8,2.7-15.4c2.9-2.6,5.5-5.5,8.1-8.1c4,14.7,2.6,20.2-6.9,24
		c1.9-3.5,3.6-6.6,5.3-9.6c-0.4-0.2-0.7-0.5-1.1-0.7C-957.3,386.7-960,389.8-962.9,393.3z"/>
	<path class="st1" d="M-925.8,235c-2.9-3-5.5-5.7-8.1-8.4c-0.4,0.2-0.7,0.5-1.1,0.7c1.9,2.9,3.9,5.8,5.6,8.4
		c-8.8-1.1-11.2-7.7-7.7-23.5C-932.6,219.7-920.7,222.2-925.8,235z"/>
	<path class="st1" d="M-1080.3,272.2c8.3-2.3,17.3,8.3,16,19.8c-1.8,16.3-11.4,27.6-24.6,36.2c-3.6,2.4-7.8,4-12.2,5
		c5.5-3.5,11.1-6.8,16.3-10.6c11-7.9,16.4-18.9,17.4-32.2C-1066.7,280.7-1070.7,274.9-1080.3,272.2z"/>
	<path class="st1" d="M-924.3,395.9c-5.4,14-9.8,17.7-20.3,16.4c3.7-1.9,7.2-3.7,10.8-5.4c-0.2-0.3-0.3-0.7-0.5-1
		c-3.6,1.2-7.3,2.4-11.2,3.7c1.2-6.9,3.9-9.7,9.7-10.9C-931.9,397.8-928.1,396.8-924.3,395.9z"/>
	<path class="st1" d="M-1117.9,400.8c2.9-3.1,5.7-5.6,7.7-8.5c3.2-4.6,7.2-5.3,13.1-3.4c-2.7,3.1-5.2,5.9-7.6,8.7
		c0.2,0.3,0.4,0.5,0.6,0.8c2.7-1.9,5.4-3.7,7.9-5.5C-1097.1,402.6-1105,403-1117.9,400.8z"/>
	<path class="st1" d="M-897.9,234.3c10.4,2.7,12,5.5,12.2,20.8c-5-6.3-16.1-6.5-14.8-18.4c3.1,1.8,5.8,3.3,8.6,4.9
		c0.2-0.2,0.5-0.4,0.7-0.6C-893.3,238.9-895.3,236.8-897.9,234.3z"/>
	<path class="st1" d="M-871.1,219.6c-3-1.8-5.2-3.2-7.4-4.5c-0.2,0.2-0.5,0.5-0.7,0.7c1.6,1.6,3.1,3.1,4.6,4.6
		c-7.6,0.2-11.4-6.6-9.2-17.2C-878.9,208.1-869,208.5-871.1,219.6z"/>
	<path class="st1" d="M-948.8,421.2c-3.1,2.3-5.6,4.1-8,5.9c0.1,0.3,0.3,0.5,0.4,0.8c2.5-1.2,5.1-2.3,7.6-3.5
		c-1.7,7.2-8.5,8.4-20.4,3.2C-962.4,425.1-959,416-948.8,421.2z"/>
	<path class="st1" d="M-987.6,354.8c-0.8,6-6.1,10.1-12,9.4c-5.9-0.8-9.8-6.2-8.8-12.3c0.9-5.7,6.3-9.7,11.9-8.8
		C-990.7,343.9-986.8,349.1-987.6,354.8z M-989.6,354.6c0.5-4.6-2.9-8.8-7.7-9.3c-4.3-0.4-8.3,2.7-8.9,6.9c-0.7,4.6,2.8,9,7.4,9.5
		C-994.4,362.2-990.1,359-989.6,354.6z"/>
	<path class="st1" d="M-1000.7,375.2c5.4,6.3,4.9,14.3-1.1,18.7c-3.6,2.6-8.9,2.5-11.4-0.5c-0.8-0.9-1.1-2.7-0.8-3.9
		c0.2-0.7,2.2-1.4,3.2-1.2c3.6,0.7,8,3.2,9.9-1.8c1.1-3.1-0.1-6.9-0.2-10.4c0-0.2,0-0.3,0-0.5
		C-1001,375.4-1000.8,375.3-1000.7,375.2z"/>
	<path class="st1" d="M-1121.5,448.3c-10.5-3-16-11.7-13.8-21.3c0.3-1.4,0.8-3,1.8-4c0.9-0.9,2.5-1,3.8-1.5c0.3,1.2,0.8,2.3,1,3.5
		c0.1,0.6-0.2,1.3-0.4,1.9C-1132.6,436.1-1131.5,443.6-1121.5,448.3z"/>
	<path class="st1" d="M-1024,284.3c0.7-6.1,6.2-10.5,12.2-9.8c5.9,0.6,10.4,6.4,9.7,12.4c-0.8,6.3-6.5,10.6-12.8,9.7
		C-1020.7,295.7-1024.7,290.3-1024,284.3z M-1004.2,286.7c0.6-5-3-9.6-8-10.3c-4.8-0.7-9.6,3.2-10.1,8.2c-0.5,4.9,3.3,9.5,8.3,10
		C-1009,295.1-1004.7,291.7-1004.2,286.7z"/>
	<path class="st1" d="M-1076.6,365.8c-0.7,4.9-5.6,8.5-10.6,7.6c-4.5-0.8-7.6-5.2-7-10c0.6-4.9,5-8.3,9.9-7.6
		C-1079.4,356.5-1075.9,361.1-1076.6,365.8z M-1086.3,371.5c3.6,0.4,7.6-2.6,7.7-6.3c0.1-4-1.9-6.7-5.9-7.4c-3.8-0.7-7.3,2-7.8,5.9
		C-1092.8,367.7-1090.2,371-1086.3,371.5z"/>
	<path class="st1" d="M-866.1,218.6c-1.3-8.5,6-8.9,9.8-12.9c0,10.1-1.6,13.1-7.4,14.1c1.2-1.3,2.2-2.5,3.3-3.6
		c-0.1-0.2-0.3-0.4-0.4-0.7C-862.3,216.5-863.9,217.4-866.1,218.6z"/>
	<path class="st1" d="M-860.5,323.1c4.3,0.6,7,4.2,6.3,8.5c-0.7,4.1-4.6,7.1-8.6,6.4c-4-0.6-6.9-4.7-6.3-8.7
		C-868.5,325-864.9,322.5-860.5,323.1z M-860.6,336.6c1.3-1.4,4-3.1,4.7-5.3c1-3.4-1.3-6.2-5-6.6c-3.4-0.4-5.9,1.4-6.3,4.9
		C-867.8,333.2-865.9,335.4-860.6,336.6z"/>
	<path class="st1" d="M-1115.5,429.6c-0.7,6.2-9,9.3-4.9,16.4c-4.2-2.7-3.7-6.2-2.8-9.7C-1122.2,432.8-1120.7,429.7-1115.5,429.6z"
		/>
	<path class="st1" d="M-765.4,354.1c1.4,1.6,2.7,3.4,4.3,4.8c4.2,3.7,7.1,2.8,8.4-2.7c0.3-1.1,0.5-2.2,0.8-3.3
		c0.5-0.1,0.9-0.3,1.4-0.4c0.5,1.5,2,3.8,1.4,4.5c-1.6,2.2-3.8,4.9-6.2,5.4c-5.3,1.1-8.8-2.4-9.9-8.3
		C-765.3,354-765.4,354.1-765.4,354.1z"/>
	<path class="st1" d="M-1008.9,286c-2.2,1.1-3.5,2.3-4.7,2.2c-0.9-0.1-2.5-2.4-2.2-3c0.5-1.2,2.1-2.4,3.3-2.5
		C-1011.6,282.7-1010.6,284.4-1008.9,286z"/>
</g>
<g>
	<path class="st1" d="M-375.4,58.2c1.5-3.7,2.6-7.6,4.5-11c1-1.8,3.2-3.4,5.2-4.3c1.4-0.6,3.8-0.1,5,0.8c0.8,0.7,0.8,3.1,0.4,4.5
		c-0.6,2.2-1.8,4.3-3,6.3c-7.8,12.9-6.6,21.5,4.6,31.8c1.5,1.3,3,2.6,5.1,3.5c-0.4-0.9-0.7-1.9-1.2-2.7c-6.9-9.8-0.6-21.4,6.3-25.6
		c1.8-1.1,4.7-0.3,7.2-0.4c-0.9,2.1-1.3,4.5-2.7,6.2c-1.9,2.4-4.8,4.1-6.8,6.6c-5.2,6.5-3.7,13.5,3.5,17.6c6.4,3.6,13.2,3.4,20.5,2
		c-6.2-0.7-9.9-3.9-11.2-9.8c-0.8-3.7,0.7-6.6,3.9-8.4c1.1-0.6,2.7,0,4.1,0c-0.2,1.3,0,3-0.8,3.9c-1.9,2.2-5.2,4-3.2,7.5
		c2.4,4,6.6,4.8,11,4.4c8.8-0.8,16-5.5,22.8-10.6c4.5-3.3,8.4-7.3,12.6-11c-0.3-0.5-0.7-1.1-1-1.6c-3.1,1.2-6.2,2.7-9.4,3.4
		c-5.1,1.1-10.4,2.4-15.5,2.3c-5.4-0.2-8.8-4.1-9.4-9.4c-0.8-6.1,1.6-11.1,6.1-15.1c3.3-2.9,7.5-3.7,11.1-1.4c2.7,1.7,5.5,4.8,6,7.7
		c0.4,2.6-1.9,6-3.7,8.4c-0.8,1-4.3,1.4-5.1,0.6c-1.4-1.4-2.5-4.1-2.2-6c0.2-1.2,3.1-2,4.9-2.7c0.6-0.3,1.5,0.1,2.3,0.2
		c-0.2-5.2-4.7-7.8-9.9-6.1c-5.4,1.7-9.1,8.8-7.6,14.6c1.6,6.4,5.3,8.9,12.4,7.3c13.2-3,24-10.3,33.5-19.7
		c4.8-4.8,9.9-9.4,15.1-13.8c1.4-1.2,3.7-1.5,5.5-2.2c2.2,3.9-0.1,5-2.2,6.5c-17,12.1-27.8,28-29.3,49.3c-0.3,3.6,0.1,7.3,0.1,11
		c0,1.5,0,3-0.5,4.5c-3-10.7-3.1-21.4-0.7-33.2c-1.7,1-2.6,1.5-3.5,2.1c-8.5,5.5-16.5,12.1-25.5,16.3c-16.1,7.6-32.1,5.7-46.6-5.1
		c-7-5.2-10.6-12.6-12.9-20.8C-375.4,63.5-375.4,60.8-375.4,58.2z"/>
	<path class="st1" d="M-283.1,26.2c2.2,3.4,3.9,6.9,6.3,9.8c3.5,4.3,3.1,8.3-0.3,13.6c-2.2-3.6-4.2-6.7-6.1-9.9
		c-0.3,0.1-0.6,0.2-0.9,0.3c1,3.2,2.1,6.3,3.1,9.3C-289.2,46.5-289.6,38.2-283.1,26.2z"/>
	<path class="st1" d="M-254.5,67.8c-11.3-0.8-14.4-3.3-14.7-11.9c1.6,2.3,2.9,4.2,4.2,6.1c0.2-0.1,0.5-0.2,0.7-0.4
		c-1-2.5-2-5.1-3.2-8.1C-257.4,53.8-258.8,62.9-254.5,67.8z"/>
</g>
<g>
	<path class="st1" d="M-305.5,488.3c-23.3-11.9-45-23.4-67.2-34c-15.4-7.4-31.6-12.6-48.9-13.2c-19.2-0.8-34.8,7.5-45,23
		c-7.6,11.7-7,25.5,0,38.1c3.3,5.9,8.7,9,15.7,9.2c1.7,0,3.4-0.3,5,0.2c1.3,0.4,2.3,1.8,3.4,2.8c-1.1,1.1-2.4,3.2-3.2,3
		c-4.7-1.1-10.4-1.5-13.7-4.5c-5.6-5.1-9.7-11.9-14.1-17.6c-6.1,6.2-13,13.6-20.3,20.8c-3.8,3.7-7.9,7.2-12.3,10.1
		c-6.3,4.1-14,3.1-18.4-1.5c-3.4-3.5-3.5-7.2,0.3-11.2c-1.8,4.5-2,8.3,1.9,10.8c4.8,3.1,10.3,3.3,14.7,0.2c6-4.1,11.3-9.4,16.8-14.3
		c-0.3-0.5-0.7-1-1-1.5c-2.7,0.5-5.3,1.1-8,1.4c-9,0.9-15.8-2.6-19-9.7c-3.3-7.3-1.1-17.5,5-22.9c5.8-5.1,15.4-3.1,18.6,3.9
		c2.3,5.1-0.1,11.2-5.5,12.4c-2.1,0.5-5.6-0.5-6.7-2.1c-1.9-2.8,0-5.2,3-6.3c-0.1,2.1-0.3,4.1-0.1,6.1c0,0.3,2.7,0.8,3.6,0.3
		c1.2-0.8,3-2.7,2.7-3.6c-0.8-3-1.7-6.5-3.8-8.6c-2.7-2.7-6.4-2.2-9.7,0c-4.7,3.1-7,10.3-5.5,17.1c1.3,6,4.5,8.8,11,9.9
		c11.7,1.8,30.6-5.2,31.5-24c0.9-18.4,10.6-30.2,26-38.5c2.1-1.1,4-2.5,5.6-4.8c-1.2-0.2-2.5-0.6-3.7-0.5
		c-30,0.9-59.3,5.8-87.4,16.6c-12.8,4.9-18.4,15.5-19.3,28.5c-0.8,11.1,2.7,15.4,13.7,19.3c-5.7,1.7-10.9-0.4-13.6-6.2
		c-4.8-10.1-2.7-20.1,1.1-30c0.8-2.1,1.9-4.1,2.8-6.1c-0.4-0.3-0.7-0.7-1.1-1c-4.8,3.7-10.1,6.8-14.3,11.1
		c-11.4,11.5-22,23.8-28.3,38.9c-5,12-6,24.3,0.9,36.1c5.5,9.5,16.4,10.3,21.3,1.9c0.4-0.6,0.4-1.5,0.8-3c-2.1,0-3.7,0.3-5.2-0.1
		c-1.4-0.4-3.5-1.3-3.8-2.4c-0.4-1.2,0.6-3.4,1.6-4.2c3.5-2.9,7.2-2,10.6,0.3c3.2,2.2,2.9,5.4,1.5,8.5c-4.4,9.9-18.2,12.6-26.1,5
		c-8.5-8.2-9.2-18.8-8.5-29.7c0.8-12.3,7.4-22.3,14.2-32c4.8-6.8,9.9-13.3,15.2-20.3c-1.3,0-2.3-0.2-3.1,0c-7.4,2-14,0.1-20.6-3.4
		c-3.4-1.8-7.3-3.3-11.2-3.9c-7.3-1.2-9.9,2.7-7,9.5c0.9,2,1.6,4.1,2.4,6.2c-0.4,0.5-0.9,1-1.3,1.6c-2.5-1.2-5.7-1.8-7.1-3.7
		c-1.4-1.9-1.8-5.4-1.1-7.7c2.9-8.4,10.3-11.3,19.1-8c0.6,0.2,1.3,0.4,1.8,0.8c12.6,9.6,24.7,6.1,37.3-0.6
		c19.3-10.2,40.1-16.1,61.5-19.8c12-2.1,23.8-4.8,35.8-7.1c22.7-4.4,44.7-1.1,66.3,6.4c27.3,9.4,53.4,21.4,78.3,36.1
		c0.9,0.6,2,1,2.4,1.1c-5.1-8.5-10.3-17.4-15.9-26.1c-4.7-7.3-10.9-13.1-19.9-14.8c-1.9-0.4-4.1-0.8-5.9-0.3
		c-2.1,0.6-4.7,1.8-5.5,3.4c-0.5,1.1,1.7,3.5,3.2,6.3c1.2-2,1.7-3.5,2.1-3.4c1.4,0.1,2.7,0.8,4.1,1.2c-0.5,1-0.7,2.6-1.5,3
		c-3.1,1.6-9.8-1.1-11.3-4.3c-1.5-3.3,0.4-7,4.5-7.8c8.3-1.6,15.9,0.3,22.4,5.8c4.6,3.9,9.1,7.8,13.1,11.3
		c2.9-2.8,6.8-6.5,10.8-10.2c-0.3-0.5-0.7-1-1-1.5c-2.5-0.2-5-0.4-7.8-0.7c2.7-3.1,8.1-3.7,10.1-1.2c2.6,3.3,0.7,5.9-1.8,8.1
		c-0.5,0.4-1.1,0.8-1.6,1.1c-7.3,5.2-7.8,6.7-4.5,15.2c5.3,13.6,20.2,23.8,35.1,24.1c11.5,0.2,23-0.1,33.8-5.6
		c0.8,1.8,1.4,3.1,1.7,3.9c-5.4,3.4-10.3,6.9-15.5,9.7c-2.1,1.1-5,0.6-8.6,0.9c1.3-2,2-3.1,3.2-5c-18.2,5.9-35.7,0.8-53.2,0.6
		c-3.3,0-6.7-0.1-10,0.3c-17.8,1.7-29.8,16.7-28.2,34.6c0.9,9.9,1.4,19.9,1.5,29.9c0.1,5.3-1.1,10.7-5.8,14.3
		c-3,2.3-6.4,2.9-9.8,0.8c-3.3-2.1-4.3-5.5-3.4-9.2c0.4-1.5,2.3-3.8,3.3-3.7c1.9,0.2,3.7,1.8,5.5,2.8c-1.4,1.6-2.9,3.3-5.2,6
		c0.4,0.5,1.9,3.3,3.1,3.1c2.5-0.3,6.3-1.5,7-3.4c2-5.3,3.8-11.2,3.8-16.8c-0.1-9.7-1.6-19.4-2.6-29.9c-2.3,3.1-4,5.7-6,8
		c-5,5.8-11.3,8-18.8,6.6c-6.9-1.3-11.6-8.6-10.3-15.4c1.2-6.2,7.6-9.7,12.9-6.6c1.7,1,3.4,3.5,3.3,5.3c-0.1,1.5-2.7,3.9-4.2,4
		c-1.7,0.1-3.6-2-5.2-3.3c-0.5-0.4-0.6-1.4-1-2.4c-3.7,1.6-3.7,4.7-3.4,7.6c0.5,4.2,2.9,7,6.9,8.4c7.3,2.6,15.7-1,20.3-8.7
		c3.4-5.7,6.7-11.5,9.8-17.4c5.9-11.1,15.1-17.2,27.6-17.7C-326.1,488-316.5,488.3-305.5,488.3z"/>
	<path class="st1" d="M-372.8,417c-3.2,18.1-7.7,20.9-30.4,19c6.8-2.8,14.3-1.7,18.7-7.3c-7.3,1.5-14.8,3-22.6,4.5
		c0.9-7.6,3.1-10.6,9.2-11.8c4.5-0.9,9.2-1,13.8-1.8C-380.2,419-376.3,417.9-372.8,417z"/>
	<path class="st1" d="M-466.7,478.5c6.1,2.8,10.8,6.6,17.8,5.2c-5.7-2.9-10.6-5.3-15.7-7.9c5.3-5.8,12.3-6.6,18.1-2.8
		c5.1,3.3,10.2,6.5,14.9,9.4C-451.3,492.9-457.2,492.2-466.7,478.5z"/>
	<path class="st1" d="M-320.2,507.9c-12.8,11.2-20.5,11.5-32.7,0.4c5.5,1.3,10.9,2.5,16.3,3.8c0.1-0.4,0.2-0.9,0.3-1.3
		c-5.7-2.1-11.5-4.1-17.6-6.4c5.7-5.9,9.9-6.7,16.3-3.9C-331.8,503-325.9,505.5-320.2,507.9z"/>
	<path class="st1" d="M-515.8,440.2c-16.4,0.1-21.4-4.6-24.2-21.2c5.8,1.8,12,3.7,18.2,5.6c6.5,2,9.1,5.6,9.1,13.4
		c-6.1-2.4-11.8-4.7-17.1-6.8C-529.2,433.3-529.2,433.3-515.8,440.2z"/>
	<path class="st1" d="M-389,454c-2.8,14.8-8.7,19.1-23.6,17.5c2.4-4.5,5.1-9.1,7.4-13.9c2.8-5.6,7.3-7.8,14.7-7.2
		c-3.3,5.3-6.2,9.9-9.1,14.5c0.3,0.2,0.5,0.5,0.8,0.7C-395.6,461.7-392.3,457.9-389,454z"/>
	<path class="st1" d="M-388,481.8c5.1,1.5,10.1,3,15.1,4.5c6.7,2,8.7,4.4,9.6,12.2c-5.6-2.1-10.7-4-16.4-6.2c3,4.5,7.8,5.7,12.3,7.6
		C-379.5,502.3-386.3,496-388,481.8z"/>
	<path class="st1" d="M-504.6,438.9c2.2-1.7,4.2-3.2,6.2-4.7c-0.1-0.3-0.3-0.6-0.4-0.9c-2.4,0.9-4.8,1.9-7.6,3
		c-0.8-11.9,10.1-10.4,15.5-15.3C-490.1,432.6-494.8,438.7-504.6,438.9z"/>
	<path class="st1" d="M-349.3,470.8c5,0.1,8.9,3.9,8.9,8.8c0,5.1-3.7,9-8.7,8.9c-4.8,0-9-4-9-8.8
		C-358.1,475-353.9,470.8-349.3,470.8z M-349.5,486.6c3.9,0.1,7.1-2.8,7.3-6.7c0.2-3.9-2.9-7.1-6.7-7.2c-3.5,0-6.9,3-7.1,6.4
		C-356.3,483-353.2,486.5-349.5,486.6z"/>
	<path class="st1" d="M-488.6,454.2c0-5,3.7-8.9,8.6-9.1c4.9-0.1,9,3.7,9.1,8.6c0.1,4.8-3.9,8.9-8.7,9
		C-484.5,462.9-488.5,459.1-488.6,454.2z M-479.6,460.9c3.9-0.1,6.9-3.3,6.7-7.2c-0.2-3.9-3.3-6.8-7.3-6.6c-3.7,0.2-6.5,3.2-6.5,6.9
		C-486.6,457.8-483.3,461-479.6,460.9z"/>
	<path class="st1" d="M-571.4,454.9c-0.1,4.8-3.9,8.5-8.6,8.4c-4.6-0.1-8.4-4.1-8.3-8.8c0.1-4.6,4.3-8.3,8.9-8.1
		C-574.8,446.7-571.3,450.5-571.4,454.9z M-586.5,454.6c0,4.1,2.9,7,6.8,7c3.7-0.1,6.7-3.1,6.8-6.6c0.1-3.9-3-6.9-7-6.9
		C-583.7,448-586.5,450.8-586.5,454.6z"/>
	<path class="st1" d="M-516.6,511.2c0.6,2,1.7,4,1.4,5.8c-0.2,1.2-2.4,2.2-3.6,3.3c-0.6-0.9-1.2-1.8-1.8-2.6
		c1.3-0.7,2.5-1.5,4.4-2.6c-0.5-0.8-1.2-2.1-1.9-3.4C-517.6,511.5-517.1,511.4-516.6,511.2z"/>
</g>
<g>
	<path class="st1" d="M-582.7,271.8c-3.5,2.7-6.9,5.5-10.4,8.1c-7.8,6-13.1,13.7-15.4,23.2c-0.6,2.4,0.6,5.9,2.3,7.8
		c1,1.1,4.5-0.1,6.1-0.2c-0.6-3-1-4.8-1.3-6.5c1.6,0.1,4.5-0.2,4.6,0.3c0.5,2,1,5.1-0.1,6c-2.1,1.7-5.2,2.9-7.9,2.9
		c-4.6,0-5.3-4.2-6.3-7.7c0.2-2,0.5-4,0.7-6c4.5-12.3,13.2-20.7,24.5-26.7C-584.8,272.5-583.7,272.2-582.7,271.8
		C-582.6,271.9-582.7,271.8-582.7,271.8z"/>
	<path class="st1" d="M-348.9,233.1c8.4,11.2,19.6,17.8,33.2,20.5c12.6,2.5,25.3,4.3,37.8,6.9c8,1.7,15.8,4.2,23.6,6.5
		c1.5,0.4,2.7,1.8,4,2.7c-0.2,0.4-0.4,0.8-0.6,1.2c-4-1-7.9-2-11.9-2.9c-18.7-4.3-36.7-1.4-54.1,6c-1.7,0.7-3.3,2.2-4.6,3.7
		c-14.7,16.5-28.7,33.7-44.1,49.6c-25.3,26.1-54.7,46.3-90.9,54.2c-17.4,3.8-35.1,6.2-52.8,1.3c-11.3-3.1-21.5-8-29.4-17
		c-5.6-6.3-8.1-13.9-6.2-22.2c0.7-3.2,2.6-6.6,5-8.9c4.3-4.2,10.4-1.8,11.8,3.2c-1.9-0.9-5.4-3.8-6.5-3c-3.1,2-6.5,5.2-7.3,8.5
		c-2.1,8.2,0.4,15.8,6,22.2c8.8,10.1,20.7,14.2,33.2,16.7c8.5,1.7,17.1,2.4,26.5,0c-5.2-1.2-9.9-1.6-13.8-3.5
		c-4.7-2.2-9.4-5.1-13-8.8c-4.9-5-4.5-11.2,0.4-18.3c-2,6.2-3.3,11.7,1.2,15.7c3.9,3.5,8.4,6.5,13.1,8.8c12.9,6,25.8,4.2,38.9-0.1
		c31.7-10.2,58.3-28.3,80.9-52.3c12.9-13.7,24.4-28.6,36.6-43c1-1.2,1.6-2.8,2.5-4.4c-3.9-2.2-6.7-0.1-8.9,1.7
		c-7.6,6.2-15.3,12.4-22.2,19.3c-12,11.8-23.4,24.2-35.1,36.2c-9.5,9.9-21.1,14.3-34.8,12.3c-11.4-1.7-19.9-13.5-17.8-24.9
		c0.4-2.1,1.1-4.3,2.4-5.9c1.1-1.3,3.1-2.1,4.9-2.6c0.5-0.2,2.4,1.7,2.2,1.9c-0.7,1.5-1.6,3.2-2.9,4.2c-4.2,3.5-5.4,10.5-1.5,16.3
		c2.4,3.6,6.3,6.3,9.6,9.4c0.5-0.4,0.9-0.8,1.4-1.2c-0.7-1.4-1.4-2.7-2-4.1c-2.5-5.6-0.1-13.1,5.2-15.5c1-0.5,2.4-0.1,3.6-0.1
		c-0.2,1.2-0.1,2.6-0.7,3.5c-1,1.5-3.2,2.3-3.8,3.9c-1.1,2.9-2.4,6.4-1.7,9.2c0.9,3.6,4.8,5.5,8.4,4.5c6.2-1.7,12.7-3.2,18-6.5
		c12.2-7.8,21-19.3,30.3-30.2c4.8-5.7,9.6-11.5,14.8-16.9c5.2-5.3,11-10.1,16.3-15.9c-7,3.1-14.2,5.8-20.8,9.5
		c-18.6,10.2-38.1,17.5-59.4,18.9c-24.9,1.7-48.7-3.4-71.8-12.3c-12.7-4.9-25.1-10.7-37.7-15.8c-19.3-7.8-32.2-10.7-47.6,11.9
		c3.2-9.1,9.7-15.4,18.2-19.9c-0.2-0.4-0.4-0.8-0.6-1.1c-6.3,1.8-12.7,3.7-19,5.5c0,0,0.1,0.1,0.1,0.1c2.5-1.8,5-3.5,6.7-4.8
		c-2.9-4.2-5.8-8.4-8.7-12.5l-0.1,0.1c0.9,1,2,2,2.7,3.1c2.9,4.5,7.1,6.9,12.2,6.2c10.6-1.4,20.1,1.8,29.5,5.6
		c19.3,7.8,38.3,16.1,57.8,23.2c17,6.2,34.8,8.4,53.2,6.7c-2.7-0.7-5.4-1.2-8-2c-19.9-5.6-34.2-18.7-46-34.9
		c-3.8-5.2-7.3-10.7-10.9-16.2c-6.7-10.3-19.2-12.7-29.1-5.3c-3.7,2.7-4.7,6.2-3.1,10.5c1.9,5.1,5.9,8.5,10.1,8.3
		c4-0.2,7-3.9,5.7-7.5c-0.5-1.5-2.1-2.8-3.5-3.8c-0.4-0.3-2.4,0.7-2.4,1.1c0.1,1.4,0.7,2.7,0.2,4.7c-0.9-1.4-2.9-3.3-2.5-4.1
		c0.7-1.4,2.6-3,4.2-3.2c3.8-0.5,6.9,2.9,6.8,6.8c-0.1,4.6-4.3,8.3-9,8c-4.9-0.2-9.4-3.9-11.4-9.2c-1.9-5.1-0.6-9.5,3.1-13.2
		c1.4-1.3,2.9-2.5,4.3-3.7c-0.2-0.4-0.4-0.9-0.6-1.3c-5.1,1.7-10.3,3.3-15.3,5.1c-11.7,4.2-22.9,3.6-32.2-5.1
		c-9.4-8.8-11.8-20.2-9.3-32.5c1.1-5.2,5.3-8.8,9.5-8.8c3.5,0,5.8,1.6,6,5.2c0.2,2.7,0,5.9-3.7,6c-1.8,0.1-3.7-1.5-5.5-2.3
		c0.8-1.6,1.5-3.3,2.4-4.9c0.3-0.5,1-0.7,1.9-1.3c-6.9,1-10.9,5.9-10.2,12.9c0.5,4.2,1.4,8.5,2.9,12.6c5.7,15.8,18.1,21.8,34.2,16.9
		c2.2-0.7,4.5-1.4,6.6-2.2c12.6-5,25-7.8,36.8,2.9c4-11.2,4.7-23.8,17.6-28.5c1.8-0.6,3.9-0.3,5.9-0.5c0.2,0.6,0.5,1.3,0.7,1.9
		c-1.7,1.2-3.3,2.9-5.3,3.4c-11.9,3.2-14.1,13-16,23c-0.3,1.5,0.1,3.5,1,4.8c6.2,9.2,12.7,18.3,19,27.4c0.4-0.2,0.8-0.3,1.2-0.5
		c-0.2-1.6-0.6-3.2-0.7-4.9c-1-9.7,5.5-16.8,15.1-16c4,0.3,8,1.8,11.8,3.3c1.2,0.5,2,2.4,2.6,3.9c0.2,0.4-1.3,2.1-1.6,2
		c-1.5-0.5-3.4-1.1-4.2-2.2c-1.9-3-4.3-4.4-7.7-4.4c-5.6,0-10.3,1.7-12.6,7.2c-2.6,6.2-2.1,12.6,2.3,17.4c6.7,7.2,15,12.5,24.4,16.1
		c-0.6-2.9-2-5.9-1.4-8.3c0.7-2.6,3-5.2,5.3-6.7c5.1-3.2,14.2-2.5,17.9,2.1c-2.9-0.4-4.6-0.6-6.3-0.8c-2.5-0.2-5.2-0.9-7.6-0.5
		c-3.8,0.7-6.8,2.8-7.2,7.2c-0.4,4.6,2.5,7.7,6.2,8.6c5.4,1.3,11.2,1.9,16.7,1.5c21.8-1.4,41.8-9.2,61.4-18.1
		c16.5-7.6,33-15.1,51.3-17.7c0.8-0.1,1.5-0.5,3.6-1.3c-13.9-2.5-25.8-6.3-36.6-13c-26.4-16.2-51-34.6-69.6-59.8
		c-2.3-3.1-5-5.8-7.6-8.6c-6.1-6.5-15.1-8.3-21.8-4.4c-3.7,2.2-5.8,5.5-5.4,10c0.3,3.3,1.4,6,5.5,7.2c0.2-1.3,0-2.4,0.4-3.1
		c1.1-1.6,2.4-4.1,3.8-4.3c1.7-0.3,4.3,1.1,5.3,2.6c0.8,1.1,0.2,3.9-0.8,5.2c-3.8,5-11.6,4.2-14.7-1.2c-3.9-6.8-0.4-16.4,7-19
		c6.7-2.4,13.1-1.8,18.9,2.7c2.2,1.7,4.3,3.5,6.9,5.1c-6.4-13.5-5.3-28.3-8.4-42.3c-1.4-6.3-4.5-12.5-7.9-18.1
		c-1.1-1.9-5.3-2.5-8.1-2.5c-1,0-2,3.6-3,5.6c0.4,0.3,0.8,0.6,1.2,0.8c1.4-0.3,2.7-0.6,4.1-0.9c0.4,0.3,0.8,0.7,1.3,1
		c-1.2,1.7-2.5,3.3-3.7,5c-1.5-1.4-4-2.5-4.5-4.2c-1.7-6.3,3.5-11.3,9.5-8.7c3.1,1.3,6.6,4.1,7.7,7c3,7.3,6.2,15.1,6.7,22.8
		c2.1,33.5,19.2,57.7,45,77.2c3.5,2.6,7,5,10.6,7.5c0.5,0.3,1.2,0.4,2.6,0.9c-6.5-11-9.5-22-8.5-33.9c1.3-16.4,13.9-30.5,30-32.8
		c3-0.4,6.6-0.5,9.3,0.7c2.2,1.1,4,4.1,4.9,6.6c0.2,0.7-3.2,3.4-5.3,4c-3,0.8-6.3,0.7-9.4,0.6c-15.7-0.7-28.1,10.2-26.4,32.5
		c1.6-3.1,2.8-6.4,4.8-9.1c5.3-6.8,17.8-9.3,25.7-5.6c1,0.5,2.3,1.1,2.8,2c1,1.9,1.5,4.1,2.3,6.1c-2.1,0.4-4.3,1.5-6.3,1.2
		c-3.4-0.6-6.6-2.2-10-3.1c-9.3-2.5-17.2,3.5-17.2,13.2c-0.1,7.2,3.4,13.1,7.2,18.8c1.9,2.7,3.4,5.7,5.1,8.5
		c0.6-0.4,1.3-0.9,1.9-1.3c-0.4-1.1-0.8-2.2-1.3-3.3C-349.2,233.4-349,233.3-348.9,233.1z"/>
	<path class="st1" d="M-268,182.3c4.3-5.9,8-11.4,12.2-16.5c3.5-4.2,8.1-7.1,13.7-3.8c1.7,1,3.3,3.3,3.6,5.2
		c0.2,1.6-1.5,3.4-2.4,5.2c-0.5-0.2-1-0.4-1.5-0.7c0.1-0.9,0-1.9,0.4-2.7c2.2-4.1,0.8-7-3.7-6.2c-3.2,0.6-6.9,2.3-9,4.7
		c-17,19.5-18.6,31.3-5.6,55.6c1.6,2.9,3.9,5.4,5.7,8.2c1,1.5,1.6,3.3,2.3,5c-0.4,0.3-0.8,0.5-1.2,0.8c-1.5-1.4-3.3-2.6-4.4-4.3
		c-12.5-18.9-18.3-39.2-10.7-61.6c9.3-27.4,43.7-45.6,70.2-37.1c10.9,3.5,19.5,10,23.2,21.5c3.5,10.9-1.1,25.2-10.7,31.5
		c-3,1.9-7.1,2.9-10.7,2.8c-5.2-0.1-7.3-4.6-3.9-8.7c2.3-2.8,5.8-5,9.1-6.3c10.4-4.1,13-8.9,9.8-19.7c-4.2-14-18.2-22.1-35.4-20.4
		c-24.3,2.4-45.9,21.7-50.8,45.7C-268,180.9-268,181.4-268,182.3z"/>
	<path class="st1" d="M-299.8,231.6c2.1,7.3,4.3,14.6,6.6,22.5c-11.2-2.4-16.6-7.8-18-17.3c-0.6-3.6-0.7-7.3-1.6-10.8
		c-0.8-3.3-2.5-6.3-3.7-9.2c3.7,0.1,17.6,6.8,22.3,11.1c7.7,7,5.1,16,4.6,24.7C-291.8,244.9-293.2,236.6-299.8,231.6z"/>
	<path class="st1" d="M-366.1,376.2c-3.3-5.7-5.7-11.1-9.3-15.5c-5.5-6.6-3-12.3,0.8-19.8c3.4,5.7,6.2,10.4,9.2,15.5
		c1.6-6.1-2.8-10.2-4.6-15c6.6,1.8,11.3,8.8,10.3,15.6c-0.4,2.6-1,5.3-1.8,7.8C-362.9,368.4-364.5,372.1-366.1,376.2z"/>
	<path class="st1" d="M-383,281c-9.7-0.3-14-3.8-16.1-11.6c-1.5-5.5-3.6-10.8-5.3-15.7c17.5,0.7,26.2,9.3,24.5,26.1
		c-3.1-5.7-3.8-12.3-10.3-15.7C-387.7,269.9-385.5,275.1-383,281z"/>
	<path class="st1" d="M-306.5,157c17.9-3.7,23.3-1.9,31.2,11.9c-5.2-3.4-9.6-6.3-14.1-9.2c-0.3,0.4-0.6,0.8-0.9,1.2
		c4.5,3.7,9.1,7.5,13.9,11.4c-6.4,3.3-10.9,2.8-15.6-1.6C-297,166.3-301.8,161.6-306.5,157z"/>
	<path class="st1" d="M-490.2,299.8c2.8,4.4,5.4,8.5,8,12.6c0.4-0.1,0.7-0.3,1.1-0.4c-1.7-4.1-3.3-8.2-4.8-12
		c6.7,2.2,10.3,8,8.4,15.1c-1.3,4.8-3.3,9.3-5.1,14.3c-3.1-5-5.8-9.4-8.7-13.8C-495.4,309.4-495.4,307.2-490.2,299.8z"/>
	<path class="st1" d="M-530.1,198.4c14.6,7.6,19.2,15.9,16,29.3c-1.7-5.2-3.3-10.5-5-15.7c-0.3,0.1-0.6,0.2-0.9,0.4
		c0.9,5.3,1.8,10.5,2.9,16.8c-7.8-3.9-11.5-9-11.8-16.6C-529.1,207.7-529.7,202.9-530.1,198.4z"/>
	<path class="st1" d="M-538.4,304.3c-1.1-13.5,3.4-22,12.4-21c-2.6,2.6-5.1,5.3-7.7,7.9c0.3,0.3,0.5,0.6,0.8,1
		c3.4-2.4,6.8-4.9,10.5-7.5c1.6,7-0.2,10.9-5.3,13.6C-531.3,300.2-534.8,302.3-538.4,304.3z"/>
	<path class="st1" d="M-300.3,303.6c-13.7,0.6-20.7-2.3-21.5-13.3c2.8,3,5.4,5.7,8,8.4c0.3-0.2,0.6-0.5,1-0.7
		c-2.3-3.5-4.6-7.1-7.1-10.9c8.1-1,11,0.6,14.3,6.9C-303.8,297.3-302,300.5-300.3,303.6z"/>
	<path class="st1" d="M-387.1,215.4c3,7.8,2.3,10.8-2.7,15.4c-2.9,2.6-5.5,5.5-8.1,8.1c-4-14.7-2.6-20.2,6.9-24
		c-1.9,3.5-3.6,6.6-5.3,9.6c0.4,0.2,0.7,0.5,1.1,0.7C-392.7,222-390.1,218.9-387.1,215.4z"/>
	<path class="st1" d="M-424.3,373.7c2.9,3,5.5,5.7,8.1,8.4c0.4-0.2,0.7-0.5,1.1-0.7c-1.9-2.9-3.9-5.8-5.6-8.4
		c8.8,1.1,11.2,7.7,7.7,23.5C-417.4,389-429.4,386.5-424.3,373.7z"/>
	<path class="st1" d="M-269.7,336.5c-8.3,2.3-17.3-8.3-16-19.8c1.8-16.3,11.4-27.6,24.6-36.2c3.6-2.4,7.8-4,12.2-5
		c-5.5,3.5-11.1,6.8-16.3,10.6c-11,7.9-16.4,18.9-17.4,32.2C-283.3,328-279.3,333.8-269.7,336.5z"/>
	<path class="st1" d="M-425.8,212.8c5.4-14,9.8-17.7,20.3-16.4c-3.7,1.9-7.2,3.7-10.8,5.4c0.2,0.3,0.3,0.7,0.5,1
		c3.6-1.2,7.3-2.4,11.2-3.7c-1.2,6.9-3.9,9.7-9.7,10.9C-418.2,210.9-422,211.9-425.8,212.8z"/>
	<path class="st1" d="M-232.2,207.9c-2.9,3.1-5.7,5.6-7.7,8.5c-3.2,4.6-7.2,5.3-13.1,3.4c2.7-3.1,5.2-5.9,7.6-8.7
		c-0.2-0.3-0.4-0.5-0.6-0.8c-2.7,1.9-5.4,3.7-7.9,5.5C-253,206.1-245,205.7-232.2,207.9z"/>
	<path class="st1" d="M-452.1,374.4c-10.4-2.7-12-5.5-12.2-20.8c5,6.3,16.1,6.5,14.8,18.4c-3.1-1.8-5.8-3.3-8.6-4.9
		c-0.2,0.2-0.5,0.4-0.7,0.6C-456.8,369.8-454.7,371.8-452.1,374.4z"/>
	<path class="st1" d="M-478.9,389.1c3,1.8,5.2,3.2,7.4,4.5c0.2-0.2,0.5-0.5,0.7-0.7c-1.6-1.6-3.1-3.1-4.6-4.6
		c7.6-0.2,11.4,6.6,9.2,17.2C-471.2,400.6-481.1,400.1-478.9,389.1z"/>
	<path class="st1" d="M-401.2,187.5c3.1-2.3,5.6-4.1,8-5.9c-0.1-0.3-0.3-0.5-0.4-0.8c-2.5,1.2-5.1,2.3-7.6,3.5
		c1.7-7.2,8.5-8.4,20.4-3.2C-387.6,183.6-391.1,192.7-401.2,187.5z"/>
	<path class="st1" d="M-362.5,253.9c0.8-6,6.1-10.1,12-9.4c5.9,0.8,9.8,6.2,8.8,12.3c-0.9,5.7-6.3,9.7-11.9,8.8
		C-359.4,264.8-363.3,259.6-362.5,253.9z M-360.5,254.1c-0.5,4.6,2.9,8.8,7.7,9.3c4.3,0.4,8.3-2.7,8.9-6.9c0.7-4.6-2.8-9-7.4-9.5
		C-355.7,246.4-359.9,249.7-360.5,254.1z"/>
	<path class="st1" d="M-349.4,233.5c-5.4-6.3-4.9-14.3,1.1-18.7c3.6-2.6,8.9-2.5,11.4,0.5c0.8,0.9,1.1,2.7,0.8,3.9
		c-0.2,0.7-2.2,1.4-3.2,1.2c-3.6-0.7-8-3.2-9.9,1.8c-1.1,3.1,0.1,6.9,0.2,10.4c0,0.2,0,0.3,0,0.5
		C-349,233.3-349.2,233.4-349.4,233.5z"/>
	<path class="st1" d="M-228.5,160.4c10.5,3,16,11.7,13.8,21.3c-0.3,1.4-0.8,3-1.8,4c-0.9,0.9-2.5,1-3.8,1.5c-0.3-1.2-0.8-2.3-1-3.5
		c-0.1-0.6,0.2-1.3,0.4-1.9C-217.4,172.6-218.5,165.1-228.5,160.4z"/>
	<path class="st1" d="M-326,324.4c-0.7,6.1-6.2,10.5-12.2,9.8c-5.9-0.6-10.4-6.4-9.7-12.4c0.8-6.3,6.5-10.6,12.8-9.7
		C-329.3,313-325.3,318.4-326,324.4z M-345.9,321.9c-0.6,5,3,9.6,8,10.3c4.8,0.7,9.6-3.2,10.1-8.2c0.5-4.9-3.3-9.5-8.3-10
		C-341,313.6-345.3,317-345.9,321.9z"/>
	<path class="st1" d="M-273.4,242.9c0.7-4.9,5.6-8.5,10.6-7.6c4.5,0.8,7.6,5.2,7,10c-0.6,4.9-5,8.3-9.9,7.6
		C-270.6,252.1-274.1,247.6-273.4,242.9z M-263.8,237.2c-3.6-0.4-7.6,2.6-7.7,6.3c-0.1,4,1.9,6.7,5.9,7.4c3.8,0.7,7.3-2,7.8-5.9
		C-257.2,241-259.9,237.6-263.8,237.2z"/>
	<path class="st1" d="M-484,390.1c1.3,8.5-6,8.9-9.8,12.9c0-10.1,1.6-13.1,7.4-14.1c-1.2,1.3-2.2,2.5-3.3,3.6
		c0.1,0.2,0.3,0.4,0.4,0.7C-487.7,392.2-486.1,391.3-484,390.1z"/>
	<path class="st1" d="M-489.6,285.6c-4.3-0.6-7-4.2-6.3-8.5c0.7-4.1,4.6-7.1,8.6-6.4c4,0.6,6.9,4.7,6.3,8.7
		C-481.6,283.6-485.2,286.2-489.6,285.6z M-489.4,272.1c-1.3,1.4-4,3.1-4.7,5.3c-1,3.4,1.3,6.2,5,6.6c3.4,0.4,5.9-1.4,6.3-4.9
		C-482.3,275.5-484.2,273.3-489.4,272.1z"/>
	<path class="st1" d="M-234.6,179.1c0.7-6.2,9-9.3,4.9-16.4c4.2,2.7,3.7,6.2,2.8,9.7C-227.8,175.9-229.4,178.9-234.6,179.1z"/>
	<path class="st1" d="M-584.6,254.6c-1.4-1.6-2.7-3.4-4.3-4.8c-4.2-3.7-7.1-2.8-8.4,2.7c-0.3,1.1-0.5,2.2-0.8,3.3
		c-0.5,0.1-0.9,0.3-1.4,0.4c-0.5-1.5-2-3.8-1.4-4.5c1.6-2.2,3.8-4.9,6.2-5.4c5.3-1.1,8.8,2.4,9.9,8.3
		C-584.8,254.7-584.6,254.6-584.6,254.6z"/>
	<path class="st1" d="M-341.2,322.7c2.2-1.1,3.5-2.3,4.7-2.2c0.9,0.1,2.5,2.4,2.2,3c-0.5,1.2-2.1,2.4-3.3,2.5
		C-338.4,326-339.5,324.3-341.2,322.7z"/>
</g>
<rect y="0" class="st0" width="841.9" height="595.3"/>
<g>
	<path class="st1" d="M560.8,264c-1.6,4.1-3.1,8.2-4.8,12.3c-3.7,9.1-4.2,18.5-1.4,27.8c0.7,2.3,3.6,4.7,6,5.5
		c1.4,0.4,3.8-2.3,5.1-3.3c-2.1-2.3-3.3-3.6-4.5-4.9c1.4-0.8,3.8-2.4,4.1-2.1c1.4,1.4,3.5,3.9,3,5.2c-1,2.5-3,5.2-5.3,6.5
		c-3.9,2.3-6.7-0.8-9.4-3.4c-0.8-1.8-1.6-3.7-2.4-5.5c-2.4-12.8,0.7-24.5,7.4-35.4C559.3,265.6,560.2,264.8,560.8,264
		C560.9,264,560.8,264,560.8,264z"/>
	<path class="st1" d="M550.3,250.1c0.3,0.1,0.6,0.3,0.9,0.4c-0.3-0.1-0.7-0.2-1-0.3L550.3,250.1z"/>
	<path class="st1" d="M560.8,264c0.1-0.1,0.1-0.2,0.2-0.2C561,263.8,560.9,263.9,560.8,264L560.8,264z"/>
	<path class="st1" d="M841.9,92v2.9c-2.7,0.8-5.4,1.6-8.1,2.5c-18.3,5.8-32.3,17.5-43.5,32.8c-1.1,1.5-1.7,3.6-2.1,5.5
		c-4.2,21.7-7.5,43.7-12.6,65.2c-8.4,35.4-23.3,67.7-50.5,93c-13,12.2-27,23.2-44.8,28.1c-11.3,3.1-22.6,4.1-33.9,0.5
		c-8.1-2.6-14-7.8-16.7-15.9c-1-3.1-1.1-7-0.3-10.2c1.6-5.8,8-6.9,11.8-3.2c-2.1,0.2-6.5-0.5-7.1,0.7c-1.6,3.3-2.9,7.8-1.9,11.1
		c2.4,8.1,8.4,13.3,16.5,16c12.7,4.2,25.1,1.7,37.1-2.6c8.1-2.9,15.9-6.7,22.8-13.5c-5.1,1.6-9.3,3.6-13.7,4.1
		c-5.2,0.5-10.7,0.4-15.7-0.9c-6.8-1.8-9.6-7.3-9-15.9c1.4,6.3,3.2,11.7,9,12.8c5.1,1,10.6,1.3,15.7,0.8
		c14.1-1.4,24.3-9.6,33.4-19.9c22-25,35.7-54.2,42.8-86.3c4.1-18.3,6.4-37,9.5-55.6c0.3-1.6,0-3.2-0.1-5c-4.5,0.1-5.8,3.3-6.8,6
		c-3.3,9.2-6.8,18.5-9.3,28c-4.2,16.3-7.8,32.7-11.7,49.1c-3.2,13.4-10.8,23.1-23.6,28.3c-10.6,4.4-24-1.5-28-12.3
		c-0.7-2-1.2-4.3-0.9-6.3c0.2-1.7,1.6-3.4,2.9-4.8c0.4-0.4,2.9,0.2,2.9,0.5c0.2,1.7,0.2,3.5-0.3,5.1c-1.8,5.2,0.7,11.8,7.1,14.8
		c3.9,1.9,8.6,2.2,13,3.2c0.2-0.6,0.4-1.2,0.6-1.8c-1.3-0.8-2.6-1.6-3.8-2.5c-5-3.5-6.7-11.2-3.4-16c0.6-0.9,2-1.3,3.1-2
		c0.4,1.1,1.3,2.3,1.2,3.4c-0.2,1.8-1.6,3.6-1.3,5.2c0.5,3.1,1.2,6.7,3.2,8.8c2.6,2.7,6.9,2.3,9.6-0.5c4.4-4.6,9.3-9.2,12.1-14.8
		c6.5-12.9,8.2-27.3,10.6-41.5c1.2-7.4,2.3-14.8,4.1-22.1c1.8-7.2,4.3-14.3,5.9-22c-4.4,6.2-9.2,12.2-13.1,18.8
		c-10.8,18.3-23.9,34.5-41.4,46.6c-20.5,14.1-43.6,22-68,26.1c-13.4,2.3-27,3.7-40.5,5.7c-20.6,3.1-33.2,7.2-34.8,34.5
		c-1.9-9.5,0.5-18.2,5.5-26.4c-0.4-0.2-0.7-0.5-1.1-0.7c-4.4,4.8-8.9,9.5-13.3,14.2c1.2-2.7,2.4-5.4,3.2-7.3
		c-4.4-2-8.7-3.9-12.9-5.9c1,0.3,2,0.5,2.9,1c4.8,2.4,9.7,2.3,13.7-0.9c8.3-6.6,18.2-8.7,28.3-10.3c20.5-3.2,41.2-5.7,61.6-9.6
		c17.8-3.4,34.2-10.5,49.2-21.4c-2.6,0.8-5.2,1.7-7.9,2.4c-20,5.4-38.9,1.4-57.4-6.5c-6-2.5-11.8-5.5-17.6-8.3
		c-11-5.5-23-1.1-27.8,10.3c-1.8,4.2-0.9,7.7,2.7,10.6c4.2,3.4,9.4,4.3,12.9,2c3.4-2.2,4-6.9,1-9.4c-1.2-1-3.2-1.3-4.9-1.5
		c-0.5,0-1.7,1.9-1.5,2.1c0.8,1.1,2,1.9,2.6,3.9c-1.5-0.7-4.2-1.3-4.3-2.2c-0.2-1.6,0.8-3.9,2-4.9c3-2.4,7.4-1.1,9.4,2.4
		c2.2,4,0.6,9.3-3.7,11.5c-4.4,2.3-10.1,1.4-14.5-2.1c-4.3-3.4-5.4-7.8-4-12.9c0.5-1.8,1.2-3.6,1.8-5.4c-0.4-0.3-0.8-0.5-1.2-0.8
		c-3.5,4.1-7.2,8.1-10.6,12.2c-7.9,9.6-17.9,14.8-30.3,12c-12.5-2.8-20.5-11.3-24.6-23.2c-1.8-5,0-10.2,3.7-12.5
		c3-1.8,5.8-1.6,7.9,1.4c1.5,2.2,2.9,5.1-0.1,7c-1.5,1-3.9,0.6-5.9,0.8c-0.2-1.8-0.4-3.6-0.5-5.4c0-0.6,0.5-1.2,1-2.1
		c-5.5,4.4-6.4,10.7-2.2,16.3c2.6,3.4,5.6,6.6,8.9,9.4c12.9,10.7,26.7,9.5,38-2.9c1.6-1.7,3.1-3.5,4.5-5.3
		c8.2-10.8,17.5-19.5,33.1-16.3c-2.3-11.7-8.1-22.9,0.6-33.5c1.2-1.5,3.2-2.3,4.8-3.4c0.5,0.4,1.1,0.9,1.6,1.3
		c-0.9,1.9-1.4,4.2-2.8,5.6c-8.6,8.8-5.5,18.4-2,27.9c0.5,1.4,1.9,2.9,3.3,3.6c10.1,4.7,20.2,9.2,30.4,13.8c0.3-0.4,0.5-0.7,0.8-1.1
		c-1-1.3-2.1-2.5-3.1-3.8c-5.8-7.8-3.8-17.2,4.8-21.4c3.6-1.8,7.8-2.5,11.9-3.2c1.3-0.2,3,1,4.2,2c0.4,0.3,0,2.5-0.3,2.6
		c-1.5,0.3-3.5,0.8-4.7,0.2c-3.1-1.6-5.9-1.6-8.9,0.2c-4.8,2.9-8,6.7-7.2,12.6c0.9,6.6,4.6,11.9,10.9,13.7c9.4,2.8,19.3,3,29.2,1.4
		c-2-2.2-4.8-4.1-5.4-6.5c-0.7-2.6,0-6,1.2-8.5c2.7-5.4,10.9-9.4,16.5-7.4c-2.7,1.2-4.3,1.8-5.8,2.6c-2.3,1.1-4.9,1.9-6.8,3.5
		c-2.9,2.5-4.4,5.9-2.5,9.8c2,4.1,6.1,5.3,9.7,4.2c5.3-1.7,10.6-4.1,15.1-7.2c18-12.3,31.2-29.3,43.5-47c10.4-15,20.7-29.8,35-41.4
		c0.6-0.5,1-1.2,2.5-3c-13.2,4.9-25.4,7.7-38.1,7.5c-31-0.5-61.5-3.7-90.4-15.9c-3.5-1.5-7.3-2.4-10.9-3.5
		c-8.6-2.5-17.3,0.6-20.9,7.3c-2.1,3.8-2.1,7.7,0.4,11.3c1.9,2.7,4.3,4.4,8.4,3.4c-0.5-1.2-1.3-2.1-1.2-2.9c0.1-2,0-4.7,1.1-5.6
		c1.3-1.1,4.2-1.2,5.9-0.5c1.2,0.5,2.2,3.2,2,4.9c-0.7,6.3-7.8,9.5-13.3,6.5c-6.8-3.8-8.7-13.8-3.7-19.9c4.6-5.5,10.4-8.2,17.6-7.4
		c2.8,0.3,5.5,0.8,8.6,0.8c-12.4-8.3-19.1-21.6-28.8-32c-4.4-4.8-10.3-8.4-16-11.5c-1.9-1.1-5.9,0.5-8.3,2c-0.9,0.5,0.1,4.1,0.2,6.3
		c0.5,0,1,0.1,1.5,0.1c1-1,2-1.9,3-2.9c0.5,0.1,1.1,0.2,1.6,0.2c-0.2,2.1-0.4,4.1-0.6,6.2c-2-0.4-4.7-0.1-6-1.3
		c-4.7-4.5-2.7-11.5,3.7-12.3c3.3-0.5,7.7,0.1,10.2,2.1c6.3,4.8,13,9.8,17.4,16.2c18.9,27.7,46,39.8,78.1,43.3
		c4.3,0.5,8.6,0.7,12.9,1c0.6,0,1.2-0.2,2.7-0.6c-11.2-6.1-19.4-14.1-24.7-24.8c-7.3-14.8-3.6-33.4,9-43.5c2.4-1.9,5.4-3.8,8.3-4.1
		c2.5-0.2,5.5,1.5,7.6,3.2c0.5,0.5-1,4.6-2.5,6.1c-2.2,2.2-5,3.8-7.8,5.3c-13.9,7.4-19,23.1-6.1,41.4c-0.2-3.4-0.9-6.9-0.5-10.3
		c1.2-8.5,10.6-17.1,19.2-18c1.1-0.1,2.6-0.3,3.4,0.3c1.8,1.1,3.4,2.7,5.1,4.1c-1.6,1.5-2.9,3.5-4.8,4.2c-3.2,1.2-6.8,1.5-10.2,2.5
		c-9.2,2.6-13,11.8-8.1,20.2c3.6,6.2,9.6,9.5,15.8,12.5c3,1.4,5.8,3.2,8.7,4.8c0.3-0.7,0.7-1.4,1-2.1c-0.9-0.7-1.9-1.5-2.8-2.2
		c0.1-0.2,0.2-0.4,0.2-0.5c12.9,5.3,26,5.3,39,0.7c12.1-4.3,23.9-9.2,36-13.4c7.7-2.6,15.7-4.5,23.6-6.4C841,92,841.4,91.9,841.9,92
		z"/>
	<path class="st1" d="M783.4,84.8c5.6,5.2,11.1,10.4,17.2,16c-10.9,3.7-18.3,1.8-24.3-5.6c-2.3-2.8-4.3-6-6.9-8.5
		c-2.4-2.4-5.4-4.2-7.9-6.1c3.3-1.8,18.6-3.1,24.9-1.8C796.6,80.9,799,90,803,97.7C797,92.2,791.7,85.8,783.4,84.8z"/>
	<path class="st1" d="M800.3,243c-5.8-3.2-10.6-6.7-15.9-8.6c-8.2-2.9-8.9-9.1-9.4-17.5c5.8,3.2,10.6,5.8,15.8,8.6
		c-1.7-6.1-7.6-7.3-11.6-10.6c6.6-1.9,14.2,1.7,16.8,8.1c1,2.5,1.8,5,2.4,7.6C799.1,234.7,799.6,238.7,800.3,243z"/>
	<path class="st1" d="M737.2,169.8c-8.5,4.7-14,3.8-19.8-1.8c-4.1-3.9-8.6-7.4-12.6-10.8c15.4-8.3,27.3-5.4,34.4,9.9
		c-5.5-3.3-9.5-8.7-16.9-8.3C727.4,162.7,732,166,737.2,169.8z"/>
	<path class="st1" d="M654.5,240.8c4.7,2.3,9,4.5,13.3,6.7c0.2-0.3,0.5-0.6,0.7-0.9c-3.5-2.7-7-5.4-10.3-7.9c6.9-1.5,13,1.6,15,8.7
		c1.4,4.7,1.9,9.7,2.9,14.9c-5.2-2.7-9.8-5.2-14.5-7.4C655.1,251.7,654,249.8,654.5,240.8z"/>
	<path class="st1" d="M568.5,174c16.4-1,24.6,3.8,28.7,17c-4.1-3.6-8.2-7.3-12.3-10.9c-0.2,0.3-0.4,0.5-0.6,0.8
		c3.5,4.1,7,8.1,11.1,12.9c-8.7,0.6-14.5-1.9-18.6-8.3C574.1,181.5,571.1,177.7,568.5,174z"/>
	<path class="st1" d="M615.4,269.3c-7.8-11.1-8.3-20.6,0-24.4c-0.9,3.6-1.7,7.2-2.6,10.7c0.4,0.1,0.8,0.3,1.2,0.4
		c1.7-3.8,3.4-7.7,5.2-11.9c4.9,5.2,5.4,9.4,2.4,14.5C619.5,262.1,617.5,265.7,615.4,269.3z"/>
	<path class="st1" d="M819.8,147c-11.4,7.5-18.9,8.6-25.2-0.4c3.9,1.1,7.6,2.1,11.2,3.1c0.1-0.4,0.3-0.7,0.4-1.1
		c-3.8-1.9-7.6-3.7-11.7-5.7c6.4-4.9,9.8-5.1,15.8-1.4C813.5,143.4,816.8,145.2,819.8,147z"/>
	<path class="st1" d="M700.1,115.5c6.6,5.1,7.5,8.1,5.6,14.6c-1.1,3.7-1.9,7.5-2.9,11.1c-11-10.5-12.6-16-6.4-24.1
		c0.1,4,0.2,7.5,0.3,11c0.4,0,0.9,0,1.3,0C698.7,124.1,699.3,120,700.1,115.5z"/>
	<path class="st1" d="M749,270.6c4.1,1.1,7.7,2.1,11.3,3c0.2-0.4,0.4-0.8,0.6-1.2c-3.1-1.5-6.3-3-9.1-4.4
		c8.1-3.5,13.6,0.9,18.6,16.3C762.7,280.2,751.2,284.2,749,270.6z"/>
	<path class="st1" d="M838,116c-5.4,12.4-4.5,24.6,1.5,36.6c0.7,1.4,1.5,2.8,2.4,3.9v3.8c-2.4-1.9-4.5-4.5-5.9-7.6
		c-6.8-15-4.3-29.6,2.7-43.7c0.9-1.8,2-3.6,3.2-5.2v4C840.5,110.6,839.2,113.3,838,116z"/>
	<path class="st1" d="M665.5,133.1c-2.6-14.8-0.6-20.2,9-24.4c-2.2,3.5-4.3,6.8-6.5,10.2c0.3,0.2,0.6,0.4,0.9,0.6
		c2.5-2.9,5-5.8,7.7-8.9c2.5,6.5,1.6,10.3-2.8,14.3C671.1,127.5,668.3,130.3,665.5,133.1z"/>
	<path class="st1" d="M725.5,285.5c-10.3,2.9-13.1,1.4-21.1-11.6c7.5,2.9,17.2-2.7,22.1,8.3c-3.5,0.1-6.7,0.1-9.9,0.2
		c-0.1,0.3-0.2,0.6-0.3,0.9C719.1,283.9,721.9,284.6,725.5,285.5z"/>
	<path class="st1" d="M709.9,311.7c3.5,0,6.1,0.1,8.7,0.1c0.1-0.3,0.2-0.7,0.2-1c-2.1-0.5-4.3-1.1-6.3-1.6c6.4-4,13.2-0.1,16.7,10.1
		C722.5,317.6,713.7,322.3,709.9,311.7z"/>
	<path class="st1" d="M673.7,98.8c1.5-3.6,2.7-6.4,3.9-9.2c-0.2-0.2-0.5-0.3-0.7-0.5c-1.6,2.3-3.2,4.6-4.8,6.9
		c-2.2-7.1,3-11.5,15.9-13.2C683.4,88.5,685.1,98,673.7,98.8z"/>
	<path class="st1" d="M760.3,127.9c-2.3-5.7-8.4-8.4-13.9-6.1c-5.5,2.3-7.9,8.6-5.5,14.2c2.2,5.3,8.2,7.8,13.7,5.6
		C759.9,139.5,762.5,133.3,760.3,127.9z M754.2,139.2c-4.4,2-9.5,0.2-11.4-4c-1.8-4,0.2-9,4.3-10.9c4.2-1.9,9.4,0.1,11.2,4.4
		C759.9,132.6,758.1,137.4,754.2,139.2z"/>
	<path class="st1" d="M741.8,111.8c-7.9-2.7-11.5-9.8-8.6-16.7c1.7-4.1,6.4-6.7,10-5.4c1.2,0.4,2.4,1.8,2.7,2.9
		c0.2,0.7-1.2,2.3-2.2,2.7c-3.5,1.3-8.6,1.3-7.5,6.6c0.6,3.2,3.6,5.9,5.5,8.9c0.1,0.1,0.2,0.3,0.3,0.4
		C741.9,111.4,741.9,111.6,741.8,111.8z"/>
	<path class="st1" d="M808.3,178c-2.5-5.5-8.6-8.1-14.1-5.8c-5.9,2.5-8.6,9.1-6.1,14.8c2.4,5.5,9.2,8.2,14.6,5.7
		C808.3,190.2,810.8,183.6,808.3,178z M802.1,190.9c-4.6,2-10.1-0.2-12.1-4.8c-2-4.5-0.1-9.7,4.4-11.8c4.6-2.1,10.2-0.1,12.2,4.4
		C808.6,183.2,806.5,189,802.1,190.9z"/>
	<path class="st1" d="M828.2,74.1c-1.9-4.4-6.9-6.6-11.1-5c-4.6,1.8-7.1,7.3-5.2,11.9c1.8,4.4,7.1,6.5,11.7,4.6
		C828.1,83.8,830.2,78.6,828.2,74.1z M822.7,83.9c-3.8,1.4-7,0.2-8.9-3.4c-1.8-3.2,0.1-7.8,3.4-9.3c3.6-1.6,7.6,0,9.2,3.6
		C828,78.4,826.4,82.6,822.7,83.9z"/>
	<path class="st1" d="M706,315.2c5.5,6.6-0.6,10.7-1.9,16.1c-5.1-8.7-5.3-12.1-0.9-15.9c-0.4,1.8-0.7,3.3-1,4.8
		c0.2,0.1,0.5,0.2,0.7,0.3C703.9,318.9,704.8,317.3,706,315.2z"/>
	<path class="st1" d="M652.1,218.5c-1.6-3.8-6.1-5.8-9.8-4.3c-3.8,1.5-5.6,6-4.1,9.9c1.6,4,5.7,5.7,9.7,4
		C652,226.5,653.7,222.5,652.1,218.5z M647.5,226.7c-3.4,1.5-6.7,0.3-7.6-3.1c-0.6-2.3,0.9-5.2,1.3-7c5.1-1.7,7.8-0.7,9.3,2.7
		C651.8,222.5,650.6,225.3,647.5,226.7z"/>
	<g>
		<path class="st1" d="M841.9,69.4v1.8c-1.1,0.2-2.3,0.3-3.3,0.2c-17.3-2.7-31.9-9.9-40.7-25.8c-7.6-13.7-6.2-32.1,1.8-45.6h2.2
			c-9.3,15-8.8,35.6,1.6,49.9c0.2,0.3,0.5,0.5,1.1,1c-1.1-5.5-2.4-10.5-3.1-15.5c-0.6-4.2,0.2-8.3,4.9-9.8c1.4-0.5,3.6-0.2,4.8,0.7
			c1,0.7,1.2,2.7,1.7,4.1c-0.4,0.2-0.8,0.3-1.2,0.5c-0.5-0.5-1.1-1-1.3-1.6c-1.2-3.4-3.6-4.1-5.5-1.1c-1.3,2.1-2.3,5.1-2,7.5
			c2.3,19.8,8.2,26.8,28.8,32c2.5,0.6,5.1,0.6,7.6,1C840.2,68.8,841.1,69.1,841.9,69.4z"/>
		<path class="st1" d="M841.9,0v15.7c-1.5-0.3-2.8-1.6-3.1-3.9c-0.4-2.7,0.1-5.9,1.1-8.5c0.5-1.2,0.8-2.3,1.1-3.3H841.9z"/>
		<path class="st1" d="M770.2,59.8c7.2-12.2,11-14.3,22.9-11.6c-4.6,1.2-8.6,2.2-12.5,3.3c0.1,0.4,0.2,0.8,0.2,1.1
			c4.5-0.7,9-1.3,13.7-2c-1.4,5.4-4,7.7-9,8.1C780.4,59.1,775.2,59.5,770.2,59.8z"/>
		<path class="st1" d="M837.7,43.7c0.3,3.3,0.2,6.1,0.9,8.8c1,4.2-0.7,6.8-4.8,9.2c-0.4-3.2-0.7-6-1-8.8c-0.3,0-0.5-0.1-0.8-0.1
			c-0.3,2.5-0.7,5-1,7.3C825.9,54.7,829.8,49.9,837.7,43.7z"/>
		<path class="st1" d="M812.5,17c7.1-4.5,15-3,19.3,3.2c0.6,0.9,1.3,2,1.3,3.1c0,1-0.7,2-1.1,3c-0.8-0.4-1.7-0.8-2.5-1.3
			c-0.4-0.3-0.6-0.8-0.9-1.2C825.2,17,820.4,13.7,812.5,17z"/>
		<path class="st1" d="M820,30.1c-3.2-3.6-0.6-10-6.8-11.3c3.7-1,5.5,1.1,7,3.5C821.7,24.6,822.7,27.1,820,30.1z"/>
	</g>
	<path class="st1" d="M550.3,250.1c-2-0.7-4-1.5-6.1-1.9c-5.5-1.1-7.5,1.2-5.8,6.6c0.3,1.1,0.7,2.2,1,3.2c-0.3,0.4-0.6,0.7-1,1.1
		c-1.2-1-3.6-2.2-3.5-3.1c0.3-2.7,0.8-6.2,2.6-7.8c4-3.6,8.8-2.5,12.8,2.1C550.3,250.3,550.3,250.1,550.3,250.1z"/>
	<path class="st1" d="M794.4,184.3c1.3-2.1,1.8-3.8,2.9-4.3c0.8-0.4,3.3,0.8,3.4,1.4c0.2,1.3-0.6,3.1-1.6,3.9
		C798.5,185.7,796.7,184.8,794.4,184.3z"/>
	<g>
		<path class="st1" d="M830.2,217.5c-1.6,3.5-0.8,5.6,2.3,7.2c2.8,1.4,6.9,0.3,8.4-2.3c1.4-2.5,0.6-5.1-2.1-5.8
			c-0.1,0.4,0,0.9-0.2,1.2c-0.6,0.8-1.3,2.3-2,2.2c-1-0.1-2.3-0.9-2.8-1.8c-0.3-0.5,0.3-2.3,0.9-2.6c1.5-0.7,3.5-1.5,4.7-1
			c0.9,0.4,1.7,1.2,2.3,2.1v6.5c-0.3,0.3-0.6,0.7-1,0.9c-2.5,1.9-5.4,2.5-8.4,1.5c-2.6-0.9-4.3-3.1-3.8-5.9c0.5-2.7,1.8-5.2,2.9-7.7
			c0.7-1.6,1.8-3,2.8-4.5c-0.2-0.2-0.5-0.5-0.7-0.7c-2.4,1.7-4.9,3.3-7.1,5.2c-3.4,2.9-6.6,6.1-8,10.5c-0.7,2.2-0.8,4.4,1,6.1
			c1.6,1.5,2.8-0.1,4.2-0.8c0.5-0.3,1.4,0,2.1,0c-0.1,0.7,0,1.6-0.4,2.1c-1.2,1.4-2.9,1.9-4.7,1c-2.9-1.3-4.1-3.6-3.8-6.8
			c-1.6,3.6-2.4,7-1.3,10.7c1.3,4.2,4.7,5.8,8.6,3.8c1.5-0.7,2.7-2,4.1-2.7c1-0.5,2.3-0.5,3.5-0.7c-0.3,1.2-0.3,2.8-1,3.6
			c-3,3.1-9.6,5-13.9,0.4c-0.3-0.4-0.8-0.6-1.3-1c0.2,1.2,0.7,2.1,1.2,3c4,6.9,8.3,8.5,15.8,5.9c1.2-0.4,2.4-0.7,3.5-0.8
			c0.8,0,2,0.2,2.3,0.7c0.4,0.7,0.3,2-0.1,2.6c-0.7,0.9-1.7,1.8-2.8,2.2c-2,0.6-4.1,0.7-6.2,1.1c-1.4-0.3-2.7-0.6-4.1-0.9
			c-3.9-2.1-7.4-4.8-9.2-8.9c-3.9-8.7-3.1-17,2.6-24.5c3.2-4.2,7.5-7.5,11.2-11.3c0.4-0.4,0.7-0.8,1.5-1.5c-6.3,0-11.8-1.3-17-4.1
			c0.8-0.1,1.6,0.1,2.4,0.2c1.9,0.4,3.7,1,5.6,1.3c7.1,1,13.6-0.1,19.4-3.1v3.5C837,207.6,832.9,211.9,830.2,217.5z"/>
		<path class="st1" d="M841.9,198.9c-3.8-1.2-4.5-3.1-3.8-8.7c0.9,1.3,2.5,2,3.8,3v3.9c-0.6-0.4-1.1-0.8-1.7-1.1
			c-0.1,0.1-0.2,0.2-0.3,0.3c0.6,0.7,1.2,1.3,1.9,2.1V198.9z"/>
	</g>
</g>
<line class="st2" x1="841.9" y1="198.9" x2="841.9" y2="198.3"/>
</svg>
